<svg xmlns="http://www.w3.org/2000/svg" width="259.753" height="103.033" viewBox="0 0 259.753 103.033"><g transform="translate(-555.624 -218.983)"><g transform="translate(-208.5 -490.605)"><g transform="translate(765.5 710.605)"><g transform="translate(0 1.283)"><path d="M765.5,716.79a49.343,49.343,0,0,0,34.817,6.8c10.877-2,21.393-7.765,32.376-6.9,11.274.883,21.226,8.589,31.8,13.318s24.165,5.66,31.574-4.465a12.593,12.593,0,0,0,2.7-8.017c-.184-2.947-2.2-5.834-4.687-5.823" transform="translate(-765.5 -711.699)" fill="none" stroke="#a48661" stroke-linecap="round" stroke-linejoin="round" stroke-width="2"/><path d="M1023.914,716.79a49.344,49.344,0,0,1-34.817,6.8c-10.877-2-21.393-7.765-32.376-6.9-11.274.883-21.226,8.589-31.8,13.318s-24.166,5.66-31.574-4.465a12.594,12.594,0,0,1-2.7-8.017c.185-2.947,2.2-5.834,4.688-5.823" transform="translate(-766.914 -711.699)" fill="none" stroke="#a48661" stroke-linecap="round" stroke-linejoin="round" stroke-width="2"/></g><g transform="translate(40.52)"><path d="M806.473,729.457c3.628-14.464,16.022-20,27.8-18.659a49.141,49.141,0,0,1,17.5,5.672c6.243,3.341,12.414,10.646,19.5,10.653a7.045,7.045,0,0,0,5.475-2.377,6.532,6.532,0,0,0,1.063-6.509,3.766,3.766,0,0,0-5.9-1.5,5.531,5.531,0,0,0-.223,7.162" transform="translate(-806.473 -710.605)" fill="none" stroke="#a48661" stroke-linecap="round" stroke-linejoin="round" stroke-width="2"/><path d="M983.673,729.457c-3.628-14.464-16.022-20-27.8-18.659a49.152,49.152,0,0,0-17.5,5.672c-6.242,3.341-12.413,10.646-19.5,10.653a7.048,7.048,0,0,1-5.475-2.377,6.534,6.534,0,0,1-1.062-6.509,3.766,3.766,0,0,1,5.9-1.5,5.531,5.531,0,0,1,.223,7.162" transform="translate(-807.712 -710.605)" fill="none" stroke="#a48661" stroke-linecap="round" stroke-linejoin="round" stroke-width="2"/></g></g><g transform="translate(765.5 788.6)"><path d="M765.5,777.719a49.332,49.332,0,0,1,34.817-6.8c10.877,2,21.393,7.763,32.376,6.9,11.274-.885,21.226-8.59,31.8-13.318s24.165-5.661,31.574,4.465a12.591,12.591,0,0,1,2.7,8.017c-.184,2.947-2.2,5.833-4.687,5.822" transform="translate(-765.5 -761.087)" fill="none" stroke="#a48661" stroke-linecap="round" stroke-linejoin="round" stroke-width="2"/><path d="M1023.914,777.719a49.332,49.332,0,0,0-34.817-6.8c-10.877,2-21.393,7.763-32.376,6.9-11.274-.885-21.226-8.59-31.8-13.318s-24.166-5.661-31.574,4.465a12.591,12.591,0,0,0-2.7,8.017c.185,2.947,2.2,5.833,4.688,5.822" transform="translate(-766.914 -761.087)" fill="none" stroke="#a48661" stroke-linecap="round" stroke-linejoin="round" stroke-width="2"/><g transform="translate(40.52 4.154)"><path d="M806.473,764.628c3.628,14.463,16.022,20,27.8,18.658a49.118,49.118,0,0,0,17.5-5.672c6.243-3.341,12.414-10.646,19.5-10.653a7.046,7.046,0,0,1,5.475,2.377,6.532,6.532,0,0,1,1.063,6.509,3.766,3.766,0,0,1-5.9,1.5,5.531,5.531,0,0,1-.223-7.162" transform="translate(-806.473 -764.628)" fill="none" stroke="#a48661" stroke-linecap="round" stroke-linejoin="round" stroke-width="2"/><path d="M983.673,764.628c-3.628,14.463-16.022,20-27.8,18.658a49.129,49.129,0,0,1-17.5-5.672c-6.242-3.341-12.413-10.646-19.5-10.653a7.048,7.048,0,0,0-5.475,2.377,6.534,6.534,0,0,0-1.062,6.509,3.766,3.766,0,0,0,5.9,1.5,5.531,5.531,0,0,0,.223-7.162" transform="translate(-807.712 -764.628)" fill="none" stroke="#a48661" stroke-linecap="round" stroke-linejoin="round" stroke-width="2"/></g></g></g><path d="M-101.385-6.51h3.21V-7.86h-3.21v-15h-2.79l-10.5,14.91v1.44h9.69v2.13c0,1.44-.18,2.22-.63,2.55-.36.3-.69.36-2.1.42V-.6h9.03v-.84c-2.31-.03-2.7-.45-2.7-2.94Zm-3.6-1.35h-8.34l8.34-11.88Zm10.11-3.72a15.487,15.487,0,0,0,2.19,8.49,6.837,6.837,0,0,0,5.82,2.97,6.821,6.821,0,0,0,5.79-2.97,15.031,15.031,0,0,0,2.19-8.49,15.2,15.2,0,0,0-2.19-8.52,6.869,6.869,0,0,0-5.79-2.94,6.885,6.885,0,0,0-5.82,2.94A15.273,15.273,0,0,0-94.875-11.58Zm3.99,0c0-7.44,1.23-10.71,4.02-10.71,1.41,0,2.4.84,3.06,2.61.66,1.71.96,4.2.96,8.1a25.86,25.86,0,0,1-.78,7.59c-.66,2.1-1.71,3.12-3.24,3.12q-2.07,0-3.06-2.61C-90.585-5.19-90.885-7.77-90.885-11.58Zm27.54,5.07h3.21V-7.86h-3.21v-15h-2.79l-10.5,14.91v1.44h9.69v2.13c0,1.44-.18,2.22-.63,2.55-.36.3-.69.36-2.1.42V-.6h9.03v-.84c-2.31-.03-2.7-.45-2.7-2.94Zm-3.6-1.35h-8.34l8.34-11.88Zm24.39-11.76L-29.175-.48h2.22V-17.25a7.675,7.675,0,0,1,.63-3.84c.48-.78,1.11-1.08,2.55-1.14v-.81h-7.59v.81c1.53.09,2.16.36,2.61,1.14.42.69.57,1.8.57,4.05V-5.76l-12.24-17.28h-6.27v.78c2.4.18,2.91.81,2.91,3.75V-6.6c0,4.08-.63,5.07-3.18,5.19V-.6h7.53v-.81c-2.58-.15-3.12-.99-3.12-4.95ZM-21.4-8.31a8.851,8.851,0,0,0,2.07,5.91,7.65,7.65,0,0,0,5.64,2.28,7.991,7.991,0,0,0,5.94-2.43,9.13,9.13,0,0,0,1.98-5.94c0-4.98-3.06-8.22-7.77-8.22a7.72,7.72,0,0,0-5.61,2.13A9.247,9.247,0,0,0-21.4-8.31Zm4.05-.15a13.253,13.253,0,0,1,.96-5.82,2.972,2.972,0,0,1,2.79-1.74c2.61,0,3.81,2.4,3.81,7.65,0,5.22-1.17,7.56-3.78,7.56C-16.155-.81-17.355-3.27-17.355-8.46ZM2.655-15.3h3.63v-.96H2.655c0-2.73.03-3.66.09-4.89l-1.5.15a8.143,8.143,0,0,1-1.11,3.21,3.188,3.188,0,0,1-2.85,1.59v.9h1.71v9.36c0,2.67.09,3.39.45,4.14A3.612,3.612,0,0,0,2.835-.15a6.157,6.157,0,0,0,4.11-1.5l-.42-.75a3.566,3.566,0,0,1-2.1.93,1.626,1.626,0,0,1-1.47-1.11,8.281,8.281,0,0,1-.3-2.7Zm23.13,3.48H28.1c3.24,0,3.96.6,4.32,3.51h.96v-7.83h-.96c-.3,2.79-1.14,3.45-4.32,3.45h-2.31v-9.48h2.79c4.14,0,5.79,1.38,6.51,5.43l1.05-.09-.45-6.21H19.215v.78c2.4.03,2.7.36,2.7,3.12V-4.5c0,2.76-.24,3.03-2.7,3.12V-.6h9.39v-.78c-2.52-.06-2.82-.39-2.82-3.12Zm13.14,3.51a8.851,8.851,0,0,0,2.07,5.91,7.65,7.65,0,0,0,5.64,2.28,7.991,7.991,0,0,0,5.94-2.43,9.13,9.13,0,0,0,1.98-5.94c0-4.98-3.06-8.22-7.77-8.22a7.72,7.72,0,0,0-5.61,2.13A9.247,9.247,0,0,0,38.925-8.31Zm4.05-.15a13.253,13.253,0,0,1,.96-5.82,2.972,2.972,0,0,1,2.79-1.74c2.61,0,3.81,2.4,3.81,7.65,0,5.22-1.17,7.56-3.78,7.56C44.175-.81,42.975-3.27,42.975-8.46ZM74.5-.6v-.69c-1.65-.03-1.95-.51-1.95-3.12v-6.24c0-1.89,0-1.89.18-6l-6.03.39v.72c1.26.03,1.44.09,1.74.33.33.33.45.93.45,2.58v4.74a8.461,8.461,0,0,1-.57,3.57c-.72,1.62-1.86,2.52-3.24,2.52a2.019,2.019,0,0,1-2.1-1.47,10.213,10.213,0,0,1-.39-3.66V-7.5l.03-3.18c.03-2.67.09-3.81.24-5.97l-6.03.39v.72c1.35.03,1.59.12,1.86.48a4.188,4.188,0,0,1,.33,2.19c0,.09-.03.15-.03.24l-.06,6.06v.42a8.628,8.628,0,0,0,.57,3.72,4.068,4.068,0,0,0,3.87,2.25,6.5,6.5,0,0,0,5.52-3.3,29.472,29.472,0,0,0,.15,3.15Zm8.07-16.05-5.85.39v.72c1.98.03,2.22.36,2.22,2.91v8.31c0,2.67-.21,2.97-2.28,3V-.6h8.19v-.72c-2.04-.03-2.25-.3-2.25-3v-6a6.968,6.968,0,0,1,.81-3.09,3.545,3.545,0,0,1,3.09-1.98c1.86,0,2.64,1.35,2.64,4.59v6.48c0,2.64-.24,2.97-2.25,3V-.6h8.16v-.72c-2.07-.03-2.28-.33-2.28-3v-6.66a6.652,6.652,0,0,0-.75-3.69,4.259,4.259,0,0,0-4.08-2.04,5.737,5.737,0,0,0-5.34,3.03Zm23.97-6.39v.69c2.1.03,2.28.24,2.28,3.03V-15a5.526,5.526,0,0,0-4.14-1.71c-4.2,0-6.9,3.39-6.9,8.7a8.713,8.713,0,0,0,1.98,6.06,6.067,6.067,0,0,0,4.38,1.8,6.135,6.135,0,0,0,4.92-2.37l.12,2.19,5.28-.27v-.69c-.99-.03-1.14-.06-1.41-.24-.45-.36-.57-1.17-.57-3.6V-17.25c0-2.31.06-3.87.18-6.12Zm2.37,14.37c0,4.77-1.38,7.59-3.69,7.59a2.481,2.481,0,0,1-2.07-1.08c-.9-1.26-1.38-3.54-1.38-6.36,0-4.71,1.29-7.38,3.57-7.38C107.655-15.9,108.915-13.32,108.915-8.67Z" transform="translate(683 282)" fill="#fff"/></g></svg>