<svg xmlns="http://www.w3.org/2000/svg" xmlns:xlink="http://www.w3.org/1999/xlink" width="113" height="32" viewBox="0 0 113 32"><defs><clipPath id="a"><rect width="113" height="32" transform="translate(20 25)" fill="none" stroke="rgba(0,0,0,0)" stroke-width="1"/></clipPath></defs><g transform="translate(-20 -25)" clip-path="url(#a)"><path d="M-50.02-27.72l10.2,26.16h2.08l10.32-26.48V-5.96c0,3.64-.36,4.04-3.6,4.12V-.8h12.36V-1.84c-3.28-.08-3.6-.48-3.6-4.12V-25.48c0-3.72.28-4.08,3.48-4.2v-1.04h-9.16L-36.82-8.16l-8.76-22.56h-9.56v1.04c1.56.04,2.12.16,2.6.6.68.52.88,1.32.88,3.48V-8.76c0,5.36-.8,6.72-4.16,6.92V-.8h9.96V-1.84c-2-.12-2.8-.48-3.44-1.52-.52-.96-.72-2.4-.72-5.4ZM3.3-12.08A14.629,14.629,0,0,0,2.58-17c-1.32-3.44-4.2-5.28-8.28-5.28-6.08,0-10.04,4.4-10.04,11.12C-15.74-4.48-11.66-.2-5.3-.2c4.12,0,6.8-1.68,8.8-5.48l-1-.64C1.02-3.4-1.34-1.76-4.1-1.76c-2.44,0-4.28-1.32-5.44-3.96a15.66,15.66,0,0,1-1.04-6.36Zm-13.84-1.16a16.913,16.913,0,0,1,.84-4.6c.84-2.32,2.16-3.52,3.88-3.52,1.56,0,2.68,1,3.44,3.12a15.617,15.617,0,0,1,.68,5ZM13.9-22.2l-7.8.52v.96c2.64.04,2.96.48,2.96,3.88V-5.76c0,3.56-.28,3.96-3.04,4V-.8H16.94v-.96c-2.72-.04-3-.4-3-4v-8a9.29,9.29,0,0,1,1.08-4.12,4.726,4.726,0,0,1,4.12-2.64c2.48,0,3.52,1.8,3.52,6.12v8.64c0,3.52-.32,3.96-3,4V-.8H30.54v-.96c-2.76-.04-3.04-.44-3.04-4v-8.88c0-2.4-.28-3.72-1-4.92-1.04-1.84-2.84-2.72-5.44-2.72a7.65,7.65,0,0,0-7.12,4.04ZM55.54-.8v-.92c-2.2-.04-2.6-.68-2.6-4.16V-14.2c0-2.52,0-2.52.24-8l-8.04.52v.96c1.68.04,1.92.12,2.32.44.44.44.6,1.24.6,3.44v6.32a11.281,11.281,0,0,1-.76,4.76C46.34-3.6,44.82-2.4,42.98-2.4a2.692,2.692,0,0,1-2.8-1.96,13.618,13.618,0,0,1-.52-4.88V-10l.04-4.24c.04-3.56.12-5.08.32-7.96l-8.04.52v.96c1.8.04,2.12.16,2.48.64a5.585,5.585,0,0,1,.44,2.92c0,.12-.04.2-.04.32l-.08,8.08v.56a11.5,11.5,0,0,0,.76,4.96,5.424,5.424,0,0,0,5.16,3,8.662,8.662,0,0,0,7.36-4.4,39.3,39.3,0,0,0,.2,4.2Z" transform="translate(76 56)" fill="#fff"/><g transform="translate(20 25)" fill="none" stroke="rgba(0,0,0,0)" stroke-width="1"><rect width="113" height="32" stroke="none"/><rect x="0.5" y="0.5" width="112" height="31" fill="none"/></g></g></svg>