<svg id="レイヤー_1" data-name="レイヤー 1" xmlns="http://www.w3.org/2000/svg" viewBox="0 0 259 103"><defs><style>.cls-1{fill:none;stroke:#a48661;stroke-linecap:round;stroke-linejoin:round;stroke-width:2px;}.cls-2{fill:#fff;}</style></defs><path class="cls-1" d="M1.38,7.39a49.34,49.34,0,0,0,34.81,6.8c10.88-2,21.4-7.76,32.38-6.9,11.27.88,21.23,8.59,31.8,13.32s24.16,5.66,31.57-4.47a12.57,12.57,0,0,0,2.7-8c-.18-3-2.2-5.84-4.68-5.83" transform="translate(-0.38 -0.02)"/><path class="cls-1" d="M258.38,7.39a49.36,49.36,0,0,1-34.82,6.8c-10.88-2-21.39-7.76-32.38-6.9-11.27.88-21.22,8.59-31.8,13.32s-24.16,5.66-31.57-4.47a12.57,12.57,0,0,1-2.7-8c.18-3,2.2-5.84,4.69-5.83" transform="translate(-0.38 -0.02)"/><path class="cls-1" d="M41.9,19.87c3.62-14.47,16-20,27.8-18.66A49.29,49.29,0,0,1,87.2,6.88c6.24,3.34,12.41,10.65,19.5,10.65a7,7,0,0,0,5.47-2.37,6.51,6.51,0,0,0,1.06-6.51,3.76,3.76,0,0,0-4.89-2.1,4,4,0,0,0-1,.6,5.53,5.53,0,0,0-.22,7.16" transform="translate(-0.38 -0.02)"/><path class="cls-1" d="M217.86,19.87c-3.63-14.47-16-20-27.8-18.66a49.16,49.16,0,0,0-17.5,5.67c-6.24,3.34-12.42,10.65-19.5,10.65a7.06,7.06,0,0,1-5.48-2.37,6.54,6.54,0,0,1-1.06-6.51,3.77,3.77,0,0,1,4.9-2.1,3.91,3.91,0,0,1,1,.6,5.53,5.53,0,0,1,.22,7.16" transform="translate(-0.38 -0.02)"/><path class="cls-1" d="M1.38,95.64a49.34,49.34,0,0,1,34.81-6.8c10.88,2,21.4,7.77,32.38,6.9,11.27-.88,21.23-8.59,31.8-13.31s24.16-5.67,31.57,4.46a12.58,12.58,0,0,1,2.7,8c-.18,2.94-2.2,5.83-4.68,5.82" transform="translate(-0.38 -0.02)"/><path class="cls-1" d="M258.38,95.64a49.36,49.36,0,0,0-34.82-6.8c-10.88,2-21.39,7.77-32.38,6.9-11.27-.88-21.22-8.59-31.8-13.31s-24.16-5.67-31.57,4.46a12.58,12.58,0,0,0-2.7,8c.18,2.94,2.2,5.83,4.69,5.82" transform="translate(-0.38 -0.02)"/><path class="cls-1" d="M41.9,83.17c3.62,14.46,16,20,27.8,18.65a49.09,49.09,0,0,0,17.5-5.67c6.24-3.34,12.41-10.64,19.5-10.65a7,7,0,0,1,5.47,2.38,6.49,6.49,0,0,1,1.06,6.5,3.76,3.76,0,0,1-4.89,2.1,3.7,3.7,0,0,1-1-.6,5.53,5.53,0,0,1-.22-7.16" transform="translate(-0.38 -0.02)"/><path class="cls-1" d="M217.86,83.17c-3.63,14.46-16,20-27.8,18.65a49,49,0,0,1-17.5-5.67c-6.24-3.34-12.42-10.64-19.5-10.65a7,7,0,0,0-5.48,2.38,6.52,6.52,0,0,0-1.06,6.5,3.77,3.77,0,0,0,4.9,2.1,3.64,3.64,0,0,0,1-.6,5.53,5.53,0,0,0,.22-7.16" transform="translate(-0.38 -0.02)"/><path class="cls-2" d="M45.58,39.26c.75-.76,1-1,1.84-1.72,1.33,1,1.72,1.36,3,2.47.12.16.18.25.18.34,0,.36-.46.57-1.63.75a28,28,0,0,1-5.31,5.7,21.52,21.52,0,0,0,5.1,1.82,37.63,37.63,0,0,0,7.15.84v.3a3.68,3.68,0,0,0-1.75,1.81,5.26,5.26,0,0,0-.51,1.36c-.06.3-.13.36-.31.36a25.17,25.17,0,0,1-5-1.57,22.16,22.16,0,0,1,2.18,1.67c.15.15.21.24.21.36,0,.27-.18.39-1,.75v3.77s0,1.54.09,4.59c-.06.3-.15.45-.39.54a6.43,6.43,0,0,1-1.87.19c-.82,0-1.06-.12-1.06-.58V61.75H36.31v1c-.06.6-.33.7-1.69.73-.39,0-.66,0-.69,0h-.12c-.64,0-.85-.12-.88-.55.15-5.67.15-5.67.15-8.12A19.56,19.56,0,0,0,33,52.63,28.31,28.31,0,0,1,27.5,54l-.12-.3a40.76,40.76,0,0,0,12.73-7.43,17.89,17.89,0,0,1-3.2-4.5,23.25,23.25,0,0,1-8.23,6l-.16-.21a28.67,28.67,0,0,0,5.89-7,19.78,19.78,0,0,0,2.41-5c.94.21,1.66.36,2.12.48,2.14.45,2.65.63,2.65,1s-.12.33-1.51.6c-.54.78-.66.94-1.11,1.57ZM46.33,53c.67-.72.79-.81,1.51-1.51a20.51,20.51,0,0,1-5.76-3.41,31.74,31.74,0,0,1-7.43,4c.42.18,1.09.51,2,.93Zm-10,8.12H46.54V53.63H36.31Zm2.14-21.22c-.48.61-.69.91-1.2,1.48a14.94,14.94,0,0,0,3.92,3.9,22.28,22.28,0,0,0,4.41-5.38Z" transform="translate(-0.38 -0.02)"/><path class="cls-2" d="M83.76,43.91A34.91,34.91,0,0,1,82.49,50a20.17,20.17,0,0,1-2.62,5.5,16.12,16.12,0,0,0,6.73,4v.3a3.68,3.68,0,0,0-2.11,1.75,8.78,8.78,0,0,0-.55,1.21c-.06.21-.15.3-.3.3a2.93,2.93,0,0,1-1.12-.6,16.32,16.32,0,0,1-4.31-4.86,19,19,0,0,1-4.35,3.5A22.42,22.42,0,0,1,68,63.56l-.12-.25A30.5,30.5,0,0,0,73.65,59a21.6,21.6,0,0,0,3.26-3.93,24.67,24.67,0,0,1-2-7.06,23.58,23.58,0,0,1-3.71,4.65l-.28-.15c.58-1,.73-1.33,1.18-2.29-.24,0-.33.06-.63.09-.42.21-.76.39-1,.51-1.36.69-1.54.78-2.26,1.12l-.58.27c.64.09.94.24.94.45s-.27.39-.87.6v1c1.62-.24,2.92-.48,5.37-1l.06.31c-2.33,1-3.32,1.44-5.43,2.17V58.3c0,.06,0,.52,0,1.15v1.21c0,.18,0,.48,0,.84-.13,1-.52,1.45-1.75,1.81a9.24,9.24,0,0,1-2.15.37c-.21,0-.3-.09-.33-.33-.12-1-.24-1.3-.66-1.66a6.65,6.65,0,0,0-3-1.09l0-.36c2.47.15,2.47.15,3.92.21H64c.58,0,.67-.09.67-.61v-3c-.67.24-1.12.39-2.33.75L60.73,58l-.51.18c-.09.28-.15.52-.21.67-.09.33-.21.48-.39.48s-.25-.09-.34-.33c-.21-.51-.75-2.39-1.05-3.65h.51c.76,0,3.44-.28,4.65-.46l1.3-.21v-.42a14.29,14.29,0,0,0-.18-2.35c1.17.09,1.69.15,2.41.21a9.88,9.88,0,0,0,1.45-2.72h-3a27.18,27.18,0,0,1-7.48,4.74l-.21-.33a27.13,27.13,0,0,0,5.22-4.41h-2.6c-.27,0-.6,0-.94.06a3.08,3.08,0,0,1-.6.06l-.21-1a9.89,9.89,0,0,0,1.84.21h3.11c.75-.85,1.84-2.15,2.48-3H59.74a15.36,15.36,0,0,0-1.63.12l-.21-1a10.13,10.13,0,0,0,1.84.22h3.41V41H60.73a11.46,11.46,0,0,0-1.66.12l-.18-1a7.37,7.37,0,0,0,1.84.25h2.42V38.93c-.06-1.6-.12-2.57-.15-2.9,3.44.24,3.8.27,4.19.48q.27.09.27.27c0,.28-.36.49-1.2.79l0,2.75h.36a16.67,16.67,0,0,1,1.18-1.42c.33.33,1.11,1,1.56,1.48a20.86,20.86,0,0,0,1.48-3.57l1.81.76c1.6.63,2.12.93,2.12,1.24s-.24.36-1.24.51a52.79,52.79,0,0,1-4,5.83h1.08c.49-.7.64-.91,1.18-1.57a15.26,15.26,0,0,1,2,1.81l.12.09A50.07,50.07,0,0,0,76,36c1,.21,1.72.36,2.2.45,1.87.3,2.53.58,2.53.94s-.18.36-1.35.63a30.29,30.29,0,0,1-1.88,5.25h3.84c.84-1.08,1.11-1.38,2-2.44,1.42,1.18,1.84,1.54,3.2,2.72a.22.22,0,0,1,.06.18c0,.12-.12.18-.27.18ZM69,45.78a41.58,41.58,0,0,1-2.89,3h2.47c.57-.61.75-.82,1.36-1.39a17.93,17.93,0,0,1,2.53,1.93,28,28,0,0,0,1.36-3.56ZM66.23,41l0,4.2h.27A42.36,42.36,0,0,0,69,41Zm11,3a32.94,32.94,0,0,1-1.84,3.5,15.58,15.58,0,0,0,2.6,5.88c1.35-2.68,2-5,2.5-9.38Z" transform="translate(-0.38 -0.02)"/><path class="cls-2" d="M102,44.36a39.88,39.88,0,0,1-4.35,4.8c3.47-.06,4.08-.06,10.32-.45a22.4,22.4,0,0,0-3.26-3.17l.15-.21a27.85,27.85,0,0,1,5.38,2c1.84,1,2.53,1.78,2.53,3s-.69,2.47-1.45,2.47c-.36,0-.63-.27-1.26-1.33a18,18,0,0,0-1.45-2c-4.32,1-4.32,1-6.22,1.33-2.26.39-7.15,1.12-9.45,1.39-.12.84-.3,1.2-.63,1.2S91.67,52.6,91,49a44.76,44.76,0,0,0,5.28.18,25.22,25.22,0,0,0,1.63-4.8H95.12a11.58,11.58,0,0,0-2,.21l-.24-1a12,12,0,0,0,2.24.21h12.43c.81-.94,1.09-1.21,1.93-2.09l.94.67a13.25,13.25,0,0,0,.42-2.05h-18a7.77,7.77,0,0,1-.57,3.44,2.63,2.63,0,0,1-2.14,1.72,2,2,0,0,1-1.79-2.12,1.26,1.26,0,0,1,.46-1.08c.12-.09.12-.09.84-.55a5,5,0,0,0,1.87-1.81,5.83,5.83,0,0,0,.58-2.17h.36a6.48,6.48,0,0,1,.36,1.93h7.28V37.93a13.87,13.87,0,0,0-.1-2.23c4.11.27,4.92.42,4.92.84s-.42.55-1.41.82v2.26h7.12c.72-.78,1-1,1.72-1.81,1.51,1,2,1.36,3.38,2.45.24.21.33.33.33.51a.42.42,0,0,1-.24.33,2.73,2.73,0,0,1-.81.15l-.55,0-.54,0c-.36.21-.73.39-.91.48-1.42.76-1.45.76-1.9,1l1.6,1.21a.29.29,0,0,1,.18.21.19.19,0,0,1-.18.15ZM108.15,56c1.15-1.24,1.15-1.24,2.21-2.35,1.45,1,1.9,1.38,3.38,2.59.09.09.12.15.12.21s-.12.18-.24.18H103.48V61.9h6.73c1-1.12,1.29-1.45,2.32-2.51,1.45,1.06,1.93,1.42,3.5,2.69.12.12.21.21.21.3s-.09.15-.21.15H91.31a17,17,0,0,0-2.47.21l-.24-1.09a14.14,14.14,0,0,0,2.74.25h8.79V56.58H93.55a11.85,11.85,0,0,0-2.24.19l-.24-1a16.21,16.21,0,0,0,2.48.21h6.58V54.68a24,24,0,0,0-.16-3c.91.09,1.69.18,2.12.25,2.23.21,2.62.3,2.62.63s-.18.39-1.23.75V56Z" transform="translate(-0.38 -0.02)"/><path class="cls-2" d="M130.37,61.08a15.61,15.61,0,0,0,7.31-4.28,11.25,11.25,0,0,0,3-7.94c0-5.16-3.13-8.24-8.33-8.24a9.33,9.33,0,0,0-1.2.06,4.52,4.52,0,0,1,1.39,3.23c0,2.41-1.54,6.64-3.72,10.29-2,3.26-3.71,4.92-5.22,4.92a2,2,0,0,1-1.63-.88,7.37,7.37,0,0,1-.69-2A5.14,5.14,0,0,0,120,54a5.85,5.85,0,0,1-1.18-3.47,10,10,0,0,1,2.54-6,15,15,0,0,1,11.38-4.95c6.73,0,11.53,4.26,11.53,10.23,0,4.38-2.42,7.88-6.79,9.9a22.37,22.37,0,0,1-7,1.81Zm-5.64-17.17a10.3,10.3,0,0,0-3.23,7.18c0,2.08,1,4.23,2,4.23s3-2.51,5-6.22c1.51-2.84,2.42-5.34,2.42-6.67a3.52,3.52,0,0,0-.12-1,2.75,2.75,0,0,0-.25-.66A10.93,10.93,0,0,0,124.73,43.91Z" transform="translate(-0.38 -0.02)"/><path class="cls-2" d="M150.36,51.21a12.22,12.22,0,0,0-.12,1.54c0,3.77,2.2,5.4,7.33,5.4a15.24,15.24,0,0,0,6.13-1,3.1,3.1,0,0,1,1.11-.27c1.42,0,3.05,1.26,3.05,2.35a1.52,1.52,0,0,1-1.05,1.36,23.94,23.94,0,0,1-7.28.81c-3.5,0-6-.51-7.63-1.54a5.92,5.92,0,0,1-2.72-5.1,9.61,9.61,0,0,1,.79-3.62ZM151,39.68a6.75,6.75,0,0,0,4.59,1.3,27.07,27.07,0,0,0,3.35-.27,10.4,10.4,0,0,0,3-.79,1.71,1.71,0,0,1,.66-.12c1.33,0,2.9,1.33,2.9,2.45a1,1,0,0,1-.78,1,6,6,0,0,1-1.85.4,41.32,41.32,0,0,0-9.08,2.8l-.18-.36c.66-.45,1.57-1,4.53-2.9-.4,0-.67,0-.91,0-3.08,0-5.1-1-6.49-3.32ZM165.45,37a11.65,11.65,0,0,1,3.23,1.44c1.39.94,2,1.82,2,2.78,0,.7-.36,1.18-.94,1.18-.39,0-.63-.18-1-.88a13.36,13.36,0,0,0-3.56-4Zm3.2-2.24a10.34,10.34,0,0,1,3.53,1.33c1.21.78,1.75,1.48,1.75,2.32s-.36,1.21-.91,1.21c-.33,0-.54-.18-1-.81a13.23,13.23,0,0,0-3.62-3.57Z" transform="translate(-0.38 -0.02)"/><path class="cls-2" d="M186.67,53.29a14.77,14.77,0,0,0-.12-1.9l2.11.18c1.84.15,2.45.34,2.45.67s-.3.45-1.18.72v1.42h6.88c1-.9,1.27-1.18,2.24-2.14l3.17,2.35c.15.09.21.18.21.27s-.09.15-.21.15H190.38a10.05,10.05,0,0,0,4.23,2.63,27.58,27.58,0,0,0,8.24,1.63l0,.3a3.38,3.38,0,0,0-2.39,2.78c-.06.27-.15.36-.33.36a6.33,6.33,0,0,1-1.57-.48,18.4,18.4,0,0,1-6.06-3.77,15.05,15.05,0,0,1-2.54-3.08V59c0,1.09,0,2,.09,3.89,0,.51-.12.7-.57.82a7.23,7.23,0,0,1-1.66.15c-1.06,0-1.24-.12-1.24-.82.09-1.81.12-2.56.12-3.35V57a21.27,21.27,0,0,1-6.31,4,25.41,25.41,0,0,1-5.82,1.87l-.12-.3a29,29,0,0,0,6.82-4.22A19.94,19.94,0,0,0,184.53,55h-7a10,10,0,0,0-2.33.22L175,54.17a11.13,11.13,0,0,0,2.57.21h9.08Zm8.81-9A14.17,14.17,0,0,1,192.53,48c4.49.88,5.94,1.69,5.94,3.44,0,.91-.42,1.54-1,1.54a1.29,1.29,0,0,1-.85-.39,29.43,29.43,0,0,0-5.85-3.26,23,23,0,0,1-7.25,2.75,38.88,38.88,0,0,1-7.42.84l-.06-.39c5.19-.79,8.45-1.93,12-4.2-1-.27-2.81-.72-4-1l-1,1.3a1.16,1.16,0,0,1-.91.36,12.57,12.57,0,0,1-2.11-.27c-.27-.06-.42-.15-.42-.31s.09-.24.27-.42a33.13,33.13,0,0,0,3.05-3.74h-5.34a1.82,1.82,0,0,1-1.06.36c-.91,0-1.63-1-1.63-2.17,0-.61.18-.91.85-1.27,1.69-.9,2.17-1.63,2.59-3.83h.3a13.12,13.12,0,0,1,.46,2h7.42V37.87c0-.57,0-1-.12-2l2.14.15c2.33.15,2.78.24,2.78.63s-.27.46-1.27.82v1.9h6.82c.82-.78,1.06-1,1.9-1.81,1.42,1,1.85,1.3,3.26,2.38.25.21.34.37.34.49s-.09.18-.19.24-.51.18-1.78.18h-.09a23.57,23.57,0,0,1-2.47,1,21.15,21.15,0,0,0-2,.82l-.28-.24A14,14,0,0,0,197.08,40H179.16v.49a5.31,5.31,0,0,1-.94,3.17h5.13a12.58,12.58,0,0,0,1.78-3c3.23.42,4.08.63,4.08.93s-.49.52-1.39.58c-.18.3-.33.51-.39.63-.34.51-.37.57-.58.85h9.9c.76-.88,1-1.15,1.81-2,1.27,1,1.66,1.27,3,2.21.12.09.18.18.18.24s-.15.21-.3.21Zm-9.11,0c-.79,1.06-1.54,2-2,2.56,1.81.19,2.11.22,4.86.67a10.26,10.26,0,0,0,2.59-3.23Z" transform="translate(-0.38 -0.02)"/><path class="cls-2" d="M219.76,42.16a21.45,21.45,0,0,1-.7,4.16,39.11,39.11,0,0,1,4.38,2.42c2.11,1.42,2.65,2.11,2.65,3.38s-.87,2.59-1.81,2.59c-.39,0-.6-.27-1.05-1.23a19.27,19.27,0,0,0-4.32-6.65,12.65,12.65,0,0,1-3.5,5.5,21,21,0,0,1-4.68,3.26l-.27-.33c3.8-3.29,5.52-7.07,6-13.1H210l0,13.91c0,3.14,0,3.71.09,6.22v.15c0,.48-.15.66-.7.78a8,8,0,0,1-1.66.15c-1,0-1.2-.18-1.2-.84v-.06c.06-2.26.06-2.26.12-4.71.06-1.69.06-2.75.06-9.3,0-5.19,0-5.28-.21-8.93,1.69.79,2.2,1.06,3.89,2h6.1c.06-1.14.09-2.05.09-3.38a20.24,20.24,0,0,0-.12-2.41c.84.09,1.51.18,1.9.21,2.44.18,3,.33,3,.75s-.13.43-1.42.88c-.09,2.17-.12,2.56-.21,4h6.91c1-1.14,1-1.14,1.75-2,1.15.82,1.51,1.06,2.62,1.87.34.24.46.39.46.61s-.31.57-1.18,1.05v10.6c.06,5.22.06,5.22.09,6.67a2.41,2.41,0,0,1-1.6,2.44,8.21,8.21,0,0,1-2.9.63c-.33,0-.39,0-.42-.57a2.59,2.59,0,0,0-.45-1.24c-.67-.84-1.24-1.08-4.17-1.81v-.36c2.84.18,3.2.21,5.41.3.48,0,.6-.09.6-.45V42.16Z" transform="translate(-0.38 -0.02)"/></svg>