<svg xmlns="http://www.w3.org/2000/svg" width="259.753" height="103.033" viewBox="0 0 259.753 103.033"><g transform="translate(-553.624 -1971.983)"><g transform="translate(-210.5 1262.395)"><g transform="translate(765.5 710.605)"><g transform="translate(0 1.283)"><path d="M765.5,716.79a49.343,49.343,0,0,0,34.817,6.8c10.877-2,21.393-7.765,32.376-6.9,11.274.883,21.226,8.589,31.8,13.318s24.165,5.66,31.574-4.465a12.593,12.593,0,0,0,2.7-8.017c-.184-2.947-2.2-5.834-4.687-5.823" transform="translate(-765.5 -711.699)" fill="none" stroke="#a48661" stroke-linecap="round" stroke-linejoin="round" stroke-width="2"/><path d="M1023.914,716.79a49.344,49.344,0,0,1-34.817,6.8c-10.877-2-21.393-7.765-32.376-6.9-11.274.883-21.226,8.589-31.8,13.318s-24.166,5.66-31.574-4.465a12.594,12.594,0,0,1-2.7-8.017c.185-2.947,2.2-5.834,4.688-5.823" transform="translate(-766.914 -711.699)" fill="none" stroke="#a48661" stroke-linecap="round" stroke-linejoin="round" stroke-width="2"/></g><g transform="translate(40.52)"><path d="M806.473,729.457c3.628-14.464,16.022-20,27.8-18.659a49.141,49.141,0,0,1,17.5,5.672c6.243,3.341,12.414,10.646,19.5,10.653a7.045,7.045,0,0,0,5.475-2.377,6.532,6.532,0,0,0,1.063-6.509,3.766,3.766,0,0,0-5.9-1.5,5.531,5.531,0,0,0-.223,7.162" transform="translate(-806.473 -710.605)" fill="none" stroke="#a48661" stroke-linecap="round" stroke-linejoin="round" stroke-width="2"/><path d="M983.673,729.457c-3.628-14.464-16.022-20-27.8-18.659a49.152,49.152,0,0,0-17.5,5.672c-6.242,3.341-12.413,10.646-19.5,10.653a7.048,7.048,0,0,1-5.475-2.377,6.534,6.534,0,0,1-1.062-6.509,3.766,3.766,0,0,1,5.9-1.5,5.531,5.531,0,0,1,.223,7.162" transform="translate(-807.712 -710.605)" fill="none" stroke="#a48661" stroke-linecap="round" stroke-linejoin="round" stroke-width="2"/></g></g><g transform="translate(765.5 788.6)"><path d="M765.5,777.719a49.332,49.332,0,0,1,34.817-6.8c10.877,2,21.393,7.763,32.376,6.9,11.274-.885,21.226-8.59,31.8-13.318s24.165-5.661,31.574,4.465a12.591,12.591,0,0,1,2.7,8.017c-.184,2.947-2.2,5.833-4.687,5.822" transform="translate(-765.5 -761.087)" fill="none" stroke="#a48661" stroke-linecap="round" stroke-linejoin="round" stroke-width="2"/><path d="M1023.914,777.719a49.332,49.332,0,0,0-34.817-6.8c-10.877,2-21.393,7.763-32.376,6.9-11.274-.885-21.226-8.59-31.8-13.318s-24.166-5.661-31.574,4.465a12.591,12.591,0,0,0-2.7,8.017c.185,2.947,2.2,5.833,4.688,5.822" transform="translate(-766.914 -761.087)" fill="none" stroke="#a48661" stroke-linecap="round" stroke-linejoin="round" stroke-width="2"/><g transform="translate(40.52 4.154)"><path d="M806.473,764.628c3.628,14.463,16.022,20,27.8,18.658a49.118,49.118,0,0,0,17.5-5.672c6.243-3.341,12.414-10.646,19.5-10.653a7.046,7.046,0,0,1,5.475,2.377,6.532,6.532,0,0,1,1.063,6.509,3.766,3.766,0,0,1-5.9,1.5,5.531,5.531,0,0,1-.223-7.162" transform="translate(-806.473 -764.628)" fill="none" stroke="#a48661" stroke-linecap="round" stroke-linejoin="round" stroke-width="2"/><path d="M983.673,764.628c-3.628,14.463-16.022,20-27.8,18.658a49.129,49.129,0,0,1-17.5-5.672c-6.242-3.341-12.413-10.646-19.5-10.653a7.048,7.048,0,0,0-5.475,2.377,6.534,6.534,0,0,0-1.062,6.509,3.766,3.766,0,0,0,5.9,1.5,5.531,5.531,0,0,0,.223-7.162" transform="translate(-807.712 -764.628)" fill="none" stroke="#a48661" stroke-linecap="round" stroke-linejoin="round" stroke-width="2"/></g></g></g><path d="M-65.88-21.54c1.05-.24,1.59-.42,3.09-.87a4.451,4.451,0,0,0,1.17.18c.24,0,.48-.15.48-.33,0-.27-.33-.51-3.48-2.7a14.8,14.8,0,0,1-3.24,2.01,45.422,45.422,0,0,1-6.42,2.55l.09.3a45.631,45.631,0,0,0,5.16-.54v4.29h-3.6a6.952,6.952,0,0,1-1.89-.24l.18,1.05a6.275,6.275,0,0,1,1.68-.18h3.15c-.36,1.29-1.08,3.39-1.65,4.8a34.762,34.762,0,0,1-3.78,6.99l.24.18a20.2,20.2,0,0,0,5.73-6.69L-69-7.38c-.06,3.54-.12,5.22-.27,9.12,0,.54.15.63,1.29.63,1.83,0,2.1-.12,2.1-.84V-12.75a9.111,9.111,0,0,1,2.16,4.59c.21.99.42,1.29.84,1.29.93,0,1.92-1.29,1.92-2.49,0-1.47-1.35-2.58-4.92-4.05v-2.61h5.49c.27,0,.42-.06.42-.21q0-.09-.18-.27a33.463,33.463,0,0,0-2.67-2.37c-.78.93-1.02,1.23-1.83,2.22h-1.23Zm6.54-1.53c.15,1.83.18,2.34.18,9.57,0,3.87-.03,5.19-.09,8.25,0,.51.21.6,1.32.6,1.74,0,2.04-.12,2.04-.81-.06-3.54-.09-8.85-.12-15.96.96-.36,1.2-.51,1.2-.78C-54.81-22.62-55.05-22.68-59.34-23.07ZM-58.2-1.29A11.8,11.8,0,0,1-54.66-.12a2.24,2.24,0,0,1,1.2,1.77c.09.54.15.6.48.6a9.1,9.1,0,0,0,2.91-.66c1.02-.48,1.38-1.2,1.38-2.73-.12-3.63-.12-4.89-.12-6.3V-23.07c.96-.42,1.2-.57,1.2-.84,0-.36-.48-.51-2.34-.66-.51-.03-1.32-.12-2.34-.21.12,1.71.18,2.61.18,4.26V-2.07c0,.48-.12.6-.51.63-2.1-.06-2.88-.09-5.55-.27Zm29.82-7.59h6.27v7.26c0,.39-.06.45-.51.45-2.43-.15-3.93-.21-4.47-.24v.36c3.12.87,3.75,1.32,3.78,2.85,0,.51.06.57.45.57a7.437,7.437,0,0,0,2.67-.6A2.164,2.164,0,0,0-18.63-.54c-.03-1.71-.03-1.83-.06-3.6,0-1.83,0-1.83-.03-3.99v-13.2c.87-.57,1.08-.75,1.08-1.05,0-.18-.12-.36-.42-.57-1.08-.78-1.41-1.02-2.52-1.86-.81.84-1.05,1.08-1.77,1.92H-37.29a26.529,26.529,0,0,0-3.93-1.92,80.738,80.738,0,0,1,.21,8.61c0,7.14-.33,10.65-1.32,13.89a17.961,17.961,0,0,1-2.25,4.83l.21.21a14.877,14.877,0,0,0,3.99-4.29,17.064,17.064,0,0,0,2.46-7.32h6.15v3.84c0,1.71,0,2.13-.12,5.52,0,.72.15.84,1.11.84a10.219,10.219,0,0,0,1.95-.15c.45-.12.57-.27.57-.63V.42c-.09-2.85-.12-4.68-.12-5.46Zm0-.63v-6.21h6.27v6.21Zm-3.39,0h-6.09c.12-1.35.18-3.03.24-6.21h5.85Zm3.39-6.84v-5.91h6.27v5.91Zm-3.39,0h-5.85V-19.8l.03-1.47v-.99h5.82Zm24.3-5.13A13.52,13.52,0,0,1-2.7-16.95c.63.99.78,1.14,1.29,1.14.81,0,1.47-.93,1.47-2.1a2.288,2.288,0,0,0-1.14-2.1c-1.23-.87-3.3-1.44-6.24-1.77Zm-3.39,5.73a12.509,12.509,0,0,1,2.55,1.92,18.063,18.063,0,0,1,2.22,2.67c.51.81.72.96,1.23.96.81,0,1.44-.9,1.44-2.1a2.392,2.392,0,0,0-1.29-2.19,15.455,15.455,0,0,0-6.03-1.53Zm24.15-1.59A65.388,65.388,0,0,1-.18-6.93C-3.3-5.13-5.73-4.08-6.69-4.08S-8.67-4.92-9.36-6.3a2.383,2.383,0,0,0-.21.9c0,1.98,2.58,5.37,4.08,5.37a1.288,1.288,0,0,0,.87-.39A9.714,9.714,0,0,1-2.1-2.19c7.11-4.26,12.39-9.3,15.69-14.91Zm5.85,2.22a1.119,1.119,0,0,0-.36.99,6.592,6.592,0,0,0,1.05,3.12c.69,1.2,1.5,1.86,2.22,1.86a2.692,2.692,0,0,0,1.02-.24,3.5,3.5,0,0,1,1.32-.27c2.19-.09,2.34-.12,3.72-.12,9.06-.06,11.7-.15,13.38-.36,1.29-.18,1.95-.66,1.95-1.41a1.175,1.175,0,0,0-.36-.9c-.48-.42-1.41-.54-4.41-.54-.9,0-2.85,0-3.36.03-5.19.12-10.68.21-11.88.21-1.65,0-2.34-.15-3-.63A4.588,4.588,0,0,1,19.14-15.12ZM50.46-20.4a14.075,14.075,0,0,1,5.31,5.67c.45.78.75,1.02,1.26,1.02.93,0,1.62-1.08,1.62-2.49a2.818,2.818,0,0,0-1.47-2.58c-1.41-.9-3.21-1.41-6.57-1.95Zm22.59,1.23A58.933,58.933,0,0,1,62.22-9.51c-3.57,2.55-7.5,4.62-8.76,4.62-.81,0-1.8-.84-2.61-2.22a2.333,2.333,0,0,0-.15.81,5.723,5.723,0,0,0,1.44,3.33C53.19-1.62,54.3-.78,55.08-.78a1.645,1.645,0,0,0,1.26-.75,6.788,6.788,0,0,1,1.62-1.32,48.275,48.275,0,0,0,8.7-6.84,32.1,32.1,0,0,0,6.75-9.3Z" transform="translate(683.94 2034.26)" fill="#fff"/></g></svg>