<svg xmlns="http://www.w3.org/2000/svg" width="259.753" height="103.033" viewBox="0 0 259.753 103.033"><g transform="translate(-553.624 -2590.983)"><g transform="translate(-210.5 1881.395)"><g transform="translate(765.5 710.605)"><g transform="translate(0 1.283)"><path d="M765.5,716.79a49.343,49.343,0,0,0,34.817,6.8c10.877-2,21.393-7.765,32.376-6.9,11.274.883,21.226,8.589,31.8,13.318s24.165,5.66,31.574-4.465a12.593,12.593,0,0,0,2.7-8.017c-.184-2.947-2.2-5.834-4.687-5.823" transform="translate(-765.5 -711.699)" fill="none" stroke="#a48661" stroke-linecap="round" stroke-linejoin="round" stroke-width="2"/><path d="M1023.914,716.79a49.344,49.344,0,0,1-34.817,6.8c-10.877-2-21.393-7.765-32.376-6.9-11.274.883-21.226,8.589-31.8,13.318s-24.166,5.66-31.574-4.465a12.594,12.594,0,0,1-2.7-8.017c.185-2.947,2.2-5.834,4.688-5.823" transform="translate(-766.914 -711.699)" fill="none" stroke="#a48661" stroke-linecap="round" stroke-linejoin="round" stroke-width="2"/></g><g transform="translate(40.52)"><path d="M806.473,729.457c3.628-14.464,16.022-20,27.8-18.659a49.141,49.141,0,0,1,17.5,5.672c6.243,3.341,12.414,10.646,19.5,10.653a7.045,7.045,0,0,0,5.475-2.377,6.532,6.532,0,0,0,1.063-6.509,3.766,3.766,0,0,0-5.9-1.5,5.531,5.531,0,0,0-.223,7.162" transform="translate(-806.473 -710.605)" fill="none" stroke="#a48661" stroke-linecap="round" stroke-linejoin="round" stroke-width="2"/><path d="M983.673,729.457c-3.628-14.464-16.022-20-27.8-18.659a49.152,49.152,0,0,0-17.5,5.672c-6.242,3.341-12.413,10.646-19.5,10.653a7.048,7.048,0,0,1-5.475-2.377,6.534,6.534,0,0,1-1.062-6.509,3.766,3.766,0,0,1,5.9-1.5,5.531,5.531,0,0,1,.223,7.162" transform="translate(-807.712 -710.605)" fill="none" stroke="#a48661" stroke-linecap="round" stroke-linejoin="round" stroke-width="2"/></g></g><g transform="translate(765.5 788.6)"><path d="M765.5,777.719a49.332,49.332,0,0,1,34.817-6.8c10.877,2,21.393,7.763,32.376,6.9,11.274-.885,21.226-8.59,31.8-13.318s24.165-5.661,31.574,4.465a12.591,12.591,0,0,1,2.7,8.017c-.184,2.947-2.2,5.833-4.687,5.822" transform="translate(-765.5 -761.087)" fill="none" stroke="#a48661" stroke-linecap="round" stroke-linejoin="round" stroke-width="2"/><path d="M1023.914,777.719a49.332,49.332,0,0,0-34.817-6.8c-10.877,2-21.393,7.763-32.376,6.9-11.274-.885-21.226-8.59-31.8-13.318s-24.166-5.661-31.574,4.465a12.591,12.591,0,0,0-2.7,8.017c.185,2.947,2.2,5.833,4.688,5.822" transform="translate(-766.914 -761.087)" fill="none" stroke="#a48661" stroke-linecap="round" stroke-linejoin="round" stroke-width="2"/><g transform="translate(40.52 4.154)"><path d="M806.473,764.628c3.628,14.463,16.022,20,27.8,18.658a49.118,49.118,0,0,0,17.5-5.672c6.243-3.341,12.414-10.646,19.5-10.653a7.046,7.046,0,0,1,5.475,2.377,6.532,6.532,0,0,1,1.063,6.509,3.766,3.766,0,0,1-5.9,1.5,5.531,5.531,0,0,1-.223-7.162" transform="translate(-806.473 -764.628)" fill="none" stroke="#a48661" stroke-linecap="round" stroke-linejoin="round" stroke-width="2"/><path d="M983.673,764.628c-3.628,14.463-16.022,20-27.8,18.658a49.129,49.129,0,0,1-17.5-5.672c-6.242-3.341-12.413-10.646-19.5-10.653a7.048,7.048,0,0,0-5.475,2.377,6.534,6.534,0,0,0-1.062,6.509,3.766,3.766,0,0,0,5.9,1.5,5.531,5.531,0,0,0,.223-7.162" transform="translate(-807.712 -764.628)" fill="none" stroke="#a48661" stroke-linecap="round" stroke-linejoin="round" stroke-width="2"/></g></g></g><path d="M-73.8-5.05a30.946,30.946,0,0,0,4.7-1.975,41.506,41.506,0,0,0,5.35-3.55c.35.475.425.825.425,2.1a28.976,28.976,0,0,1-.55,6.45,2.192,2.192,0,0,0-.15.8,3.117,3.117,0,0,0,2.3,2.575c.7,0,1.025-.5,1.025-1.525,0-.25,0-.6-.025-.95-.15-4.75-.15-5.075-.175-6.225-.025-1.85-.05-2.1-.275-2.45A6.1,6.1,0,0,0-62.9-11.275c1.775-1.525,1.775-1.525,3.525-3.15,1.525-1.45,1.525-1.45,1.625-1.525.875-.625,1-.775,1-1.225,0-.575-.675-1.325-1.825-2a5.029,5.029,0,0,0-2.525-.85,2.925,2.925,0,0,0-.8.1c.925.475,1.5,1.125,1.5,1.65,0,.825-1.525,2.825-4.2,5.525a46.451,46.451,0,0,1-9.325,7.425Zm23.75-5.5a2.942,2.942,0,0,0-.05.475c0,1.525,2.175,3.75,3.7,3.75a1.118,1.118,0,0,0,.95-.475,4.558,4.558,0,0,0,.425-.875,24.453,24.453,0,0,1,2-3.825c.675-1.025,1.1-1.425,1.55-1.425.475,0,.75.15,1.525.9.65.625,1.3,1.275,1.925,1.9,1.125,1.1,1.75,1.7,1.9,1.85a60.121,60.121,0,0,0,4.725,4.2c1.825,1.45,2.525,1.875,3.125,1.875.55,0,.925-.525.925-1.25A4.994,4.994,0,0,0-28-5.775,2.124,2.124,0,0,0-29.025-6.7c-1.825-.725-4.575-2.45-8.55-5.375-2.65-1.95-2.9-2.075-3.75-2.075-1,0-1.65.425-3.55,2.325-1.525,1.5-1.575,1.55-2.025,1.95-.575.5-.925.7-1.25.7A3.076,3.076,0,0,1-50.05-10.55Zm16.225-8.525a10.879,10.879,0,0,1,3,2.95c.375.525.55.675.825.675.45,0,.75-.4.75-1,0-.7-.45-1.275-1.45-1.925a8.524,8.524,0,0,0-2.925-1.1ZM-36.4-17.1a11.014,11.014,0,0,1,2.95,3.325c.325.575.525.725.85.725.475,0,.775-.4.775-.975,0-.8-.525-1.525-1.675-2.3a9.583,9.583,0,0,0-2.675-1.2Zm14.575.1A11.729,11.729,0,0,1-17.4-12.275c.375.65.625.85,1.05.85.775,0,1.35-.9,1.35-2.075a2.348,2.348,0,0,0-1.225-2.15C-17.4-16.4-18.9-16.825-21.7-17.275ZM-3-15.975a49.11,49.11,0,0,1-9.025,8.05c-2.975,2.125-6.25,3.85-7.3,3.85-.675,0-1.5-.7-2.175-1.85a1.944,1.944,0,0,0-.125.675,4.769,4.769,0,0,0,1.2,2.775c.875,1.125,1.8,1.825,2.45,1.825a1.371,1.371,0,0,0,1.05-.625,5.657,5.657,0,0,1,1.35-1.1,40.229,40.229,0,0,0,7.25-5.7A26.752,26.752,0,0,0-2.7-15.825ZM7.15-19.75a3.04,3.04,0,0,1,1.725,1.3c.375.675.45,1.625.45,5.225,0,6.4-.15,9.3-.575,10.525a2.572,2.572,0,0,0-.225,1,3.851,3.851,0,0,0,.9,2.025,1.772,1.772,0,0,0,1.35.875A.907.907,0,0,0,11.65.575a4.594,4.594,0,0,0,.15-1.5c0-.425,0-.775-.025-1.2C11.7-5.1,11.7-5.1,11.7-7.2v-3.925a14.253,14.253,0,0,1,5.575,3.9c.65.725.8.825,1.175.825.65,0,1.1-.7,1.1-1.775a2.545,2.545,0,0,0-1.825-2.45A18.7,18.7,0,0,0,11.7-11.85c.05-1.325.1-2.95.15-3.45a3.181,3.181,0,0,1,.425-1.65,1.251,1.251,0,0,0,.225-.675c0-.575-.525-1.1-1.625-1.65A7.272,7.272,0,0,0,8.125-20,1.726,1.726,0,0,0,7.15-19.75Zm35.05,7.4v-2.575h6.275c.15,0,.25-.05.25-.15,0-.05-.025-.1-.125-.2a31.32,31.32,0,0,0-2.45-1.975c-.725.75-.95,1-1.625,1.8H42.2v-2.4h7c.175,0,.275-.05.275-.15q0-.075-.15-.225c-1.075-.925-1.425-1.225-2.575-2.1-.775.825-1,1.075-1.75,1.95H42.2v-1.45c.75-.225,1-.375,1-.6,0-.325-.125-.35-3.775-.675.075.725.125,1.6.125,2.425v.3H35.575A6.763,6.763,0,0,1,33.8-18.6l.15.9a7.785,7.785,0,0,1,1.65-.15h3.95v2.4h-2.7a6.647,6.647,0,0,1-1.725-.2l.15.875a7.489,7.489,0,0,1,1.575-.15h2.7v2.575H35.3a8.46,8.46,0,0,1-2.075-.2l.15.9a9.675,9.675,0,0,1,1.925-.175H49.575c.125,0,.25-.075.25-.15,0-.05-.025-.1-.125-.2-1.15-.925-1.5-1.2-2.7-2.075-.775.8-1,1.05-1.75,1.9Zm2.3,8.8v2.5c0,.175-.075.25-.3.25-1.275-.025-1.275-.025-4.3-.2l-.025.275c.975.275,1.525.425,1.65.475A2.5,2.5,0,0,1,43.1.7a2.368,2.368,0,0,1,.3,1c.025.225.1.3.325.3a6.187,6.187,0,0,0,2.425-.6A1.93,1.93,0,0,0,47.2-.525c-.05-2.6-.05-2.7-.05-3.5v-4.7c.675-.4.8-.525.8-.7,0-.125-.075-.2-.275-.375a16.168,16.168,0,0,0-2.025-1.45c-.6.575-.775.775-1.35,1.4H37.875a28.32,28.32,0,0,0-3.05-1.45c.075,1.4.1,2.625.1,5.25,0,2.45-.05,5.35-.15,7.625,0,.475.15.55.925.55,1.525,0,1.85-.125,1.85-.7V-3.55Zm0-.525H37.55V-6.5H44.5Zm0-2.95H37.55v-2.3H44.5Zm-16.675-9.75c-.1,2.375-.45,3.375-1.525,4.325a1.26,1.26,0,0,0-.575,1.2A1.52,1.52,0,0,0,27-9.575c.975,0,1.65-1.45,1.65-3.55a13.128,13.128,0,0,0-.525-3.65ZM29.15-4.75c-.025,2.125-.05,3.625-.175,6.225.025.475.15.55,1.075.55,1.475,0,1.725-.1,1.75-.725-.025-3.65-.025-3.65-.025-21.075.775-.2,1.075-.375,1.075-.6,0-.35-.225-.4-3.775-.725.075,1.275.125,2.4.125,4.375Zm2.925-12.225a7.016,7.016,0,0,1,.675,3.25c.025.575.175.825.5.825a1.542,1.542,0,0,0,.725-.275,1.545,1.545,0,0,0,.8-1.325c0-.875-.75-1.65-2.55-2.65Zm31.65,8.95-.075-.1c-.85-.825-1.125-1.05-2-1.8-.475.55-.9,1.075-1.325,1.575h-1.85a27.631,27.631,0,0,0,2.85-3.075c.9-.05,1.175-.125,1.175-.35,0-.25-.425-.425-3.3-1.375a20.449,20.449,0,0,1-1.4,4.8H53.025a6.759,6.759,0,0,1-1.675-.175l.15.85a6.538,6.538,0,0,1,1.525-.15h3v3.4h-2.35a6.239,6.239,0,0,1-1.75-.2l.15.9A7.067,7.067,0,0,1,53.65-3.9h2.375v.75c0,1.2-.025,2.1-.075,4.7,0,.45.15.55.95.55,1,0,1.55-.1,1.725-.3a.646.646,0,0,0,.075-.375c-.05-1.725-.075-3.4-.075-4.575V-3.9h4.8c.125,0,.2-.05.2-.125,0-.025-.025-.075-.1-.175C62.6-5.025,62.3-5.275,61.35-6.05c-.6.7-.775.9-1.35,1.625H58.625v-3.4H63.55l.175-.05c-.025,6.15-.025,6.15-.15,9.425,0,.425.15.5.95.5a3.4,3.4,0,0,0,1.525-.2.6.6,0,0,0,.15-.475V1.35a14.166,14.166,0,0,0,3.775-3.275c1.125,1.45,3.075,3.2,3.55,3.2.1,0,.175-.075.225-.2A3.37,3.37,0,0,1,74.125.1a3.314,3.314,0,0,1,1.45-1.525v-.2A10.639,10.639,0,0,1,71.3-3.85a19.414,19.414,0,0,0,2.325-6.175c.65-.3.825-.425.825-.625,0-.125-.075-.225-.3-.4-.8-.65-1.05-.85-1.925-1.475-.6.6-.775.775-1.35,1.4H66.2v-7.8h4.975A26.415,26.415,0,0,1,70.9-15.65c-.075.5-.225.625-.65.625a28.824,28.824,0,0,1-3.05-.2l-.025.325c1.55.4,1.975.625,2.275,1.125a1.727,1.727,0,0,1,.25.9c0,.275.1.35.375.35a5.239,5.239,0,0,0,2.25-.55c.95-.575,1.125-1.325,1.35-5.3.675-.3.875-.475.875-.675,0-.1-.075-.2-.3-.375-.85-.65-1.125-.85-2.025-1.45-.575.6-.75.775-1.325,1.425H66.375a23.307,23.307,0,0,0-2.85-1.425c.15,1.55.2,3.8.2,8.85ZM66.2-10.6h.75c.075.7.15,1.275.325,2.225a15.545,15.545,0,0,0,1.75,5.05A20.22,20.22,0,0,1,66.2.95Zm4.875,0A21.382,21.382,0,0,1,69.85-5.25a11.209,11.209,0,0,1-2.425-5.35Zm-12.45-6.975V-19.75c.725-.225.95-.35.95-.55,0-.35-.125-.375-3.675-.75a14.09,14.09,0,0,1,.125,2.125v1.35h-2.25a7.053,7.053,0,0,1-1.625-.2l.125.875a7.267,7.267,0,0,1,1.5-.15h2.25v3.325H52.9a6.175,6.175,0,0,1-1.575-.2l.15.875A7.083,7.083,0,0,1,52.9-13.2h.425l-.125.1a7.953,7.953,0,0,1,1.05,3.15c.15,1,.15,1.025.25,1.2a.455.455,0,0,0,.4.275A2.2,2.2,0,0,0,56.55-10.3c0-.9-.925-1.75-3.15-2.9h9.975c.1,0,.15-.025.15-.1,0-.025-.025-.075-.1-.15a23.793,23.793,0,0,0-2.075-1.8c-.575.625-.75.825-1.325,1.525h-1.4V-17.05H63.15c.1,0,.175-.05.175-.1s-.025-.1-.1-.175A19.783,19.783,0,0,0,61.2-19.1c-.575.625-.75.825-1.325,1.525Z" transform="translate(681.925 2652.1)" fill="#fff"/></g></svg>