<svg xmlns="http://www.w3.org/2000/svg" width="259.753" height="103.033" viewBox="0 0 259.753 103.033"><g transform="translate(-555.152 -219.983)"><path d="M-94.335-11.07v.78c2.49.09,2.76.36,2.76,2.82v5.13a3.027,3.027,0,0,1-1.23.75,7.75,7.75,0,0,1-2.94.63,5.323,5.323,0,0,1-3.81-1.5c-1.74-1.8-2.79-5.37-2.79-9.54a16.978,16.978,0,0,1,1.41-7.29,5.534,5.534,0,0,1,5.22-3.36,5.862,5.862,0,0,1,4.89,2.55,9.075,9.075,0,0,1,1.5,4.08l1.11-.03v-6.96a4.313,4.313,0,0,1-1.77.39,5.22,5.22,0,0,1-1.35-.18,16.272,16.272,0,0,0-4.62-.69c-6.51,0-10.71,4.71-10.71,12.06,0,7.11,3.9,11.31,10.44,11.31a16.558,16.558,0,0,0,4.95-.81,15.269,15.269,0,0,1,3.54-.66c-.06-.96-.09-1.44-.09-3V-7.14c0-1.77.09-2.34.45-2.67.33-.33.81-.45,1.89-.48v-.78Zm16.83,2.88h7.89l1.14,3.3a7.815,7.815,0,0,1,.45,1.98v.09c0,.99-.69,1.38-2.58,1.44V-.6h9.78v-.78a4.943,4.943,0,0,1-1.59-.33c-.69-.36-1.26-1.32-1.95-3.18L-70.9-23.28l-2.22.24-6.39,16.92c-1.35,3.54-2.43,4.71-4.38,4.74V-.6h7.71v-.78c-1.98-.06-2.82-.6-2.82-1.77a7.961,7.961,0,0,1,.66-2.76Zm7.5-1.17h-7.08l3.66-9.75Zm17.55-.12,2.1-2.37,5.01,8.34A17.265,17.265,0,0,1-43.725-.6h6.3v-.75c-1.44-.15-2.43-.93-3.72-2.97l-6.6-10.38,2.97-3.24c2.85-3.15,4.32-4.14,6.45-4.32v-.78h-8.28v.78c1.65.12,2.22.45,2.22,1.29,0,.72-.54,1.59-1.86,3.06l-6.21,6.93v-8.16c0-2.73.24-3.03,2.58-3.12v-.78h-9.06v.78c2.34.09,2.58.39,2.58,3.12V-4.5c0,2.76-.24,3.03-2.7,3.12V-.6h9.3v-.78c-2.46-.09-2.7-.36-2.7-3.12Zm16.53-13.56v.78c2.37.09,2.61.39,2.61,3.12v10.2c0,3.06.36,4.47,1.44,5.91,1.47,1.89,4.02,2.91,7.38,2.91,3.42,0,5.64-1.08,7.05-3.45.87-1.47,1.2-3.27,1.2-6.45v-7.02c0-4.11.57-5.07,3.06-5.19v-.81h-7.38v.81c2.58.12,3.09.96,3.09,5.19v6.99a15.037,15.037,0,0,1-.75,5.37A5.492,5.492,0,0,1-23.6-1.35a5.2,5.2,0,0,1-4.74-2.49c-.78-1.32-1.08-3-1.08-5.82v-9.48c0-2.73.24-3.03,2.58-3.12v-.78Zm33.3,11.28c-.3.66-.3.66-1.77,3.87-.3.69-.48,1.08-1.26,2.64a9.459,9.459,0,0,1-.45-3.12,16.4,16.4,0,0,1,2.28-7.98,3.664,3.664,0,0,0,.69-1.89,5.552,5.552,0,0,0-1.74-3.36,4.275,4.275,0,0,0-2.67-1.71,4.6,4.6,0,0,1,.99,2.88,17.637,17.637,0,0,1-.6,3.66,38.155,38.155,0,0,0-1.2,8.91,16.7,16.7,0,0,0,1.14,6.6C-6.765-.21-6.105.33-5.325.33a1.485,1.485,0,0,0,1.29-.72A2.864,2.864,0,0,0-3.8-1.71a1.594,1.594,0,0,0-.03-.42,5.672,5.672,0,0,1-.12-1.11c0-1.29.3-2.85,1.65-8.4Zm3.06-7.65a5.373,5.373,0,0,0,4.71,2.43h.69c-.39.33-1.74,1.53-2.76,2.49l.21.27a20.632,20.632,0,0,1,4.68-2.07,18.071,18.071,0,0,1,3.6-.9c1.26-.18,1.62-.45,1.62-1.14,0-.99-1.5-2.25-2.64-2.25-.33,0-.36,0-.96.33a15.427,15.427,0,0,1-6.12,1.44,4.422,4.422,0,0,1-2.79-.84Zm.3,9.18a9.042,9.042,0,0,0-.54,3.15c0,4.11,2.97,6.15,8.97,6.15,4.02,0,5.4-.45,5.4-1.74a1.85,1.85,0,0,0-.72-1.38,3.159,3.159,0,0,0-1.92-.96,1.526,1.526,0,0,0-.6.12,6.311,6.311,0,0,1-1.71.51,20.909,20.909,0,0,1-2.73.21c-2.22,0-3.57-.36-4.56-1.2A4.248,4.248,0,0,1,1-8.82c0-.33.03-.63.09-1.32ZM29.865-.81a26.742,26.742,0,0,0,9.06-1.86c4.47-1.83,6.96-5.04,6.96-8.91,0-4.38-3.57-7.44-8.73-7.44-3.18,0-6,.78-11.16,3.12a10.5,10.5,0,0,1-3.69,1.14c-.87,0-1.53-.51-2.19-1.68a1.68,1.68,0,0,0-.21.75c0,1.98,2.49,4.59,4.38,4.59a1.939,1.939,0,0,0,1.5-.66,16.248,16.248,0,0,1,2.61-2.22c3.12-2.37,6.06-3.57,8.64-3.57a4.9,4.9,0,0,1,5.13,5.13,8.852,8.852,0,0,1-3.06,6.6,23.045,23.045,0,0,1-9.33,4.65Zm32.19-12.06c-1.32,2.01-2.49,3.96-4.44,7.32a2.976,2.976,0,0,1-1.17-1.68,12.071,12.071,0,0,1-.6-3.81,16.764,16.764,0,0,1,.66-4.44,4.692,4.692,0,0,0,.21-1.11,2.313,2.313,0,0,0-.27-1.17,7.636,7.636,0,0,0-3.09-3.09,3.427,3.427,0,0,0-2.04-.72c1.47,1.68,1.77,2.55,1.77,4.95v.48c-.06,2.64-.06,2.64-.06,2.85,0,4.05.75,7.2,2.25,9.48C56.415-2.1,58-.93,59.235-.93a1.4,1.4,0,0,0,1.44-1.44,2.34,2.34,0,0,0-.09-.66,4.748,4.748,0,0,1-.42-1.83,13.3,13.3,0,0,1,.39-2.52,37.074,37.074,0,0,1,1.8-5.34Zm5.88-4.95a7.748,7.748,0,0,1,4.02,4.08,11.569,11.569,0,0,1,.96,4.32c0,.6-.09.72-.63.96-.48.21-1.62.57-4.26,1.35l.06.3c3.24.06,3.87.18,4.59.99a1.426,1.426,0,0,0,1.2.63c1.47,0,2.49-1.44,2.49-3.48a9.265,9.265,0,0,0-2.1-6,9.378,9.378,0,0,0-6.21-3.48Zm12.9-2.25a1.821,1.821,0,0,0-.24.87c0,1.98,2.28,4.83,3.9,4.83a2.646,2.646,0,0,0,1.5-.51,18.8,18.8,0,0,1,4.41-2.04,62.272,62.272,0,0,1,8.1-2.4,18.014,18.014,0,0,0-4.8,3.45,11.261,11.261,0,0,0-3.36,7.53,8.252,8.252,0,0,0,3.12,6.66A10.759,10.759,0,0,0,99.825.6c1.44,0,2.13-.48,2.13-1.44a3.143,3.143,0,0,0-1.17-2.13,2.253,2.253,0,0,0-1.56-.63h-.3a1.615,1.615,0,0,1-.33.03,7.114,7.114,0,0,1-2.4-.48,5.492,5.492,0,0,1-3.6-5.4,9,9,0,0,1,2.34-5.91,9.531,9.531,0,0,1,7.2-3.36c.36,0,.48,0,.87.03.33.03.6.06.78.06.9,0,1.47-.45,1.47-1.17a2.119,2.119,0,0,0-1.17-1.65,4.991,4.991,0,0,0-2.25-.84,2.964,2.964,0,0,0-1.11.27,10.067,10.067,0,0,1-2.43.78c-4.11.9-5.16,1.14-6.66,1.53-6.03,1.53-7.11,1.77-8.07,1.77C82.4-17.94,81.5-18.63,80.835-20.07Z" transform="translate(686.194 282.49)" fill="#fff"/><g transform="translate(-208.971 -489.605)"><g transform="translate(765.5 710.605)"><g transform="translate(0 1.283)"><path d="M765.5,716.79a49.343,49.343,0,0,0,34.817,6.8c10.877-2,21.393-7.765,32.376-6.9,11.274.883,21.226,8.589,31.8,13.318s24.165,5.66,31.574-4.465a12.593,12.593,0,0,0,2.7-8.017c-.184-2.947-2.2-5.834-4.687-5.823" transform="translate(-765.5 -711.699)" fill="none" stroke="#a48661" stroke-linecap="round" stroke-linejoin="round" stroke-width="2"/><path d="M1023.914,716.79a49.344,49.344,0,0,1-34.817,6.8c-10.877-2-21.393-7.765-32.376-6.9-11.274.883-21.226,8.589-31.8,13.318s-24.166,5.66-31.574-4.465a12.594,12.594,0,0,1-2.7-8.017c.185-2.947,2.2-5.834,4.688-5.823" transform="translate(-766.914 -711.699)" fill="none" stroke="#a48661" stroke-linecap="round" stroke-linejoin="round" stroke-width="2"/></g><g transform="translate(40.52)"><path d="M806.473,729.457c3.628-14.464,16.022-20,27.8-18.659a49.141,49.141,0,0,1,17.5,5.672c6.243,3.341,12.414,10.646,19.5,10.653a7.045,7.045,0,0,0,5.475-2.377,6.532,6.532,0,0,0,1.063-6.509,3.766,3.766,0,0,0-5.9-1.5,5.531,5.531,0,0,0-.223,7.162" transform="translate(-806.473 -710.605)" fill="none" stroke="#a48661" stroke-linecap="round" stroke-linejoin="round" stroke-width="2"/><path d="M983.673,729.457c-3.628-14.464-16.022-20-27.8-18.659a49.152,49.152,0,0,0-17.5,5.672c-6.242,3.341-12.413,10.646-19.5,10.653a7.048,7.048,0,0,1-5.475-2.377,6.534,6.534,0,0,1-1.062-6.509,3.766,3.766,0,0,1,5.9-1.5,5.531,5.531,0,0,1,.223,7.162" transform="translate(-807.712 -710.605)" fill="none" stroke="#a48661" stroke-linecap="round" stroke-linejoin="round" stroke-width="2"/></g></g><g transform="translate(765.5 788.6)"><path d="M765.5,777.719a49.332,49.332,0,0,1,34.817-6.8c10.877,2,21.393,7.763,32.376,6.9,11.274-.885,21.226-8.59,31.8-13.318s24.165-5.661,31.574,4.465a12.591,12.591,0,0,1,2.7,8.017c-.184,2.947-2.2,5.833-4.687,5.822" transform="translate(-765.5 -761.087)" fill="none" stroke="#a48661" stroke-linecap="round" stroke-linejoin="round" stroke-width="2"/><path d="M1023.914,777.719a49.332,49.332,0,0,0-34.817-6.8c-10.877,2-21.393,7.763-32.376,6.9-11.274-.885-21.226-8.59-31.8-13.318s-24.166-5.661-31.574,4.465a12.591,12.591,0,0,0-2.7,8.017c.185,2.947,2.2,5.833,4.688,5.822" transform="translate(-766.914 -761.087)" fill="none" stroke="#a48661" stroke-linecap="round" stroke-linejoin="round" stroke-width="2"/><g transform="translate(40.52 4.154)"><path d="M806.473,764.628c3.628,14.463,16.022,20,27.8,18.658a49.118,49.118,0,0,0,17.5-5.672c6.243-3.341,12.414-10.646,19.5-10.653a7.046,7.046,0,0,1,5.475,2.377,6.532,6.532,0,0,1,1.063,6.509,3.766,3.766,0,0,1-5.9,1.5,5.531,5.531,0,0,1-.223-7.162" transform="translate(-806.473 -764.628)" fill="none" stroke="#a48661" stroke-linecap="round" stroke-linejoin="round" stroke-width="2"/><path d="M983.673,764.628c-3.628,14.463-16.022,20-27.8,18.658a49.129,49.129,0,0,1-17.5-5.672c-6.242-3.341-12.413-10.646-19.5-10.653a7.048,7.048,0,0,0-5.475,2.377,6.534,6.534,0,0,0-1.062,6.509,3.766,3.766,0,0,0,5.9,1.5,5.531,5.531,0,0,0,.223-7.162" transform="translate(-807.712 -764.628)" fill="none" stroke="#a48661" stroke-linecap="round" stroke-linejoin="round" stroke-width="2"/></g></g></g></g></svg>