<svg xmlns="http://www.w3.org/2000/svg" width="259.753" height="103.033" viewBox="0 0 259.753 103.033"><g transform="translate(-553.624 -2239.984)"><path d="M-51.03-21.54c1.05-.24,1.59-.42,3.09-.87a4.451,4.451,0,0,0,1.17.18c.24,0,.48-.15.48-.33,0-.27-.33-.51-3.48-2.7a14.8,14.8,0,0,1-3.24,2.01,45.423,45.423,0,0,1-6.42,2.55l.09.3a45.631,45.631,0,0,0,5.16-.54v4.29h-3.6a6.952,6.952,0,0,1-1.89-.24l.18,1.05a6.275,6.275,0,0,1,1.68-.18h3.15c-.36,1.29-1.08,3.39-1.65,4.8a34.762,34.762,0,0,1-3.78,6.99l.24.18a20.2,20.2,0,0,0,5.73-6.69l-.03,3.36c-.06,3.54-.12,5.22-.27,9.12,0,.54.15.63,1.29.63,1.83,0,2.1-.12,2.1-.84V-12.75a9.111,9.111,0,0,1,2.16,4.59c.21.99.42,1.29.84,1.29.93,0,1.92-1.29,1.92-2.49,0-1.47-1.35-2.58-4.92-4.05v-2.61h5.49c.27,0,.42-.06.42-.21q0-.09-.18-.27a33.463,33.463,0,0,0-2.67-2.37c-.78.93-1.02,1.23-1.83,2.22h-1.23Zm6.54-1.53c.15,1.83.18,2.34.18,9.57,0,3.87-.03,5.19-.09,8.25,0,.51.21.6,1.32.6,1.74,0,2.04-.12,2.04-.81-.06-3.54-.09-8.85-.12-15.96.96-.36,1.2-.51,1.2-.78C-39.96-22.62-40.2-22.68-44.49-23.07Zm1.14,21.78A11.8,11.8,0,0,1-39.81-.12a2.24,2.24,0,0,1,1.2,1.77c.09.54.15.6.48.6a9.1,9.1,0,0,0,2.91-.66c1.02-.48,1.38-1.2,1.38-2.73-.12-3.63-.12-4.89-.12-6.3V-23.07c.96-.42,1.2-.57,1.2-.84,0-.36-.48-.51-2.34-.66-.51-.03-1.32-.12-2.34-.21.12,1.71.18,2.61.18,4.26V-2.07c0,.48-.12.6-.51.63-2.1-.06-2.88-.09-5.55-.27Zm29.82-7.59h6.27v7.26c0,.39-.06.45-.51.45-2.43-.15-3.93-.21-4.47-.24v.36C-9.12-.18-8.49.27-8.46,1.8c0,.51.06.57.45.57a7.437,7.437,0,0,0,2.67-.6A2.164,2.164,0,0,0-3.78-.54c-.03-1.71-.03-1.83-.06-3.6,0-1.83,0-1.83-.03-3.99v-13.2c.87-.57,1.08-.75,1.08-1.05,0-.18-.12-.36-.42-.57-1.08-.78-1.41-1.02-2.52-1.86-.81.84-1.05,1.08-1.77,1.92H-22.44a26.529,26.529,0,0,0-3.93-1.92,80.738,80.738,0,0,1,.21,8.61c0,7.14-.33,10.65-1.32,13.89a17.961,17.961,0,0,1-2.25,4.83l.21.21a14.877,14.877,0,0,0,3.99-4.29,17.064,17.064,0,0,0,2.46-7.32h6.15v3.84c0,1.71,0,2.13-.12,5.52,0,.72.15.84,1.11.84a10.219,10.219,0,0,0,1.95-.15c.45-.12.57-.27.57-.63V.42c-.09-2.85-.12-4.68-.12-5.46Zm0-.63v-6.21h6.27v6.21Zm-3.39,0h-6.09c.12-1.35.18-3.03.24-6.21h5.85Zm3.39-6.84v-5.91h6.27v5.91Zm-3.39,0h-5.85V-19.8l.03-1.47v-.99h5.82ZM17.37-7.71h3.51v5.13c0,.18,0,.63-.03,1.32V-.03c.03.84.21,1.23.72,1.53.48.27,1.26.36,3.3.36a11.376,11.376,0,0,0,3.78-.36A1.467,1.467,0,0,0,29.73.06c0-.6-.27-.96-.96-1.29-.33-.15-.39-.27-.39-.75V-2.1l.09-4.62h-.33c-1.05,3.75-1.41,4.83-1.71,5.28-.24.39-.48.48-1.23.48h-.18c-.12,0-.36,0-.69-.03-.42,0-.54-.09-.54-.48V-6.72a2.237,2.237,0,0,0,.78.12,5.643,5.643,0,0,0,2.1-.27.5.5,0,0,0,.21-.48c-.09-2.46-.12-4.95-.12-7.74l.03-6.6c.75-.36,1.02-.6,1.02-.87,0-.15-.09-.27-.33-.48-1.05-.78-1.38-1.02-2.49-1.77-.72.69-.93.93-1.65,1.71H17.67a27.783,27.783,0,0,0-3.69-1.77c.15,1.74.21,4.14.21,7.95,0,1.38-.03,2.43-.06,4.95a33.034,33.034,0,0,0-2.64-2.37c-.75.9-.96,1.17-1.68,2.16H8.88a41.673,41.673,0,0,0,.21-5.7h4.47c.18,0,.33-.06.33-.18a.617.617,0,0,0-.15-.27,25.867,25.867,0,0,0-2.28-2.16c-.72.81-.96,1.08-1.65,1.98H9.09c.03-3.33.03-3.33.06-4.92.93-.33,1.23-.51,1.23-.78,0-.39-.51-.48-4.68-.84a19.879,19.879,0,0,1,.18,2.85c0,2.61,0,2.61.03,3.69H3.72a6.6,6.6,0,0,1-1.86-.24l.15,1.02a7.247,7.247,0,0,1,1.71-.15H5.91v1.5c0,1.47-.03,2.43-.15,4.2H3a6.4,6.4,0,0,1-1.83-.24l.21,1.05A7.247,7.247,0,0,1,3-11.55H5.7a26.241,26.241,0,0,1-.69,4.53A18.305,18.305,0,0,1,.63,1.23l.21.27a16.914,16.914,0,0,0,5.4-5.16A15.364,15.364,0,0,0,8.31-8.49c.99,1.02,1.59,2.4,2.16,5.07.18.87.51,1.29.99,1.29.84,0,1.74-1.26,1.74-2.52a2.824,2.824,0,0,0-1.5-2.46,16.446,16.446,0,0,0-3.3-1.8,25.923,25.923,0,0,0,.42-2.64h5.16l.15-.03c-.06,1.89-.09,3.33-.12,4.32,0,.51.21.63,1.2.63a7.463,7.463,0,0,0,1.11-.06,10.283,10.283,0,0,1-1.65,4.62C13.41-.24,11.94.84,8.58,2.37l.06.33a23.075,23.075,0,0,0,4.23-1.05,9.721,9.721,0,0,0,5.19-3.99,11.317,11.317,0,0,0,1.35-3.48q.9-.18.9-.54c0-.33-.66-.54-2.94-.96Zm6.24-10.62H17.37v-4.14h6.24Zm0,.63v4.2H17.37v-4.2Zm0,4.83v4.53H17.37v-4.53ZM36.81-7.8c-1.02-.33-1.68-.48-3.36-.9v.66a32.141,32.141,0,0,1-1.71,9.15l.3.18a24.948,24.948,0,0,0,4.2-8.13c.27-.06.33-.06.57-.12v1.62c0,.3-.06,2.73-.18,7.23,0,.48.21.6,1.05.6,1.14,0,1.74-.12,1.92-.39a.826.826,0,0,0,.09-.48c-.03-2.52-.06-5.55-.06-6.96v-6.33a17,17,0,0,0,1.8-.57c.15.63.24,1.05.33,1.62.15.87.36,1.2.75,1.2a2.206,2.206,0,0,0,1.89-2.16,2.2,2.2,0,0,0-.81-1.65,20.139,20.139,0,0,0,4.29-5.46h7.56c.03.42.03.72.03.93A81.866,81.866,0,0,1,54.36-3.81c-.42,1.95-.66,2.31-1.59,2.31-1.26,0-2.22-.06-6.12-.39l-.03.39c2.85.84,3.36,1.02,3.99,1.41A2.325,2.325,0,0,1,51.66,1.8c.03.42.12.54.45.54a5.726,5.726,0,0,0,.84-.09,5.2,5.2,0,0,0,2.88-1.14c.96-.81,1.41-1.95,1.92-4.89.54-3.12.66-4.62,1.02-14.1.75-.36,1.02-.6,1.02-.84,0-.15-.09-.3-.36-.54-1.08-.84-1.41-1.08-2.61-1.92-.75.81-.99,1.05-1.71,1.86H48.24a35.408,35.408,0,0,0,1.89-4.05c.87-.09,1.29-.27,1.29-.6s-.6-.54-2.55-.9c-.48-.09-1.29-.27-2.31-.45a29.353,29.353,0,0,1-1.35,6.9,26.965,26.965,0,0,1-1.98,4.83,17.682,17.682,0,0,0-3.09-2.34l-.24.24a8.594,8.594,0,0,1,1.26,2.52c-.99.12-2.82.24-4.92.33a38.916,38.916,0,0,0,6.75-6.6c1.02-.06,1.35-.18,1.35-.51,0-.24-.45-.48-1.89-1.02-.45-.18-1.14-.45-2.01-.78a29.846,29.846,0,0,1-2.79,5.28,40.848,40.848,0,0,1-2.64,3.69c-.36.03-.6.03-.72.03-.87,0-1.17,0-2.22-.06.84,3.6.84,3.69,1.17,3.69.24,0,.39-.27.51-.96,1.47-.36,1.47-.36,3.06-.81ZM32.19-20.79a9.587,9.587,0,0,1,2.49,4.14c.39,1.2.54,1.41.99,1.41.87,0,1.68-1.05,1.68-2.19,0-.9-.3-1.32-1.65-2.13.51-.33,1.8-1.5,4.08-3.6,1.05-.09,1.41-.21,1.41-.51,0-.39-.75-.66-4.62-1.68a20.092,20.092,0,0,1-1.65,5.37,17.3,17.3,0,0,0-2.52-1.05ZM40.05-8.85a14.212,14.212,0,0,1,1.47,5.73c.09,1.38.09,1.38.18,1.62a.6.6,0,0,0,.57.42c.9,0,1.95-1.5,1.95-2.76A4.87,4.87,0,0,0,42.78-6.9a14.834,14.834,0,0,0-2.55-2.16Zm6.36-6.06a16.772,16.772,0,0,1,1.68,3.42,25.766,25.766,0,0,1,.87,3.57c.12.9.36,1.26.84,1.26,1.11,0,2.25-1.47,2.25-2.91,0-1.65-1.59-3.3-5.4-5.58Z" transform="translate(684.119 2302.36)" fill="#fff"/><g transform="translate(555 2241)"><g transform="translate(0 1.283)"><path d="M765.5,716.79a49.343,49.343,0,0,0,34.817,6.8c10.877-2,21.393-7.765,32.376-6.9,11.274.883,21.226,8.589,31.8,13.318s24.165,5.66,31.574-4.465a12.593,12.593,0,0,0,2.7-8.017c-.184-2.947-2.2-5.834-4.687-5.823" transform="translate(-765.5 -711.699)" fill="none" stroke="#a48661" stroke-linecap="round" stroke-linejoin="round" stroke-width="2"/><path d="M1023.914,716.79a49.344,49.344,0,0,1-34.817,6.8c-10.877-2-21.393-7.765-32.376-6.9-11.274.883-21.226,8.589-31.8,13.318s-24.166,5.66-31.574-4.465a12.594,12.594,0,0,1-2.7-8.017c.185-2.947,2.2-5.834,4.688-5.823" transform="translate(-766.914 -711.699)" fill="none" stroke="#a48661" stroke-linecap="round" stroke-linejoin="round" stroke-width="2"/></g><g transform="translate(40.52)"><path d="M806.473,729.457c3.628-14.464,16.022-20,27.8-18.659a49.141,49.141,0,0,1,17.5,5.672c6.243,3.341,12.414,10.646,19.5,10.653a7.045,7.045,0,0,0,5.475-2.377,6.532,6.532,0,0,0,1.063-6.509,3.766,3.766,0,0,0-5.9-1.5,5.531,5.531,0,0,0-.223,7.162" transform="translate(-806.473 -710.605)" fill="none" stroke="#a48661" stroke-linecap="round" stroke-linejoin="round" stroke-width="2"/><path d="M983.673,729.457c-3.628-14.464-16.022-20-27.8-18.659a49.152,49.152,0,0,0-17.5,5.672c-6.242,3.341-12.413,10.646-19.5,10.653a7.048,7.048,0,0,1-5.475-2.377,6.534,6.534,0,0,1-1.062-6.509,3.766,3.766,0,0,1,5.9-1.5,5.531,5.531,0,0,1,.223,7.162" transform="translate(-807.712 -710.605)" fill="none" stroke="#a48661" stroke-linecap="round" stroke-linejoin="round" stroke-width="2"/></g><g transform="translate(0 77.994)"><path d="M765.5,777.719a49.332,49.332,0,0,1,34.817-6.8c10.877,2,21.393,7.763,32.376,6.9,11.274-.885,21.226-8.59,31.8-13.318s24.165-5.661,31.574,4.465a12.591,12.591,0,0,1,2.7,8.017c-.184,2.947-2.2,5.833-4.687,5.822" transform="translate(-765.5 -761.087)" fill="none" stroke="#a48661" stroke-linecap="round" stroke-linejoin="round" stroke-width="2"/><path d="M1023.914,777.719a49.332,49.332,0,0,0-34.817-6.8c-10.877,2-21.393,7.763-32.376,6.9-11.274-.885-21.226-8.59-31.8-13.318s-24.166-5.661-31.574,4.465a12.591,12.591,0,0,0-2.7,8.017c.185,2.947,2.2,5.833,4.688,5.822" transform="translate(-766.914 -761.087)" fill="none" stroke="#a48661" stroke-linecap="round" stroke-linejoin="round" stroke-width="2"/><g transform="translate(40.52 4.154)"><path d="M806.473,764.628c3.628,14.463,16.022,20,27.8,18.658a49.118,49.118,0,0,0,17.5-5.672c6.243-3.341,12.414-10.646,19.5-10.653a7.046,7.046,0,0,1,5.475,2.377,6.532,6.532,0,0,1,1.063,6.509,3.766,3.766,0,0,1-5.9,1.5,5.531,5.531,0,0,1-.223-7.162" transform="translate(-806.473 -764.628)" fill="none" stroke="#a48661" stroke-linecap="round" stroke-linejoin="round" stroke-width="2"/><path d="M983.673,764.628c-3.628,14.463-16.022,20-27.8,18.658a49.129,49.129,0,0,1-17.5-5.672c-6.242-3.341-12.413-10.646-19.5-10.653a7.048,7.048,0,0,0-5.475,2.377,6.534,6.534,0,0,0-1.062,6.509,3.766,3.766,0,0,0,5.9,1.5,5.531,5.531,0,0,0,.223-7.162" transform="translate(-807.712 -764.628)" fill="none" stroke="#a48661" stroke-linecap="round" stroke-linejoin="round" stroke-width="2"/></g></g></g></g></svg>