<svg xmlns="http://www.w3.org/2000/svg" width="259.753" height="103.033" viewBox="0 0 259.753 103.033"><g transform="translate(-553.624 -218.983)"><path d="M-69.48-21.18c1.38,2.28,3.39,3.3,6.45,3.3.24,0,.51,0,.9-.03-2.94,1.86-3.84,2.43-4.5,2.88l.18.36a41.315,41.315,0,0,1,9.03-2.79,5.632,5.632,0,0,0,1.83-.39.98.98,0,0,0,.78-.99c0-1.11-1.56-2.43-2.88-2.43a1.71,1.71,0,0,0-.66.12,10.571,10.571,0,0,1-3,.78,26.615,26.615,0,0,1-3.33.27,6.716,6.716,0,0,1-4.56-1.29Zm-.81,11.16a9.643,9.643,0,0,0-.78,3.6,5.9,5.9,0,0,0,2.7,5.07C-66.78-.33-64.26.18-60.78.18a23.6,23.6,0,0,0,7.23-.81A1.509,1.509,0,0,0-52.5-1.98c0-1.08-1.62-2.34-3.03-2.34a3.1,3.1,0,0,0-1.11.27,15.074,15.074,0,0,1-6.09,1.02c-5.1,0-7.29-1.62-7.29-5.37a11.963,11.963,0,0,1,.12-1.53Zm18.33-15.81a13.054,13.054,0,0,1,3.6,3.54c.45.63.66.81.99.81.54,0,.9-.48.9-1.2,0-.84-.54-1.53-1.74-2.31a10.229,10.229,0,0,0-3.51-1.32Zm-3.21,2.25a13.216,13.216,0,0,1,3.54,3.99c.39.69.63.87,1.02.87.57,0,.93-.48.93-1.17,0-.96-.63-1.83-2.01-2.76a11.5,11.5,0,0,0-3.21-1.44Zm19.44,2.04c1.05-.24,1.59-.42,3.09-.87a4.451,4.451,0,0,0,1.17.18c.24,0,.48-.15.48-.33,0-.27-.33-.51-3.48-2.7a14.8,14.8,0,0,1-3.24,2.01,45.423,45.423,0,0,1-6.42,2.55l.09.3a45.631,45.631,0,0,0,5.16-.54v4.29h-3.6a6.952,6.952,0,0,1-1.89-.24l.18,1.05a6.275,6.275,0,0,1,1.68-.18h3.15c-.36,1.29-1.08,3.39-1.65,4.8a34.762,34.762,0,0,1-3.78,6.99l.24.18a20.2,20.2,0,0,0,5.73-6.69l-.03,3.36c-.06,3.54-.12,5.22-.27,9.12,0,.54.15.63,1.29.63,1.83,0,2.1-.12,2.1-.84V-12.75a9.111,9.111,0,0,1,2.16,4.59c.21.99.42,1.29.84,1.29.93,0,1.92-1.29,1.92-2.49,0-1.47-1.35-2.58-4.92-4.05v-2.61h5.49c.27,0,.42-.06.42-.21q0-.09-.18-.27a33.463,33.463,0,0,0-2.67-2.37c-.78.93-1.02,1.23-1.83,2.22h-1.23Zm6.54-1.53c.15,1.83.18,2.34.18,9.57,0,3.87-.03,5.19-.09,8.25,0,.51.21.6,1.32.6,1.74,0,2.04-.12,2.04-.81-.06-3.54-.09-8.85-.12-15.96.96-.36,1.2-.51,1.2-.78C-24.66-22.62-24.9-22.68-29.19-23.07Zm1.14,21.78A11.8,11.8,0,0,1-24.51-.12a2.24,2.24,0,0,1,1.2,1.77c.09.54.15.6.48.6a9.1,9.1,0,0,0,2.91-.66c1.02-.48,1.38-1.2,1.38-2.73-.12-3.63-.12-4.89-.12-6.3V-23.07c.96-.42,1.2-.57,1.2-.84,0-.36-.48-.51-2.34-.66-.51-.03-1.32-.12-2.34-.21.12,1.71.18,2.61.18,4.26V-2.07c0,.48-.12.6-.51.63-2.1-.06-2.88-.09-5.55-.27ZM1.77-8.88H8.04v7.26c0,.39-.06.45-.51.45C5.1-1.32,3.6-1.38,3.06-1.41v.36C6.18-.18,6.81.27,6.84,1.8c0,.51.06.57.45.57a7.437,7.437,0,0,0,2.67-.6A2.164,2.164,0,0,0,11.52-.54c-.03-1.71-.03-1.83-.06-3.6,0-1.83,0-1.83-.03-3.99v-13.2c.87-.57,1.08-.75,1.08-1.05,0-.18-.12-.36-.42-.57-1.08-.78-1.41-1.02-2.52-1.86-.81.84-1.05,1.08-1.77,1.92H-7.14a26.529,26.529,0,0,0-3.93-1.92,80.738,80.738,0,0,1,.21,8.61c0,7.14-.33,10.65-1.32,13.89a17.961,17.961,0,0,1-2.25,4.83l.21.21a14.877,14.877,0,0,0,3.99-4.29A17.064,17.064,0,0,0-7.77-8.88h6.15v3.84c0,1.71,0,2.13-.12,5.52,0,.72.15.84,1.11.84a10.219,10.219,0,0,0,1.95-.15c.45-.12.57-.27.57-.63V.42c-.09-2.85-.12-4.68-.12-5.46Zm0-.63v-6.21H8.04v6.21Zm-3.39,0H-7.71c.12-1.35.18-3.03.24-6.21h5.85Zm3.39-6.84v-5.91H8.04v5.91Zm-3.39,0H-7.47V-19.8l.03-1.47v-.99h5.82Zm45.03-.51c.15,0,.3-.09.3-.21,0-.06-.06-.15-.18-.24-1.35-.93-1.74-1.23-3-2.19-.81.87-1.05,1.14-1.8,2.01H28.89a9.32,9.32,0,0,0,.57-.84c.06-.12.21-.33.39-.63.9-.06,1.38-.27,1.38-.57s-.84-.51-4.05-.93a12.578,12.578,0,0,1-1.77,2.97h-5.1a5.217,5.217,0,0,0,.93-3.15v-.48H39.06a14.435,14.435,0,0,1-1.53,2.43l.27.24a19.717,19.717,0,0,1,1.98-.81,24.043,24.043,0,0,0,2.46-1.02h.09c1.26,0,1.53-.03,1.77-.18.09-.06.18-.15.18-.24,0-.12-.09-.27-.33-.48-1.41-1.08-1.83-1.41-3.24-2.37-.84.78-1.08,1.02-1.89,1.8H32.04v-1.89c.99-.36,1.26-.54,1.26-.81,0-.39-.45-.48-2.76-.63-.45-.03-1.17-.09-2.13-.15.09,1.02.12,1.47.12,2.04v1.44H21.15a11.753,11.753,0,0,0-.45-1.98h-.3c-.42,2.19-.9,2.91-2.58,3.81-.66.36-.84.66-.84,1.26,0,1.2.72,2.16,1.62,2.16a1.769,1.769,0,0,0,1.05-.36h5.31a32.778,32.778,0,0,1-3.03,3.72c-.18.18-.27.3-.27.42,0,.15.15.24.42.3a12.362,12.362,0,0,0,2.1.27,1.155,1.155,0,0,0,.9-.36c.48-.63.63-.81.99-1.29,1.2.3,3,.75,3.99,1.02A28,28,0,0,1,18.12-8.61l.06.39a38.474,38.474,0,0,0,7.38-.84,22.66,22.66,0,0,0,7.2-2.73,29.131,29.131,0,0,1,5.82,3.24c.39.3.57.39.84.39.6,0,1.02-.63,1.02-1.53,0-1.74-1.44-2.55-5.91-3.42a14.186,14.186,0,0,0,2.94-3.75Zm-9.54,0a10.151,10.151,0,0,1-2.58,3.21c-2.73-.45-3.03-.48-4.83-.66.42-.54,1.17-1.5,1.95-2.55ZM28.71-6.78H19.68a10.951,10.951,0,0,1-2.55-.21l.21,1.05a10.458,10.458,0,0,1,2.31-.21h6.93a19.685,19.685,0,0,1-3.27,3.36,28.65,28.65,0,0,1-6.78,4.2l.12.3A25.637,25.637,0,0,0,22.44-.15a21.144,21.144,0,0,0,6.27-4.02V-1.5c0,.78-.03,1.53-.12,3.33,0,.69.18.81,1.23.81a7.131,7.131,0,0,0,1.65-.15c.45-.12.57-.3.57-.81-.06-1.92-.09-2.79-.09-3.87v-3.6a14.857,14.857,0,0,0,2.52,3.06A18.215,18.215,0,0,0,40.5,1.02a6.193,6.193,0,0,0,1.56.48c.18,0,.27-.09.33-.36a3.35,3.35,0,0,1,2.37-2.76l.03-.3A27.622,27.622,0,0,1,36.6-3.54a10.008,10.008,0,0,1-4.2-2.61H44.16c.12,0,.21-.06.21-.15s-.06-.18-.21-.27C42.51-7.8,42.51-7.8,41.01-8.91c-.96.96-1.26,1.23-2.22,2.13H31.95V-8.19c.87-.27,1.17-.48,1.17-.72,0-.33-.6-.51-2.43-.66-.45-.03-1.17-.09-2.1-.18a14.521,14.521,0,0,1,.12,1.89ZM69.6-18.93V-1.92c0,.36-.12.45-.6.45-2.19-.09-2.55-.12-5.37-.3v.36c2.91.72,3.48.96,4.14,1.8a2.511,2.511,0,0,1,.45,1.23c.03.54.09.57.42.57a8.156,8.156,0,0,0,2.88-.63A2.4,2.4,0,0,0,73.11-.87c-.03-1.44-.03-1.44-.09-6.63V-18.03c.87-.48,1.17-.75,1.17-1.05,0-.21-.12-.36-.45-.6-1.11-.81-1.47-1.05-2.61-1.86-.72.84-.72.84-1.74,1.98H62.52c.09-1.38.12-1.77.21-3.93,1.29-.45,1.41-.51,1.41-.87,0-.42-.6-.57-3.03-.75-.39-.03-1.05-.12-1.89-.21a20.067,20.067,0,0,1,.12,2.4c0,1.32-.03,2.22-.09,3.36H53.19c-1.68-.93-2.19-1.2-3.87-1.98.21,3.63.21,3.72.21,8.88,0,6.51,0,7.56-.06,9.24-.06,2.43-.06,2.43-.12,4.68v.06c0,.66.24.84,1.2.84a7.931,7.931,0,0,0,1.65-.15c.54-.12.69-.3.69-.78V1.08c-.06-2.49-.09-3.06-.09-6.18l-.03-13.83h6.42c-.48,6-2.19,9.75-5.97,13.02l.27.33a20.4,20.4,0,0,0,4.65-3.24,12.63,12.63,0,0,0,3.48-5.46,19.077,19.077,0,0,1,4.29,6.6c.45.96.66,1.23,1.05,1.23.93,0,1.8-1.26,1.8-2.58,0-1.26-.54-1.95-2.64-3.36a40.173,40.173,0,0,0-4.35-2.4,20.538,20.538,0,0,0,.69-4.14Z" transform="translate(682.07 282.31)" fill="#fff"/><g transform="translate(0 0)"><g transform="translate(555 220)"><g transform="translate(0 1.283)"><path d="M765.5,716.79a49.343,49.343,0,0,0,34.817,6.8c10.877-2,21.393-7.765,32.376-6.9,11.274.883,21.226,8.589,31.8,13.318s24.165,5.66,31.574-4.465a12.593,12.593,0,0,0,2.7-8.017c-.184-2.947-2.2-5.834-4.687-5.823" transform="translate(-765.5 -711.699)" fill="none" stroke="#a48661" stroke-linecap="round" stroke-linejoin="round" stroke-width="2"/><path d="M1023.914,716.79a49.344,49.344,0,0,1-34.817,6.8c-10.877-2-21.393-7.765-32.376-6.9-11.274.883-21.226,8.589-31.8,13.318s-24.166,5.66-31.574-4.465a12.594,12.594,0,0,1-2.7-8.017c.185-2.947,2.2-5.834,4.688-5.823" transform="translate(-766.914 -711.699)" fill="none" stroke="#a48661" stroke-linecap="round" stroke-linejoin="round" stroke-width="2"/></g><g transform="translate(40.52)"><path d="M806.473,729.457c3.628-14.464,16.022-20,27.8-18.659a49.141,49.141,0,0,1,17.5,5.672c6.243,3.341,12.414,10.646,19.5,10.653a7.045,7.045,0,0,0,5.475-2.377,6.532,6.532,0,0,0,1.063-6.509,3.766,3.766,0,0,0-5.9-1.5,5.531,5.531,0,0,0-.223,7.162" transform="translate(-806.473 -710.605)" fill="none" stroke="#a48661" stroke-linecap="round" stroke-linejoin="round" stroke-width="2"/><path d="M983.673,729.457c-3.628-14.464-16.022-20-27.8-18.659a49.152,49.152,0,0,0-17.5,5.672c-6.242,3.341-12.413,10.646-19.5,10.653a7.048,7.048,0,0,1-5.475-2.377,6.534,6.534,0,0,1-1.062-6.509,3.766,3.766,0,0,1,5.9-1.5,5.531,5.531,0,0,1,.223,7.162" transform="translate(-807.712 -710.605)" fill="none" stroke="#a48661" stroke-linecap="round" stroke-linejoin="round" stroke-width="2"/></g></g><g transform="translate(555 297.994)"><path d="M765.5,777.719a49.332,49.332,0,0,1,34.817-6.8c10.877,2,21.393,7.763,32.376,6.9,11.274-.885,21.226-8.59,31.8-13.318s24.165-5.661,31.574,4.465a12.591,12.591,0,0,1,2.7,8.017c-.184,2.947-2.2,5.833-4.687,5.822" transform="translate(-765.5 -761.087)" fill="none" stroke="#a48661" stroke-linecap="round" stroke-linejoin="round" stroke-width="2"/><path d="M1023.914,777.719a49.332,49.332,0,0,0-34.817-6.8c-10.877,2-21.393,7.763-32.376,6.9-11.274-.885-21.226-8.59-31.8-13.318s-24.166-5.661-31.574,4.465a12.591,12.591,0,0,0-2.7,8.017c.185,2.947,2.2,5.833,4.688,5.822" transform="translate(-766.914 -761.087)" fill="none" stroke="#a48661" stroke-linecap="round" stroke-linejoin="round" stroke-width="2"/><g transform="translate(40.52 4.154)"><path d="M806.473,764.628c3.628,14.463,16.022,20,27.8,18.658a49.118,49.118,0,0,0,17.5-5.672c6.243-3.341,12.414-10.646,19.5-10.653a7.046,7.046,0,0,1,5.475,2.377,6.532,6.532,0,0,1,1.063,6.509,3.766,3.766,0,0,1-5.9,1.5,5.531,5.531,0,0,1-.223-7.162" transform="translate(-806.473 -764.628)" fill="none" stroke="#a48661" stroke-linecap="round" stroke-linejoin="round" stroke-width="2"/><path d="M983.673,764.628c-3.628,14.463-16.022,20-27.8,18.658a49.129,49.129,0,0,1-17.5-5.672c-6.242-3.341-12.413-10.646-19.5-10.653a7.048,7.048,0,0,0-5.475,2.377,6.534,6.534,0,0,0-1.062,6.509,3.766,3.766,0,0,0,5.9,1.5,5.531,5.531,0,0,0,.223-7.162" transform="translate(-807.712 -764.628)" fill="none" stroke="#a48661" stroke-linecap="round" stroke-linejoin="round" stroke-width="2"/></g></g></g></g></svg>