<svg xmlns="http://www.w3.org/2000/svg" width="268.35" height="103.033" viewBox="0 0 268.35 103.033"><g transform="translate(-548.39 -636.901)"><path d="M-134.61-17.25c1.29,2.25,2.76,3.18,5.13,3.18a11.175,11.175,0,0,0,2.04-.21c-.06,1.83-.09,3.66-.15,5.46a17.386,17.386,0,0,0-5.28,3.39,3,3,0,0,0-1.08,1.98,1.436,1.436,0,0,0,.57,1.17,2.193,2.193,0,0,0,1.2.45c1.11.24,1.68.66,2.91,2.1.51.57.51.57.63.72a1.455,1.455,0,0,0,1.05.45A2.212,2.212,0,0,0-125.88.42a4.121,4.121,0,0,0,.84-2.67c0-.39-.03-.84-.06-1.35-.15-2.82-.15-2.82-.18-4.17a15.559,15.559,0,0,1,7.44-2.19c2.79,0,4.32,1.23,4.32,3.45a3.872,3.872,0,0,1-3.93,4.2c-1.8,0-3.27-1.11-4.59-3.45l-.33.12a9.052,9.052,0,0,0,1.62,3.66,5.653,5.653,0,0,0,4.59,2.4,5.8,5.8,0,0,0,5.85-5.91c0-3.54-2.85-5.76-7.38-5.76a21.128,21.128,0,0,0-7.62,1.59c.03-2.7.03-3.3.15-5.01a23.274,23.274,0,0,0,4.11-1.32c1.41-.6,2.01-1.08,2.01-1.65a.975.975,0,0,0-.33-.75,3.35,3.35,0,0,0-1.83-.63,1.8,1.8,0,0,0-1.14.51,7.756,7.756,0,0,1-2.55,1.44,8.545,8.545,0,0,1,.9-3.54,1.818,1.818,0,0,0,.42-1.08,1.692,1.692,0,0,0-1.11-1.44,9.439,9.439,0,0,0-3.81-.84,2.287,2.287,0,0,0-1.71.57c1.35.27,2.04.69,2.4,1.44a10.78,10.78,0,0,1,.39,3.93c0,.6,0,.96-.03,1.71a12.6,12.6,0,0,1-3.12.45,4.916,4.916,0,0,1-3.78-1.62Zm6.9,10.71c0,.93-.15,3.48-.21,3.96-.09.57-.21.72-.66.72a5.455,5.455,0,0,1-2.16-.6c-.3-.18-.45-.39-.45-.6C-131.19-3.75-129.69-5.28-127.71-6.54Zm10.65-13.8a6.007,6.007,0,0,1,3.45,1.62,3.054,3.054,0,0,1,.87,1.35c0,.3-1.38,1.17-3.69,2.37l.12.27a23.366,23.366,0,0,1,3.72-.57,3.307,3.307,0,0,1,.99.18,2.925,2.925,0,0,0,.96.21,1.51,1.51,0,0,0,1.56-1.71,3.606,3.606,0,0,0-2.13-3.03,8.552,8.552,0,0,0-4.5-1.08,11.607,11.607,0,0,0-1.35.06ZM-83.07-6.63v1.44l-.03.06c0,.6.21.69,1.29.69,1.95,0,2.28-.12,2.31-.87-.12-5.01-.12-5.01-.15-13.29.84-.42,1.08-.6,1.08-.84,0-.15-.12-.3-.39-.54a27.876,27.876,0,0,0-2.55-1.86c-.87.96-.87.96-1.83,2.01h-6.33v-3.72c.9-.33,1.23-.54,1.23-.84,0-.39-.42-.48-2.58-.69-.48-.06-1.29-.12-2.28-.24a54.543,54.543,0,0,1,.18,5.49h-5.94a32.914,32.914,0,0,0-3.96-2.07c.12,2.28.18,3.99.18,7.23,0,3.36-.03,3.96-.15,9.63v.09c0,.54.18.63,1.47.63,1.77,0,2.04-.12,2.07-.87V-6.63h6.36c0,1.53,0,1.53-.15,8.43,0,.63.18.72,1.47.72,1.95,0,2.22-.12,2.25-.87-.06-2.85-.12-5.61-.12-8.28Zm0-.63h-6.57l-.03-5.79h6.6Zm0-6.42h-6.6V-19.2h6.6ZM-93.09-7.26h-6.36v-5.79h6.36Zm0-6.42h-6.36V-19.2h6.33Zm43.8,5.55a15.73,15.73,0,0,1-3.87,3.48,15.1,15.1,0,0,1-7.95,2.58c-2.82,0-4.11-1.29-4.11-4.17,0-4.08,1.08-11.34,1.98-13.35a2.784,2.784,0,0,0,.36-1.26c0-.78-.6-1.5-1.92-2.19a8.766,8.766,0,0,0-3.81-1.08,1.511,1.511,0,0,0-.96.3c1.95.84,2.4,1.56,2.4,3.69,0,.75-.03,1.59-.06,2.49-.36,6.96-.39,7.77-.39,9.63,0,3.24.33,5.13,1.17,6.45a6.21,6.21,0,0,0,5.55,2.7,12.481,12.481,0,0,0,9.69-5.22,15.654,15.654,0,0,0,1.83-3.09,6.221,6.221,0,0,1,.39-.75Zm6.18-16.38a17.652,17.652,0,0,1,3.48,6.39c.21.66.21.66.3.78a.567.567,0,0,0,.54.33c1.11,0,2.37-1.53,2.37-2.88,0-1.62-1.44-2.7-6.48-4.83ZM-15.54-2.1c-4.29.39-9.9.66-13.65.66a18.433,18.433,0,0,1-4.83-.45,4.3,4.3,0,0,1-2.85-2.19v-7.23c.96-.6,1.02-.66,1.02-.93a.516.516,0,0,0-.24-.39,21.9,21.9,0,0,0-2.55-1.95l-1.65,1.89h-1.74a11.294,11.294,0,0,1-2.01-.24l.24,1.02a12.8,12.8,0,0,1,1.68-.15h2.04v8.22a20.039,20.039,0,0,1-4.08,1.92c1.47,2.97,1.47,2.97,1.89,3.81.15.36.33.51.51.51.24,0,.42-.27.42-.69,0-.12-.03-.3-.06-.69.33-.39.33-.39,2.01-2.43a17.6,17.6,0,0,0,1.86-2.58C-36.12-.78-35.01.39-32.7,1.05c1.53.45,4.8.63,10.65.63,2.7,0,4.05-.03,4.29-.09.21-.06.24-.09.27-.69a3.676,3.676,0,0,1,.9-1.89,2.994,2.994,0,0,1,1.05-.78Zm-.18-4.65a17.318,17.318,0,0,1-7.02-5.79,17.644,17.644,0,0,1-2.94-9.33c.42-.18.75-.33.99-.42a2.537,2.537,0,0,0,.78-.45.455.455,0,0,0,.12-.24.612.612,0,0,0-.24-.45c-.78-.63-1.05-.81-1.86-1.38-.54.66-.72.87-1.23,1.5h-4.62a10.2,10.2,0,0,1-2.19-.24l.27,1.08a6.278,6.278,0,0,1,1.92-.21h5.4v2.52c-.93-.21-1.23-.27-2.25-.48v.42a27.914,27.914,0,0,1-1.56,7.68,23.722,23.722,0,0,1-5.73,9l.21.21a20.168,20.168,0,0,0,6.3-5.1,17.671,17.671,0,0,0,3.57-7.5A23.781,23.781,0,0,0-22.32-6.9c1.2,1.8,2.97,3.63,3.51,3.63.12,0,.21-.12.33-.39a5.96,5.96,0,0,1,1.26-1.98,1.81,1.81,0,0,1,1.44-.81ZM-1.95,2.04A14.61,14.61,0,0,0,3.54-.57,15.39,15.39,0,0,0,8.07-6.3a24.374,24.374,0,0,1,3.48,3c.48.51.81.69,1.11.69.63,0,1.14-.84,1.14-1.89a3.39,3.39,0,0,0-1.14-2.49A12.722,12.722,0,0,0,9.24-9.15c.87-2.55,1.32-3.84,1.35-3.93.39-.87.42-.96.42-1.35,0-.75-.45-1.35-1.47-2.01a7.268,7.268,0,0,0-3.21-1.17,1.2,1.2,0,0,0-.63.18c1.23.72,1.74,1.41,1.74,2.43a19.279,19.279,0,0,1-1.02,4.74A29.569,29.569,0,0,0-1.32-12c.42-.78.57-1.05,1.17-2.13,2.13-3.9,2.4-4.26,3.24-4.92a1.161,1.161,0,0,0,.6-.96c0-1.11-1.98-3.21-3.03-3.21a1.1,1.1,0,0,0-.81.36,2.477,2.477,0,0,1-1.5.75,15.01,15.01,0,0,1-3.33.51c-1.29,0-1.95-.51-2.52-1.92a1.855,1.855,0,0,0-.33,1.11c0,1.68,1.14,3.3,2.31,3.3a2.66,2.66,0,0,0,1.17-.33A36.546,36.546,0,0,1-.33-21a78.08,78.08,0,0,1-3.69,8.94c-2.76.18-4.62.84-6.03,2.07a6.064,6.064,0,0,0-2.16,4.56c0,2.04,1.17,3.66,2.67,3.66.99,0,2.16-.81,3.45-2.43a41.3,41.3,0,0,0,3.87-5.97,19.724,19.724,0,0,1,7.8,2.46C3.63-3.03,1.62-.54-2.1,1.8ZM-4.8-10.41C-6.66-6.63-8.19-4.53-9.09-4.53c-.69,0-1.29-.99-1.29-2.16A3.317,3.317,0,0,1-9.21-9.24,7.848,7.848,0,0,1-4.8-10.41Zm30.66-1.35c-.3.66-.3.66-1.77,3.87-.3.69-.48,1.08-1.26,2.64a9.459,9.459,0,0,1-.45-3.12,16.4,16.4,0,0,1,2.28-7.98,3.664,3.664,0,0,0,.69-1.89,5.552,5.552,0,0,0-1.74-3.36,4.275,4.275,0,0,0-2.67-1.71,4.6,4.6,0,0,1,.99,2.88,17.637,17.637,0,0,1-.6,3.66,38.155,38.155,0,0,0-1.2,8.91,16.7,16.7,0,0,0,1.14,6.6C21.72-.21,22.38.33,23.16.33a1.485,1.485,0,0,0,1.29-.72,2.864,2.864,0,0,0,.24-1.32,1.594,1.594,0,0,0-.03-.42,5.672,5.672,0,0,1-.12-1.11c0-1.29.3-2.85,1.65-8.4Zm3.06-7.65a5.373,5.373,0,0,0,4.71,2.43h.69c-.39.33-1.74,1.53-2.76,2.49l.21.27a20.632,20.632,0,0,1,4.68-2.07,18.071,18.071,0,0,1,3.6-.9c1.26-.18,1.62-.45,1.62-1.14,0-.99-1.5-2.25-2.64-2.25-.33,0-.36,0-.96.33a15.427,15.427,0,0,1-6.12,1.44,4.422,4.422,0,0,1-2.79-.84Zm.3,9.18a9.042,9.042,0,0,0-.54,3.15c0,4.11,2.97,6.15,8.97,6.15,4.02,0,5.4-.45,5.4-1.74a1.85,1.85,0,0,0-.72-1.38,3.159,3.159,0,0,0-1.92-.96,1.526,1.526,0,0,0-.6.12,6.311,6.311,0,0,1-1.71.51,20.909,20.909,0,0,1-2.73.21c-2.22,0-3.57-.36-4.56-1.2a4.248,4.248,0,0,1-1.32-3.45c0-.33.03-.63.09-1.32ZM58.35-.81a26.742,26.742,0,0,0,9.06-1.86c4.47-1.83,6.96-5.04,6.96-8.91,0-4.38-3.57-7.44-8.73-7.44-3.18,0-6,.78-11.16,3.12a10.5,10.5,0,0,1-3.69,1.14c-.87,0-1.53-.51-2.19-1.68a1.681,1.681,0,0,0-.21.75c0,1.98,2.49,4.59,4.38,4.59a1.939,1.939,0,0,0,1.5-.66,16.248,16.248,0,0,1,2.61-2.22c3.12-2.37,6.06-3.57,8.64-3.57a4.9,4.9,0,0,1,5.13,5.13,8.852,8.852,0,0,1-3.06,6.6,23.045,23.045,0,0,1-9.33,4.65ZM90.54-12.87c-1.32,2.01-2.49,3.96-4.44,7.32a2.976,2.976,0,0,1-1.17-1.68,12.071,12.071,0,0,1-.6-3.81,16.764,16.764,0,0,1,.66-4.44,4.692,4.692,0,0,0,.21-1.11,2.313,2.313,0,0,0-.27-1.17,7.636,7.636,0,0,0-3.09-3.09,3.427,3.427,0,0,0-2.04-.72c1.47,1.68,1.77,2.55,1.77,4.95v.48c-.06,2.64-.06,2.64-.06,2.85,0,4.05.75,7.2,2.25,9.48C84.9-2.1,86.49-.93,87.72-.93a1.4,1.4,0,0,0,1.44-1.44,2.339,2.339,0,0,0-.09-.66,4.748,4.748,0,0,1-.42-1.83,13.3,13.3,0,0,1,.39-2.52,37.074,37.074,0,0,1,1.8-5.34Zm5.88-4.95a7.748,7.748,0,0,1,4.02,4.08,11.569,11.569,0,0,1,.96,4.32c0,.6-.09.72-.63.96-.48.21-1.62.57-4.26,1.35l.06.3c3.24.06,3.87.18,4.59.99a1.426,1.426,0,0,0,1.2.63c1.47,0,2.49-1.44,2.49-3.48a9.265,9.265,0,0,0-2.1-6,9.378,9.378,0,0,0-6.21-3.48Zm12.9-2.25a1.821,1.821,0,0,0-.24.87c0,1.98,2.28,4.83,3.9,4.83a2.646,2.646,0,0,0,1.5-.51,18.8,18.8,0,0,1,4.41-2.04,62.272,62.272,0,0,1,8.1-2.4,18.014,18.014,0,0,0-4.8,3.45,11.261,11.261,0,0,0-3.36,7.53,8.252,8.252,0,0,0,3.12,6.66A10.759,10.759,0,0,0,128.31.6c1.44,0,2.13-.48,2.13-1.44a3.143,3.143,0,0,0-1.17-2.13,2.253,2.253,0,0,0-1.56-.63h-.3a1.615,1.615,0,0,1-.33.03,7.114,7.114,0,0,1-2.4-.48,5.492,5.492,0,0,1-3.6-5.4,9,9,0,0,1,2.34-5.91,9.531,9.531,0,0,1,7.2-3.36c.36,0,.48,0,.87.03.33.03.6.06.78.06.9,0,1.47-.45,1.47-1.17a2.119,2.119,0,0,0-1.17-1.65,4.991,4.991,0,0,0-2.25-.84,2.964,2.964,0,0,0-1.11.27,10.067,10.067,0,0,1-2.43.78c-4.11.9-5.16,1.14-6.66,1.53-6.03,1.53-7.11,1.77-8.07,1.77C110.88-17.94,109.98-18.63,109.32-20.07Z" transform="translate(683 697.918)" fill="#fff"/><g transform="translate(-210.5 -72.687)"><g transform="translate(765.5 710.605)"><g transform="translate(0 1.283)"><path d="M765.5,716.79a49.343,49.343,0,0,0,34.817,6.8c10.877-2,21.393-7.765,32.376-6.9,11.274.883,21.226,8.589,31.8,13.318s24.165,5.66,31.574-4.465a12.593,12.593,0,0,0,2.7-8.017c-.184-2.947-2.2-5.834-4.687-5.823" transform="translate(-765.5 -711.699)" fill="none" stroke="#a48661" stroke-linecap="round" stroke-linejoin="round" stroke-width="2"/><path d="M1023.914,716.79a49.344,49.344,0,0,1-34.817,6.8c-10.877-2-21.393-7.765-32.376-6.9-11.274.883-21.226,8.589-31.8,13.318s-24.166,5.66-31.574-4.465a12.594,12.594,0,0,1-2.7-8.017c.185-2.947,2.2-5.834,4.688-5.823" transform="translate(-766.914 -711.699)" fill="none" stroke="#a48661" stroke-linecap="round" stroke-linejoin="round" stroke-width="2"/></g><g transform="translate(40.52)"><path d="M806.473,729.457c3.628-14.464,16.022-20,27.8-18.659a49.141,49.141,0,0,1,17.5,5.672c6.243,3.341,12.414,10.646,19.5,10.653a7.045,7.045,0,0,0,5.475-2.377,6.532,6.532,0,0,0,1.063-6.509,3.766,3.766,0,0,0-5.9-1.5,5.531,5.531,0,0,0-.223,7.162" transform="translate(-806.473 -710.605)" fill="none" stroke="#a48661" stroke-linecap="round" stroke-linejoin="round" stroke-width="2"/><path d="M983.673,729.457c-3.628-14.464-16.022-20-27.8-18.659a49.152,49.152,0,0,0-17.5,5.672c-6.242,3.341-12.413,10.646-19.5,10.653a7.048,7.048,0,0,1-5.475-2.377,6.534,6.534,0,0,1-1.062-6.509,3.766,3.766,0,0,1,5.9-1.5,5.531,5.531,0,0,1,.223,7.162" transform="translate(-807.712 -710.605)" fill="none" stroke="#a48661" stroke-linecap="round" stroke-linejoin="round" stroke-width="2"/></g></g><g transform="translate(765.5 788.6)"><path d="M765.5,777.719a49.332,49.332,0,0,1,34.817-6.8c10.877,2,21.393,7.763,32.376,6.9,11.274-.885,21.226-8.59,31.8-13.318s24.165-5.661,31.574,4.465a12.591,12.591,0,0,1,2.7,8.017c-.184,2.947-2.2,5.833-4.687,5.822" transform="translate(-765.5 -761.087)" fill="none" stroke="#a48661" stroke-linecap="round" stroke-linejoin="round" stroke-width="2"/><path d="M1023.914,777.719a49.332,49.332,0,0,0-34.817-6.8c-10.877,2-21.393,7.763-32.376,6.9-11.274-.885-21.226-8.59-31.8-13.318s-24.166-5.661-31.574,4.465a12.591,12.591,0,0,0-2.7,8.017c.185,2.947,2.2,5.833,4.688,5.822" transform="translate(-766.914 -761.087)" fill="none" stroke="#a48661" stroke-linecap="round" stroke-linejoin="round" stroke-width="2"/><g transform="translate(40.52 4.154)"><path d="M806.473,764.628c3.628,14.463,16.022,20,27.8,18.658a49.118,49.118,0,0,0,17.5-5.672c6.243-3.341,12.414-10.646,19.5-10.653a7.046,7.046,0,0,1,5.475,2.377,6.532,6.532,0,0,1,1.063,6.509,3.766,3.766,0,0,1-5.9,1.5,5.531,5.531,0,0,1-.223-7.162" transform="translate(-806.473 -764.628)" fill="none" stroke="#a48661" stroke-linecap="round" stroke-linejoin="round" stroke-width="2"/><path d="M983.673,764.628c-3.628,14.463-16.022,20-27.8,18.658a49.129,49.129,0,0,1-17.5-5.672c-6.242-3.341-12.413-10.646-19.5-10.653a7.048,7.048,0,0,0-5.475,2.377,6.534,6.534,0,0,0-1.062,6.509,3.766,3.766,0,0,0,5.9,1.5,5.531,5.531,0,0,0,.223-7.162" transform="translate(-807.712 -764.628)" fill="none" stroke="#a48661" stroke-linecap="round" stroke-linejoin="round" stroke-width="2"/></g></g></g></g></svg>