<svg xmlns="http://www.w3.org/2000/svg" width="396" height="95" viewBox="0 0 396 95"><path d="M8.506,2.009a24.078,24.078,0,0,0,5.869-4.032A25.3,25.3,0,0,0,21.6-13.2c.279-.758.719-2.275,1.4-4.55,4.99-1.916,6.348-2.475,9.821-4.111a6.772,6.772,0,0,1,1.557-.559,3.218,3.218,0,0,0,1.2-.359,1.3,1.3,0,0,0,.8-1.237c0-.878-1.238-2.475-3.234-4.191-1.278-1.078-2-1.477-2.715-1.477a1.682,1.682,0,0,0-.719.16,6.693,6.693,0,0,1-2.4.639c-1.6.239-3.793.479-10.779,1.317a59.443,59.443,0,0,1-7.546.679,4.493,4.493,0,0,1-4.431-2.595,3.332,3.332,0,0,0-.24,1.158,7.177,7.177,0,0,0,1.238,3.233C6.67-23.378,8.067-22.3,9.105-22.3a3.487,3.487,0,0,0,1.757-.559,27.738,27.738,0,0,1,7.027-2.315,69.838,69.838,0,0,1,10.939-1.517c1.118,0,1.477.12,1.477.479,0,.838-4.352,5.109-7.506,7.3a12.972,12.972,0,0,0-6.148-2.674,1.912,1.912,0,0,0-1.517.519,4.545,4.545,0,0,1,1.757.878,2.194,2.194,0,0,1,1,1.956,30.971,30.971,0,0,1-2.276,9.141A29,29,0,0,1,8.187,1.649ZM46.194-27.21a18.729,18.729,0,0,1,7.066,7.544c.6,1.038,1,1.357,1.677,1.357,1.238,0,2.156-1.437,2.156-3.313a3.749,3.749,0,0,0-1.956-3.433c-1.876-1.2-4.272-1.876-8.743-2.595Zm30.062,1.637A78.421,78.421,0,0,1,61.844-12.72c-4.751,3.393-9.981,6.147-11.658,6.147-1.078,0-2.4-1.118-3.473-2.954a3.1,3.1,0,0,0-.2,1.078A7.614,7.614,0,0,0,48.43-4.019c1.4,1.8,2.874,2.914,3.912,2.914a2.189,2.189,0,0,0,1.677-1,9.033,9.033,0,0,1,2.156-1.756,64.241,64.241,0,0,0,11.578-9.1,42.714,42.714,0,0,0,8.983-12.374Zm13.414-4.391c1.8,3.313,3.833,4.67,6.947,4.67a53.61,53.61,0,0,0,9.9-1.2c1.8-.4,2.316-.758,2.316-1.557,0-.639-.479-1.277-1.477-1.956a4.007,4.007,0,0,0-2.156-.8,2.278,2.278,0,0,0-1.238.359,12.037,12.037,0,0,1-3.553,1.477,23.365,23.365,0,0,1-5.589.878,6.407,6.407,0,0,1-4.791-2.155ZM90.908,2.567a25.2,25.2,0,0,0,9.023-8.7c1.836-2.994,3.513-7.265,3.513-9.061,0-1.038-.359-1.437-2.715-2.834a54.088,54.088,0,0,1,5.869-.279,50.377,50.377,0,0,1,7.426.6,3.09,3.09,0,0,0,.719.08c1.038,0,1.677-.479,1.677-1.357,0-.8-.759-1.637-2.276-2.395a6.1,6.1,0,0,0-2.555-.838,2.67,2.67,0,0,0-1.158.319,10.315,10.315,0,0,1-3.473.838c-5.27.559-8.983,1.038-12.137,1.517-5.589.878-6.268.958-7.506.958a4.3,4.3,0,0,1-3.873-2.2,2.2,2.2,0,0,0-.2.838A4.564,4.564,0,0,0,84.4-17.391c1.357,1.756,2.475,2.595,3.513,2.595a3.527,3.527,0,0,0,1.717-.519,29.844,29.844,0,0,1,8.344-2.355,2.254,2.254,0,0,1,.639,1.836,29.055,29.055,0,0,1-2.036,8.5,29.662,29.662,0,0,1-5.989,9.54Zm32.617-8.382a41.074,41.074,0,0,0,12.656-6.945,4.914,4.914,0,0,1,.4,2.674c0,1.477-.2,4.71-.359,6.067a7.856,7.856,0,0,1-.439,1.916,2.925,2.925,0,0,0-.16.878c0,1.517,1.757,3.513,3.074,3.513.878,0,1.357-.679,1.357-1.876,0-.718-.04-1.8-.08-2.674-.08-2.834-.12-3.473-.16-5.987-.04-3.074-.04-3.074-.359-3.672a6.35,6.35,0,0,0-2.036-1.8c2.475-2.116,2.755-2.355,4.911-4.351a13.944,13.944,0,0,1,2.036-1.8,1.357,1.357,0,0,0,.759-1.317c0-.639-.6-1.317-1.836-2.155a8.189,8.189,0,0,0-4.152-1.676,2.276,2.276,0,0,0-.878.16c1.357.8,1.916,1.477,1.916,2.315a3.566,3.566,0,0,1-.878,1.956,64.719,64.719,0,0,1-8.783,9.061,44.275,44.275,0,0,1-7.186,5.229Zm37.887-14.37a1.489,1.489,0,0,0-.479,1.317,8.77,8.77,0,0,0,1.4,4.151c.918,1.6,2,2.475,2.954,2.475a3.584,3.584,0,0,0,1.357-.319,4.652,4.652,0,0,1,1.757-.359c2.914-.12,3.114-.16,4.951-.16,12.057-.08,15.57-.2,17.806-.479,1.717-.239,2.6-.878,2.6-1.876a1.563,1.563,0,0,0-.479-1.2c-.639-.559-1.876-.718-5.869-.718-1.2,0-3.793,0-4.471.04-6.907.16-14.213.279-15.81.279-2.2,0-3.114-.2-3.992-.838A6.1,6.1,0,0,1,161.413-20.185Zm40.961,8.023c4.791-2.036,9.7-6.027,13.694-11.1a3.882,3.882,0,0,0,2.475,1.357,4.194,4.194,0,0,0,.519-.08c.679-.2.679-.2,1.517-.479a22.173,22.173,0,0,1,3.034-.679,2.983,2.983,0,0,0,.439-.08c.08-.04.12-.08.16-.08a.3.3,0,0,0,.16.04h.12a.339.339,0,0,1,.12.2.675.675,0,0,1-.08.2,5.094,5.094,0,0,1-.16.519,46.879,46.879,0,0,1-3.673,6.905A53.986,53.986,0,0,1,208.682-2.262a33.864,33.864,0,0,1-5.789,3.832l.2.439A38.944,38.944,0,0,0,220.42-8.649a48.072,48.072,0,0,0,7.027-9.62c1.158-1.956,1.2-2,2.036-2.595a1.542,1.542,0,0,0,.759-1.277c0-.639-.519-1.437-1.557-2.435a5.038,5.038,0,0,0-2.755-1.676c-.319,0-.479.08-1.2.439a7.948,7.948,0,0,1-2.755.878,37.936,37.936,0,0,1-4.152.559c-.16,0-.439-.04-.8-.08.6-.8,1.078-1.437,1.118-1.477,1-1.277,1.078-1.437,1.078-2a2.565,2.565,0,0,0-1.278-1.836,10.385,10.385,0,0,0-5.31-2.116,2.261,2.261,0,0,0-1.038.239,4.153,4.153,0,0,1,1.916,1.357,1.958,1.958,0,0,1,.559,1.4c0,.8-.479,1.916-1.717,3.992a48.538,48.538,0,0,1-10.26,12.334ZM240.1-26.611a2.54,2.54,0,0,0-.319,1.158c0,2.634,3.034,6.426,5.19,6.426a3.522,3.522,0,0,0,2-.679c2.036-1.557,10.66-4.63,16.648-5.908a23.315,23.315,0,0,0-6.388,4.59A15.061,15.061,0,0,0,252.758-11a10.924,10.924,0,0,0,4.152,8.861,14.342,14.342,0,0,0,8.5,3.034c1.876,0,2.795-.6,2.795-1.876a4.1,4.1,0,0,0-1.557-2.874,3,3,0,0,0-2.076-.838h-.4a2.372,2.372,0,0,1-.439.04,9.284,9.284,0,0,1-3.194-.639,7.29,7.29,0,0,1-4.831-7.185,11.731,11.731,0,0,1,3.154-7.824,12.47,12.47,0,0,1,9.582-4.511c.479,0,.639,0,1.158.04.439.04.8.08,1.038.08,1.2,0,1.956-.6,1.956-1.557a2.819,2.819,0,0,0-1.557-2.2,6.512,6.512,0,0,0-2.954-1.118,3.956,3.956,0,0,0-1.517.359,13.994,13.994,0,0,1-3.234,1.038c-4.831,1.038-6.907,1.517-8.863,2.036-8.025,2.036-9.462,2.355-10.739,2.355C242.178-23.777,241.02-24.655,240.1-26.611Zm25.152,7.9a17.586,17.586,0,0,1,4.711,5.309c.519.918.838,1.158,1.357,1.158.759,0,1.238-.639,1.238-1.557,0-1.277-.838-2.435-2.675-3.672a15.3,15.3,0,0,0-4.272-1.916Zm4.112-3.153a17.371,17.371,0,0,1,4.791,4.71c.6.838.878,1.078,1.317,1.078.719,0,1.2-.639,1.2-1.6,0-1.118-.719-2.036-2.316-3.074a13.946,13.946,0,0,0-4.671-1.756ZM22.48,38.013l1.2-1.557c1.278-.08,1.8-.279,1.8-.679,0-.479-.6-.679-5.749-2.036a19.089,19.089,0,0,1-2.116,5.269,33.69,33.69,0,0,1-5.39,7.744l.279.319A28.547,28.547,0,0,0,20.2,40.807,23.657,23.657,0,0,0,23.158,45.2c-.838.679-1.677,1.357-2.835,2.155A49.168,49.168,0,0,1,10.3,52.981l.16.439a40.535,40.535,0,0,0,5.709-1.6v2.595c0,2.555-.04,4.75-.2,7.624,0,.718.2.8,1.637.8,2.355,0,2.715-.12,2.755-.878V60.885h9.422v1.158c0,.6.2.718,1.238.718,2.635,0,3.114-.16,3.114-1.078-.16-5.029-.16-5.788-.16-7.105v-1.4a2.61,2.61,0,0,0,.679-.679,6.778,6.778,0,0,0,1.757.519c.279,0,.4-.12.479-.519a6.584,6.584,0,0,1,.639-1.956,3.6,3.6,0,0,1,1.757-1.676v-.439A32.143,32.143,0,0,1,27.39,45.8,35.864,35.864,0,0,0,33.3,39.889c1.357-.16,1.916-.4,1.916-.838,0-.2-.16-.4-.519-.718a39.21,39.21,0,0,0-3.433-2.674c-1.078,1-1.437,1.317-2.555,2.355Zm6.348.838a26.332,26.332,0,0,1-4.392,5.189,12.3,12.3,0,0,1-3.713-3.872c.439-.519.6-.679,1.078-1.317ZM20.683,51.784c-.838-.559-1.118-.718-1.757-1.078a36.441,36.441,0,0,0,6.388-3.393,25.613,25.613,0,0,0,5.27,3.433c-.4.4-.519.519-1,1.038Zm-.319.838h9.422v7.424H20.364ZM5.233,30.429A11.081,11.081,0,0,1,2.2,30.07l.24,1.437a14.886,14.886,0,0,1,2.795-.239H12.02c0,.639,0,1.118-.08,2.714.04.758.16.838,1.6.838,2.316,0,2.795-.16,2.795-1.078-.04-1.158-.04-1.158-.04-2.475h7.066c0,1.437,0,1.437-.08,2.674,0,.6.24.679,1.757.679a4.638,4.638,0,0,0,2.475-.4,1.031,1.031,0,0,0,.12-.6c-.04-1.158-.04-1.6-.04-2.355h10.9c.279,0,.439-.08.439-.239,0-.08-.04-.16-.2-.319-1.876-1.557-2.435-2.036-4.392-3.473-1.278,1.357-1.677,1.756-2.874,3.193H27.59V28.034c1.2-.239,1.677-.479,1.677-.878,0-.519-.279-.559-6.028-1.038a24.045,24.045,0,0,1,.12,2.874v1.437H16.291c-.04-1-.04-1-.04-2.355,1.2-.2,1.717-.439,1.717-.838,0-.479-.679-.679-3.154-.878-.6-.08-1.637-.16-2.874-.279.08,1.477.12,2.315.12,3.553v.8Zm-1.2,3.832a14.2,14.2,0,0,1,3.553,4.87c.6,1.277.918,1.637,1.517,1.637,1.118,0,2.2-1.437,2.2-2.954,0-1.158-.519-1.756-2.156-2.475A25.337,25.337,0,0,0,4.235,33.9Zm-2.6,7.025a13.081,13.081,0,0,1,3.393,4.431c.918,1.637,1.118,1.876,1.6,1.876,1.038,0,2.156-1.517,2.156-2.914,0-1.756-1.836-2.754-6.947-3.792Zm.359,11.3c2.2.878,2.515,1.078,2.954,1.756a6.45,6.45,0,0,1,.519,2.674,13.1,13.1,0,0,1-.12,1.557A24.442,24.442,0,0,0,4.873,61.4a1.126,1.126,0,0,0,1.158,1.277,3.879,3.879,0,0,0,2.355-.958A3.221,3.221,0,0,0,9.7,59.009a7.168,7.168,0,0,0-.679-2.874,4.606,4.606,0,0,1-.679-2.116c0-.439,0-.439.4-1.477l5.909-14.29-.479-.239c-.759,1.357-.759,1.357-2.675,4.79-1.158,2.116-2.156,3.752-4.352,7.265C5.792,52.3,5.552,52.5,4.794,52.5a24.641,24.641,0,0,1-2.914-.439ZM43.479,34.82c1.8,3.353,3.873,4.71,7.306,4.71.24,0,.479,0,1.118-.04-.759,3.233-2.076,10.378-2.076,11.456,0,1.8,1.836,3.952,3.314,3.952a1.545,1.545,0,0,0,1.357-.758,10.707,10.707,0,0,1,2-2.754c2.316-2.555,5.43-4.111,8.1-4.111s4.272,1.517,4.272,4.032c0,2.475-1.4,4.71-4.032,6.387-2.515,1.6-5.989,2.754-10.859,3.553v.439c.639.04,1.158.04,1.437.04a51.992,51.992,0,0,0,6.188-.4,19.955,19.955,0,0,0,7.825-2.355,8.019,8.019,0,0,0,4.152-6.706c0-3.952-3.393-6.626-8.384-6.626a18.669,18.669,0,0,0-6.228,1.158,34.88,34.88,0,0,0-5.31,2.355,40.335,40.335,0,0,1,1.4-9.739,39.623,39.623,0,0,0,9.422-2.435c1.717-.718,2.515-1.437,2.515-2.2a1.4,1.4,0,0,0-.679-1.2,5.752,5.752,0,0,0-2.4-.639,1.969,1.969,0,0,0-1.637.6A13.923,13.923,0,0,1,56.1,36.217a16.173,16.173,0,0,1,2.316-4.59c.719-.878.8-1.078.8-1.6,0-1.557-2.755-2.834-6.188-2.834a3.41,3.41,0,0,0-2.715.878c2.316.08,3.274.838,3.274,2.435,0,.958-.24,2.275-1.118,6.387a17.174,17.174,0,0,1-2.874.239,6.68,6.68,0,0,1-5.669-2.555Zm52.18-3.273a2.742,2.742,0,0,0,1.278-2.116c0-.838-.559-1.437-1.956-2.076a23.893,23.893,0,0,0-4.791-1.517l-.319.439a9.378,9.378,0,0,1,2.755,4.071,2.43,2.43,0,0,0,.679,1.2H86.636a17.689,17.689,0,0,1-3.234-.359l.24,1.437a15.645,15.645,0,0,1,2.994-.239h10.58V36.1H88.792a14.631,14.631,0,0,1-3.074-.319l.24,1.357a14.818,14.818,0,0,1,2.795-.2h8.464v4.071H85.359a17.373,17.373,0,0,1-3.274-.359l.24,1.4a24.07,24.07,0,0,1,2.994-.2h5.07A38.024,38.024,0,0,1,81.407,58.33l.279.359a30.41,30.41,0,0,0,8.783-7.983v2.036c0,2.794-.04,5.748-.16,9.5,0,.679.279.878,1.2.878a8.064,8.064,0,0,0,2.755-.359c.24-.16.359-.359.359-.838v-.838h13.973v1.078c.04.718.279.838,1.517.838a5.8,5.8,0,0,0,2.475-.4.855.855,0,0,0,.439-.878c-.16-5.149-.16-5.389-.2-14.29,1.038-.559,1.357-.8,1.357-1.158,0-.2-.12-.4-.479-.679-1.317-1-1.757-1.277-3.234-2.275-.918.878-1.2,1.2-2.116,2.2H94.941L93.9,44.639c.519-1.277.878-2.235,1.078-2.794H117.5c.279,0,.479-.12.479-.319,0-.08-.08-.2-.24-.4a48.885,48.885,0,0,0-4.232-3.193c-1.238,1.317-1.637,1.716-2.835,3.074h-9.1V36.935h12.576c.279,0,.519-.16.519-.319,0-.08-.08-.2-.24-.4-1.6-1.317-2.116-1.676-3.753-2.874-1.118,1.2-1.437,1.557-2.475,2.754h-6.627V32.385h15.251c.24,0,.439-.16.439-.319,0-.08-.08-.2-.279-.4-1.757-1.437-2.316-1.876-4.152-3.193-1.238,1.357-1.6,1.756-2.795,3.074h-6.388a47.8,47.8,0,0,0,4.671-3.153c1.4-.04,1.8-.2,1.8-.6,0-.479-.4-.639-6.028-2.116a31.269,31.269,0,0,1-2.355,5.868Zm12.935,18.561H94.621V46.355h13.973Zm0,.838V54.9H94.621V50.946Zm0,4.79v4.511H94.621V55.736Zm28.665-13.053c-1.757,2.674-3.314,5.269-5.909,9.739a3.959,3.959,0,0,1-1.557-2.235,16.058,16.058,0,0,1-.8-5.069,22.3,22.3,0,0,1,.878-5.908,6.241,6.241,0,0,0,.279-1.477,3.077,3.077,0,0,0-.359-1.557,10.161,10.161,0,0,0-4.112-4.111,4.562,4.562,0,0,0-2.715-.958c1.956,2.235,2.355,3.393,2.355,6.586v.639c-.08,3.513-.08,3.513-.08,3.792,0,5.389,1,9.58,2.994,12.613,1.517,2.275,3.633,3.832,5.27,3.832a1.868,1.868,0,0,0,1.916-1.916,3.112,3.112,0,0,0-.12-.878,6.316,6.316,0,0,1-.559-2.435,17.7,17.7,0,0,1,.519-3.353,49.324,49.324,0,0,1,2.4-7.105Zm7.825-6.586a10.31,10.31,0,0,1,5.35,5.429,15.391,15.391,0,0,1,1.278,5.748c0,.8-.12.958-.838,1.277-.639.279-2.156.758-5.669,1.8l.08.4c4.312.08,5.15.239,6.108,1.317a1.9,1.9,0,0,0,1.6.838c1.956,0,3.314-1.916,3.314-4.63a12.326,12.326,0,0,0-2.795-7.983,12.481,12.481,0,0,0-8.264-4.63Zm17.566-.239c1.437,3.273,3.234,4.59,6.388,4.59a13.685,13.685,0,0,0,2.6-.2c-2.2,6.387-4.432,11.137-6.388,13.532a2.853,2.853,0,0,0-1,2.395,7.038,7.038,0,0,0,1,3.632,1.647,1.647,0,0,0,1.278.679,1.853,1.853,0,0,0,1.6-1.038,44.178,44.178,0,0,0,2.2-5.868c2.156-6.307,2.156-6.307,2.914-8.622,1.238-3.712,1.238-3.712,1.757-5.149,7.346-2.036,10.26-3.393,10.26-4.75a1.219,1.219,0,0,0-.639-1.158,5.392,5.392,0,0,0-2.475-.718,2.065,2.065,0,0,0-1.357.6,12.484,12.484,0,0,1-4.551,2.515,19.219,19.219,0,0,1,2.076-4.431c.639-.8.679-.918.679-1.4,0-.718-.679-1.477-1.757-1.956a11.339,11.339,0,0,0-4.591-1.078,3.051,3.051,0,0,0-2.076.519,5.006,5.006,0,0,1,2.316,1.038,2.453,2.453,0,0,1,.838,1.916,28.911,28.911,0,0,1-1.158,6.426,20.964,20.964,0,0,1-4.791.6c-2,0-3.154-.559-4.711-2.315Zm17.886,7.863a20.951,20.951,0,0,1,6.707-1.317h1L184.209,46.2l.24.359c.479-.279.6-.359,1.078-.639A15.408,15.408,0,0,1,187.2,45a8,8,0,0,1,3.513-.878l1.557.04c1.317,0,1.956-.559,1.956-1.676,0-1.6-1.717-2.674-4.352-2.674a16.059,16.059,0,0,0-9.5,3.513Zm-1.278,6.107a9.053,9.053,0,0,0-.679,3.433,6.8,6.8,0,0,0,2.355,5.349c1.677,1.4,4.631,2.155,8.464,2.155,4.112,0,5.949-.639,5.949-2.036a2.05,2.05,0,0,0-.6-1.477,5.06,5.06,0,0,0-2.994-1.6,2.031,2.031,0,0,0-.8.16,11.338,11.338,0,0,1-4.352.718c-4.711,0-6.987-1.637-6.987-5.069,0-.359.04-.758.12-1.517Zm58.288-11.655c.279,0,.479-.12.479-.279,0-.12-.08-.239-.279-.479-2.116-1.756-2.755-2.275-4.99-3.952l-3.034,3.872h-8.943c.2-2.475.24-4.032.359-8.3,1.278-.439,1.717-.718,1.717-1.118,0-.519-.838-.758-3.633-.958-.719-.08-1.8-.16-3.234-.279a34.987,34.987,0,0,1,.2,4.231c0,2.634-.04,4.471-.2,6.426h-10.62a21.1,21.1,0,0,1-3.952-.359l.2,1.477a22.246,22.246,0,0,1,3.713-.279h10.58A30.5,30.5,0,0,1,211.8,51.584c-2.515,4.032-5.43,6.786-11.378,10.578l.24.519a49.111,49.111,0,0,0,4.791-1.916,29.654,29.654,0,0,0,8.464-5.908c3.873-3.872,5.989-8.742,6.667-15.368a42.454,42.454,0,0,0,2.236,8.782,26.483,26.483,0,0,0,9.063,12.294,6.689,6.689,0,0,0,2.515,1.4c.24,0,.4-.16.6-.718a6.687,6.687,0,0,1,3.873-4.071l.04-.519a24.085,24.085,0,0,1-4.631-1.557,24.455,24.455,0,0,1-7.266-5.149,24.244,24.244,0,0,1-6.028-11.775ZM241.18,63a38.493,38.493,0,0,0,5.11-2.595,27.885,27.885,0,0,0,10.739-11.975c2.036-4.271,2.874-8.023,3.314-14.649A50.925,50.925,0,0,0,261.9,44.32a32.811,32.811,0,0,0,6.068,12.773c1.836,2.2,5.27,5.189,6.028,5.189.2,0,.359-.12.519-.519,1.158-2.595,2.036-3.553,4.072-4.231l.04-.4a23.752,23.752,0,0,1-7.585-3.832,24.018,24.018,0,0,1-8.623-12.653,32.732,32.732,0,0,1-1.6-9.34c0-.319,0-.8.04-1.4,1.317-.479,1.677-.718,1.677-1.038,0-.479-.8-.679-3.633-1-.679-.04-1.8-.16-3.194-.319.08,1.038.12,1.477.12,2.275,0,1.8-.2,4.71-.439,6.826a38.764,38.764,0,0,1-4.232,14.33c-2.555,4.91-5.19,7.9-10.18,11.616Zm56.771-2.794a29.7,29.7,0,0,0,9.222-2.395c5.789-2.674,8.983-7.3,8.983-13.092,0-7.9-6.348-13.532-15.251-13.532a19.829,19.829,0,0,0-15.051,6.546,13.166,13.166,0,0,0-3.354,7.983,7.665,7.665,0,0,0,1.557,4.59,6.885,6.885,0,0,1,1.717,2.954,9.847,9.847,0,0,0,.918,2.634,2.628,2.628,0,0,0,2.156,1.158c2,0,4.312-2.2,6.907-6.506,2.874-4.83,4.911-10.418,4.911-13.611a5.935,5.935,0,0,0-1.836-4.271,12.425,12.425,0,0,1,1.6-.08c6.867,0,11.019,4.071,11.019,10.9a14.851,14.851,0,0,1-3.992,10.5,20.691,20.691,0,0,1-9.661,5.668Zm.08-27.422a3.822,3.822,0,0,1,.319.878,4.585,4.585,0,0,1,.16,1.317c0,1.756-1.2,5.069-3.194,8.821-2.6,4.91-5.23,8.223-6.547,8.223-1.357,0-2.715-2.834-2.715-5.588a13.609,13.609,0,0,1,4.272-9.5A14.477,14.477,0,0,1,298.031,32.784Zm42.838,0v8.422c0,1.237.24,1.916.838,2.315.838.559,2.036.679,6.188.679a38.038,38.038,0,0,0,7.466-.439,1.825,1.825,0,0,0,1.477-1.8c0-.718-.319-1.118-1.158-1.477-.719-.319-.8-.4-.8-.8l.04-.6.08-3.553h-.439a35.054,35.054,0,0,1-2.036,4.471c-.479.679-.918.758-4.152.758-3.194,0-3.433-.08-3.433-.958V32.784h5.39a21.729,21.729,0,0,1-1.916,4.87l.319.16a52.934,52.934,0,0,0,5.589-3.553c.319-.04.6-.08.918-.12l.878-.04a1.757,1.757,0,0,0,1.038-.239.594.594,0,0,0,.16-.359c0-.2-.08-.4-.4-.679a50.576,50.576,0,0,0-4.392-3.313c-1,1.038-1.317,1.357-2.316,2.435h-8.943V28.513c1.557-.4,1.916-.6,1.916-1.038,0-.639-.878-.8-6.627-1.2a17.1,17.1,0,0,1,.2,2.994v2.674h-9.582a16.045,16.045,0,0,0-.439-2.674H326.3a6.435,6.435,0,0,1-.958,3.193,6.577,6.577,0,0,1-2.715,2.235c-1.078.6-1.4,1.038-1.4,2.076a2.483,2.483,0,0,0,2.236,2.674,3.367,3.367,0,0,0,2.795-1.876,9.909,9.909,0,0,0,.958-4.471v-.319h5.549a12.967,12.967,0,0,1-1.517,6.426c-1.757,3.193-4.671,5.309-9.661,6.945l.24.519a32.6,32.6,0,0,0,7.146-1.756c4.352-1.716,6.827-4.55,7.745-8.782a17.324,17.324,0,0,0,.4-3.353Zm.519,16.685h12.9a.323.323,0,0,0,.359-.279c0-.08-.08-.16-.2-.279-2.076-1.637-2.715-2.155-4.791-3.712-1.317,1.477-1.717,1.916-2.954,3.433H328.333a30.3,30.3,0,0,1-3.513-.319l.359,1.517a19.281,19.281,0,0,1,2.914-.359h8.623v10.7H325.538a25.97,25.97,0,0,1-4.192-.439l.479,1.6A20.88,20.88,0,0,1,325.219,61h31.739c.24,0,.4-.12.4-.279a.744.744,0,0,0-.2-.4c-2-1.716-2.635-2.235-4.631-3.832-1.477,1.517-1.916,2-3.393,3.672h-7.745ZM386.98,58.21c-.12-4.75-.16-6.826-.16-9.3,0-.718,0-1.956.04-3.473.958-.519,1.278-.8,1.278-1.078,0-.2-.16-.359-.559-.718-1.317-.958-1.757-1.277-3.114-2.2-.918.878-1.2,1.2-2.116,2.155h-6.468c-2-1-2.6-1.317-4.631-2.2.12,2.036.16,3.513.16,8.422,0,3.353-.04,5.229-.16,9.1,0,.679.24.8,1.437.8a5.445,5.445,0,0,0,2.6-.4c.16-.12.24-.279.24-.679v-2.2h7.106v2.355c.04.519.28.639,1.318.639,1.836,0,2.635-.16,2.954-.639a6.063,6.063,0,0,1,2.276,1.038,3.722,3.722,0,0,1,1.238,2.555c.04.6.16.718.559.718a6.4,6.4,0,0,0,1.317-.16c2-.319,2.994-.878,3.513-1.836a4.78,4.78,0,0,0,.359-2.355c-.04-3.353-.08-7.784-.08-10.218v-18.2c1.038-.639,1.357-.958,1.357-1.277,0-.2-.16-.4-.559-.718-1.4-1.038-1.836-1.357-3.274-2.395-.918,1-1.2,1.317-2.2,2.355h-5.869c-2.036-1.038-2.675-1.317-4.711-2.235.12,1.557.12,2.235.12,4.071,0,3.992-.04,6.307-.12,9.62,0,.758.24.838,1.717.838,2.076,0,2.6-.2,2.635-.918v-.758h6.547v18.84c0,.479-.12.6-.639.6C390.493,58.37,389.136,58.33,386.98,58.21Zm-4.352-8.941h-7.106v-4.83h7.106Zm0,.838v5.508h-7.106V50.107Zm9.1-12.015h-6.547V33.981h6.547Zm0-4.95h-6.547V29.152h6.547Zm-18.644,5.788v1.038c.04.639.24.718,1.278.718a16.322,16.322,0,0,0,2.4-.2.675.675,0,0,0,.6-.758v-.12c-.08-2.634-.08-4.111-.08-6.147V30.109c.918-.519,1.238-.8,1.238-1.118,0-.16-.16-.359-.519-.639l-3.154-2.395c-.918,1-1.2,1.317-2.156,2.355h-5.549c-2.116-1.078-2.755-1.357-4.871-2.355.2,3.034.24,5.788.24,16.366,0,9.66-.04,13.971-.24,19.838,0,.8.24.918,1.8.918,2.316,0,2.755-.2,2.755-1.118V38.931Zm0-.838h-6.268V33.981h6.268Zm0-4.95h-6.268V29.152h6.268Z" transform="translate(-1.44 31.88)" fill="#fff"/></svg>