<svg xmlns="http://www.w3.org/2000/svg" width="259.753" height="103.033" viewBox="0 0 259.753 103.033"><g transform="translate(-555.624 -833.983)"><path d="M-47.35-1.1c1.35.375,1.65.775,1.75,2.225.025.375.075.425.375.425a5.109,5.109,0,0,0,1.775-.375c1.225-.575,1.625-1.425,2.025-4.5a63.876,63.876,0,0,0,.55-7.45c.7-.45.7-.45.7-.625,0-.1-.05-.175-.225-.35-.4-.375-.525-.475-.85-.75a17.3,17.3,0,0,0,3.625-3.65h10.85c.175,0,.25-.05.25-.125,0-.1-.05-.175-.175-.3-1.2-1-1.55-1.3-2.775-2.225-.775.925-1,1.225-1.8,2.125h-5.95a19.156,19.156,0,0,0,1.675-2.6c.875-.15,1.1-.275,1.1-.55,0-.35-.275-.425-3.975-1.25a25.452,25.452,0,0,1-1.55,5.3l-.125-.175c-.875-.775-1.15-1.025-2.025-1.75-.575.7-.75.925-1.3,1.675h-.625v-3.45c.675-.225.975-.4.975-.625,0-.375-.925-.575-3.825-.825a16.028,16.028,0,0,1,.15,1.775v3.125H-48.3a8.5,8.5,0,0,1-1.55-.2l.2.825a2.571,2.571,0,0,0,.425-.025A5.05,5.05,0,0,1-48.3-15.5h.9c.025.5.025.5.025,1.025a60.568,60.568,0,0,1-.725,9.7,18.086,18.086,0,0,1-2.375,6.35l.225.2A16.6,16.6,0,0,0-46.225-4.4a26.709,26.709,0,0,0,1.3-7.025h1.575v1.05c0,.625-.075,1.875-.225,3.775-.225,3.05-.5,4.625-.925,5.075-.175.225-.375.275-.925.275-.225,0-.425-.025-1.9-.2Zm7.125-14.4.15-.075A15.407,15.407,0,0,1-41.5-12.7c-.25-.2-.35-.275-.725-.575L-43.4-11.95h-1.475c.075-1.4.1-1.875.15-3.55Zm-.25,7.15A4.855,4.855,0,0,1-39.45-8.8l.525-.125V-6.15c-.025,2.4-.025,3.725-.05,5.5A1.872,1.872,0,0,0-38.6.65c.425.475,1.175.65,2.575.65.55,0,1.575,0,3.025.05h.525l1.85-.025c2.75-.075,3.575-.175,3.975-.575a1.4,1.4,0,0,0,.4-.925,1.071,1.071,0,0,0-.625-1c-.5-.25-.5-.25-.5-.55v-.4l.225-3.4-.275-.025a19.844,19.844,0,0,1-1.75,4.3c-.225.225-.65.325-1.6.3-.375,0-1.2.025-2.35.025h-.65c-.6,0-1.05,0-1.45-.025-.35-.025-.6-.025-.675-.025-.45,0-.6-.15-.6-.55l-.025-8.025L-34.8-10c0,2.65-.05,5.05-.1,7,0,.2.025.325.1.375a.64.64,0,0,0,.475.2c1.875-.1,1.925-.125,1.95-.75-.05-1.1-.05-1.175-.075-2.225.95.275,1.2.7,1.275,1.975.025.2.1.275.3.275A3.761,3.761,0,0,0-29.8-3.4a2.049,2.049,0,0,0,1.075-.825,10.245,10.245,0,0,0,.525-3.65c.05-1.325.1-2.7.1-2.875.175-.15.175-.15.6-.475a.592.592,0,0,0,.3-.45c0-.125-.125-.25-.4-.425-.875-.475-1.15-.625-2-1.1a19.466,19.466,0,0,0-1.2,1.625l-1.7.45v-2.95c.65-.25.9-.425.9-.625,0-.325-.575-.425-3.375-.725a34.16,34.16,0,0,1,.175,4.55v.35l-1.725.45v-2.65c.675-.325.875-.475.875-.675,0-.3-.4-.4-3.475-.75a16.547,16.547,0,0,1,.2,2.875V-9.45l-.65.175c-.4.1-.775.15-1.25.225Zm9.925-2.775a8.964,8.964,0,0,0-.025,1.025c-.025.45-.125,3.1-.15,3.525-.025.675-.225.925-.675.925-.15,0-.8-.025-1.05-.05-.025-2.375-.025-2.375-.05-4.925ZM-.525-1.675A15.114,15.114,0,0,1-6.9-3.525,23.2,23.2,0,0,0-3.475-8.65c.875-.25,1.15-.375,1.15-.6,0-.1-.075-.225-.325-.425-1-.8-1.325-1.025-2.375-1.8-.6.6-.775.775-1.35,1.425h-6a12,12,0,0,1-1.975-.2l.15.9a11.094,11.094,0,0,1,1.625-.175A15.127,15.127,0,0,0-9.85-3.575,23.71,23.71,0,0,1-17,1.8l.1.325A20.589,20.589,0,0,0-8.475-2,17.2,17.2,0,0,0-3.8,1.25a3.428,3.428,0,0,0,.925.35A.252.252,0,0,0-2.6,1.375,3.684,3.684,0,0,1-.525-1.35Zm-5.7-7.85A18.9,18.9,0,0,1-8.8-4.85a10.877,10.877,0,0,1-3.275-4.675Zm-17.25-9.225a7.849,7.849,0,0,1,1.525-.125h6.775c.15,0,.25-.05.25-.15a.769.769,0,0,0-.1-.225c-.975-.85-1.275-1.1-2.3-1.9l-1.5,1.75H-21.9a8.5,8.5,0,0,1-1.725-.2Zm-.675,3.25a6.629,6.629,0,0,1,1.65-.175h8.325c.175,0,.275-.05.275-.15q0-.075-.15-.225c-1.05-.875-1.4-1.15-2.5-1.975-.675.775-.875,1.025-1.55,1.825h-4.3a8.272,8.272,0,0,1-1.925-.225Zm.9,3.15a7.256,7.256,0,0,1,1.525-.15h6.45c.175,0,.275-.05.275-.15a.338.338,0,0,0-.125-.225c-.95-.825-1.25-1.075-2.25-1.875-.775.825-.775.825-1.55,1.725H-21.7a9.145,9.145,0,0,1-1.725-.2Zm.05,3.2a8.7,8.7,0,0,1,1.525-.125h6.225c.175,0,.275-.05.275-.15,0-.075-.05-.125-.15-.25-.95-.85-1.25-1.1-2.25-1.875-.65.75-.85.975-1.5,1.75H-21.65a9.377,9.377,0,0,1-1.725-.2Zm2.45,9.1h2.575V.375c0,.4.15.5.775.5A6.779,6.779,0,0,0-15.925.7c.25-.1.325-.225.325-.525-.05-2.05-.05-3.875-.075-5.425.625-.375.8-.525.8-.725,0-.125-.075-.25-.3-.45-.775-.625-1.025-.825-1.9-1.45-.525.6-.675.8-1.2,1.45h-2.25c-1.2-.65-1.575-.85-2.8-1.45.1,2.25.1,2.625.1,4.075,0,1.775,0,2.35-.1,5.225,0,.425.15.5.85.5,1.425,0,1.7-.1,1.725-.55Zm0-5.85h2.575V-.575H-20.75Zm5.425-4.375A9.342,9.342,0,0,0-11.6-13.05c.95-1.325,1.225-2.55,1.35-5.925h2.7V-14.9c0,.05,0,.4-.025.95v.825a1.066,1.066,0,0,0,.55,1.1c.375.2,1,.25,2.85.25A7.634,7.634,0,0,0-1.45-12.05a1.147,1.147,0,0,0,.725-1.1,1,1,0,0,0-.725-1c-.225-.125-.3-.2-.3-.375v-.2l.1-3.075-.275-.025a18.433,18.433,0,0,1-1.2,3.55c-.2.325-.375.375-1.125.375-.725,0-.8-.025-.8-.4v-4.025c.7-.35.875-.5.875-.7,0-.1-.075-.225-.275-.4-.825-.65-1.075-.875-1.925-1.525-.6.625-.775.825-1.3,1.45h-2.35c-1.25-.7-1.65-.9-2.975-1.525a13.229,13.229,0,0,1,.15,2.075,20.866,20.866,0,0,1-.5,4.775A7.391,7.391,0,0,1-15.5-10.45Zm38.75-3.775c.125,0,.25-.075.25-.175,0-.05-.05-.125-.15-.2-1.125-.775-1.45-1.025-2.5-1.825-.675.725-.875.95-1.5,1.675h-8.2a7.766,7.766,0,0,0,.475-.7c.05-.1.175-.275.325-.525.75-.05,1.15-.225,1.15-.475s-.7-.425-3.375-.775a10.482,10.482,0,0,1-1.475,2.475H4.175A4.348,4.348,0,0,0,4.95-17.2v-.4H19.8a12.029,12.029,0,0,1-1.275,2.025l.225.2a16.431,16.431,0,0,1,1.65-.675,20.036,20.036,0,0,0,2.05-.85h.075c1.05,0,1.275-.025,1.475-.15.075-.05.15-.125.15-.2,0-.1-.075-.225-.275-.4-1.175-.9-1.525-1.175-2.7-1.975-.7.65-.9.85-1.575,1.5H13.95V-19.7c.825-.3,1.05-.45,1.05-.675,0-.325-.375-.4-2.3-.525-.375-.025-.975-.075-1.775-.125.075.85.1,1.225.1,1.7v1.2H4.875a9.794,9.794,0,0,0-.375-1.65H4.25C3.9-17.95,3.5-17.35,2.1-16.6c-.55.3-.7.55-.7,1.05,0,1,.6,1.8,1.35,1.8a1.474,1.474,0,0,0,.875-.3H8.05a27.315,27.315,0,0,1-2.525,3.1c-.15.15-.225.25-.225.35,0,.125.125.2.35.25a10.3,10.3,0,0,0,1.75.225.963.963,0,0,0,.75-.3c.4-.525.525-.675.825-1.075,1,.25,2.5.625,3.325.85A23.332,23.332,0,0,1,2.35-7.175l.05.325a32.062,32.062,0,0,0,6.15-.7,18.883,18.883,0,0,0,6-2.275,24.276,24.276,0,0,1,4.85,2.7c.325.25.475.325.7.325.5,0,.85-.525.85-1.275,0-1.45-1.2-2.125-4.925-2.85a11.822,11.822,0,0,0,2.45-3.125Zm-7.95,0a8.459,8.459,0,0,1-2.15,2.675c-2.275-.375-2.525-.4-4.025-.55.35-.45.975-1.25,1.625-2.125Zm-4.3,8.4H3.65a9.126,9.126,0,0,1-2.125-.175L1.7-4.95a8.715,8.715,0,0,1,1.925-.175H9.4a16.4,16.4,0,0,1-2.725,2.8,23.875,23.875,0,0,1-5.65,3.5l.1.25A21.364,21.364,0,0,0,5.95-.125a17.62,17.62,0,0,0,5.225-3.35V-1.25c0,.65-.025,1.275-.1,2.775,0,.575.15.675,1.025.675a5.943,5.943,0,0,0,1.375-.125c.375-.1.475-.25.475-.675-.05-1.6-.075-2.325-.075-3.225v-3a12.381,12.381,0,0,0,2.1,2.55A15.179,15.179,0,0,0,21,.85a5.161,5.161,0,0,0,1.3.4c.15,0,.225-.075.275-.3a2.791,2.791,0,0,1,1.975-2.3l.025-.25A23.019,23.019,0,0,1,17.75-2.95a8.34,8.34,0,0,1-3.5-2.175h9.8c.1,0,.175-.05.175-.125s-.05-.15-.175-.225C22.675-6.5,22.675-6.5,21.425-7.425c-.8.8-1.05,1.025-1.85,1.775h-5.7V-6.825c.725-.225.975-.4.975-.6,0-.275-.5-.425-2.025-.55-.375-.025-.975-.075-1.75-.15a12.1,12.1,0,0,1,.1,1.575ZM45.25-15.775V-1.6c0,.3-.1.375-.5.375-1.825-.075-2.125-.1-4.475-.25v.3c2.425.6,2.9.8,3.45,1.5A2.092,2.092,0,0,1,44.1,1.35c.025.45.075.475.35.475a6.8,6.8,0,0,0,2.4-.525A2,2,0,0,0,48.175-.725c-.025-1.2-.025-1.2-.075-5.525v-8.775c.725-.4.975-.625.975-.875,0-.175-.1-.3-.375-.5-.925-.675-1.225-.875-2.175-1.55-.6.7-.6.7-1.45,1.65H39.35c.075-1.15.1-1.475.175-3.275C40.6-19.95,40.7-20,40.7-20.3c0-.35-.5-.475-2.525-.625-.325-.025-.875-.1-1.575-.175a16.722,16.722,0,0,1,.1,2c0,1.1-.025,1.85-.075,2.8h-5.05c-1.4-.775-1.825-1-3.225-1.65.175,3.025.175,3.1.175,7.4,0,5.425,0,6.3-.05,7.7-.05,2.025-.05,2.025-.1,3.9V1.1c0,.55.2.7,1,.7a6.609,6.609,0,0,0,1.375-.125c.45-.1.575-.25.575-.65V.9c-.05-2.075-.075-2.55-.075-5.15l-.025-11.525h5.35c-.4,5-1.825,8.125-4.975,10.85l.225.275A17,17,0,0,0,35.7-7.35a10.525,10.525,0,0,0,2.9-4.55,15.9,15.9,0,0,1,3.575,5.5c.375.8.55,1.025.875,1.025.775,0,1.5-1.05,1.5-2.15,0-1.05-.45-1.625-2.2-2.8a33.478,33.478,0,0,0-3.625-2,17.115,17.115,0,0,0,.575-3.45Z" transform="translate(686.475 895.15)" fill="#fff"/><g transform="translate(-208.5 124.395)"><g transform="translate(765.5 710.605)"><g transform="translate(0 1.283)"><path d="M765.5,716.79a49.343,49.343,0,0,0,34.817,6.8c10.877-2,21.393-7.765,32.376-6.9,11.274.883,21.226,8.589,31.8,13.318s24.165,5.66,31.574-4.465a12.593,12.593,0,0,0,2.7-8.017c-.184-2.947-2.2-5.834-4.687-5.823" transform="translate(-765.5 -711.699)" fill="none" stroke="#a48661" stroke-linecap="round" stroke-linejoin="round" stroke-width="2"/><path d="M1023.914,716.79a49.344,49.344,0,0,1-34.817,6.8c-10.877-2-21.393-7.765-32.376-6.9-11.274.883-21.226,8.589-31.8,13.318s-24.166,5.66-31.574-4.465a12.594,12.594,0,0,1-2.7-8.017c.185-2.947,2.2-5.834,4.688-5.823" transform="translate(-766.914 -711.699)" fill="none" stroke="#a48661" stroke-linecap="round" stroke-linejoin="round" stroke-width="2"/></g><g transform="translate(40.52)"><path d="M806.473,729.457c3.628-14.464,16.022-20,27.8-18.659a49.141,49.141,0,0,1,17.5,5.672c6.243,3.341,12.414,10.646,19.5,10.653a7.045,7.045,0,0,0,5.475-2.377,6.532,6.532,0,0,0,1.063-6.509,3.766,3.766,0,0,0-5.9-1.5,5.531,5.531,0,0,0-.223,7.162" transform="translate(-806.473 -710.605)" fill="none" stroke="#a48661" stroke-linecap="round" stroke-linejoin="round" stroke-width="2"/><path d="M983.673,729.457c-3.628-14.464-16.022-20-27.8-18.659a49.152,49.152,0,0,0-17.5,5.672c-6.242,3.341-12.413,10.646-19.5,10.653a7.048,7.048,0,0,1-5.475-2.377,6.534,6.534,0,0,1-1.062-6.509,3.766,3.766,0,0,1,5.9-1.5,5.531,5.531,0,0,1,.223,7.162" transform="translate(-807.712 -710.605)" fill="none" stroke="#a48661" stroke-linecap="round" stroke-linejoin="round" stroke-width="2"/></g></g><g transform="translate(765.5 788.6)"><path d="M765.5,777.719a49.332,49.332,0,0,1,34.817-6.8c10.877,2,21.393,7.763,32.376,6.9,11.274-.885,21.226-8.59,31.8-13.318s24.165-5.661,31.574,4.465a12.591,12.591,0,0,1,2.7,8.017c-.184,2.947-2.2,5.833-4.687,5.822" transform="translate(-765.5 -761.087)" fill="none" stroke="#a48661" stroke-linecap="round" stroke-linejoin="round" stroke-width="2"/><path d="M1023.914,777.719a49.332,49.332,0,0,0-34.817-6.8c-10.877,2-21.393,7.763-32.376,6.9-11.274-.885-21.226-8.59-31.8-13.318s-24.166-5.661-31.574,4.465a12.591,12.591,0,0,0-2.7,8.017c.185,2.947,2.2,5.833,4.688,5.822" transform="translate(-766.914 -761.087)" fill="none" stroke="#a48661" stroke-linecap="round" stroke-linejoin="round" stroke-width="2"/><g transform="translate(40.52 4.154)"><path d="M806.473,764.628c3.628,14.463,16.022,20,27.8,18.658a49.118,49.118,0,0,0,17.5-5.672c6.243-3.341,12.414-10.646,19.5-10.653a7.046,7.046,0,0,1,5.475,2.377,6.532,6.532,0,0,1,1.063,6.509,3.766,3.766,0,0,1-5.9,1.5,5.531,5.531,0,0,1-.223-7.162" transform="translate(-806.473 -764.628)" fill="none" stroke="#a48661" stroke-linecap="round" stroke-linejoin="round" stroke-width="2"/><path d="M983.673,764.628c-3.628,14.463-16.022,20-27.8,18.658a49.129,49.129,0,0,1-17.5-5.672c-6.242-3.341-12.413-10.646-19.5-10.653a7.048,7.048,0,0,0-5.475,2.377,6.534,6.534,0,0,0-1.062,6.509,3.766,3.766,0,0,0,5.9,1.5,5.531,5.531,0,0,0,.223-7.162" transform="translate(-807.712 -764.628)" fill="none" stroke="#a48661" stroke-linecap="round" stroke-linejoin="round" stroke-width="2"/></g></g></g></g></svg>