<svg xmlns="http://www.w3.org/2000/svg" width="259.753" height="103.033" viewBox="0 0 259.753 103.033"><g transform="translate(-553.152 -3962.448)"><path d="M-45.622-8.294h7.844l1.133,3.277A7.754,7.754,0,0,1-36.2-3.051v.089c0,.983-.686,1.37-2.565,1.43v.775h9.723v-.775a4.918,4.918,0,0,1-1.581-.328c-.686-.358-1.253-1.311-1.939-3.158l-6.5-18.263-2.207.238-6.353,16.8c-1.342,3.516-2.416,4.677-4.354,4.707v.775h7.665v-.775c-1.968-.06-2.8-.6-2.8-1.758a7.9,7.9,0,0,1,.656-2.741Zm7.456-1.162H-45.2l3.639-9.683Zm24.725,4.5a5.4,5.4,0,0,1-4.832,3.516A3.912,3.912,0,0,1-21.822-3.8,11.446,11.446,0,0,1-22.866-8.86a16.3,16.3,0,0,1,.835-5.273,2.956,2.956,0,0,1,2.744-1.907c1.461,0,2.326,1.013,2.446,2.8.06,1.073.06,1.073.239,1.311a1.989,1.989,0,0,0,1.521.536c1.223,0,2.028-.566,2.028-1.46,0-2.115-2.833-3.9-6.144-3.9a7.449,7.449,0,0,0-5.309,2,9.261,9.261,0,0,0-2.356,6.435c0,4.8,3.072,8.044,7.665,8.044a6.824,6.824,0,0,0,6.532-4.171Zm16.821,0A5.4,5.4,0,0,1-1.452-1.442,3.912,3.912,0,0,1-5-3.8,11.446,11.446,0,0,1-6.045-8.86a16.3,16.3,0,0,1,.835-5.273A2.956,2.956,0,0,1-2.466-16.04c1.461,0,2.326,1.013,2.446,2.8.06,1.073.06,1.073.239,1.311a1.989,1.989,0,0,0,1.521.536c1.223,0,2.028-.566,2.028-1.46,0-2.115-2.833-3.9-6.144-3.9a7.449,7.449,0,0,0-5.309,2,9.261,9.261,0,0,0-2.356,6.435c0,4.8,3.072,8.044,7.665,8.044A6.824,6.824,0,0,0,4.155-4.451Zm17.6-4.2a10.885,10.885,0,0,0-.537-3.665c-.984-2.562-3.132-3.933-6.174-3.933-4.533,0-7.486,3.277-7.486,8.282C6.779-3.5,9.821-.31,14.564-.31a6.753,6.753,0,0,0,6.561-4.082l-.746-.477a5.534,5.534,0,0,1-4.921,3.4A4.29,4.29,0,0,1,11.4-4.421a11.653,11.653,0,0,1-.775-4.737Zm-10.319-.864a12.585,12.585,0,0,1,.626-3.426c.626-1.728,1.611-2.622,2.893-2.622,1.163,0,2,.745,2.565,2.324a11.62,11.62,0,0,1,.507,3.724ZM24.286-.548a6.33,6.33,0,0,1,1.521-.179,6.527,6.527,0,0,1,1.074.089,15.539,15.539,0,0,0,3.042.358c3.37,0,5.368-1.877,5.368-4.975,0-2.234-.984-3.4-4.026-4.8-2.684-1.222-2.684-1.222-3.34-1.728A2.094,2.094,0,0,1,27-13.6a2.414,2.414,0,0,1,2.654-2.473c2.147,0,3.4,1.609,3.609,4.648h1.1l.268-5.214a3.923,3.923,0,0,1-1.432.3,6.757,6.757,0,0,1-1.312-.179,14.193,14.193,0,0,0-2.118-.238c-3.37,0-5.518,1.847-5.518,4.737A3.658,3.658,0,0,0,25.3-9.337a8.532,8.532,0,0,0,3.221,2.026c3.46,1.609,4.235,2.264,4.235,3.724,0,1.639-1.1,2.592-2.923,2.592a3.7,3.7,0,0,1-3.34-1.877A6.994,6.994,0,0,1,25.6-6H24.525Zm14.733,0a6.33,6.33,0,0,1,1.521-.179,6.527,6.527,0,0,1,1.074.089,15.539,15.539,0,0,0,3.042.358c3.37,0,5.368-1.877,5.368-4.975,0-2.234-.984-3.4-4.026-4.8-2.684-1.222-2.684-1.222-3.34-1.728a2.094,2.094,0,0,1-.925-1.817,2.414,2.414,0,0,1,2.654-2.473c2.147,0,3.4,1.609,3.609,4.648h1.1l.268-5.214a3.923,3.923,0,0,1-1.432.3,6.757,6.757,0,0,1-1.312-.179,14.193,14.193,0,0,0-2.118-.238c-3.37,0-5.518,1.847-5.518,4.737a3.658,3.658,0,0,0,1.044,2.681,8.532,8.532,0,0,0,3.221,2.026C46.714-5.7,47.49-5.047,47.49-3.587,47.49-1.948,46.386-1,44.567-1a3.7,3.7,0,0,1-3.34-1.877A6.994,6.994,0,0,1,40.332-6H39.258Z" transform="translate(682 4024)" fill="#fff"/><g transform="translate(-210.972 3252.859)"><g transform="translate(765.5 710.605)"><g transform="translate(0 1.283)"><path d="M765.5,716.79a49.343,49.343,0,0,0,34.817,6.8c10.877-2,21.393-7.765,32.376-6.9,11.274.883,21.226,8.589,31.8,13.318s24.165,5.66,31.574-4.465a12.593,12.593,0,0,0,2.7-8.017c-.184-2.947-2.2-5.834-4.687-5.823" transform="translate(-765.5 -711.699)" fill="none" stroke="#a48661" stroke-linecap="round" stroke-linejoin="round" stroke-width="2"/><path d="M1023.914,716.79a49.344,49.344,0,0,1-34.817,6.8c-10.877-2-21.393-7.765-32.376-6.9-11.274.883-21.226,8.589-31.8,13.318s-24.166,5.66-31.574-4.465a12.594,12.594,0,0,1-2.7-8.017c.185-2.947,2.2-5.834,4.688-5.823" transform="translate(-766.914 -711.699)" fill="none" stroke="#a48661" stroke-linecap="round" stroke-linejoin="round" stroke-width="2"/></g><g transform="translate(40.52)"><path d="M806.473,729.457c3.628-14.464,16.022-20,27.8-18.659a49.141,49.141,0,0,1,17.5,5.672c6.243,3.341,12.414,10.646,19.5,10.653a7.045,7.045,0,0,0,5.475-2.377,6.532,6.532,0,0,0,1.063-6.509,3.766,3.766,0,0,0-5.9-1.5,5.531,5.531,0,0,0-.223,7.162" transform="translate(-806.473 -710.605)" fill="none" stroke="#a48661" stroke-linecap="round" stroke-linejoin="round" stroke-width="2"/><path d="M983.673,729.457c-3.628-14.464-16.022-20-27.8-18.659a49.152,49.152,0,0,0-17.5,5.672c-6.242,3.341-12.413,10.646-19.5,10.653a7.048,7.048,0,0,1-5.475-2.377,6.534,6.534,0,0,1-1.062-6.509,3.766,3.766,0,0,1,5.9-1.5,5.531,5.531,0,0,1,.223,7.162" transform="translate(-807.712 -710.605)" fill="none" stroke="#a48661" stroke-linecap="round" stroke-linejoin="round" stroke-width="2"/></g></g><g transform="translate(765.5 788.6)"><path d="M765.5,777.719a49.332,49.332,0,0,1,34.817-6.8c10.877,2,21.393,7.763,32.376,6.9,11.274-.885,21.226-8.59,31.8-13.318s24.165-5.661,31.574,4.465a12.591,12.591,0,0,1,2.7,8.017c-.184,2.947-2.2,5.833-4.687,5.822" transform="translate(-765.5 -761.087)" fill="none" stroke="#a48661" stroke-linecap="round" stroke-linejoin="round" stroke-width="2"/><path d="M1023.914,777.719a49.332,49.332,0,0,0-34.817-6.8c-10.877,2-21.393,7.763-32.376,6.9-11.274-.885-21.226-8.59-31.8-13.318s-24.166-5.661-31.574,4.465a12.591,12.591,0,0,0-2.7,8.017c.185,2.947,2.2,5.833,4.688,5.822" transform="translate(-766.914 -761.087)" fill="none" stroke="#a48661" stroke-linecap="round" stroke-linejoin="round" stroke-width="2"/><g transform="translate(40.52 4.154)"><path d="M806.473,764.628c3.628,14.463,16.022,20,27.8,18.658a49.118,49.118,0,0,0,17.5-5.672c6.243-3.341,12.414-10.646,19.5-10.653a7.046,7.046,0,0,1,5.475,2.377,6.532,6.532,0,0,1,1.063,6.509,3.766,3.766,0,0,1-5.9,1.5,5.531,5.531,0,0,1-.223-7.162" transform="translate(-806.473 -764.628)" fill="none" stroke="#a48661" stroke-linecap="round" stroke-linejoin="round" stroke-width="2"/><path d="M983.673,764.628c-3.628,14.463-16.022,20-27.8,18.658a49.129,49.129,0,0,1-17.5-5.672c-6.242-3.341-12.413-10.646-19.5-10.653a7.048,7.048,0,0,0-5.475,2.377,6.534,6.534,0,0,0-1.062,6.509,3.766,3.766,0,0,0,5.9,1.5,5.531,5.531,0,0,0,.223-7.162" transform="translate(-807.712 -764.628)" fill="none" stroke="#a48661" stroke-linecap="round" stroke-linejoin="round" stroke-width="2"/></g></g></g></g></svg>