<svg xmlns="http://www.w3.org/2000/svg" width="259.753" height="103.033" viewBox="0 0 259.753 103.033"><g transform="translate(-553.624 -1867.005)"><g transform="translate(-210.5 1157.416)"><g transform="translate(765.5 710.605)"><g transform="translate(0 1.283)"><path d="M765.5,716.79a49.343,49.343,0,0,0,34.817,6.8c10.877-2,21.393-7.765,32.376-6.9,11.274.883,21.226,8.589,31.8,13.318s24.165,5.66,31.574-4.465a12.593,12.593,0,0,0,2.7-8.017c-.184-2.947-2.2-5.834-4.687-5.823" transform="translate(-765.5 -711.699)" fill="none" stroke="#a48661" stroke-linecap="round" stroke-linejoin="round" stroke-width="2"/><path d="M1023.914,716.79a49.344,49.344,0,0,1-34.817,6.8c-10.877-2-21.393-7.765-32.376-6.9-11.274.883-21.226,8.589-31.8,13.318s-24.166,5.66-31.574-4.465a12.594,12.594,0,0,1-2.7-8.017c.185-2.947,2.2-5.834,4.688-5.823" transform="translate(-766.914 -711.699)" fill="none" stroke="#a48661" stroke-linecap="round" stroke-linejoin="round" stroke-width="2"/></g><g transform="translate(40.52)"><path d="M806.473,729.457c3.628-14.464,16.022-20,27.8-18.659a49.141,49.141,0,0,1,17.5,5.672c6.243,3.341,12.414,10.646,19.5,10.653a7.045,7.045,0,0,0,5.475-2.377,6.532,6.532,0,0,0,1.063-6.509,3.766,3.766,0,0,0-5.9-1.5,5.531,5.531,0,0,0-.223,7.162" transform="translate(-806.473 -710.605)" fill="none" stroke="#a48661" stroke-linecap="round" stroke-linejoin="round" stroke-width="2"/><path d="M983.673,729.457c-3.628-14.464-16.022-20-27.8-18.659a49.152,49.152,0,0,0-17.5,5.672c-6.242,3.341-12.413,10.646-19.5,10.653a7.048,7.048,0,0,1-5.475-2.377,6.534,6.534,0,0,1-1.062-6.509,3.766,3.766,0,0,1,5.9-1.5,5.531,5.531,0,0,1,.223,7.162" transform="translate(-807.712 -710.605)" fill="none" stroke="#a48661" stroke-linecap="round" stroke-linejoin="round" stroke-width="2"/></g></g><g transform="translate(765.5 788.6)"><path d="M765.5,777.719a49.332,49.332,0,0,1,34.817-6.8c10.877,2,21.393,7.763,32.376,6.9,11.274-.885,21.226-8.59,31.8-13.318s24.165-5.661,31.574,4.465a12.591,12.591,0,0,1,2.7,8.017c-.184,2.947-2.2,5.833-4.687,5.822" transform="translate(-765.5 -761.087)" fill="none" stroke="#a48661" stroke-linecap="round" stroke-linejoin="round" stroke-width="2"/><path d="M1023.914,777.719a49.332,49.332,0,0,0-34.817-6.8c-10.877,2-21.393,7.763-32.376,6.9-11.274-.885-21.226-8.59-31.8-13.318s-24.166-5.661-31.574,4.465a12.591,12.591,0,0,0-2.7,8.017c.185,2.947,2.2,5.833,4.688,5.822" transform="translate(-766.914 -761.087)" fill="none" stroke="#a48661" stroke-linecap="round" stroke-linejoin="round" stroke-width="2"/><g transform="translate(40.52 4.154)"><path d="M806.473,764.628c3.628,14.463,16.022,20,27.8,18.658a49.118,49.118,0,0,0,17.5-5.672c6.243-3.341,12.414-10.646,19.5-10.653a7.046,7.046,0,0,1,5.475,2.377,6.532,6.532,0,0,1,1.063,6.509,3.766,3.766,0,0,1-5.9,1.5,5.531,5.531,0,0,1-.223-7.162" transform="translate(-806.473 -764.628)" fill="none" stroke="#a48661" stroke-linecap="round" stroke-linejoin="round" stroke-width="2"/><path d="M983.673,764.628c-3.628,14.463-16.022,20-27.8,18.658a49.129,49.129,0,0,1-17.5-5.672c-6.242-3.341-12.413-10.646-19.5-10.653a7.048,7.048,0,0,0-5.475,2.377,6.534,6.534,0,0,0-1.062,6.509,3.766,3.766,0,0,0,5.9,1.5,5.531,5.531,0,0,0,.223-7.162" transform="translate(-807.712 -764.628)" fill="none" stroke="#a48661" stroke-linecap="round" stroke-linejoin="round" stroke-width="2"/></g></g></g><path d="M-32.9-.933h8.832c7.012,0,9.846-1.744,9.846-6,0-3.577-2.417-5.5-7.191-5.735v-.207c4.565-.5,6.415-2.01,6.415-5.144,0-3.459-2.656-5.025-8.563-5.025H-32.9v.769c2.387.03,2.685.355,2.685,3.074V-4.776c0,2.72-.269,3.015-2.685,3.074ZM-26.361-13.2v-8.987h2.3c3.282,0,4.953,1.449,4.953,4.346,0,3.045-1.641,4.641-4.744,4.641Zm0,11.411V-12.255h2.417a6.8,6.8,0,0,1,3.521.8,5.005,5.005,0,0,1,1.939,4.375c0,3.518-1.88,5.292-5.609,5.292Zm15.038.857h8.354v-.709C-5.146-1.7-5.325-1.908-5.325-4.6V-17.31c0-1.981.06-3.873.179-6.06l-6.146.325v.68c2.118,0,2.327.266,2.327,2.867V-4.6c0,2.69-.179,2.9-2.357,2.956Zm11.01-7.6A8.672,8.672,0,0,0,1.746-2.706,7.644,7.644,0,0,0,7.355-.46a7.985,7.985,0,0,0,5.908-2.394,8.944,8.944,0,0,0,1.969-5.853c0-4.907-3.043-8.1-7.728-8.1a7.718,7.718,0,0,0-5.58,2.1A9.062,9.062,0,0,0-.313-8.53Zm4.028-.148a12.953,12.953,0,0,1,.955-5.735,2.959,2.959,0,0,1,2.775-1.715c2.6,0,3.789,2.365,3.789,7.538,0,5.144-1.164,7.45-3.759,7.45C4.909-1.14,3.715-3.564,3.715-8.678ZM25.258-3.327c-3.252,0-3.968-.236-3.968-1.271,0-.65.358-1.064,1.373-1.6a10.688,10.688,0,0,0,2.656.325,7.34,7.34,0,0,0,4.505-1.36,5.033,5.033,0,0,0,1.79-4.02,5.014,5.014,0,0,0-1.76-3.961h2.924v-1.3c-2.089.089-3.133.118-3.193.118a10.959,10.959,0,0,1-2.059-.177,13.384,13.384,0,0,0-2.357-.236c-3.909,0-6.445,2.247-6.445,5.705a4.661,4.661,0,0,0,1.223,3.37,6.565,6.565,0,0,0,1.7,1.153l-1.522.946C18.9-4.864,18.6-4.421,18.6-3.534a2.814,2.814,0,0,0,.806,1.951,3.588,3.588,0,0,0,1.343.857C18.634.457,18.336.811,18.336,2.053c0,2.306,2.447,3.577,6.8,3.577a11.481,11.481,0,0,0,5.848-1.3A4.547,4.547,0,0,0,33.1.4a3.208,3.208,0,0,0-1.79-3.1c-1.134-.473-2.118-.621-4.714-.621Zm-2.835-8.159c0-3.045.925-4.641,2.745-4.641s2.685,1.567,2.685,4.819c0,3.193-.865,4.759-2.685,4.759C23.378-6.549,22.423-8.294,22.423-11.486ZM25.735-.46c3.372,0,4.684.621,4.684,2.247,0,1.951-1.79,3.1-4.714,3.1-3.073,0-4.595-1.182-4.595-3.518,0-1.064.3-1.655.955-1.8Z" transform="translate(682 1928)" fill="#fff"/></g></svg>