<svg xmlns="http://www.w3.org/2000/svg" width="259.753" height="103.033" viewBox="0 0 259.753 103.033"><g transform="translate(-553.624 -639.981)"><path d="M-44.4-21.39v-2.4c.93-.24,1.29-.45,1.29-.78,0-.18-.12-.3-.39-.39-.39-.15-.69-.21-4.47-.54a10.963,10.963,0,0,1,.15,2.22v1.92h-8.01a8.552,8.552,0,0,1-2.43-.3l.21,1.14a10.608,10.608,0,0,1,2.22-.15h22.56c.15,0,.3-.12.3-.21a.679.679,0,0,0-.12-.27c-1.5-1.17-1.98-1.53-3.51-2.67-1.08,1.2-1.08,1.2-2.19,2.43Zm-6,7.56a2.7,2.7,0,0,0,1.89-2.4,3.39,3.39,0,0,0-1.53-2.43,17.247,17.247,0,0,0-2.97-1.77l-.3.27a8.468,8.468,0,0,1,1.53,4.98c.03.87.21,1.2.69,1.35h-5.7a10.951,10.951,0,0,1-2.82-.27l.21,1.17a13.433,13.433,0,0,1,2.64-.21h24.63c.24,0,.39-.09.39-.21a.6.6,0,0,0-.18-.27c-1.5-1.2-1.95-1.56-3.54-2.76-.96,1.11-1.26,1.47-2.19,2.55h-5.34a47.006,47.006,0,0,0,4.14-4.23c1.23-.15,1.56-.3,1.56-.6,0-.33-.21-.42-4.77-1.86a18.235,18.235,0,0,1-1.14,4.05c-.48,1.26-.75,1.92-1.08,2.64ZM-51.42.51h10.77V1.74c.03.48.18.57.96.57a5.054,5.054,0,0,0,2.34-.33.6.6,0,0,0,.21-.48c-.06-2.04-.09-3.63-.09-9.27V-8.82c.84-.42,1.08-.63,1.08-.93,0-.15-.12-.27-.39-.45-1.11-.78-1.47-1.02-2.7-1.8l-1.56,1.77H-51.03a40.692,40.692,0,0,0-3.84-1.83c.09,1.23.12,1.89.12,3,0,8.52,0,8.52-.12,10.77,0,.54.18.66.96.66,1.98,0,2.43-.15,2.49-.78Zm10.77-6H-51.42V-9.54h10.77Zm0,.69V-.18H-51.42V-4.8Zm23.64-2.88h-9.27a7.454,7.454,0,0,1-1.98-.24l.18,1.08a7.283,7.283,0,0,1,1.83-.21h7.05a33.223,33.223,0,0,1-9.96,8.1l.15.27A31.256,31.256,0,0,0-22.83-.96a20.6,20.6,0,0,0,5.82-4.2l-.03,2.64c0,.51-.03.84-.06,2.19-.03.6-.06,1.29-.06,2.13,0,.54.15.63,1.17.63,1.83,0,2.19-.12,2.22-.78C-13.8.51-13.8.12-13.83-1.14c-.03-.78-.03-1.44-.03-1.83l-.06-3.75A18.039,18.039,0,0,0-5.79.18a13.17,13.17,0,0,0,2.4.9c.15,0,.27-.12.33-.39A4.813,4.813,0,0,1-1.02-2.49v-.3A21.661,21.661,0,0,1-8.91-4.23a13.038,13.038,0,0,1-4.56-2.82H-1.68c.21,0,.36-.09.36-.21q0-.09-.18-.27C-2.97-8.67-3.42-9-4.95-10.11c-.96,1.02-1.23,1.35-2.19,2.43h-6.75V-9.36c.78-.24,1.11-.45,1.11-.69,0-.15-.12-.24-.33-.3-.3-.12-.51-.15-4.05-.45a13.056,13.056,0,0,1,.15,2.04Zm-3.75-3.27c0,.48.15.54,1.11.54,1.74,0,1.98-.09,2.01-.69v-.93h4.47v.84c0,.48.12.54,1.08.54,1.62,0,1.98-.12,2.01-.72-.09-2.37-.09-3.66-.09-5.61V-20.1c.78-.42.99-.57.99-.81,0-.15-.12-.27-.36-.48a27.756,27.756,0,0,0-2.28-1.62c-.69.66-.9.87-1.59,1.62h-2.73a30.908,30.908,0,0,0,2.28-2.25c1.02-.21,1.38-.39,1.38-.63,0-.39-.57-.51-4.53-1.14a18.909,18.909,0,0,1-.36,4.02h-.24a28.155,28.155,0,0,0-3.15-1.62c.06,1.14.09,3.45.12,6.93a44.845,44.845,0,0,1-7.98,2.64c1.74,3.99,1.74,3.99,2.04,3.99s.39-.27.48-1.38a48.943,48.943,0,0,0,5.46-4.65Zm3.12-6.21v-3.6h4.47v3.6Zm4.47.63v3.87h-4.47v-3.87Zm-14.64-6.54a15.277,15.277,0,0,1,3.12,4.89c.45,1.05.54,1.17.99,1.17.9,0,1.74-1.26,1.74-2.64,0-.78-.39-1.32-1.35-1.89a17.586,17.586,0,0,0-4.38-1.77Zm18.42,6.06a32.767,32.767,0,0,0,5.97-3.51h.18c1.11,0,1.38-.06,1.38-.39s0-.33-3.96-2.52A25.514,25.514,0,0,1-9.6-17.22Zm-.03,1.29a19.816,19.816,0,0,1,4.74,4.77c.33.42.54.6.81.6.72,0,1.41-1.11,1.41-2.34a1.883,1.883,0,0,0-1.38-1.92A32.976,32.976,0,0,0-9.3-15.99ZM29.7-17.19c.15,0,.27-.06.27-.18a.22.22,0,0,0-.06-.18c-1.35-1.17-1.77-1.53-3.18-2.7-.87,1.05-1.14,1.35-1.98,2.43H20.94a30.651,30.651,0,0,0,1.86-5.22c1.17-.27,1.35-.36,1.35-.63,0-.36-.66-.63-2.52-.93-.48-.09-1.23-.24-2.19-.45a49.2,49.2,0,0,1-1.98,9.42l-.12-.09a16.528,16.528,0,0,0-2.04-1.8,19.217,19.217,0,0,0-1.17,1.56H13.05a50.712,50.712,0,0,0,3.93-5.79c.99-.15,1.23-.24,1.23-.51,0-.3-.51-.6-2.1-1.23-.42-.18-1.02-.42-1.8-.75a21.387,21.387,0,0,1-1.47,3.54c-.45-.45-1.23-1.14-1.56-1.47-.57.63-.72.84-1.17,1.41H9.75l.03-2.73c.84-.3,1.2-.51,1.2-.78q0-.18-.27-.27c-.39-.21-.75-.24-4.17-.48.03.33.09,1.29.15,2.88v1.38H4.29A7.652,7.652,0,0,1,2.46-21l.18.99a11.233,11.233,0,0,1,1.65-.12h2.4v4.17H3.3a10.077,10.077,0,0,1-1.83-.21l.21.96a15.4,15.4,0,0,1,1.62-.12H9.54c-.63.87-1.71,2.16-2.46,3H3.99a9.786,9.786,0,0,1-1.83-.21l.21.96a3.078,3.078,0,0,0,.6-.06c.33-.03.66-.06.93-.06H6.48A26.794,26.794,0,0,1,1.29-7.32l.21.33A27.029,27.029,0,0,0,8.94-11.7h2.94A9.464,9.464,0,0,1,10.44-9c-.72-.06-1.23-.12-2.4-.21a14.256,14.256,0,0,1,.18,2.34v.42c-.21.03-.21.03-1.29.21-1.2.18-3.87.45-4.62.45H1.8c.3,1.26.84,3.12,1.05,3.63.09.24.18.33.33.33.18,0,.3-.15.39-.48.06-.15.12-.39.21-.66.15-.06.33-.12.51-.18,1.32-.36,1.32-.36,1.62-.45,1.2-.36,1.65-.51,2.31-.75v3c0,.51-.09.6-.66.6H7.35C5.91-.81,5.91-.81,3.45-.96L3.42-.6A6.68,6.68,0,0,1,6.39.48c.42.36.54.69.66,1.65.03.24.12.33.33.33A9.588,9.588,0,0,0,9.51,2.1c1.23-.36,1.62-.78,1.74-1.8,0-.36.03-.66.03-.84v-1.2c-.03-.63-.03-1.08-.03-1.14V-5.43a56.171,56.171,0,0,0,5.4-2.16l-.06-.3c-2.43.51-3.72.75-5.34.99v-.96c.6-.21.87-.42.87-.6,0-.21-.3-.36-.93-.45.24-.12.24-.12.57-.27.72-.33.9-.42,2.25-1.11.21-.12.54-.3.96-.51.3-.03.39-.06.63-.09-.45.96-.6,1.26-1.17,2.28l.27.15a23.3,23.3,0,0,0,3.69-4.62,24.8,24.8,0,0,0,1.98,7.02,21.714,21.714,0,0,1-3.24,3.9A30.186,30.186,0,0,1,11.4,2.1l.12.24A22.2,22.2,0,0,0,17.34-.09a18.983,18.983,0,0,0,4.32-3.48,16.132,16.132,0,0,0,4.29,4.83,2.851,2.851,0,0,0,1.11.6c.15,0,.24-.09.3-.3A8.209,8.209,0,0,1,27.9.36,3.639,3.639,0,0,1,30-1.38v-.3a16.1,16.1,0,0,1-6.69-3.96,20.337,20.337,0,0,0,2.61-5.46,35.8,35.8,0,0,0,1.26-6.09Zm-5.82,0c-.54,4.35-1.14,6.66-2.49,9.33a15.414,15.414,0,0,1-2.58-5.85,34.493,34.493,0,0,0,1.83-3.48Zm-6.54,1.86a29.315,29.315,0,0,1-1.35,3.54,18.377,18.377,0,0,0-2.52-1.92c-.6.57-.78.78-1.35,1.38H9.66a39.2,39.2,0,0,0,2.88-3Zm-4.8-4.8a41.824,41.824,0,0,1-2.55,4.17H9.72l.03-4.17Zm43.98,3.39a.2.2,0,0,0,.18-.15.286.286,0,0,0-.18-.21l-1.59-1.2c.45-.24.48-.24,1.89-.99.18-.09.54-.27.9-.48.18,0,.36-.03.54-.03l.54-.03a2.731,2.731,0,0,0,.81-.15.421.421,0,0,0,.24-.33c0-.18-.09-.3-.33-.51-1.41-1.08-1.86-1.41-3.36-2.43-.75.78-.99,1.02-1.71,1.8H47.37V-23.7c.99-.27,1.41-.51,1.41-.81,0-.42-.81-.57-4.89-.84a15.32,15.32,0,0,1,.09,2.22v1.68H36.75a6.365,6.365,0,0,0-.36-1.92h-.36a6.082,6.082,0,0,1-.57,2.16,5.116,5.116,0,0,1-1.86,1.8c-.72.45-.72.45-.84.54a1.254,1.254,0,0,0-.45,1.08,1.96,1.96,0,0,0,1.77,2.1,2.608,2.608,0,0,0,2.13-1.71,7.645,7.645,0,0,0,.57-3.42H54.69a12.875,12.875,0,0,1-.42,2.04l-.93-.66c-.84.87-1.11,1.14-1.92,2.07H39.06a11.779,11.779,0,0,1-2.22-.21l.24,1.05a11.384,11.384,0,0,1,1.98-.21h2.73a25.62,25.62,0,0,1-1.62,4.77,44.269,44.269,0,0,1-5.25-.18c.72,3.6.96,4.35,1.38,4.35.33,0,.51-.36.63-1.2,2.28-.27,7.14-.99,9.39-1.38,1.89-.33,1.89-.33,6.18-1.32a15.731,15.731,0,0,1,1.44,1.95c.63,1.05.9,1.32,1.26,1.32.75,0,1.44-1.2,1.44-2.46,0-1.17-.69-1.98-2.52-2.94a28.312,28.312,0,0,0-5.34-1.95l-.15.21a23.18,23.18,0,0,1,3.24,3.15c-6.21.39-6.81.39-10.26.45a39.333,39.333,0,0,0,4.32-4.77ZM47.37-5.22V-7.89c1.05-.36,1.23-.45,1.23-.75,0-.33-.39-.42-2.61-.63-.42-.06-1.2-.15-2.1-.24a25.618,25.618,0,0,1,.15,3.03v1.26H37.5a15.97,15.97,0,0,1-2.46-.21l.24,1.02a12.432,12.432,0,0,1,2.22-.18h6.54V.69H35.31A14.907,14.907,0,0,1,32.58.45l.24,1.08a16.9,16.9,0,0,1,2.46-.21H59.85c.12,0,.21-.06.21-.15s-.09-.18-.21-.3C58.29-.39,57.81-.75,56.37-1.8,55.35-.75,55.05-.42,54.06.69H47.37V-4.59H57.45c.12,0,.24-.06.24-.18,0-.06-.03-.12-.12-.21-1.47-1.2-1.92-1.53-3.36-2.58-1.05,1.11-1.05,1.11-2.19,2.34Z" transform="translate(682.61 700.997)" fill="#fff"/><g transform="translate(-210.5 -69.608)"><g transform="translate(765.5 710.605)"><g transform="translate(0 1.283)"><path d="M765.5,716.79a49.343,49.343,0,0,0,34.817,6.8c10.877-2,21.393-7.765,32.376-6.9,11.274.883,21.226,8.589,31.8,13.318s24.165,5.66,31.574-4.465a12.593,12.593,0,0,0,2.7-8.017c-.184-2.947-2.2-5.834-4.687-5.823" transform="translate(-765.5 -711.699)" fill="none" stroke="#a48661" stroke-linecap="round" stroke-linejoin="round" stroke-width="2"/><path d="M1023.914,716.79a49.344,49.344,0,0,1-34.817,6.8c-10.877-2-21.393-7.765-32.376-6.9-11.274.883-21.226,8.589-31.8,13.318s-24.166,5.66-31.574-4.465a12.594,12.594,0,0,1-2.7-8.017c.185-2.947,2.2-5.834,4.688-5.823" transform="translate(-766.914 -711.699)" fill="none" stroke="#a48661" stroke-linecap="round" stroke-linejoin="round" stroke-width="2"/></g><g transform="translate(40.52)"><path d="M806.473,729.457c3.628-14.464,16.022-20,27.8-18.659a49.141,49.141,0,0,1,17.5,5.672c6.243,3.341,12.414,10.646,19.5,10.653a7.045,7.045,0,0,0,5.475-2.377,6.532,6.532,0,0,0,1.063-6.509,3.766,3.766,0,0,0-5.9-1.5,5.531,5.531,0,0,0-.223,7.162" transform="translate(-806.473 -710.605)" fill="none" stroke="#a48661" stroke-linecap="round" stroke-linejoin="round" stroke-width="2"/><path d="M983.673,729.457c-3.628-14.464-16.022-20-27.8-18.659a49.152,49.152,0,0,0-17.5,5.672c-6.242,3.341-12.413,10.646-19.5,10.653a7.048,7.048,0,0,1-5.475-2.377,6.534,6.534,0,0,1-1.062-6.509,3.766,3.766,0,0,1,5.9-1.5,5.531,5.531,0,0,1,.223,7.162" transform="translate(-807.712 -710.605)" fill="none" stroke="#a48661" stroke-linecap="round" stroke-linejoin="round" stroke-width="2"/></g></g><g transform="translate(765.5 788.6)"><path d="M765.5,777.719a49.332,49.332,0,0,1,34.817-6.8c10.877,2,21.393,7.763,32.376,6.9,11.274-.885,21.226-8.59,31.8-13.318s24.165-5.661,31.574,4.465a12.591,12.591,0,0,1,2.7,8.017c-.184,2.947-2.2,5.833-4.687,5.822" transform="translate(-765.5 -761.087)" fill="none" stroke="#a48661" stroke-linecap="round" stroke-linejoin="round" stroke-width="2"/><path d="M1023.914,777.719a49.332,49.332,0,0,0-34.817-6.8c-10.877,2-21.393,7.763-32.376,6.9-11.274-.885-21.226-8.59-31.8-13.318s-24.166-5.661-31.574,4.465a12.591,12.591,0,0,0-2.7,8.017c.185,2.947,2.2,5.833,4.688,5.822" transform="translate(-766.914 -761.087)" fill="none" stroke="#a48661" stroke-linecap="round" stroke-linejoin="round" stroke-width="2"/><g transform="translate(40.52 4.154)"><path d="M806.473,764.628c3.628,14.463,16.022,20,27.8,18.658a49.118,49.118,0,0,0,17.5-5.672c6.243-3.341,12.414-10.646,19.5-10.653a7.046,7.046,0,0,1,5.475,2.377,6.532,6.532,0,0,1,1.063,6.509,3.766,3.766,0,0,1-5.9,1.5,5.531,5.531,0,0,1-.223-7.162" transform="translate(-806.473 -764.628)" fill="none" stroke="#a48661" stroke-linecap="round" stroke-linejoin="round" stroke-width="2"/><path d="M983.673,764.628c-3.628,14.463-16.022,20-27.8,18.658a49.129,49.129,0,0,1-17.5-5.672c-6.242-3.341-12.413-10.646-19.5-10.653a7.048,7.048,0,0,0-5.475,2.377,6.534,6.534,0,0,0-1.062,6.509,3.766,3.766,0,0,0,5.9,1.5,5.531,5.531,0,0,0,.223-7.162" transform="translate(-807.712 -764.628)" fill="none" stroke="#a48661" stroke-linecap="round" stroke-linejoin="round" stroke-width="2"/></g></g></g></g></svg>