<svg xmlns="http://www.w3.org/2000/svg" width="299.1" height="103.033" viewBox="0 0 299.1 103.033"><g transform="translate(-535 -218.983)"><path d="M-145.98-21.18c1.38,2.28,3.39,3.3,6.45,3.3.24,0,.51,0,.9-.03-2.94,1.86-3.84,2.43-4.5,2.88l.18.36a41.316,41.316,0,0,1,9.03-2.79,5.632,5.632,0,0,0,1.83-.39.98.98,0,0,0,.78-.99c0-1.11-1.56-2.43-2.88-2.43a1.71,1.71,0,0,0-.66.12,10.571,10.571,0,0,1-3,.78,26.615,26.615,0,0,1-3.33.27,6.716,6.716,0,0,1-4.56-1.29Zm-.81,11.16a9.643,9.643,0,0,0-.78,3.6,5.9,5.9,0,0,0,2.7,5.07c1.59,1.02,4.11,1.53,7.59,1.53a23.6,23.6,0,0,0,7.23-.81A1.509,1.509,0,0,0-129-1.98c0-1.08-1.62-2.34-3.03-2.34a3.1,3.1,0,0,0-1.11.27,15.074,15.074,0,0,1-6.09,1.02c-5.1,0-7.29-1.62-7.29-5.37a11.965,11.965,0,0,1,.12-1.53Zm18.33-15.81a13.054,13.054,0,0,1,3.6,3.54c.45.63.66.81.99.81.54,0,.9-.48.9-1.2,0-.84-.54-1.53-1.74-2.31a10.229,10.229,0,0,0-3.51-1.32Zm-3.21,2.25a13.216,13.216,0,0,1,3.54,3.99c.39.69.63.87,1.02.87.57,0,.93-.48.93-1.17,0-.96-.63-1.83-2.01-2.76a11.5,11.5,0,0,0-3.21-1.44Zm17.01.24a14.743,14.743,0,0,1-3.12-.27l.21,1.11a19.1,19.1,0,0,1,3.06-.21h11.88a34.615,34.615,0,0,1-3.39,4.26,26.328,26.328,0,0,0-6.6-2.58l-.24.27a19.729,19.729,0,0,1,5.31,5.49c.42.66.48.75.72.93h-10.56a16.305,16.305,0,0,1-3.18-.3l.21,1.14a21.741,21.741,0,0,1,2.91-.21h8.37V-2.19c0,.42-.12.54-.57.57-2.61-.06-3.57-.12-6.63-.33l-.03.45c3.15.72,3.87.9,4.56,1.32a2.314,2.314,0,0,1,1.2,1.92c.06.45.12.51.45.51a8.918,8.918,0,0,0,1.89-.3c2.04-.54,2.7-1.29,2.7-3.24,0-.03-.03-.18-.03-.3-.03-2.85-.06-6.12-.06-7.23v-4.89h6.66a32.545,32.545,0,0,1-4.11,5.61l.27.33a47.564,47.564,0,0,0,7.53-4.77c1.53-.03,1.98-.15,1.98-.54,0-.15-.15-.33-.45-.63-1.38-1.17-1.83-1.53-3.36-2.64-.84.84-1.11,1.11-1.92,2.01h-6.48a2.305,2.305,0,0,0,1.11-2.01,1.841,1.841,0,0,0-.81-1.53,43.078,43.078,0,0,0,6.54-3.72h.99c.54,0,.9-.15.9-.39,0-.18-.15-.36-.48-.66-1.41-1.17-1.86-1.5-3.36-2.58-.87.81-1.14,1.05-1.95,1.89ZM-85.59-7.8c-1.02-.33-1.68-.48-3.36-.9v.66a32.141,32.141,0,0,1-1.71,9.15l.3.18a24.948,24.948,0,0,0,4.2-8.13c.27-.06.33-.06.57-.12v1.62c0,.3-.06,2.73-.18,7.23,0,.48.21.6,1.05.6,1.14,0,1.74-.12,1.92-.39a.826.826,0,0,0,.09-.48c-.03-2.52-.06-5.55-.06-6.96v-6.33a17,17,0,0,0,1.8-.57c.15.63.24,1.05.33,1.62.15.87.36,1.2.75,1.2A2.206,2.206,0,0,0-78-11.58a2.2,2.2,0,0,0-.81-1.65,20.139,20.139,0,0,0,4.29-5.46h7.56c.03.42.03.72.03.93A81.866,81.866,0,0,1-68.04-3.81c-.42,1.95-.66,2.31-1.59,2.31-1.26,0-2.22-.06-6.12-.39l-.03.39c2.85.84,3.36,1.02,3.99,1.41A2.325,2.325,0,0,1-70.74,1.8c.03.42.12.54.45.54a5.726,5.726,0,0,0,.84-.09,5.2,5.2,0,0,0,2.88-1.14c.96-.81,1.41-1.95,1.92-4.89.54-3.12.66-4.62,1.02-14.1.75-.36,1.02-.6,1.02-.84,0-.15-.09-.3-.36-.54-1.08-.84-1.41-1.08-2.61-1.92-.75.81-.99,1.05-1.71,1.86h-6.87a35.408,35.408,0,0,0,1.89-4.05c.87-.09,1.29-.27,1.29-.6s-.6-.54-2.55-.9c-.48-.09-1.29-.27-2.31-.45a29.354,29.354,0,0,1-1.35,6.9,26.965,26.965,0,0,1-1.98,4.83,17.682,17.682,0,0,0-3.09-2.34l-.24.24a8.594,8.594,0,0,1,1.26,2.52c-.99.12-2.82.24-4.92.33a38.915,38.915,0,0,0,6.75-6.6c1.02-.06,1.35-.18,1.35-.51,0-.24-.45-.48-1.89-1.02-.45-.18-1.14-.45-2.01-.78a29.846,29.846,0,0,1-2.79,5.28,40.848,40.848,0,0,1-2.64,3.69c-.36.03-.6.03-.72.03-.87,0-1.17,0-2.22-.06.84,3.6.84,3.69,1.17,3.69.24,0,.39-.27.51-.96,1.47-.36,1.47-.36,3.06-.81Zm-4.62-12.99a9.586,9.586,0,0,1,2.49,4.14c.39,1.2.54,1.41.99,1.41.87,0,1.68-1.05,1.68-2.19,0-.9-.3-1.32-1.65-2.13.51-.33,1.8-1.5,4.08-3.6,1.05-.09,1.41-.21,1.41-.51,0-.39-.75-.66-4.62-1.68a20.092,20.092,0,0,1-1.65,5.37A17.3,17.3,0,0,0-90-21.03Zm7.86,11.94a14.212,14.212,0,0,1,1.47,5.73c.09,1.38.09,1.38.18,1.62a.6.6,0,0,0,.57.42c.9,0,1.95-1.5,1.95-2.76A4.87,4.87,0,0,0-79.62-6.9a14.834,14.834,0,0,0-2.55-2.16Zm6.36-6.06a16.772,16.772,0,0,1,1.68,3.42,25.765,25.765,0,0,1,.87,3.57c.12.9.36,1.26.84,1.26,1.11,0,2.25-1.47,2.25-2.91,0-1.65-1.59-3.3-5.4-5.58Zm30.09.33a3.207,3.207,0,0,0-3.21,3.18A3.214,3.214,0,0,0-45.9-8.19a3.207,3.207,0,0,0,3.18-3.21A3.163,3.163,0,0,0-45.9-14.58Zm17.79-2.67c1.29,2.25,2.76,3.18,5.13,3.18a11.175,11.175,0,0,0,2.04-.21c-.06,1.83-.09,3.66-.15,5.46a17.386,17.386,0,0,0-5.28,3.39,3,3,0,0,0-1.08,1.98,1.436,1.436,0,0,0,.57,1.17,2.193,2.193,0,0,0,1.2.45c1.11.24,1.68.66,2.91,2.1.51.57.51.57.63.72a1.455,1.455,0,0,0,1.05.45A2.212,2.212,0,0,0-19.38.42a4.121,4.121,0,0,0,.84-2.67c0-.39-.03-.84-.06-1.35-.15-2.82-.15-2.82-.18-4.17a15.559,15.559,0,0,1,7.44-2.19c2.79,0,4.32,1.23,4.32,3.45a3.872,3.872,0,0,1-3.93,4.2c-1.8,0-3.27-1.11-4.59-3.45l-.33.12a9.052,9.052,0,0,0,1.62,3.66A5.653,5.653,0,0,0-9.66.42,5.8,5.8,0,0,0-3.81-5.49c0-3.54-2.85-5.76-7.38-5.76a21.128,21.128,0,0,0-7.62,1.59c.03-2.7.03-3.3.15-5.01a23.274,23.274,0,0,0,4.11-1.32c1.41-.6,2.01-1.08,2.01-1.65a.975.975,0,0,0-.33-.75,3.35,3.35,0,0,0-1.83-.63,1.8,1.8,0,0,0-1.14.51,7.756,7.756,0,0,1-2.55,1.44,8.545,8.545,0,0,1,.9-3.54,1.818,1.818,0,0,0,.42-1.08,1.692,1.692,0,0,0-1.11-1.44,9.439,9.439,0,0,0-3.81-.84,2.287,2.287,0,0,0-1.71.57c1.35.27,2.04.69,2.4,1.44a10.78,10.78,0,0,1,.39,3.93c0,.6,0,.96-.03,1.71a12.6,12.6,0,0,1-3.12.45,4.916,4.916,0,0,1-3.78-1.62Zm6.9,10.71c0,.93-.15,3.48-.21,3.96-.09.57-.21.72-.66.72a5.455,5.455,0,0,1-2.16-.6c-.3-.18-.45-.39-.45-.6C-24.69-3.75-23.19-5.28-21.21-6.54Zm10.65-13.8a6.007,6.007,0,0,1,3.45,1.62,3.054,3.054,0,0,1,.87,1.35c0,.3-1.38,1.17-3.69,2.37l.12.27a23.366,23.366,0,0,1,3.72-.57,3.307,3.307,0,0,1,.99.18,2.925,2.925,0,0,0,.96.21,1.51,1.51,0,0,0,1.56-1.71,3.606,3.606,0,0,0-2.13-3.03,8.552,8.552,0,0,0-4.5-1.08,11.607,11.607,0,0,0-1.35.06Zm21.21,4.92v.87c0,.45.18.54,1.02.54,1.68,0,2.13-.18,2.16-.81-.06-2.55-.06-2.64-.06-7.38.78-.36,1.02-.54,1.02-.75,0-.15-.12-.27-.39-.48-1.02-.75-1.35-.99-2.37-1.71-.69.72-.93.93-1.62,1.68H6.18c-1.56-.81-2.04-1.02-3.66-1.71.12,2.55.18,4.47.18,8.88,0,8.01-.06,15-.15,18.24-.03.63.18.75,1.23.75a3.293,3.293,0,0,0,1.95-.36.906.906,0,0,0,.15-.6V-15.42Zm0-.63H5.88v-3.21h4.77Zm0-3.84H5.88v-2.94h4.77Zm14.07,4.47V-1.41c0,.36-.09.45-.45.45-1.95-.06-2.61-.09-5.13-.27l-.03.33c2.61.75,2.88.84,3.39,1.17a2.148,2.148,0,0,1,.96,1.8c.03.42.12.54.42.54a8.7,8.7,0,0,0,2.13-.39A2.635,2.635,0,0,0,28.08-.69c-.06-2.28-.09-5.91-.09-7.95V-21.93c.78-.45,1.02-.66,1.02-.93,0-.12-.12-.24-.39-.48-.99-.78-1.32-1.02-2.4-1.8-.72.72-.93.96-1.71,1.68H19.83a27.865,27.865,0,0,0-3.42-1.68c.09,1.62.12,2.55.12,4.77,0,1.92-.03,2.22-.09,5.7,0,.51.18.6,1.14.6,1.68,0,2.1-.12,2.13-.66v-.69Zm0-.63H19.71v-3.21h5.01Zm0-3.84H19.71v-2.94h5.01ZM12.39-3.75h5.58v.99c0,.51.15.6,1.02.6,1.74,0,2.19-.18,2.22-.84-.12-1.98-.12-3.03-.12-5.07V-9.6c.75-.39.99-.57.99-.81,0-.15-.12-.3-.39-.51-.99-.75-1.29-.99-2.31-1.74-.69.75-.9.99-1.62,1.77H12.6a35.475,35.475,0,0,0-3.48-1.92c.09,1.32.12,2.37.12,4.17,0,3.18-.03,4.59-.09,6.69,0,.54.18.63,1.17.63,1.65,0,2.04-.15,2.07-.81Zm0-6.51h5.58v5.88H12.39Zm31.65-2.61c-1.32,2.01-2.49,3.96-4.44,7.32a2.976,2.976,0,0,1-1.17-1.68,12.071,12.071,0,0,1-.6-3.81,16.764,16.764,0,0,1,.66-4.44,4.692,4.692,0,0,0,.21-1.11,2.313,2.313,0,0,0-.27-1.17,7.636,7.636,0,0,0-3.09-3.09,3.427,3.427,0,0,0-2.04-.72c1.47,1.68,1.77,2.55,1.77,4.95v.48c-.06,2.64-.06,2.64-.06,2.85,0,4.05.75,7.2,2.25,9.48C38.4-2.1,39.99-.93,41.22-.93a1.4,1.4,0,0,0,1.44-1.44,2.34,2.34,0,0,0-.09-.66,4.748,4.748,0,0,1-.42-1.83,13.3,13.3,0,0,1,.39-2.52,37.074,37.074,0,0,1,1.8-5.34Zm5.88-4.95a7.748,7.748,0,0,1,4.02,4.08,11.569,11.569,0,0,1,.96,4.32c0,.6-.09.72-.63.96-.48.21-1.62.57-4.26,1.35l.06.3c3.24.06,3.87.18,4.59.99a1.426,1.426,0,0,0,1.2.63c1.47,0,2.49-1.44,2.49-3.48a9.265,9.265,0,0,0-2.1-6,9.378,9.378,0,0,0-6.21-3.48Zm12.48,7.2a29.249,29.249,0,0,0,7.65-4.32A26.378,26.378,0,0,0,77.1-22.8c2.46,5.07,4.59,7.62,8.52,10.2a9.431,9.431,0,0,0,2.46,1.29.373.373,0,0,0,.36-.3c.69-2.04,1.38-2.85,2.64-3.27l.03-.39a23.981,23.981,0,0,1-7.47-2.55,16.222,16.222,0,0,1-6.12-5.37c.93-.12,1.35-.3,1.35-.6,0-.39-.18-.45-5.16-1.5a22.882,22.882,0,0,1-3.84,6.81,36.451,36.451,0,0,1-7.65,7.53Zm7.41-2.61a7.133,7.133,0,0,1,1.68-.18H82.53c.27,0,.39-.06.39-.18,0-.09-.06-.15-.18-.3-1.41-1.14-1.83-1.47-3.3-2.55l-2.07,2.4H71.58a11.573,11.573,0,0,1-2.01-.24ZM70.47.33H81.96V1.59c0,.48.24.66.99.66a9.31,9.31,0,0,0,2.16-.27.591.591,0,0,0,.42-.63V1.17c-.12-3.75-.15-5.13-.15-9.03.87-.39,1.11-.57,1.11-.84,0-.12-.12-.27-.39-.51-1.11-.87-1.47-1.14-2.64-1.95l-1.8,1.98H70.89a37.086,37.086,0,0,0-3.96-1.92c.09,1.29.12,2.37.12,5.19,0,2.73-.06,5.04-.15,7.29v.21c0,.54.27.72,1.11.72a8.927,8.927,0,0,0,1.98-.21c.36-.15.48-.36.48-.81Zm0-8.88H81.96V-.3H70.47ZM107.43.12c7.53-1.02,12-4.53,12-9.45a6.228,6.228,0,0,0-1.98-4.86,8.224,8.224,0,0,0-5.49-2.01c-2.73,0-5.16.84-9.06,3.12a4.016,4.016,0,0,1,.06-.69v-.27a13.018,13.018,0,0,1,1.23-1.77c.45-.51.54-.69.54-.96,0-.45-.3-.81-1.2-1.47a9.672,9.672,0,0,1,.63-1.89c.48-.93.48-.93.48-1.32,0-.6-.57-1.32-1.56-1.98a6.485,6.485,0,0,0-3.18-1.2,1.545,1.545,0,0,0-.63.15,4.335,4.335,0,0,1,1.56,1.44,3.31,3.31,0,0,1,.39,2.1c0,.75-.09,2.49-.18,3.33a15.248,15.248,0,0,1-4.44,1.53c-.78,0-1.29-.42-2.04-1.59a1.9,1.9,0,0,0-.15.66c0,1.35,1.5,3.24,2.55,3.24a2.239,2.239,0,0,0,1.29-.54,21.268,21.268,0,0,1,2.7-1.77c-.03.42-.03.48-.03,1.05-.03.6-.03.6-.06,1.02a59.025,59.025,0,0,1-5.7,7.14c-.81.69-.96.93-.96,1.59a6.278,6.278,0,0,0,.39,1.98c.24.54.54.81.93.81.42,0,.72-.27,1.26-1.26.06-.15.18-.33.33-.6A11.32,11.32,0,0,1,99.75-.39a6.344,6.344,0,0,0,.33,1.17,1.052,1.052,0,0,0,.99.69c1.29,0,2.22-1.71,2.22-3.99a3.456,3.456,0,0,0-.03-.6,70.757,70.757,0,0,1-.48-7.23v-.42c3.18-2.76,6-4.14,8.58-4.14,2.7,0,4.44,1.95,4.44,5.01a8.507,8.507,0,0,1-1.98,5.49,14.991,14.991,0,0,1-6.51,4.17Zm-6.75-10.68c-.06,1.74-.15,5.91-.18,7.47a28.778,28.778,0,0,1-3.09-1.77c.48-.87.81-1.44,1.47-2.55C99.87-9.03,100.14-9.51,100.68-10.56Zm34.86.45c3.03,2.88,3.03,2.88,3.18,3.75.15.78.45,1.08,1.08,1.08a2.778,2.778,0,0,0,1.44-.45,3.983,3.983,0,0,0,1.65-2.34,33.8,33.8,0,0,0,.93-6.33,27.4,27.4,0,0,1,3.27-.21c.48,0,1.41,0,1.74.03,1.11.03,1.11.03,1.26.03q1.44,0,1.44-.9a1.251,1.251,0,0,0-.63-1.11,5.448,5.448,0,0,0-2.79-1.08,2.121,2.121,0,0,0-.87.24A9.271,9.271,0,0,1,144-16.38a13.486,13.486,0,0,1,.84-3.9,1.754,1.754,0,0,0,.3-.96c0-.66-.3-1.08-1.17-1.62a8.478,8.478,0,0,0-3.93-1.23,1.919,1.919,0,0,0-1.35.42,3.78,3.78,0,0,1,1.8.99c.72.69.93,1.38.93,3.03,0,1.47,0,1.83-.09,3.81l-4.14.84c-.45.09-1.2.24-3.3.75a9.591,9.591,0,0,1,.45-2.79,2.315,2.315,0,0,0,.18-.84c0-.78-.57-1.38-1.89-1.92a8.252,8.252,0,0,0-3.03-.66,2.443,2.443,0,0,0-1.5.39c1.56.48,2.4,1.17,2.67,2.19a19.849,19.849,0,0,1,.3,2.58c.03,1.44.03,1.44.06,1.74a22.807,22.807,0,0,1-4.62.9,3.339,3.339,0,0,1-3-1.68,3.422,3.422,0,0,0-.09.63,4.463,4.463,0,0,0,.9,2.19,3.584,3.584,0,0,0,2.61,1.83,1.836,1.836,0,0,0,.99-.33,14.428,14.428,0,0,1,3.27-1.5c.06,2.7.09,3.63.15,4.44.18,2.55.54,4.08,1.29,5.1C133.92-.12,136.23.6,140.88.6A22.6,22.6,0,0,0,146.7,0a1.317,1.317,0,0,0,1.02-1.2,1.749,1.749,0,0,0-.78-1.35,3.642,3.642,0,0,0-1.98-.9,2.436,2.436,0,0,0-1.17.3,16.432,16.432,0,0,1-5.52.84c-1.83,0-2.82-.21-3.48-.72-.93-.69-1.17-1.8-1.17-5.22,0-1.53.03-2.52.15-4.14a40.269,40.269,0,0,1,7.44-1.71,33.464,33.464,0,0,1-.72,4.8c-.15.48-.33.69-.6.69-.57,0-1.89-.54-4.17-1.74Z" transform="translate(682.57 282.31)" fill="#fff"/><g transform="translate(-208.5 -490.605)"><g transform="translate(765.5 710.605)"><g transform="translate(0 1.283)"><path d="M765.5,716.79a49.343,49.343,0,0,0,34.817,6.8c10.877-2,21.393-7.765,32.376-6.9,11.274.883,21.226,8.589,31.8,13.318s24.165,5.66,31.574-4.465a12.593,12.593,0,0,0,2.7-8.017c-.184-2.947-2.2-5.834-4.687-5.823" transform="translate(-765.5 -711.699)" fill="none" stroke="#a48661" stroke-linecap="round" stroke-linejoin="round" stroke-width="2"/><path d="M1023.914,716.79a49.344,49.344,0,0,1-34.817,6.8c-10.877-2-21.393-7.765-32.376-6.9-11.274.883-21.226,8.589-31.8,13.318s-24.166,5.66-31.574-4.465a12.594,12.594,0,0,1-2.7-8.017c.185-2.947,2.2-5.834,4.688-5.823" transform="translate(-766.914 -711.699)" fill="none" stroke="#a48661" stroke-linecap="round" stroke-linejoin="round" stroke-width="2"/></g><g transform="translate(40.52)"><path d="M806.473,729.457c3.628-14.464,16.022-20,27.8-18.659a49.141,49.141,0,0,1,17.5,5.672c6.243,3.341,12.414,10.646,19.5,10.653a7.045,7.045,0,0,0,5.475-2.377,6.532,6.532,0,0,0,1.063-6.509,3.766,3.766,0,0,0-5.9-1.5,5.531,5.531,0,0,0-.223,7.162" transform="translate(-806.473 -710.605)" fill="none" stroke="#a48661" stroke-linecap="round" stroke-linejoin="round" stroke-width="2"/><path d="M983.673,729.457c-3.628-14.464-16.022-20-27.8-18.659a49.152,49.152,0,0,0-17.5,5.672c-6.242,3.341-12.413,10.646-19.5,10.653a7.048,7.048,0,0,1-5.475-2.377,6.534,6.534,0,0,1-1.062-6.509,3.766,3.766,0,0,1,5.9-1.5,5.531,5.531,0,0,1,.223,7.162" transform="translate(-807.712 -710.605)" fill="none" stroke="#a48661" stroke-linecap="round" stroke-linejoin="round" stroke-width="2"/></g></g><g transform="translate(765.5 788.6)"><path d="M765.5,777.719a49.332,49.332,0,0,1,34.817-6.8c10.877,2,21.393,7.763,32.376,6.9,11.274-.885,21.226-8.59,31.8-13.318s24.165-5.661,31.574,4.465a12.591,12.591,0,0,1,2.7,8.017c-.184,2.947-2.2,5.833-4.687,5.822" transform="translate(-765.5 -761.087)" fill="none" stroke="#a48661" stroke-linecap="round" stroke-linejoin="round" stroke-width="2"/><path d="M1023.914,777.719a49.332,49.332,0,0,0-34.817-6.8c-10.877,2-21.393,7.763-32.376,6.9-11.274-.885-21.226-8.59-31.8-13.318s-24.166-5.661-31.574,4.465a12.591,12.591,0,0,0-2.7,8.017c.185,2.947,2.2,5.833,4.688,5.822" transform="translate(-766.914 -761.087)" fill="none" stroke="#a48661" stroke-linecap="round" stroke-linejoin="round" stroke-width="2"/><g transform="translate(40.52 4.154)"><path d="M806.473,764.628c3.628,14.463,16.022,20,27.8,18.658a49.118,49.118,0,0,0,17.5-5.672c6.243-3.341,12.414-10.646,19.5-10.653a7.046,7.046,0,0,1,5.475,2.377,6.532,6.532,0,0,1,1.063,6.509,3.766,3.766,0,0,1-5.9,1.5,5.531,5.531,0,0,1-.223-7.162" transform="translate(-806.473 -764.628)" fill="none" stroke="#a48661" stroke-linecap="round" stroke-linejoin="round" stroke-width="2"/><path d="M983.673,764.628c-3.628,14.463-16.022,20-27.8,18.658a49.129,49.129,0,0,1-17.5-5.672c-6.242-3.341-12.413-10.646-19.5-10.653a7.048,7.048,0,0,0-5.475,2.377,6.534,6.534,0,0,0-1.062,6.509,3.766,3.766,0,0,0,5.9,1.5,5.531,5.531,0,0,0,.223-7.162" transform="translate(-807.712 -764.628)" fill="none" stroke="#a48661" stroke-linecap="round" stroke-linejoin="round" stroke-width="2"/></g></g></g></g></svg>