<svg xmlns="http://www.w3.org/2000/svg" width="259.753" height="103.033" viewBox="0 0 259.753 103.033"><g transform="translate(-553.153 -2591.005)"><path d="M-84.2-16.569a1.469,1.469,0,0,0-.124.569,3.389,3.389,0,0,0,.7,1.857c.647,1.015,1.418,1.609,2.04,1.609a2.025,2.025,0,0,0,.945-.272,26.88,26.88,0,0,1,3.408-.916,31.963,31.963,0,0,1,4.578-.569c.4,0,.547.1.547.446A78.027,78.027,0,0,1-73.133-5.3c-1.94.173-3.533.347-4.752.47-1.99.223-1.99.223-3.11.371-.473.05-1.045.1-1.319.1A3.1,3.1,0,0,1-84.95-6.022a3.219,3.219,0,0,0-.075.569c0,1.411,1.741,3.565,2.861,3.565a2.122,2.122,0,0,0,.6-.124,21.744,21.744,0,0,1,8.16-1.411,17.552,17.552,0,0,1,2.115.1,11.725,11.725,0,0,0,1.169.124c.522,0,.8-.248.8-.693,0-.545-.473-1.164-1.393-1.807.1-.421.224-.966.4-1.708.672-2.8.721-2.971.945-3.887a3.561,3.561,0,0,1,.622-1.584c.323-.347.4-.47.4-.743,0-.4-.249-.767-.9-1.386a4.637,4.637,0,0,0-2.289-1.436,1.1,1.1,0,0,0-.6.173,4.339,4.339,0,0,1-1.592.545c-2.587.4-6.617.817-7.737.817a2.58,2.58,0,0,1-1.592-.421A4.257,4.257,0,0,1-84.2-16.569Zm24.5-.47a11.639,11.639,0,0,1,4.4,4.679c.373.644.622.842,1.045.842.771,0,1.343-.891,1.343-2.055A2.324,2.324,0,0,0-54.127-15.7c-1.169-.743-2.662-1.164-5.448-1.609Zm18.733,1.015a48.791,48.791,0,0,1-8.981,7.972c-2.96,2.1-6.219,3.813-7.264,3.813-.672,0-1.493-.693-2.164-1.832A1.917,1.917,0,0,0-59.5-5.4a4.711,4.711,0,0,0,1.194,2.748c.871,1.114,1.791,1.807,2.438,1.807a1.365,1.365,0,0,0,1.045-.619A5.623,5.623,0,0,1-53.48-2.556,40,40,0,0,0-46.265-8.2a26.5,26.5,0,0,0,5.6-7.675Zm11.717,17.33A11.869,11.869,0,0,0-25.692-.427a9.252,9.252,0,0,0,4.3-6.759,34.643,34.643,0,0,0,.348-5.1h.8c1.542,0,2.936.05,4.155.173a2.591,2.591,0,0,0,.4.025.744.744,0,0,0,.8-.743c0-.4-.3-.767-.92-1.164a3.7,3.7,0,0,0-1.741-.644,1.4,1.4,0,0,0-.672.173,7.178,7.178,0,0,1-2.761.545,8.532,8.532,0,0,1,.547-3.367,1.284,1.284,0,0,0,.149-.594c0-.5-.323-.867-1.07-1.213a7.548,7.548,0,0,0-3.135-.743,1.715,1.715,0,0,0-1.194.347,3,3,0,0,1,1.816.966c.373.446.5,1.188.5,2.946,0,.941,0,1.584-.025,1.956a6.65,6.65,0,0,1-.7.074c-1.468.173-1.468.173-1.766.2-1.07.124-1.692.223-2.562.371a8.534,8.534,0,0,1,.3-2.129,1.956,1.956,0,0,0,.174-.767c0-.421-.224-.743-.871-1.164A6.51,6.51,0,0,0-31.861-18.1a1.281,1.281,0,0,0-.821.248,2.752,2.752,0,0,1,1.741,1.708,14.456,14.456,0,0,1,.3,3.491,25.581,25.581,0,0,1-3.831.545,2.864,2.864,0,0,1-2.413-1.263,1.82,1.82,0,0,0-.05.3,3.052,3.052,0,0,0,.448,1.287c.672,1.139,1.617,1.956,2.239,1.956a2.493,2.493,0,0,0,1-.3,8.3,8.3,0,0,1,2.637-.941A9.474,9.474,0,0,1-31.04-7.78a1.966,1.966,0,0,0-.174.693,3.047,3.047,0,0,0,.547,1.461c.423.594.846.916,1.269.916.7,0,1.02-.594,1.02-1.882V-6.74c-.025-.817-.05-2.7-.05-3.491v-1.337a31.353,31.353,0,0,1,5.025-.644c-.05,3.763-.4,6.041-1.294,8.071a11.644,11.644,0,0,1-4.727,5.224Zm18.957-13.988a.921.921,0,0,0-.3.817A5.422,5.422,0,0,0-9.72-9.291c.572.99,1.244,1.535,1.841,1.535a2.242,2.242,0,0,0,.846-.2,2.91,2.91,0,0,1,1.095-.223c1.816-.074,1.94-.1,3.085-.1,7.513-.05,9.7-.124,11.1-.3,1.07-.149,1.617-.545,1.617-1.164a.967.967,0,0,0-.3-.743c-.4-.347-1.169-.446-3.657-.446-.746,0-2.363,0-2.786.025-4.3.1-8.856.173-9.852.173a3.812,3.812,0,0,1-2.488-.52A3.789,3.789,0,0,1-10.292-12.682Zm30.177-7.081A3.023,3.023,0,0,1,21.6-18.476c.373.668.448,1.609.448,5.174,0,6.338-.149,9.21-.572,10.423a2.537,2.537,0,0,0-.224.99,3.8,3.8,0,0,0,.9,2.005,1.765,1.765,0,0,0,1.343.867.9.9,0,0,0,.871-.619,4.529,4.529,0,0,0,.149-1.485c0-.421,0-.767-.025-1.188-.075-2.946-.075-2.946-.075-5.026v-3.887A14.184,14.184,0,0,1,29.96-7.359c.647.718.8.817,1.169.817.647,0,1.095-.693,1.095-1.758a2.521,2.521,0,0,0-1.816-2.426,18.685,18.685,0,0,0-6-1.213c.05-1.312.1-2.921.149-3.417a3.138,3.138,0,0,1,.423-1.634,1.234,1.234,0,0,0,.224-.668c0-.569-.522-1.089-1.617-1.634a7.264,7.264,0,0,0-2.737-.718A1.724,1.724,0,0,0,19.885-19.763Zm34.879,7.328v-2.55h6.244c.149,0,.249-.05.249-.149,0-.05-.025-.1-.124-.2a31.14,31.14,0,0,0-2.438-1.956c-.721.743-.945.99-1.617,1.783H54.763v-2.377h6.966c.174,0,.274-.05.274-.149q0-.074-.149-.223c-1.07-.916-1.418-1.213-2.562-2.08-.771.817-1,1.065-1.741,1.931H54.763v-1.436c.746-.223,1-.371,1-.594,0-.322-.124-.347-3.757-.668.075.718.124,1.584.124,2.4v.3H48.171a6.761,6.761,0,0,1-1.766-.223l.149.891a7.783,7.783,0,0,1,1.642-.149h3.931V-15.5H49.439a6.645,6.645,0,0,1-1.717-.2l.149.867a7.487,7.487,0,0,1,1.567-.149h2.687v2.55H47.9a8.458,8.458,0,0,1-2.065-.2l.149.891a9.673,9.673,0,0,1,1.916-.173H62.1c.124,0,.249-.074.249-.149,0-.05-.025-.1-.124-.2-1.144-.916-1.493-1.188-2.687-2.055-.771.792-1,1.04-1.741,1.882ZM57.052-3.72v2.476c0,.173-.075.248-.3.248-1.269-.025-1.269-.025-4.279-.2l-.025.272c.97.272,1.518.421,1.642.47a2.492,2.492,0,0,1,1.567.941,2.337,2.337,0,0,1,.3.99c.025.223.1.3.323.3a6.181,6.181,0,0,0,2.413-.594A1.91,1.91,0,0,0,59.739-.724c-.05-2.575-.05-2.674-.05-3.466V-8.845c.672-.4.8-.52.8-.693,0-.124-.075-.2-.274-.371A16.088,16.088,0,0,0,58.2-11.345c-.6.569-.771.767-1.343,1.386H50.459a28.243,28.243,0,0,0-3.035-1.436c.075,1.386.1,2.6.1,5.2,0,2.426-.05,5.3-.149,7.551,0,.47.149.545.92.545,1.518,0,1.841-.124,1.841-.693V-3.72Zm0-.52H50.136v-2.4h6.916Zm0-2.921H50.136V-9.439h6.916ZM40.458-16.817c-.1,2.352-.448,3.342-1.518,4.283a1.246,1.246,0,0,0-.572,1.188,1.507,1.507,0,0,0,1.269,1.659c.97,0,1.642-1.436,1.642-3.516a12.942,12.942,0,0,0-.522-3.615ZM41.777-4.908c-.025,2.1-.05,3.59-.174,6.165.025.47.149.545,1.07.545,1.468,0,1.717-.1,1.741-.718-.025-3.615-.025-3.615-.025-20.871.771-.2,1.07-.371,1.07-.594,0-.347-.224-.4-3.757-.718.075,1.263.124,2.377.124,4.333Zm2.911-12.107a6.92,6.92,0,0,1,.672,3.219c.025.569.174.817.5.817a1.539,1.539,0,0,0,.721-.272,1.529,1.529,0,0,0,.8-1.312c0-.867-.746-1.634-2.538-2.624Zm31.5,8.863-.075-.1c-.846-.817-1.12-1.04-1.99-1.783-.473.545-.9,1.065-1.319,1.56H70.959a27.413,27.413,0,0,0,2.836-3.045c.9-.05,1.169-.124,1.169-.347,0-.248-.423-.421-3.284-1.362a20.176,20.176,0,0,1-1.393,4.753H65.535a6.757,6.757,0,0,1-1.667-.173l.149.842a6.537,6.537,0,0,1,1.518-.149h2.985v3.367H66.182a6.237,6.237,0,0,1-1.741-.2l.149.891a7.065,7.065,0,0,1,1.567-.173h2.363v.743c0,1.188-.025,2.08-.075,4.654,0,.446.149.545.945.545,1,0,1.542-.1,1.717-.3a.637.637,0,0,0,.075-.371c-.05-1.708-.075-3.367-.075-4.531v-.743h4.777c.124,0,.2-.05.2-.124,0-.025-.025-.074-.1-.173-.92-.817-1.219-1.065-2.164-1.832-.6.693-.771.891-1.343,1.609H71.108V-7.954h4.9L76.183-8c-.025,6.09-.025,6.09-.149,9.334,0,.421.149.5.945.5a3.394,3.394,0,0,0,1.518-.2.592.592,0,0,0,.149-.47V1.133A14.077,14.077,0,0,0,82.4-2.111c1.119,1.436,3.06,3.169,3.533,3.169.1,0,.174-.074.224-.2a3.328,3.328,0,0,1,.373-.966,3.289,3.289,0,0,1,1.443-1.51v-.2a10.6,10.6,0,0,1-4.254-2.2,19.169,19.169,0,0,0,2.314-6.115c.647-.3.821-.421.821-.619,0-.124-.075-.223-.3-.4-.8-.644-1.045-.842-1.916-1.461-.6.594-.771.767-1.343,1.386H78.646v-7.724H83.6a26.036,26.036,0,0,1-.274,3.243c-.075.5-.224.619-.647.619a28.821,28.821,0,0,1-3.035-.2l-.025.322c1.542.4,1.965.619,2.264,1.114a1.7,1.7,0,0,1,.249.891c0,.272.1.347.373.347a5.234,5.234,0,0,0,2.239-.545c.945-.569,1.119-1.312,1.343-5.249.672-.3.871-.47.871-.668,0-.1-.075-.2-.3-.371-.846-.644-1.119-.842-2.015-1.436-.572.594-.746.767-1.319,1.411h-4.5a23.238,23.238,0,0,0-2.836-1.411c.149,1.535.2,3.763.2,8.764Zm2.463-2.55h.746c.075.693.149,1.263.323,2.2a15.345,15.345,0,0,0,1.741,5A20.016,20.016,0,0,1,78.646.736Zm4.851,0a21.089,21.089,0,0,1-1.219,5.3,11.077,11.077,0,0,1-2.413-5.3ZM71.108-17.609v-2.154c.721-.223.945-.347.945-.545,0-.347-.124-.371-3.657-.743a13.887,13.887,0,0,1,.124,2.1v1.337H66.282a7.051,7.051,0,0,1-1.617-.2l.124.867a7.265,7.265,0,0,1,1.493-.149h2.239V-13.8h-3.11a6.173,6.173,0,0,1-1.567-.2l.149.867a7.082,7.082,0,0,1,1.418-.149h.423l-.124.1a7.85,7.85,0,0,1,1.045,3.119c.149.99.149,1.015.249,1.188a.452.452,0,0,0,.4.272A2.18,2.18,0,0,0,69.043-10.4c0-.891-.92-1.733-3.135-2.872h9.926c.1,0,.149-.025.149-.1,0-.025-.025-.074-.1-.149a23.645,23.645,0,0,0-2.065-1.783c-.572.619-.746.817-1.319,1.51H71.108v-3.293h4.5c.1,0,.174-.05.174-.1s-.025-.1-.1-.173a19.657,19.657,0,0,0-2.015-1.758c-.572.619-.746.817-1.319,1.51Z" transform="translate(682 2653)" fill="#fff"/><g transform="translate(-210.971 1881.416)"><g transform="translate(765.5 710.605)"><g transform="translate(0 1.283)"><path d="M765.5,716.79a49.343,49.343,0,0,0,34.817,6.8c10.877-2,21.393-7.765,32.376-6.9,11.274.883,21.226,8.589,31.8,13.318s24.165,5.66,31.574-4.465a12.593,12.593,0,0,0,2.7-8.017c-.184-2.947-2.2-5.834-4.687-5.823" transform="translate(-765.5 -711.699)" fill="none" stroke="#a48661" stroke-linecap="round" stroke-linejoin="round" stroke-width="2"/><path d="M1023.914,716.79a49.344,49.344,0,0,1-34.817,6.8c-10.877-2-21.393-7.765-32.376-6.9-11.274.883-21.226,8.589-31.8,13.318s-24.166,5.66-31.574-4.465a12.594,12.594,0,0,1-2.7-8.017c.185-2.947,2.2-5.834,4.688-5.823" transform="translate(-766.914 -711.699)" fill="none" stroke="#a48661" stroke-linecap="round" stroke-linejoin="round" stroke-width="2"/></g><g transform="translate(40.52)"><path d="M806.473,729.457c3.628-14.464,16.022-20,27.8-18.659a49.141,49.141,0,0,1,17.5,5.672c6.243,3.341,12.414,10.646,19.5,10.653a7.045,7.045,0,0,0,5.475-2.377,6.532,6.532,0,0,0,1.063-6.509,3.766,3.766,0,0,0-5.9-1.5,5.531,5.531,0,0,0-.223,7.162" transform="translate(-806.473 -710.605)" fill="none" stroke="#a48661" stroke-linecap="round" stroke-linejoin="round" stroke-width="2"/><path d="M983.673,729.457c-3.628-14.464-16.022-20-27.8-18.659a49.152,49.152,0,0,0-17.5,5.672c-6.242,3.341-12.413,10.646-19.5,10.653a7.048,7.048,0,0,1-5.475-2.377,6.534,6.534,0,0,1-1.062-6.509,3.766,3.766,0,0,1,5.9-1.5,5.531,5.531,0,0,1,.223,7.162" transform="translate(-807.712 -710.605)" fill="none" stroke="#a48661" stroke-linecap="round" stroke-linejoin="round" stroke-width="2"/></g></g><g transform="translate(765.5 788.6)"><path d="M765.5,777.719a49.332,49.332,0,0,1,34.817-6.8c10.877,2,21.393,7.763,32.376,6.9,11.274-.885,21.226-8.59,31.8-13.318s24.165-5.661,31.574,4.465a12.591,12.591,0,0,1,2.7,8.017c-.184,2.947-2.2,5.833-4.687,5.822" transform="translate(-765.5 -761.087)" fill="none" stroke="#a48661" stroke-linecap="round" stroke-linejoin="round" stroke-width="2"/><path d="M1023.914,777.719a49.332,49.332,0,0,0-34.817-6.8c-10.877,2-21.393,7.763-32.376,6.9-11.274-.885-21.226-8.59-31.8-13.318s-24.166-5.661-31.574,4.465a12.591,12.591,0,0,0-2.7,8.017c.185,2.947,2.2,5.833,4.688,5.822" transform="translate(-766.914 -761.087)" fill="none" stroke="#a48661" stroke-linecap="round" stroke-linejoin="round" stroke-width="2"/><g transform="translate(40.52 4.154)"><path d="M806.473,764.628c3.628,14.463,16.022,20,27.8,18.658a49.118,49.118,0,0,0,17.5-5.672c6.243-3.341,12.414-10.646,19.5-10.653a7.046,7.046,0,0,1,5.475,2.377,6.532,6.532,0,0,1,1.063,6.509,3.766,3.766,0,0,1-5.9,1.5,5.531,5.531,0,0,1-.223-7.162" transform="translate(-806.473 -764.628)" fill="none" stroke="#a48661" stroke-linecap="round" stroke-linejoin="round" stroke-width="2"/><path d="M983.673,764.628c-3.628,14.463-16.022,20-27.8,18.658a49.129,49.129,0,0,1-17.5-5.672c-6.242-3.341-12.413-10.646-19.5-10.653a7.048,7.048,0,0,0-5.475,2.377,6.534,6.534,0,0,0-1.062,6.509,3.766,3.766,0,0,0,5.9,1.5,5.531,5.531,0,0,0,.223-7.162" transform="translate(-807.712 -764.628)" fill="none" stroke="#a48661" stroke-linecap="round" stroke-linejoin="round" stroke-width="2"/></g></g></g></g></svg>