<svg xmlns="http://www.w3.org/2000/svg" width="487" height="48" viewBox="0 0 487 48"><g transform="translate(-439.5 -843.96)"><g transform="translate(643.385 843.96)"><path d="M-35.21-19.757-21.846-1.386h2.217v-16.1A7.117,7.117,0,0,1-19-21.168c.479-.749,1.109-1.037,2.547-1.094v-.777h-7.581v.777c1.528.086,2.158.346,2.607,1.094.42.662.569,1.728.569,3.887V-6.454L-33.083-23.04h-6.263v.749c2.4.173,2.907.777,2.907,3.6V-7.26c0,3.916-.629,4.866-3.176,4.982V-1.5h7.521v-.777c-2.577-.144-3.116-.95-3.116-4.751ZM-.39-9.621A10.157,10.157,0,0,0-.93-13.163c-.989-2.476-3.146-3.8-6.2-3.8-4.555,0-7.521,3.168-7.521,8.005,0,4.809,3.056,7.89,7.821,7.89A6.813,6.813,0,0,0-.24-5.014L-.99-5.475A5.564,5.564,0,0,1-5.934-2.192a4.3,4.3,0,0,1-4.075-2.851,10.882,10.882,0,0,1-.779-4.579Zm-10.368-.835a11.755,11.755,0,0,1,.629-3.312C-9.5-15.438-8.511-16.3-7.222-16.3c1.169,0,2.008.72,2.577,2.246a10.837,10.837,0,0,1,.509,3.6ZM13-11.838,16.63-1.3h2.158l3.506-11.086c.809-2.563,1.558-3.369,3.266-3.484v-.662H18.907v.662a4.669,4.669,0,0,1,1.438.23,1.493,1.493,0,0,1,1.079,1.44,6.7,6.7,0,0,1-.33,2.045L18.878-4.927l-3.656-11.23H13.484L9.648-4.927,7.191-13.077a5.318,5.318,0,0,1-.27-1.382c0-.921.569-1.3,2.1-1.382v-.691H1.078v.662c1.289.086,1.8.634,2.367,2.505L7.191-1.3H9.408ZM27.328-1.3a6.6,6.6,0,0,1,1.528-.173,6.811,6.811,0,0,1,1.079.086,16.2,16.2,0,0,0,3.056.346c3.386,0,5.394-1.814,5.394-4.809,0-2.16-.989-3.283-4.045-4.636-2.7-1.181-2.7-1.181-3.356-1.67a2,2,0,0,1-.929-1.757,2.386,2.386,0,0,1,2.667-2.39c2.158,0,3.416,1.555,3.626,4.492h1.109l.27-5.039a4.078,4.078,0,0,1-1.438.288,7.043,7.043,0,0,1-1.318-.173,14.8,14.8,0,0,0-2.128-.23c-3.386,0-5.544,1.785-5.544,4.579a3.464,3.464,0,0,0,1.049,2.592,8.615,8.615,0,0,0,3.236,1.958c3.476,1.555,4.255,2.188,4.255,3.6,0,1.584-1.109,2.505-2.937,2.505a3.754,3.754,0,0,1-3.356-1.814,6.574,6.574,0,0,1-.9-3.024H27.567Z" transform="translate(39.615 23.04)" fill="#fff"/></g><g transform="translate(439.5 871.026)"><g transform="translate(0 0.001)"><g transform="translate(0 10.466)"><path d="M596.691,244.576h23.275s-9.82,1.769-11.636,5.31C605.784,245.954,596.691,244.576,596.691,244.576Z" transform="translate(-596.691 -244.576)" fill="#aa855b"/><path d="M617.088,244.576s-16.91,3.736-15.458,8.261,6.911.984,4.547-.884S614.906,245.066,617.088,244.576Z" transform="translate(-588.176 -244.576)" fill="#aa855b"/><path d="M607.844,244.576h5.817A5.03,5.03,0,0,1,607.844,244.576Z" transform="translate(-577.113 -244.576)" fill="#aa855b"/></g><path d="M596.691,247.96h23.275s-9.82-1.772-11.636-5.312C605.784,246.583,596.691,247.96,596.691,247.96Z" transform="translate(-596.691 -237.495)" fill="#aa855b"/><path d="M617.088,251.243s-16.91-3.739-15.458-8.261,6.911-.984,4.547.884S614.906,250.75,617.088,251.243Z" transform="translate(-588.176 -240.778)" fill="#aa855b"/><path d="M607.844,245.161h5.817A5.025,5.025,0,0,0,607.844,245.161Z" transform="translate(-577.113 -234.695)" fill="#aa855b"/></g><g transform="translate(450.452)"><g transform="translate(0 10.41)"><path d="M770.285,244.555l-23.275.083s9.826,1.736,11.655,5.271C761.2,245.963,770.285,244.555,770.285,244.555Z" transform="translate(-733.737 -244.555)" fill="#aa855b"/><path d="M744.964,244.593s16.924,3.676,15.485,8.206-6.905,1.008-4.549-.871S747.149,245.075,744.964,244.593Z" transform="translate(-737.329 -244.488)" fill="#aa855b"/><path d="M748.01,244.6l-5.817.022A5.028,5.028,0,0,0,748.01,244.6Z" transform="translate(-742.193 -244.485)" fill="#aa855b"/></g><path d="M770.285,247.911l-23.275.083s9.812-1.8,11.62-5.351C761.189,246.567,770.285,247.911,770.285,247.911Z" transform="translate(-733.737 -237.502)" fill="#aa855b"/><path d="M744.964,251.291s16.9-3.8,15.427-8.319-6.913-.959-4.544.9S747.144,250.793,744.964,251.291Z" transform="translate(-737.329 -240.777)" fill="#aa855b"/><path d="M748.01,245.173l-5.817.022A5.029,5.029,0,0,1,748.01,245.173Z" transform="translate(-742.193 -234.653)" fill="#aa855b"/></g><path d="M0,0H157.454" transform="translate(40.277 10.464)" fill="none" stroke="#a48661" stroke-width="2"/><line x2="157.454" transform="translate(289.27 10.464)" fill="none" stroke="#a48661" stroke-miterlimit="10" stroke-width="2"/><g transform="translate(227.226 6.96)"><path d="M669.8,244.576H682.9l-5.819,3.507Z" transform="translate(-669.805 -241.069)" fill="#aa855b"/><path d="M669.8,246.81H682.9l-5.819-3.507Z" transform="translate(-669.805 -243.303)" fill="#aa855b"/><g transform="translate(13.092 0.487)"><path d="M674.556,244.576H681.1l-2.909,3.02Z" transform="translate(-674.556 -241.556)" fill="#aa855b"/><path d="M674.556,246.5H681.1l-2.909-3.02Z" transform="translate(-674.556 -243.48)" fill="#aa855b"/></g><g transform="translate(19.774)"><path d="M690.684,246.81H677.592l5.819-3.507Z" transform="translate(-677.592 -243.303)" fill="#aa855b"/><path d="M690.684,244.576H677.592l5.819,3.507Z" transform="translate(-677.592 -241.069)" fill="#aa855b"/></g></g></g></g></svg>