<svg xmlns="http://www.w3.org/2000/svg" width="439" height="114" viewBox="0 0 439 114"><path d="M-169.075-13.191a31.924,31.924,0,0,0,3.45-3.289c.8-.05,1.025-.151,1.025-.4s-.85-.628-3.325-1.406a21.268,21.268,0,0,1-1.925,5.1h-6.3a10.949,10.949,0,0,1-2.15-.176l.125.8a14.644,14.644,0,0,1,2-.1h8.35v2.184H-175.5a10.951,10.951,0,0,1-2.15-.151l.125.8a11.883,11.883,0,0,1,1.975-.126h7.725v2.46h-8.05a10.9,10.9,0,0,1-2.2-.151l.15.8a11.573,11.573,0,0,1,2.05-.126h8.05v.452c.025.351.2.452.85.452,1.3,0,1.775-.176,1.775-.628v-.1c-.05-2.812-.05-3.013-.05-3.565v-1.682c.65-.276.825-.427.825-.628,0-.126-.075-.251-.3-.4-.75-.577-1-.753-1.8-1.331-.55.5-.725.678-1.225,1.205ZM-182.95-5.358a1.941,1.941,0,0,1,1.175,1.883c0,.326.05.4.3.4a3.329,3.329,0,0,0,.975-.176c1.325-.452,2.05-1.632,2.05-3.389a6.191,6.191,0,0,0-.6-2.711,8.387,8.387,0,0,0-2.7-3.314,43.385,43.385,0,0,0,3.75-5.9c.625-.251.8-.377.8-.577,0-.1-.075-.2-.325-.4-.85-.6-1.125-.8-2.075-1.381-.5.577-.675.753-1.175,1.381h-2.1a20.926,20.926,0,0,0-2.775-1.481c.125,1.958.175,4.921.175,12.628,0,3.54-.05,6.05-.175,9.841v.126c0,.427.2.552,1,.552a2.941,2.941,0,0,0,1.55-.276c.15-.1.2-.226.2-.527-.05-2.561-.05-2.561-.05-5.146Zm0-13.657h2.25a41.331,41.331,0,0,1-1.6,6.4,8,8,0,0,1,1.65,4.946,6.429,6.429,0,0,1-.175,1.582c-.125.351-.325.477-.775.477a10.6,10.6,0,0,1-1.35-.1Zm9.175,1.506A5.951,5.951,0,0,1-172.7-14.8a3.468,3.468,0,0,0,.2,1,.473.473,0,0,0,.4.226,1.812,1.812,0,0,0,1.6-1.607c0-.854-.875-1.556-3.1-2.51ZM-175.75-.237c0,.954.2,1.406.725,1.657A10.2,10.2,0,0,0-171.6,1.7a13.754,13.754,0,0,0,3.9-.3,1.212,1.212,0,0,0,.75-1.1c0-.552-.275-.854-.9-1.029-.225-.05-.275-.126-.275-.3a2.06,2.06,0,0,1,.025-.351l.25-2.41-.275-.05a12.394,12.394,0,0,1-1.4,3.063c-.25.3-.45.326-2.025.326-1.825,0-1.85,0-1.85-.628V-4.178c.55-.126.775-.276.775-.477,0-.326-.225-.351-3.25-.7a13.129,13.129,0,0,1,.125,2.008Zm-2.325-17.674c.725.025,1.3.025,1.65.025a52.822,52.822,0,0,0,10.3-.979,4.358,4.358,0,0,0,1.05.176.317.317,0,0,0,.35-.276c0-.3-.525-.7-2.925-2.259a17.675,17.675,0,0,1-4.275,1.657,34.558,34.558,0,0,1-6.225,1.305Zm.225.552a6.591,6.591,0,0,1,1.275,3.088c.075.6.2.728.6.728a1.605,1.605,0,0,0,1.45-1.582c0-.9-.975-1.632-3.175-2.435Zm.3,12.276c-.425,1.707-.95,2.536-1.925,2.987a5.036,5.036,0,0,0-.675.326.9.9,0,0,0-.375.8c0,.929.55,1.707,1.2,1.707,1.325,0,2.25-1.632,2.25-3.916a12.171,12.171,0,0,0-.175-1.883Zm4.325-1.205A7.624,7.624,0,0,1-171.1-3.2c.325.678.4.778.7.778.575,0,1.175-.9,1.175-1.757a1.308,1.308,0,0,0-.575-1.13,11.279,11.279,0,0,0-3.3-1.205Zm5.475,1.155a12.481,12.481,0,0,1,2.25,4.9c.125.6.275.8.625.8.775,0,1.525-1.029,1.525-2.084,0-1.23-1.05-2.184-4.225-3.791Zm8.875,1.707a11.675,11.675,0,0,1,1.55,2.059A4.792,4.792,0,0,1-156.75.441a1.28,1.28,0,0,0,.175.653.913.913,0,0,0,.75.4A1.487,1.487,0,0,0-154.5.516a5.4,5.4,0,0,0,.475-2.084,11.02,11.02,0,0,0-.075-1.155,36.532,36.532,0,0,1-.275-4.921c0-.552,0-.577.025-1.079,3.05-3.967,5.75-6.226,7.4-6.226.975,0,1.525.653,1.525,1.808A19.735,19.735,0,0,1-146-9.35a23.877,23.877,0,0,0-.85,5.272c0,2.31,1.275,3.715,3.325,3.715,2.15,0,4.475-1.607,5.925-4.142l-.15-.2a8.241,8.241,0,0,1-4.75,2.159,1.523,1.523,0,0,1-1.675-1.732,28.848,28.848,0,0,1,.6-4.82,25.983,25.983,0,0,0,.425-3.59,3.092,3.092,0,0,0-3.225-3.339c-1.875,0-4.325,1.632-7.875,5.272a5.593,5.593,0,0,1,.05-.854,13.75,13.75,0,0,1,.875-1.456c.325-.477.425-.653.425-.828,0-.326-.275-.678-.85-1.1a5.432,5.432,0,0,1,.5-1.431,2.023,2.023,0,0,0,.325-1.054c0-.552-.45-1.18-1.3-1.833a4.845,4.845,0,0,0-2.575-1.1.958.958,0,0,0-.475.126,2.941,2.941,0,0,1,1.6,2.912,21.221,21.221,0,0,1-.15,2.736,10.2,10.2,0,0,1-3.35,1.205c-.7,0-1.25-.4-1.8-1.305a2.236,2.236,0,0,0-.15.6,3.175,3.175,0,0,0,.575,1.506c.475.753,1.025,1.18,1.5,1.18.25,0,.425-.075.85-.377,1.5-1.054,1.5-1.054,2.275-1.531-.025.377-.025.377-.05.778-.025.527-.025.527-.05.9-.575.929-.575.929-2.95,4.243a12.728,12.728,0,0,1-1.675,2.033c-.475.477-.55.628-.55,1.155,0,1.28.525,2.36,1.15,2.36.375,0,.575-.226.975-1.13Zm2.75-5.347c-.05.9-.05,1.456-.075,2.31-.05,2.787-.05,2.787-.1,4.067a14.2,14.2,0,0,1-2.35-1.531C-158.475-4.279-157.625-5.885-156.125-8.772Zm32.725-5.172c.775,5.724,3.025,10.494,6.3,13.23.575.477.925.728,1.1.728.125,0,.2-.075.275-.326a5.229,5.229,0,0,1,.55-.954,2.755,2.755,0,0,1,2.025-1.205l.075-.276a11.455,11.455,0,0,1-3.75-1.757,13.612,13.612,0,0,1-3.8-3.866A33,33,0,0,0-116.1-10.63h.3c.8,0,1.15-.1,1.15-.351s-.925-.8-3.425-2.008a16.525,16.525,0,0,1-2.9,4.067,17.027,17.027,0,0,1-1.925-5.021h6.55c.125,0,.2-.05.2-.126,0-.05-.025-.075-.1-.151-.65-.452-.875-.6-1.325-.9.35-.176.35-.176.925-.452,1.025-.5,1.025-.5,1.8-.9,1.2-.025,1.2-.025,1.475-.176a.333.333,0,0,0,.15-.251c0-.1-.1-.226-.275-.4a26.575,26.575,0,0,0-2.75-2.008,19.309,19.309,0,0,0-1.4,1.481h-6.05v-1.858c.75-.2,1.075-.4,1.075-.6,0-.326-.1-.351-4.05-.7a10.085,10.085,0,0,1,.125,1.632v1.531h-6.225a8.647,8.647,0,0,0-.35-1.707h-.275c-.175,1.782-.6,2.586-1.65,3.238a5.348,5.348,0,0,0-1.125.778,1.077,1.077,0,0,0-.225.7,1.642,1.642,0,0,0,1.5,1.808c1.325,0,2.175-1.481,2.175-3.816a3.765,3.765,0,0,0-.025-.477h15.3a14.572,14.572,0,0,1-.675,1.808c-.425-.276-.525-.351-1.1-.7-.675.753-.875.979-1.575,1.732h-9.85a8.807,8.807,0,0,1-1.925-.2l.2.879a7.838,7.838,0,0,1,1.675-.151h2.8a26.116,26.116,0,0,1-8.125,5.222l.15.251a25.4,25.4,0,0,0,8.55-3.188c.275.326.35.452.625.8a29.615,29.615,0,0,1-3.05,2.536,31.737,31.737,0,0,1-6.725,3.941l.125.251A28.385,28.385,0,0,0-125.6-8.772c.15.452.2.6.325,1.1a27.87,27.87,0,0,1-3.65,3.188,37.464,37.464,0,0,1-7.65,4.494l.125.226a30.86,30.86,0,0,0,7.9-2.837,28.975,28.975,0,0,0,3.65-2.335c.025.427.025.678.025,1.079a19.046,19.046,0,0,1-.15,2.134c-.125.879-.25,1-1.025,1-.675,0-3.125-.1-4.2-.2v.276c.15.05.275.075.425.126l.7.2a4.683,4.683,0,0,1,1.75.828,2.114,2.114,0,0,1,.4,1.155c.025.4.075.477.325.477.05,0,.325-.025.55-.05a4.548,4.548,0,0,0,2.425-.979C-122.9.366-122.5-.965-122.5-2.873A11.145,11.145,0,0,0-124.05-8.8a9.852,9.852,0,0,0-2.85-3.113,23.526,23.526,0,0,0,2.675-2.033Zm16.575-2.109a30.6,30.6,0,0,0,2.425-3.238c.875-.126,1.175-.251,1.175-.5,0-.276-.5-.477-2.125-.8-.4-.075-1-.2-1.775-.377a19.665,19.665,0,0,1-.625,4.921h-.175a16.33,16.33,0,0,0-2.775-1.506c.1,1.983.15,4.77.15,8.711,0,3.088-.025,4.243-.15,8.787,0,.427.15.5,1.025.5,1.475,0,1.725-.1,1.725-.7V-2.17h3.475V-.814c.025.4.125.452.95.452,1.4,0,1.725-.126,1.725-.678-.05-2.31-.05-4.268-.05-10.946v-2.987c.65-.377.8-.5.8-.678,0-.126-.075-.226-.275-.4a19.111,19.111,0,0,0-1.975-1.456c-.625.653-.8.828-1.4,1.456Zm-1.125,6.2v-5.674h3.475v5.674Zm3.475.527V-2.7h-3.475V-9.325Zm7.4-6.728a19.817,19.817,0,0,0,1.25-3.163c.95-.2,1.2-.3,1.2-.552,0-.326-.775-.552-4.075-1.255a29.846,29.846,0,0,1-3.075,11.1l.25.151a20.85,20.85,0,0,0,4.175-5.749h5.375c0,3.063-.1,5.347-.275,7.732a37.861,37.861,0,0,1-.775,5.523c-.225.8-.375.954-.975.954-1.4,0-1.575,0-4.775-.226l-.05.326C-95.95-.588-94.975.09-94.9,1.47c0,.351.075.452.35.452a9.259,9.259,0,0,0,1.775-.276c1.675-.477,2.325-1.732,2.85-5.473A86.356,86.356,0,0,0-89.2-14.873c.75-.351.925-.477.925-.7,0-.126-.1-.276-.325-.477-.825-.7-1.1-.9-2.025-1.607-.675.653-.9.879-1.6,1.607ZM-98.8-12.212a15.688,15.688,0,0,1,2.1,5.5c.175.954.35,1.205.85,1.205.875,0,1.775-1.155,1.775-2.31,0-1.356-1.45-2.812-4.575-4.569Zm13.6-3.741c.95,2.084,2.175,2.912,4.225,2.912.225,0,.475-.025.95-.075A25.327,25.327,0,0,1-84.15-6.337a1.761,1.761,0,0,0-.625,1.506,3.555,3.555,0,0,0,.4,1.682.977.977,0,0,0,.875.577c.625,0,.95-.377,1.8-2.184.425-.9,1.7-3.766,3.8-8.561a37.85,37.85,0,0,0,4.425-1.18c1.125-.4,1.575-.778,1.575-1.331,0-.6-.85-1.1-1.925-1.1-.375,0-.525.075-1,.452a6.638,6.638,0,0,1-2.3,1.1,12.9,12.9,0,0,1,1.3-2.36c.375-.5.425-.628.425-.954,0-.5-.35-.879-1.275-1.305a6.783,6.783,0,0,0-2.7-.678,1.324,1.324,0,0,0-.9.276c1.275.477,1.725.979,1.725,1.908a11.461,11.461,0,0,1-.8,3.615,11.445,11.445,0,0,1-2.35.276A3.916,3.916,0,0,1-84.95-16.1Zm14.15,1.732a5.846,5.846,0,0,1,3.175,1.908c-2.65.628-3.525,1.054-4.2,2.109a6.411,6.411,0,0,0-.65,3.49c0,.276,0,.351.025,1.582a7.3,7.3,0,0,0-1.025-.075c-3.025,0-5.2,1.506-5.2,3.59,0,1.808,1.7,3.038,4.2,3.038,2.775,0,4.4-1.23,4.4-3.314v-.477A9.312,9.312,0,0,1-67.65-.212c.525.552.7.678,1,.678.525,0,.925-.628.925-1.506a2.751,2.751,0,0,0-1.2-2.234A11.5,11.5,0,0,0-70.55-4.856a23.136,23.136,0,0,1-.675-4.393c0-1.28.525-1.707,2.125-1.707a4,4,0,0,1,2.675.778,1.337,1.337,0,0,0,.775.326c.65,0,1.1-.552,1.1-1.381a2.644,2.644,0,0,0-1.4-2.109,9.346,9.346,0,0,0-4.475-1.18H-71Zm-1.7,11.071c.025,0,.025.05.025.351a2.43,2.43,0,0,1-.4,1.531,3.3,3.3,0,0,1-2.7.929c-1.5,0-2.325-.5-2.325-1.356,0-1.1,1.3-1.782,3.375-1.782A6.219,6.219,0,0,1-72.75-3.149Zm24.325-10.469.75-.979c.8-.05,1.125-.176,1.125-.427,0-.3-.375-.427-3.6-1.28a12.037,12.037,0,0,1-1.325,3.314A21.192,21.192,0,0,1-54.85-8.12l.175.2A17.892,17.892,0,0,0-49.85-11.86,14.882,14.882,0,0,0-48-9.1c-.525.427-1.05.854-1.775,1.356A30.753,30.753,0,0,1-56.05-4.2l.1.276a25.3,25.3,0,0,0,3.575-1V-3.3c0,1.607-.025,2.987-.125,4.795,0,.452.125.5,1.025.5,1.475,0,1.7-.075,1.725-.552V.767h5.9V1.5c0,.377.125.452.775.452,1.65,0,1.95-.1,1.95-.678-.1-3.163-.1-3.64-.1-4.469v-.879A1.638,1.638,0,0,0-40.8-4.5a4.23,4.23,0,0,0,1.1.326c.175,0,.25-.075.3-.326a4.153,4.153,0,0,1,.4-1.23,2.26,2.26,0,0,1,1.1-1.054v-.276a20.055,20.055,0,0,1-7.45-1.657,22.507,22.507,0,0,0,3.7-3.715c.85-.1,1.2-.251,1.2-.527,0-.126-.1-.251-.325-.452a24.567,24.567,0,0,0-2.15-1.682c-.675.628-.9.828-1.6,1.481Zm3.975.527A16.543,16.543,0,0,1-47.2-9.827a7.724,7.724,0,0,1-2.325-2.435c.275-.326.375-.427.675-.828Zm-5.1,8.134c-.525-.351-.7-.452-1.1-.678a22.786,22.786,0,0,0,4-2.134,16.032,16.032,0,0,0,3.3,2.159c-.25.251-.325.326-.625.653Zm-.2.527h5.9V.24h-5.9Zm-9.475-13.958a6.91,6.91,0,0,1-1.9-.226l.15.9a9.282,9.282,0,0,1,1.75-.151h4.25c0,.4,0,.7-.05,1.707.025.477.1.527,1,.527,1.45,0,1.75-.1,1.75-.678-.025-.728-.025-.728-.025-1.556h4.425c0,.9,0,.9-.05,1.682,0,.377.15.427,1.1.427A2.893,2.893,0,0,0-45.275-16a.651.651,0,0,0,.075-.377c-.025-.728-.025-1-.025-1.481H-38.4c.175,0,.275-.05.275-.151,0-.05-.025-.1-.125-.2-1.175-.979-1.525-1.28-2.75-2.184-.8.854-1.05,1.1-1.8,2.008h-2.425v-1.506c.75-.151,1.05-.3,1.05-.552,0-.326-.175-.351-3.775-.653a15.189,15.189,0,0,1,.075,1.808v.9H-52.3c-.025-.628-.025-.628-.025-1.481.75-.126,1.075-.276,1.075-.527,0-.3-.425-.427-1.975-.552-.375-.05-1.025-.1-1.8-.176.05.929.075,1.456.075,2.234v.5Zm-.75,2.41a8.929,8.929,0,0,1,2.225,3.063c.375.8.575,1.029.95,1.029.7,0,1.375-.9,1.375-1.858,0-.728-.325-1.1-1.35-1.556a15.815,15.815,0,0,0-3.075-.9ZM-61.6-11.559a8.222,8.222,0,0,1,2.125,2.787c.575,1.029.7,1.18,1,1.18.65,0,1.35-.954,1.35-1.833,0-1.1-1.15-1.732-4.35-2.385Zm.225,7.1c1.375.552,1.575.678,1.85,1.1A4.072,4.072,0,0,1-59.2-1.668a8.272,8.272,0,0,1-.075.979,15.438,15.438,0,0,0-.175,1.782.707.707,0,0,0,.725.8,2.423,2.423,0,0,0,1.475-.6,2.029,2.029,0,0,0,.825-1.707A4.525,4.525,0,0,0-56.85-2.22a2.906,2.906,0,0,1-.425-1.331c0-.276,0-.276.25-.929l3.7-8.987-.3-.151L-55.3-10.6c-.725,1.331-1.35,2.36-2.725,4.569-.85,1.406-1,1.531-1.475,1.531a15.367,15.367,0,0,1-1.825-.276Zm26.1-11.172c1.125,2.109,2.425,2.962,4.575,2.962.15,0,.3,0,.7-.025-.475,2.033-1.3,6.527-1.3,7.205A2.7,2.7,0,0,0-29.225-3a.966.966,0,0,0,.85-.477,6.733,6.733,0,0,1,1.25-1.732A7.307,7.307,0,0,1-22.05-7.793a2.4,2.4,0,0,1,2.675,2.536A4.8,4.8,0,0,1-21.9-1.241,18.089,18.089,0,0,1-28.7.993V1.27c.4.025.725.025.9.025a32.417,32.417,0,0,0,3.875-.251,12.456,12.456,0,0,0,4.9-1.481,5.047,5.047,0,0,0,2.6-4.218c0-2.485-2.125-4.167-5.25-4.167a11.645,11.645,0,0,0-3.9.728A21.793,21.793,0,0,0-28.9-6.613a25.471,25.471,0,0,1,.875-6.126,24.725,24.725,0,0,0,5.9-1.531c1.075-.452,1.575-.9,1.575-1.381a.884.884,0,0,0-.425-.753,3.59,3.59,0,0,0-1.5-.4,1.23,1.23,0,0,0-1.025.377,8.7,8.7,0,0,1-3.875,1.682,10.187,10.187,0,0,1,1.45-2.887c.45-.552.5-.678.5-1,0-.979-1.725-1.782-3.875-1.782a2.129,2.129,0,0,0-1.7.552c1.45.05,2.05.527,2.05,1.531a23.666,23.666,0,0,1-.7,4.017,10.708,10.708,0,0,1-1.8.151A4.175,4.175,0,0,1-35-15.776ZM-2.6-17.684a1.726,1.726,0,0,0,.8-1.331c0-.527-.35-.9-1.225-1.305a14.917,14.917,0,0,0-3-.954l-.2.276A5.9,5.9,0,0,1-4.5-18.438a1.53,1.53,0,0,0,.425.753H-8.25a11.031,11.031,0,0,1-2.025-.226l.15.9a9.755,9.755,0,0,1,1.875-.151h6.625v2.335H-6.9a9.124,9.124,0,0,1-1.925-.2l.15.854a9.24,9.24,0,0,1,1.75-.126h5.3v2.561H-9.05a10.833,10.833,0,0,1-2.05-.226l.15.879a15.008,15.008,0,0,1,1.875-.126H-5.9A23.947,23.947,0,0,1-11.525-.839l.175.226a19.073,19.073,0,0,0,5.5-5.021v1.28c0,1.757-.025,3.615-.1,5.975,0,.427.175.552.75.552a5.029,5.029,0,0,0,1.725-.226c.15-.1.225-.226.225-.527V.893H5.5v.678c.025.452.175.527.95.527A3.62,3.62,0,0,0,8,1.847a.539.539,0,0,0,.275-.552c-.1-3.238-.1-3.389-.125-8.987.65-.351.85-.5.85-.728,0-.126-.075-.251-.3-.427-.825-.628-1.1-.8-2.025-1.431-.575.552-.75.753-1.325,1.381h-8.4L-3.7-9.45c.325-.8.55-1.406.675-1.757h14.1c.175,0,.3-.075.3-.2,0-.05-.05-.126-.15-.251a30.624,30.624,0,0,0-2.65-2.008C7.8-12.839,7.55-12.588,6.8-11.735H1.1V-14.3H8.975c.175,0,.325-.1.325-.2,0-.05-.05-.126-.15-.251-1-.828-1.325-1.054-2.35-1.808-.7.753-.9.979-1.55,1.732H1.1v-2.335h9.55c.15,0,.275-.1.275-.2,0-.05-.05-.126-.175-.251-1.1-.9-1.45-1.18-2.6-2.008-.775.854-1,1.1-1.75,1.933h-4a29.924,29.924,0,0,0,2.925-1.983c.875-.025,1.125-.126,1.125-.377,0-.3-.25-.4-3.775-1.331A19.718,19.718,0,0,1,1.2-17.684ZM5.5-6.011H-3.25v-2.36H5.5Zm0,.527V-3H-3.25V-5.484Zm0,3.013V.366H-3.25V-2.471ZM23.45-10.68C22.35-9,21.375-7.366,19.75-4.555a2.49,2.49,0,0,1-.975-1.406,10.14,10.14,0,0,1-.5-3.188,14.083,14.083,0,0,1,.55-3.715A3.941,3.941,0,0,0,19-13.793a1.942,1.942,0,0,0-.225-.979A6.377,6.377,0,0,0,16.2-17.358a2.848,2.848,0,0,0-1.7-.6,5,5,0,0,1,1.475,4.142v.4c-.05,2.209-.05,2.209-.05,2.385,0,3.389.625,6.025,1.875,7.933.95,1.431,2.275,2.41,3.3,2.41a1.172,1.172,0,0,0,1.2-1.205,1.965,1.965,0,0,0-.075-.552,3.987,3.987,0,0,1-.35-1.531A11.176,11.176,0,0,1,22.2-6.086a31.116,31.116,0,0,1,1.5-4.469Zm4.9-4.142a6.471,6.471,0,0,1,3.35,3.414,9.716,9.716,0,0,1,.8,3.615c0,.5-.075.6-.525.8-.4.176-1.35.477-3.55,1.13l.05.251c2.7.05,3.225.151,3.825.828a1.187,1.187,0,0,0,1,.527c1.225,0,2.075-1.205,2.075-2.912a7.774,7.774,0,0,0-1.75-5.021A7.808,7.808,0,0,0,28.45-15.1Zm11-.151c.9,2.059,2.025,2.887,4,2.887a8.533,8.533,0,0,0,1.625-.126c-1.375,4.017-2.775,7-4,8.51a1.8,1.8,0,0,0-.625,1.506A4.441,4.441,0,0,0,40.975.09a1.03,1.03,0,0,0,.8.427,1.16,1.16,0,0,0,1-.653,27.86,27.86,0,0,0,1.375-3.69c1.35-3.967,1.35-3.967,1.825-5.423.775-2.335.775-2.335,1.1-3.238,4.6-1.28,6.425-2.134,6.425-2.987a.767.767,0,0,0-.4-.728,3.365,3.365,0,0,0-1.55-.452,1.29,1.29,0,0,0-.85.377A7.809,7.809,0,0,1,47.85-14.7a12.109,12.109,0,0,1,1.3-2.787c.4-.5.425-.577.425-.879,0-.452-.425-.929-1.1-1.23A7.075,7.075,0,0,0,45.6-20.27a1.9,1.9,0,0,0-1.3.326,3.129,3.129,0,0,1,1.45.653,1.546,1.546,0,0,1,.525,1.205,18.255,18.255,0,0,1-.725,4.042,13.074,13.074,0,0,1-3,.377,3.443,3.443,0,0,1-2.95-1.456Zm11.2,4.946a13.07,13.07,0,0,1,4.2-.828h.625L52.85-8.471l.15.226c.3-.176.375-.226.675-.4a9.636,9.636,0,0,1,1.05-.577,4.994,4.994,0,0,1,2.2-.552l.975.025c.825,0,1.225-.351,1.225-1.054,0-1-1.075-1.682-2.725-1.682a10.03,10.03,0,0,0-5.95,2.209Zm-.8,3.841a5.716,5.716,0,0,0-.425,2.159A4.285,4.285,0,0,0,50.8-.663C51.85.215,53.7.692,56.1.692c2.575,0,3.725-.4,3.725-1.28a1.292,1.292,0,0,0-.375-.929,3.164,3.164,0,0,0-1.875-1,1.267,1.267,0,0,0-.5.1,7.072,7.072,0,0,1-2.725.452c-2.95,0-4.375-1.029-4.375-3.188,0-.226.025-.477.075-.954ZM73.425-16.981H66.7a8.425,8.425,0,0,0-.175-1.054h-.3a3.8,3.8,0,0,1-.525,1.858,2.808,2.808,0,0,1-1.425,1.255,1.675,1.675,0,0,0-.5.326,1.694,1.694,0,0,0-.225.828c0,.929.525,1.632,1.225,1.632,1.175,0,2-1.506,2-3.59,0-.276,0-.351-.025-.728h6.675v2.285c0,1.305,0,1.356-.075,3.289v.126c0,.326.175.452.675.452a5.068,5.068,0,0,0,1.925-.276c.125-.1.15-.2.15-.427-.075-2.033-.075-2.033-.075-3.238v-2.209h6.8a11.964,11.964,0,0,1-.525,2.259l-.025-.025A22.406,22.406,0,0,0,80.4-15.726c-.375.427-.775.854-1.175,1.305h-1.25a6.664,6.664,0,0,1-1.3-.151l.125.753a9.532,9.532,0,0,1,1.175-.075H82.2l-.125.427.225.1c1.025-.7,1.225-.854,3.025-2.285,1.075-.05,1.375-.126,1.375-.4,0-.126-.1-.251-.3-.427-1.05-.8-1.4-1.054-2.55-1.858L82.5-16.981H76.025V-18.99H84.1c.15,0,.25-.075.25-.151a.34.34,0,0,0-.125-.226c-1.175-.929-1.55-1.205-2.775-2.059-.775.8-1.025,1.054-1.8,1.908H68a8.659,8.659,0,0,1-1.825-.176l.125.8a11.259,11.259,0,0,1,1.7-.1h5.425ZM78.775-5.76a22.105,22.105,0,0,1-.625,4.318.778.778,0,0,1-.875.628c-.65,0-1.65-.075-4.05-.276l-.05.276a7.29,7.29,0,0,1,2.55.9,1.868,1.868,0,0,1,.725,1.23c.05.5.075.552.425.552a9.018,9.018,0,0,0,1.75-.276A2.74,2.74,0,0,0,80.6-.538a31.763,31.763,0,0,0,.7-4.669l.2-.075a13.222,13.222,0,0,0,3.45,1.406c.2,0,.25-.075.4-.527a3.009,3.009,0,0,1,1.675-1.883v-.251c-3.65-.176-6.95-1.1-8.75-2.41-.75-.552-1-.879-1.075-1.406l-.8.452a2.388,2.388,0,0,1,.8.8,11.926,11.926,0,0,0,2.125,2.234l-.675.552h-7.8a7.866,7.866,0,0,1-1.175-.1A29.617,29.617,0,0,0,72.35-8.647c.775-.05,1.1-.151,1.1-.4s-.325-.377-3.325-1.331A11.125,11.125,0,0,1,67.6-6.99,20.443,20.443,0,0,1,63.15-3.6l.1.251A20.1,20.1,0,0,0,69.5-6.262l.1.628a6,6,0,0,1,1.25-.126h.9a8.238,8.238,0,0,1-1.7,3.916C68.85-.337,67.1.742,63.925,1.972L64,2.249c3.4-.477,5.725-1.28,7.4-2.561,1.625-1.255,2.475-2.711,3.15-5.448Zm-11.3-8.059c.525-.05.8-.075,1.1-.075h4.1c.175,0,.275-.05.275-.126,0-.05-.025-.1-.1-.2-.75-.653-1-.854-1.775-1.456-.5.552-.675.728-1.15,1.255h-1.35a6.636,6.636,0,0,1-1.2-.1Zm9.35,2.711a6.545,6.545,0,0,1,1.225-.1H83.3c.15,0,.275-.075.275-.151a.5.5,0,0,0-.1-.2,24.744,24.744,0,0,0-2.025-1.607c-.575.6-.75.8-1.275,1.431h-2.15A5.658,5.658,0,0,1,76.7-11.91Zm-10.15,0a6.454,6.454,0,0,1,1.2-.1h4.75c.175,0,.3-.05.3-.151a.438.438,0,0,0-.075-.176c-.775-.678-1.025-.9-1.825-1.556-.575.577-.75.753-1.275,1.356H67.9a6.768,6.768,0,0,1-1.375-.151Zm31.8-2.51c.025-2.008.025-2.008.025-3.113.75-.2.95-.326.95-.527,0-.351-.25-.4-3.7-.753a37.7,37.7,0,0,1,.175,4.393H95.2a10.025,10.025,0,0,1-2.2-.176l.125.854A10.454,10.454,0,0,1,95.2-13.09h.725c0,2.385-.05,3.791-.175,5.222h-1a7.749,7.749,0,0,1-2.125-.151l.125.8a10.586,10.586,0,0,1,2.05-.126h.9A10.055,10.055,0,0,1,92.825-.99l.2.2a10.393,10.393,0,0,0,3.1-2.385A8.2,8.2,0,0,0,98.1-7.341h3.3c-.025,3.841-.025,3.841-.1,5.824,0,.477.175.577.9.577a2.925,2.925,0,0,0,1.7-.3.727.727,0,0,0,.15-.552c-.025-1.933-.025-1.933-.075-5.548H107.3a.2.2,0,0,0,.225-.176c0-.05-.05-.126-.15-.251-.725-.753-.95-.979-1.75-1.707-.55.678-.7.9-1.225,1.607h-.425L103.95-10.5V-13.09h3c.225,0,.35-.075.35-.176,0-.05-.05-.126-.15-.276a21.2,21.2,0,0,0-1.75-1.582c-.5.628-.65.828-1.15,1.506h-.3c0-1.331,0-1.331.025-3.063.7-.2.95-.351.95-.577,0-.351-.35-.427-3.65-.728a38.51,38.51,0,0,1,.125,4.368Zm2.925.527v5.222H98.2a29.475,29.475,0,0,0,.25-5.222ZM92.35.441h15.275V1.521c.025.477.15.577.75.577a8.748,8.748,0,0,0,1.75-.176.571.571,0,0,0,.375-.628c-.15-4.192-.15-4.192-.15-19.406.675-.4.925-.653.925-.879,0-.126-.1-.251-.325-.427-.875-.653-1.15-.854-2.1-1.481-.625.653-.8.854-1.4,1.481H92.775A24.561,24.561,0,0,0,89.55-21.1c.075,2.285.1,3.213.1,5.3,0,9.791-.025,12.527-.175,17.347.025.477.175.577.825.577A5.662,5.662,0,0,0,92,1.9a.49.49,0,0,0,.35-.552Zm0-19.331h15.275v18.8H92.35ZM116.575-8.7a50.283,50.283,0,0,1,4.65,3.841,22.934,22.934,0,0,1-3.275,3.389,32.684,32.684,0,0,1-4,2.887l.15.276a20.8,20.8,0,0,0,8.7-5A26.557,26.557,0,0,1,125.85.441c.275.427.525.628.8.628.625,0,1.075-.879,1.075-2.134a2.455,2.455,0,0,0-.7-1.732,15.979,15.979,0,0,0-2.7-2.084A25.957,25.957,0,0,0,126.8-8.27c.875-.05,1.05-.126,1.05-.377a.349.349,0,0,0-.125-.251c-.25-.151-1.75-.753-3.375-1.331a14.123,14.123,0,0,1-2.1,4.042,54.885,54.885,0,0,0-5.45-2.787Zm3.975-8.987c.35-.577.45-.728.85-1.406.875-.126,1.175-.251,1.175-.527,0-.126-.1-.226-.325-.326-.35-.151-1.875-.552-3.8-1a19.763,19.763,0,0,1-1.925,5.423,22.645,22.645,0,0,1-3.275,4.845l.175.226a23.346,23.346,0,0,0,3.75-2.987,17.494,17.494,0,0,0,3.025-3.715h14.55c.15,0,.275-.075.275-.176,0-.075-.05-.151-.175-.276-1.225-.979-1.625-1.28-2.875-2.234-.85.929-1.1,1.205-1.925,2.159Zm-1.25,3.715c1.125-.075,1.375-.1,1.75-.1h11.8c.15,0,.225-.05.225-.126s-.05-.151-.15-.251c-1.175-.9-1.525-1.18-2.75-2.033-.8.8-1.025,1.054-1.75,1.883h-7.25a12.113,12.113,0,0,1-2.05-.176Zm-3.075,3.163a20.288,20.288,0,0,1,2.1-.126h11a34.362,34.362,0,0,0,.2,4.444A11.573,11.573,0,0,0,131.9-.463c1.125,1.381,2.5,2.335,3.375,2.335a1.408,1.408,0,0,0,1.35-1.406,1.451,1.451,0,0,0-.35-1c-.45-.6-.475-.653-.475-1.029a4.906,4.906,0,0,1,.15-1.029l.575-3.891-.3-.126c-1.25,2.962-1.25,2.987-1.95,4.519a5,5,0,0,1-1.7-2.385A13.867,13.867,0,0,1,131.95-9c0-.276,0-.7.025-1.23.8-.4.95-.527.95-.753,0-.126-.1-.276-.375-.477-.875-.653-1.15-.854-2.025-1.481a18.909,18.909,0,0,0-1.375,1.481H118.325a18.383,18.383,0,0,1-2.25-.176ZM149.075.341a18.537,18.537,0,0,0,5.775-1.506c3.625-1.682,5.625-4.594,5.625-8.234,0-4.971-3.975-8.51-9.55-8.51a12.392,12.392,0,0,0-9.425,4.117,8.3,8.3,0,0,0-2.1,5.021,4.834,4.834,0,0,0,.975,2.887,4.335,4.335,0,0,1,1.075,1.858,6.21,6.21,0,0,0,.575,1.657,1.644,1.644,0,0,0,1.35.728c1.25,0,2.7-1.381,4.325-4.092,1.8-3.038,3.075-6.552,3.075-8.561a3.741,3.741,0,0,0-1.15-2.686,7.747,7.747,0,0,1,1-.05c4.3,0,6.9,2.561,6.9,6.854a9.363,9.363,0,0,1-2.5,6.6,12.946,12.946,0,0,1-6.05,3.565Zm.05-17.247a2.41,2.41,0,0,1,.2.552,2.9,2.9,0,0,1,.1.828,14.962,14.962,0,0,1-2,5.548c-1.625,3.088-3.275,5.172-4.1,5.172-.85,0-1.7-1.782-1.7-3.515A8.576,8.576,0,0,1,144.3-14.3,9.054,9.054,0,0,1,149.125-16.906ZM182.1-7.115v1.481c0,.477.125.552,1,.552,1.7,0,2-.126,2-.8-.125-3.213-.15-4.268-.15-8.234.675-.351.875-.527.875-.753,0-.176-.1-.326-.375-.552-.875-.628-1.15-.828-2.125-1.506-.675.728-.875.954-1.55,1.707H176.3v-4.318c.825-.251,1.1-.427,1.1-.653,0-.326-.45-.452-2.35-.6-.4-.025-1.05-.075-1.85-.126a37.5,37.5,0,0,1,.2,5.7h-4.95A29.554,29.554,0,0,0,165-16.956c.1,1.632.125,2.536.125,4.669,0,2.109,0,2.385-.125,6.577,0,.552.125.628,1.2.628,1.475,0,1.775-.1,1.775-.7V-7.115h5.4c-.025,4.444-.025,5.322-.125,8.611,0,.552.125.628,1.225.628,1.625,0,1.95-.126,1.95-.753-.075-2.184-.1-5.372-.1-7.707v-.778Zm0-.527h-5.8V-14.7h5.8Zm-8.725,0h-5.4V-14.7H173.4V-10.1ZM-206.2,26.726A39.408,39.408,0,0,0-201.65,26a4.116,4.116,0,0,0,1,.176c.2,0,.375-.1.375-.2,0-.226,0-.226-3.05-2.184a18.073,18.073,0,0,1-4.7,1.732,50.68,50.68,0,0,1-6.775,1.331l.05.326c.725.05,1.15.05,1.5.05,1.275,0,2.85-.075,4.75-.251V28.86h-5c-.875-.1-1.425-.176-1.65-.2l.225.854a7.565,7.565,0,0,1,1.4-.126H-210a19.464,19.464,0,0,1-5.525,4.795l.175.226a17.328,17.328,0,0,0,6.85-3.59V31.7c0,.452,0,.854-.025,1.732.025.351.15.452.65.452a8.932,8.932,0,0,0,1.325-.1c.3-.05.4-.176.4-.452V33.2c-.05-1.28-.05-1.933-.05-1.983V29.763a11.39,11.39,0,0,0,4.05,3.816,9.4,9.4,0,0,0,2,.778c.125,0,.2-.075.25-.226a2.916,2.916,0,0,1,1.55-2.059v-.226a12.119,12.119,0,0,1-5.65-1.13,5.511,5.511,0,0,1-1.85-1.331h6.95c.15,0,.25-.075.25-.151s-.05-.151-.15-.251c-1.1-.854-1.425-1.1-2.525-1.883-.725.753-.95,1-1.65,1.757H-206.2Zm1.825,10.243a2.819,2.819,0,0,0,.225-.552c.2-.452.2-.452.35-.8.95-.452.95-.452.95-.628,0-.1-.075-.2-.3-.351-.8-.552-1.05-.728-1.875-1.23-.5.527-.65.678-1.15,1.205h-6.45a10.878,10.878,0,0,1-1.525-.176l.25.8a9.334,9.334,0,0,1,1.275-.1h1.35a16.945,16.945,0,0,1-.55,3.414,7.8,7.8,0,0,1-3.1,4.117l.25.251c2.3-.979,3.35-1.657,4.275-2.837a8.722,8.722,0,0,0,1.7-4.946h2.55c-.425,1.155-.575,1.582-1.1,2.762a.32.32,0,0,0-.025.151c0,.276.2.351.9.351a4.767,4.767,0,0,0,1.25-.05c.1-.025.175-.126.275-.3.2-.452.2-.452.25-.552h1.7a9.543,9.543,0,0,1-.5,2.586c-.175.5-.4.7-.875.7a32.486,32.486,0,0,1-3.9-.377l-.05.276c2.375.653,3.025,1.1,3.175,2.159.05.326.1.377.35.377a4.492,4.492,0,0,0,2.85-.879c.625-.552.9-1.431,1.325-4.092.175-.1.325-.2.4-.251a1.212,1.212,0,0,0,.325-.226.514.514,0,0,0,.125-.226c0-.151-.1-.251-.325-.427-.8-.552-1.075-.753-1.875-1.305-.5.527-.65.678-1.175,1.155Zm-16.9-12.176a11.69,11.69,0,0,1,2.6,5.146c.225.854.4,1.054.875,1.054.85,0,1.825-1.205,1.825-2.259,0-1.331-1.475-2.536-5.075-4.142Zm-.525,10.469a6.171,6.171,0,0,1,1.15-.126h1.825v6.854a15.521,15.521,0,0,1-3.35,1.682c1.525,3.188,1.725,3.515,2,3.515.2,0,.325-.276.325-.678a5.308,5.308,0,0,0-.025-.577,31.175,31.175,0,0,0,3.25-4.067c1.55,3.841,3.45,4.77,9.6,4.77h.625c1.325-.025,2.325-.05,2.45-.05.3,0,.575.025.825.025.925,0,1.55-.025,1.825-.05.35-.025.575-.05.6-.05.65-.025.65-.025.7-.351a2.684,2.684,0,0,1,.2-.828,2.382,2.382,0,0,1,1.475-1.582V43.5c-6.45.477-8.675.577-12.075.577a8.819,8.819,0,0,1-3.85-.6,3.3,3.3,0,0,1-1.875-1.757v-6.05c.775-.552.775-.552.775-.728,0-.1-.075-.2-.225-.326-.875-.678-1.15-.879-2.05-1.506l-1.425,1.506h-1.6a12.251,12.251,0,0,1-1.375-.126Zm44.175,2.586v5.8c0,.377-.075.477-.375.477h-.125c-1.575-.05-2.175-.1-4.425-.251l-.025.326a11.6,11.6,0,0,1,2.575.828,2.116,2.116,0,0,1,1.05,1.381c.125.7.125.7.475.7a8.01,8.01,0,0,0,1.45-.2,2.492,2.492,0,0,0,2.175-1.757,4.262,4.262,0,0,0,.075-1.079l-.075-5.222V27.1c.675-.377.9-.577.9-.8,0-.126-.1-.251-.35-.452-.9-.653-1.175-.879-2.125-1.556-.6.653-.8.854-1.375,1.506h-4.225a29.755,29.755,0,0,0-3.25-1.556c.15,1.883.175,2.912.175,5.674,0,3.213-.05,5.372-.2,7a12.655,12.655,0,0,1-2.1,6.577,13.918,13.918,0,0,1-3.425,3.565l.175.251a15.507,15.507,0,0,0,5.725-4.243,10.657,10.657,0,0,0,2.225-5.222Zm-4.725-6.4c0-.753.025-1.356.025-1.732.025-.879.025-1.556.025-1.732V26.324h4.675v5.121Zm4.725.527V37.32h-5c.125-1.054.225-3.088.275-5.347ZM-193.2,40.006h3.175v1.331c.025.4.125.452.975.452.95,0,1.5-.1,1.675-.326a.651.651,0,0,0,.075-.377c-.05-2.385-.075-3.264-.075-13.556.65-.351.875-.527.875-.728,0-.126-.075-.226-.3-.4-.825-.653-1.1-.879-2.025-1.531l-1.325,1.506h-2.925A23.36,23.36,0,0,0-196,24.793c.1,2.059.125,3.791.125,6.9,0,4.569-.025,5.874-.125,10.192v.075c0,.427.175.5,1.05.5,1.4,0,1.75-.151,1.75-.7V40.006Zm3.175-7.406H-193.2V26.9h3.175Zm0,.527v6.351H-193.2V33.127Zm40.65-5.573c.15,0,.225-.05.225-.126,0-.05-.025-.1-.1-.2a20.214,20.214,0,0,0-1.7-1.556c-.575.653-.575.653-1.2,1.356h-.75a1.2,1.2,0,0,0,.975-1.23c0-.8-.85-1.23-3.125-1.582l-.125.2a4.464,4.464,0,0,1,1.325,1.833c.25.628.3.678.55.778h-2.9V25.169c.575-.2.8-.351.8-.527,0-.276-.325-.377-1.95-.5-.35-.025-.875-.075-1.6-.126a22.748,22.748,0,0,1,.225,2.36c.025.251.025.276.05.653h-8.25A30.754,30.754,0,0,0-170.1,25.5a44.207,44.207,0,0,1,.2,4.418c0,5.347-.475,7.808-2.15,11.021l.2.151a18.39,18.39,0,0,0,1.725-1.732A11.423,11.423,0,0,0-168,35.462a25.77,25.77,0,0,0,.775-7.13v-.778h8.6a18.321,18.321,0,0,0,1.85,7.406,15.94,15.94,0,0,1-5.075,4.092l.15.226a17.939,17.939,0,0,0,3.925-1.456,10.59,10.59,0,0,0,1.95-1.305c1.45,1.983,3.725,3.49,5.275,3.49a1.323,1.323,0,0,0,1.375-1.356,1.155,1.155,0,0,0-.4-.879c-.4-.351-.45-.427-.45-.753a6.644,6.644,0,0,1,.125-.828l.55-3.238-.25-.05a43.7,43.7,0,0,1-2.075,3.992,6.6,6.6,0,0,1-2.425-2.109,19.816,19.816,0,0,0,2.675-4.117c.85-.126,1.05-.2,1.05-.427,0-.276,0-.276-3.2-1.305a11.323,11.323,0,0,1-1.65,3.841,16.356,16.356,0,0,1-.95-5.222Zm-18.7,12.552a5.213,5.213,0,0,1-.625,1.707,4.073,4.073,0,0,1-1.875,1.556c-.85.351-1.025.577-1.025,1.305,0,1.029.575,1.833,1.325,1.833,1.5,0,2.725-1.933,2.725-4.293a8.24,8.24,0,0,0-.275-2.109Zm13.975.176a12.274,12.274,0,0,1,2.575,5.347c.125.5.3.7.625.7.9,0,1.8-1.18,1.8-2.31,0-.678-.325-1.205-1.25-1.933a14.369,14.369,0,0,0-3.6-1.958Zm-11.575-10.418a4.252,4.252,0,0,1-1.35-.176l.125.8a6.207,6.207,0,0,1,1.225-.1h7.05c.1,0,.2-.05.2-.126a.34.34,0,0,0-.125-.226c-.975-.8-1.275-1.054-2.3-1.858-.625.7-.8.929-1.425,1.682Zm1.625,6.753h2.45v.427c0,.326.125.377.775.377,1.325,0,1.675-.126,1.675-.628-.025-1.23-.025-1.356-.025-3.64.475-.276.6-.4.6-.552,0-.1-.075-.2-.275-.351-.7-.552-.95-.728-1.725-1.28-.525.527-.675.7-1.175,1.28h-2.15c-1.125-.577-1.475-.728-2.6-1.205.075,1,.075,1.331.075,2.561,0,1.933,0,2.561-.075,4.042,0,.452.175.527.95.527,1.225,0,1.5-.126,1.5-.653Zm0-3.841h2.45V36.09h-2.45Zm-1.75,10.142c-.025,1.406-.025,1.406-.025,1.556v.552a1.437,1.437,0,0,0,.7,1.431c.525.3,1.375.377,4.55.377.8,0,3.075-.05,4.075-.075a6.876,6.876,0,0,0,1.9-.176,1.356,1.356,0,0,0,1.075-1.331,1.1,1.1,0,0,0-.3-.8,2.151,2.151,0,0,0-.8-.4c-.25-.075-.325-.2-.325-.5a.441.441,0,0,1,.025-.126l.175-2.837-.25-.05A17.56,17.56,0,0,1-156.475,44c-.3.452-.575.5-3.6.5a17.315,17.315,0,0,1-2.775-.1c-.25-.1-.3-.176-.3-.678V40.659c.7-.251.875-.351.875-.577,0-.326-.05-.326-3.625-.628a15.833,15.833,0,0,1,.1,1.757Zm4.525-3.439a9.727,9.727,0,0,1,1.975,3.314c.15.427.325.6.675.6a1.607,1.607,0,0,0,1.525-1.632,1.737,1.737,0,0,0-1.125-1.506,15.9,15.9,0,0,0-2.925-.979Zm25.1,6.05a18.537,18.537,0,0,0,5.775-1.506c3.625-1.682,5.625-4.594,5.625-8.234,0-4.971-3.975-8.51-9.55-8.51A12.392,12.392,0,0,0-143.75,31.4a8.3,8.3,0,0,0-2.1,5.021,4.834,4.834,0,0,0,.975,2.887,4.335,4.335,0,0,1,1.075,1.858,6.21,6.21,0,0,0,.575,1.657,1.644,1.644,0,0,0,1.35.728c1.25,0,2.7-1.381,4.325-4.092,1.8-3.038,3.075-6.552,3.075-8.561a3.741,3.741,0,0,0-1.15-2.686,7.747,7.747,0,0,1,1-.05c4.3,0,6.9,2.561,6.9,6.854a9.363,9.363,0,0,1-2.5,6.6,12.946,12.946,0,0,1-6.05,3.565Zm.05-17.247a2.41,2.41,0,0,1,.2.552,2.9,2.9,0,0,1,.1.828,14.962,14.962,0,0,1-2,5.548c-1.625,3.088-3.275,5.172-4.1,5.172-.85,0-1.7-1.782-1.7-3.515a8.576,8.576,0,0,1,2.675-5.975A9.054,9.054,0,0,1-136.125,28.282Zm16.95,0c1.1,2.084,2.275,2.812,4.475,2.812a7.037,7.037,0,0,0,.875-.05c-.1.954-.175,2.159-.3,3.64-3.6,1.657-5.875,4.092-5.875,6.251a2.467,2.467,0,0,0,.625,1.657,2.257,2.257,0,0,1,.475,1.054c.2.828.65,1.28,1.325,1.28,1.05,0,2.875-.954,4.45-2.31.625,1.506,1.075,2.059,1.65,2.059s1.1-.828,1.1-1.757a1.536,1.536,0,0,0-.325-1.029,5.567,5.567,0,0,1-.575-.979,14.626,14.626,0,0,0,4.125-6.628,4.624,4.624,0,0,1,2.475,1,4.171,4.171,0,0,1,1.45,3.389,6.82,6.82,0,0,1-2.075,4.87,12.189,12.189,0,0,1-5.95,2.962l.075.3a17.846,17.846,0,0,0,6.1-1.23c3.075-1.23,4.825-3.515,4.825-6.226,0-3.264-2.55-5.5-6.875-6a2.346,2.346,0,0,0-1.775-1.607,2.615,2.615,0,0,0-.325.05,1.909,1.909,0,0,1,.8,1.582,16.533,16.533,0,0,0-3.725.653,28.755,28.755,0,0,1,.45-3.188,36.364,36.364,0,0,0,5.05-1.155c2-.678,2.625-1.054,2.625-1.682a.9.9,0,0,0-.625-.828,3.925,3.925,0,0,0-1.35-.326,1.108,1.108,0,0,0-.875.3,10.268,10.268,0,0,1-4.425,1.883,4.836,4.836,0,0,1,.875-1.908c.275-.326.35-.477.35-.728,0-.5-.375-.879-1.2-1.255a7.434,7.434,0,0,0-2.825-.653,1.9,1.9,0,0,0-1.225.351c1.425.4,1.9.879,1.9,1.958,0,.5-.1,1.431-.25,2.661a8.9,8.9,0,0,1-1.725.151,4.054,4.054,0,0,1-3.5-1.506Zm5.05,7.582v.653a20.949,20.949,0,0,0,.375,4.092,7.213,7.213,0,0,1-3.4,1.808c-.475,0-.775-.5-.775-1.331C-117.925,39.2-116.525,37.295-114.125,35.864Zm1.925-.854a10.868,10.868,0,0,1,3.625-.828,13.433,13.433,0,0,1-3.325,4.9,14.962,14.962,0,0,1-.325-3.289C-112.225,35.638-112.225,35.387-112.2,35.01Zm22.925,1.983c.5-.527.5-.527,1.775-1.883,1.8-1.908,2.325-2.435,3.65-3.69,2.075-1.983,2.25-2.109,3-2.51.65-.351.8-.527.8-.854a1.813,1.813,0,0,0-.5-1.079A3.94,3.94,0,0,0-82.7,25.47h-.05a1.235,1.235,0,0,0-.8.351,6.161,6.161,0,0,1-2.25.954,17.324,17.324,0,0,1-3.725.778c-.925,0-1.675-.653-2.175-1.883a2.064,2.064,0,0,0-.225.9,4.026,4.026,0,0,0,.725,2.084c.525.8,1.05,1.18,1.6,1.18a2.454,2.454,0,0,0,1.1-.351c1.05-.5,1.05-.5,1.875-.879.625-.276,1.075-.477,1.25-.552.625-.3,1.075-.477,1.275-.577a3.189,3.189,0,0,0,.5-.2h.025a.087.087,0,0,1,.05.025c0,.075,0,.075-2.4,3.163a67.533,67.533,0,0,1-6.65,7.28c-1.05.854-1.175,1.029-1.175,1.732,0,1.155.625,2.259,1.3,2.259a1.044,1.044,0,0,0,.525-.226c.225-.151.275-.226.7-.8a16.27,16.27,0,0,1,2.875-2.987,8.358,8.358,0,0,1,5.025-1.858c2.4,0,3.725,1.255,3.725,3.515a4.579,4.579,0,0,1-2.6,4.343,4.865,4.865,0,0,0-4.475-2.912c-1.875,0-3.175,1.054-3.175,2.561,0,1.808,1.875,2.987,4.725,2.987,4.825,0,8.375-2.762,8.375-6.527,0-3.038-2.35-5.121-5.8-5.121a11.953,11.953,0,0,0-6.7,2.31Zm4.8,7.607a5.874,5.874,0,0,1-1.6.2c-1.675,0-2.85-.653-2.85-1.582,0-.7.625-1.205,1.525-1.205A3.142,3.142,0,0,1-84.475,44.6ZM-59,27.378V25.37c.775-.2,1.075-.377,1.075-.653,0-.151-.1-.251-.325-.326-.325-.126-.575-.176-3.725-.452A9.211,9.211,0,0,1-61.85,25.8V27.4h-6.675a7.1,7.1,0,0,1-2.025-.251l.175.954a8.8,8.8,0,0,1,1.85-.126h18.8c.125,0,.25-.1.25-.176a.569.569,0,0,0-.1-.226c-1.25-.979-1.65-1.28-2.925-2.234-.9,1-.9,1-1.825,2.033ZM-64,33.7A2.254,2.254,0,0,0-62.425,31.7,2.839,2.839,0,0,0-63.7,29.663a14.361,14.361,0,0,0-2.475-1.481l-.25.226a7.107,7.107,0,0,1,1.275,4.167c.025.728.175,1,.575,1.13h-4.75a9.089,9.089,0,0,1-2.35-.226l.175.979a11.149,11.149,0,0,1,2.2-.176h20.525c.2,0,.325-.075.325-.176a.5.5,0,0,0-.15-.226c-1.25-1-1.625-1.305-2.95-2.31-.8.929-1.05,1.23-1.825,2.134h-4.45a39.258,39.258,0,0,0,3.45-3.54c1.025-.126,1.3-.251,1.3-.5,0-.276-.175-.351-3.975-1.556A15.31,15.31,0,0,1-58,31.5c-.4,1.054-.625,1.607-.9,2.209Zm-.85,12h8.975v1.029c.025.4.15.477.8.477a4.2,4.2,0,0,0,1.95-.276.505.505,0,0,0,.175-.4c-.05-1.707-.075-3.038-.075-7.757V37.9c.7-.351.9-.527.9-.778,0-.126-.1-.226-.325-.377-.925-.653-1.225-.854-2.25-1.506L-56,36.717h-8.525a33.848,33.848,0,0,0-3.2-1.531c.075,1.029.1,1.582.1,2.51,0,7.13,0,7.13-.1,9.013,0,.452.15.552.8.552,1.65,0,2.025-.126,2.075-.653Zm8.975-5.021H-64.85V37.295h8.975Zm0,.577v3.866H-64.85V41.261ZM-44.8,28.734a4.745,4.745,0,0,0,1.5,1.732,5.105,5.105,0,0,0,2.85.753c.175,0,.425-.025.825-.05a19.965,19.965,0,0,1-3.925,4.469c-.775.527-.8.552-.975.8a1.5,1.5,0,0,0-.2.778c0,1.18.475,2.059,1.1,2.059.4,0,.625-.176,1.275-1,1.95-2.536,3.7-3.816,5.225-3.816a1.337,1.337,0,0,1,1.2.7,4.1,4.1,0,0,1,.3,1.757,19.107,19.107,0,0,0-2.95,2.159,5.224,5.224,0,0,0-1.9,3.665,3.088,3.088,0,0,0,1.45,2.736c1.2.753,2.9,1.079,5.65,1.079a19.707,19.707,0,0,0,4.875-.427,1.124,1.124,0,0,0,.925-1A1.718,1.718,0,0,0-28.4,43.8a3.048,3.048,0,0,0-1.525-.577,2.889,2.889,0,0,0-1.05.3,15.212,15.212,0,0,1-4.6.678c-2.55,0-3.725-.552-3.725-1.757,0-1.28,1-2.335,3.675-3.841,0,.678-.025,1.029-.05,1.607-.075.929-.075.929-.075,1a1,1,0,0,0,1.1,1.054,1.358,1.358,0,0,0,1.225-.653,5.282,5.282,0,0,0,.2-2.059c0-.251,0-.3-.05-1.983a34.63,34.63,0,0,1,6.75-2.385c.725-.176.975-.427.975-.929,0-1.305-2.2-3.213-3.675-3.213a2.07,2.07,0,0,0-.775.151c.9.427,1.375.9,1.375,1.406,0,.226-.15.452-.5.678-.5.326-1.4.854-2.15,1.23-1.95.979-1.95.979-2.375,1.23a2.882,2.882,0,0,0-.7-1.331,2.916,2.916,0,0,0-2.125-.854,7.156,7.156,0,0,0-3.575,1.13c.35-.477.35-.477,1.3-1.883.275-.4.475-.7,1.225-1.782a33.943,33.943,0,0,0,5.175-1.28c1.625-.552,2.075-.828,2.075-1.356,0-.653-.925-1.205-2.025-1.205a1,1,0,0,0-.7.251c-.85.7-1.075.828-3.3,1.607a17.362,17.362,0,0,1,1.325-1.858,1.272,1.272,0,0,0,.425-.778c0-.427-.4-.8-1.1-1.1a8,8,0,0,0-2.825-.577,2.213,2.213,0,0,0-1.35.377c1.425.326,2,.778,2,1.632a6.751,6.751,0,0,1-.875,2.762,10.2,10.2,0,0,1-2.475.3,4.433,4.433,0,0,1-3.425-1.23Zm37.35,5.3a15.972,15.972,0,0,0,4.925,5.247A8.655,8.655,0,0,0-.25,40.458c.125,0,.2-.075.275-.251a3.376,3.376,0,0,1,1.8-2.41l.025-.3c-3.55-.527-5.725-1.481-7.875-3.464h7.3c.2,0,.325-.075.325-.176,0-.075-.05-.151-.15-.276C.3,32.65-.05,32.374-1.225,31.445-2,32.324-2.25,32.6-3.05,33.5h-3.5a9.83,9.83,0,0,1-1.875-2.812H-.95c.175,0,.275-.075.275-.176q0-.075-.15-.226c-1.1-.929-1.45-1.205-2.6-2.059-.725.828-.95,1.079-1.675,1.933h-5.8c.35-.9.525-1.481.825-2.51H.425C.6,27.654.7,27.579.7,27.5s-.05-.151-.15-.251a32.478,32.478,0,0,0-2.725-2.184c-.775.854-1.025,1.13-1.85,2.059H-9.95c.15-.577.225-.828.375-1.556.975-.276,1.225-.4,1.225-.653,0-.276-.425-.4-2.175-.6-.425-.075-1.1-.151-2-.276a14.753,14.753,0,0,1-.35,3.088H-18.9a5.639,5.639,0,0,1-1.775-.226l.175.9a5.743,5.743,0,0,1,1.625-.151H-13a25.736,25.736,0,0,1-.775,2.51h-4.05a5.747,5.747,0,0,1-1.7-.2l.175.879a6.285,6.285,0,0,1,1.5-.151h3.875a19.354,19.354,0,0,1-1.35,2.812H-19.65a6.1,6.1,0,0,1-1.875-.226l.15.929a6.027,6.027,0,0,1,1.65-.176h4.075a22.2,22.2,0,0,1-6.5,6.828l.15.276a20.089,20.089,0,0,0,6.725-4.293l.15.854a4.772,4.772,0,0,1,1.425-.151h1.45a8.524,8.524,0,0,1-.35,2.812h-4.75a6.1,6.1,0,0,1-1.75-.226l.15.9a7.985,7.985,0,0,1,1.575-.151h4.6a8.708,8.708,0,0,1-3.55,4.192,16.252,16.252,0,0,1-4.6,1.983l.075.276a18.242,18.242,0,0,0,6.575-1.657A8.889,8.889,0,0,0-10.6,42.316,19.59,19.59,0,0,1-3.875,46.91c.375.377.625.527.85.527.6,0,1.1-.778,1.1-1.657,0-1.305-.825-2.084-2.775-2.636a48.088,48.088,0,0,0-5.675-1.255,6.051,6.051,0,0,0,.425-1H-2.3c.175,0,.3-.075.3-.176,0-.075-.05-.151-.175-.276-1.05-.9-1.375-1.18-2.525-2.033-.725.828-.95,1.1-1.65,1.958H-9.775a14.708,14.708,0,0,0,.4-2.812h3.55c.125,0,.225-.075.225-.151a.34.34,0,0,0-.125-.226c-1-.879-1.325-1.13-2.35-1.908-.675.753-.875.979-1.525,1.757h-4.1a6.448,6.448,0,0,1-1.575-.176,14.572,14.572,0,0,0,2.325-2.812Zm-1.4-3.339A17.8,17.8,0,0,0-7.75,33.5H-12.6a20.194,20.194,0,0,0,1.475-2.812ZM4.1,28.583a1.6,1.6,0,0,0-.2.728c0,1.657,1.9,4.042,3.25,4.042a2.2,2.2,0,0,0,1.25-.427c1.275-.979,6.675-2.912,10.425-3.715a14.6,14.6,0,0,0-4,2.887,9.492,9.492,0,0,0-2.8,6.3,6.882,6.882,0,0,0,2.6,5.573A8.956,8.956,0,0,0,19.95,45.88c1.175,0,1.75-.377,1.75-1.18a2.584,2.584,0,0,0-.975-1.808,1.873,1.873,0,0,0-1.3-.527h-.25a1.479,1.479,0,0,1-.275.025,5.792,5.792,0,0,1-2-.4,4.585,4.585,0,0,1-3.025-4.519A7.4,7.4,0,0,1,15.85,32.55a7.8,7.8,0,0,1,6-2.837,7.241,7.241,0,0,1,.725.025c.275.025.5.05.65.05.75,0,1.225-.377,1.225-.979a1.773,1.773,0,0,0-.975-1.381,4.067,4.067,0,0,0-1.85-.7,2.468,2.468,0,0,0-.95.226,8.736,8.736,0,0,1-2.025.653c-3.025.653-4.325.954-5.55,1.28-5.025,1.28-5.925,1.481-6.725,1.481C5.4,30.366,4.675,29.813,4.1,28.583Zm15.75,4.971a11.045,11.045,0,0,1,2.95,3.339c.325.577.525.728.85.728.475,0,.775-.4.775-.979,0-.8-.525-1.531-1.675-2.31a9.564,9.564,0,0,0-2.675-1.205Zm2.575-1.983a10.9,10.9,0,0,1,3,2.962c.375.527.55.678.825.678.45,0,.75-.4.75-1,0-.7-.45-1.28-1.45-1.933a8.71,8.71,0,0,0-2.925-1.1Zm13.3,5.423c.5-.527.5-.527,1.775-1.883,1.8-1.908,2.325-2.435,3.65-3.69,2.075-1.983,2.25-2.109,3-2.51.65-.351.8-.527.8-.854a1.813,1.813,0,0,0-.5-1.079A3.94,3.94,0,0,0,42.3,25.47h-.05a1.235,1.235,0,0,0-.8.351,6.161,6.161,0,0,1-2.25.954,17.324,17.324,0,0,1-3.725.778c-.925,0-1.675-.653-2.175-1.883a2.064,2.064,0,0,0-.225.9,4.026,4.026,0,0,0,.725,2.084c.525.8,1.05,1.18,1.6,1.18a2.454,2.454,0,0,0,1.1-.351c1.05-.5,1.05-.5,1.875-.879.625-.276,1.075-.477,1.25-.552.625-.3,1.075-.477,1.275-.577a3.189,3.189,0,0,0,.5-.2h.025a.087.087,0,0,1,.05.025c0,.075,0,.075-2.4,3.163a67.533,67.533,0,0,1-6.65,7.28c-1.05.854-1.175,1.029-1.175,1.732,0,1.155.625,2.259,1.3,2.259a1.044,1.044,0,0,0,.525-.226c.225-.151.275-.226.7-.8a16.27,16.27,0,0,1,2.875-2.987,8.358,8.358,0,0,1,5.025-1.858c2.4,0,3.725,1.255,3.725,3.515a4.579,4.579,0,0,1-2.6,4.343,4.865,4.865,0,0,0-4.475-2.912c-1.875,0-3.175,1.054-3.175,2.561,0,1.808,1.875,2.987,4.725,2.987,4.825,0,8.375-2.762,8.375-6.527,0-3.038-2.35-5.121-5.8-5.121a11.953,11.953,0,0,0-6.7,2.31Zm4.8,7.607a5.874,5.874,0,0,1-1.6.2c-1.675,0-2.85-.653-2.85-1.582,0-.7.625-1.205,1.525-1.205A3.142,3.142,0,0,1,40.525,44.6Zm23.15-8.485V34.232a15.115,15.115,0,0,1,5.6,3.916c.625.7.825.828,1.175.828.65,0,1.1-.7,1.1-1.757a2.513,2.513,0,0,0-1.825-2.46,18.682,18.682,0,0,0-6.05-1.28c.1-4.017.125-4.393.575-5.1a1.207,1.207,0,0,0,.2-.628c0-.527-.35-.929-1.25-1.456a6.718,6.718,0,0,0-3.075-.979,1.624,1.624,0,0,0-.975.251,3.249,3.249,0,0,1,1.725,1.305c.35.653.425,1.506.425,6.025,0,6.05-.15,8.51-.575,9.791a2.729,2.729,0,0,0-.2.954A4.254,4.254,0,0,0,61.4,45.73a1.735,1.735,0,0,0,1.325.879.924.924,0,0,0,.85-.653A3.977,3.977,0,0,0,63.75,44.4c0-.351-.025-.678-.025-1.13-.05-3.69-.05-4.167-.05-5.1Zm4.1-9.715a11.391,11.391,0,0,1,2.95,3.339c.325.577.525.728.85.728.45,0,.775-.4.775-.979,0-.8-.525-1.531-1.675-2.31A9.564,9.564,0,0,0,68,25.972Zm2.575-1.983a10.9,10.9,0,0,1,3,2.962c.375.527.55.678.825.678.45,0,.75-.4.75-1,0-.7-.45-1.28-1.45-1.933a8.928,8.928,0,0,0-2.925-1.1Zm8.1,15.791a30.876,30.876,0,0,0,4.7-1.983,41.492,41.492,0,0,0,5.35-3.565c.35.477.425.828.425,2.109a29.216,29.216,0,0,1-.55,6.477,2.209,2.209,0,0,0-.15.8,3.126,3.126,0,0,0,2.3,2.586c.7,0,1.025-.5,1.025-1.531,0-.251,0-.6-.025-.954-.15-4.77-.15-5.1-.175-6.251-.025-1.858-.05-2.109-.275-2.46a6.111,6.111,0,0,0-1.725-1.481c1.775-1.531,1.775-1.531,3.525-3.163C94.4,29.337,94.4,29.337,94.5,29.261c.875-.628,1-.778,1-1.23,0-.577-.675-1.331-1.825-2.008a5.015,5.015,0,0,0-2.525-.854,2.914,2.914,0,0,0-.8.1c.925.477,1.5,1.13,1.5,1.657,0,.828-1.525,2.837-4.2,5.548a46.482,46.482,0,0,1-9.325,7.456Zm26.075-10.72a8.358,8.358,0,0,1,1.9,2.636,18.576,18.576,0,0,1,1.125,2.787c.2.7.425.954.825.954.85,0,1.55-1,1.55-2.234a2.41,2.41,0,0,0-.975-1.933,13.168,13.168,0,0,0-4.275-2.41Zm5.625-1.431A10,10,0,0,1,112.7,32.8a10.754,10.754,0,0,0,.325,1.13.689.689,0,0,0,.65.452c.85,0,1.65-1.13,1.65-2.36,0-1.531-1.525-2.812-4.975-4.167Zm-1.825,18.377a23.418,23.418,0,0,0,8.65-6.276,31.242,31.242,0,0,0,4.525-6.7,10.53,10.53,0,0,1,1.3-2.109,1.276,1.276,0,0,0,.375-.854c0-.552-.425-1.054-1.325-1.657a6.26,6.26,0,0,0-3.075-1.18,1.78,1.78,0,0,0-.85.151c1.175.552,1.7,1.13,1.7,1.833a3.03,3.03,0,0,1-.075.7,25.638,25.638,0,0,1-2,4.745,32.513,32.513,0,0,1-9.425,11.071Zm29.75-.9a18.537,18.537,0,0,0,5.775-1.506c3.625-1.682,5.625-4.594,5.625-8.234,0-4.971-3.975-8.51-9.55-8.51A12.392,12.392,0,0,0,130.5,31.4a8.3,8.3,0,0,0-2.1,5.021,4.834,4.834,0,0,0,.975,2.887,4.335,4.335,0,0,1,1.075,1.858,6.21,6.21,0,0,0,.575,1.657,1.644,1.644,0,0,0,1.35.728c1.25,0,2.7-1.381,4.325-4.092,1.8-3.038,3.075-6.552,3.075-8.561a3.741,3.741,0,0,0-1.15-2.686,7.747,7.747,0,0,1,1-.05c4.3,0,6.9,2.561,6.9,6.854a9.363,9.363,0,0,1-2.5,6.6,12.946,12.946,0,0,1-6.05,3.565Zm.05-17.247a2.41,2.41,0,0,1,.2.552,2.9,2.9,0,0,1,.1.828,14.962,14.962,0,0,1-2,5.548c-1.625,3.088-3.275,5.172-4.1,5.172-.85,0-1.7-1.782-1.7-3.515a8.576,8.576,0,0,1,2.675-5.975A9.054,9.054,0,0,1,138.125,28.282Zm16.85-1.155c1.475.4,2.05,1,2.15,2.31.05.477.075,1.757.075,2.586,0,.226,0,.954-.025,1.958v1.13a41.811,41.811,0,0,0,.175,5.2c.3,2.109,1.05,3.264,2.6,3.916a13.9,13.9,0,0,0,4.7.577,27.165,27.165,0,0,0,5.9-.552c.775-.226,1.1-.552,1.1-1.079,0-.452-.325-.879-.975-1.331a3.109,3.109,0,0,0-1.45-.527,1.8,1.8,0,0,0-.875.251,6.093,6.093,0,0,1-1.5.477,27.84,27.84,0,0,1-4.225.377c-1.45,0-2.25-.2-2.7-.653s-.6-1.205-.6-2.937c0-.728.1-2.837.2-4.393a3.312,3.312,0,0,0,2.575.979,35.561,35.561,0,0,0,7.2-1.155c1.1-.276,1.525-.6,1.525-1.155,0-.427-.3-.8-.95-1.155a3.416,3.416,0,0,0-1.55-.477,1.509,1.509,0,0,0-.8.226,6.05,6.05,0,0,1-2.45,1.23,18.163,18.163,0,0,1-4.4.954,1.816,1.816,0,0,1-1.05-.251,10.446,10.446,0,0,1,.625-3.439c.325-.678.35-.778.35-1.079,0-.552-.425-1.029-1.4-1.506a7.4,7.4,0,0,0-3-.778A2.031,2.031,0,0,0,154.975,27.127Zm16.85-1.908a2.711,2.711,0,1,0,.025,5.423,2.711,2.711,0,0,0-.025-5.423Zm0,.879a1.82,1.82,0,1,1-1.8,1.833A1.807,1.807,0,0,1,171.825,26.1Zm10,20.485a15.075,15.075,0,0,0,3.675-2.536,15.919,15.919,0,0,0,4.525-7.029c.175-.477.45-1.431.875-2.862,3.125-1.205,3.975-1.556,6.15-2.586a4.228,4.228,0,0,1,.975-.351,2.009,2.009,0,0,0,.75-.226.818.818,0,0,0,.5-.778c0-.552-.775-1.556-2.025-2.636-.8-.678-1.25-.929-1.7-.929a1.049,1.049,0,0,0-.45.1,4.177,4.177,0,0,1-1.5.4c-1,.151-2.375.3-6.75.828a37.065,37.065,0,0,1-4.725.427,2.811,2.811,0,0,1-2.775-1.632,2.1,2.1,0,0,0-.15.728,4.526,4.526,0,0,0,.775,2.033,3.332,3.332,0,0,0,2.225,1.757,2.177,2.177,0,0,0,1.1-.351,17.317,17.317,0,0,1,4.4-1.456,43.553,43.553,0,0,1,6.85-.954c.7,0,.925.075.925.3,0,.527-2.725,3.213-4.7,4.594a8.105,8.105,0,0,0-3.85-1.682,1.194,1.194,0,0,0-.95.326,2.841,2.841,0,0,1,1.1.552,1.382,1.382,0,0,1,.625,1.23,19.549,19.549,0,0,1-1.425,5.749,18.24,18.24,0,0,1-4.65,6.753Zm19.3-.527a21.164,21.164,0,0,0,5.8-3.615,35.984,35.984,0,0,0,8.1-10.469c.775-1.456.875-1.582,1.275-1.958.425-.377.525-.552.525-.929a1.19,1.19,0,0,0-.375-.854,5.58,5.58,0,0,0-1.2-1.079,5.916,5.916,0,0,0-3.125-1.305A1.856,1.856,0,0,0,211.3,26c1.225.653,1.75,1.305,1.75,2.134a6.022,6.022,0,0,1-.575,2.234A41.614,41.614,0,0,1,205.7,41.211a26.114,26.114,0,0,1-4.75,4.594Zm-422.6,44.008a8.035,8.035,0,0,1,1.65-.226,5.828,5.828,0,0,1,.95.075,14.9,14.9,0,0,0,3.375.427,7.272,7.272,0,0,0,4.575-1.431,4.992,4.992,0,0,0,1.75-4.042,4.808,4.808,0,0,0-1.3-3.49,13.44,13.44,0,0,0-4.15-2.561,11.111,11.111,0,0,1-3.25-1.933,2.9,2.9,0,0,1-.825-2.109,3.1,3.1,0,0,1,3.25-3.264A3.863,3.863,0,0,1-212,73.5a6.319,6.319,0,0,1,.85,3.138h1l.2-5.623a4.062,4.062,0,0,1-1.5.351,4.054,4.054,0,0,1-.875-.1,12.967,12.967,0,0,0-3.05-.427,7.3,7.3,0,0,0-3.2.577,5.1,5.1,0,0,0-2.95,4.695,4.551,4.551,0,0,0,2.05,3.992A19.525,19.525,0,0,0-216.2,81.88c3.125,1.531,4.1,2.561,4.1,4.268a3.22,3.22,0,0,1-3.525,3.464c-2.8,0-4.3-1.782-4.65-5.548h-1Zm14.25-.1H-193.2l.525-5.849-.825-.1c-.725,3.916-2.125,5.222-5.5,5.222h-2.75V80.525h1.8c2.7,0,3.325.5,3.625,2.937h.8V76.91h-.8c-.275,2.36-.925,2.887-3.625,2.887h-1.8V71.914h2.45c3.525,0,4.85,1.155,5.375,4.644l.875-.025-.45-5.347h-13.725v.653c2,.025,2.25.3,2.25,2.611V86.7c0,2.31-.225,2.561-2.25,2.611Zm16.625,0h8v-.653c-2.15-.075-2.375-.3-2.375-2.611V74.449c0-2.285.2-2.536,2.275-2.611v-.653h-7.8v.653c2.075.075,2.275.326,2.275,2.611V86.7c0,2.31-.2,2.536-2.375,2.611Zm9.6,0h13.8l.575-5.9-.875-.1a8.474,8.474,0,0,1-1.175,3.339c-.9,1.305-2.3,1.933-4.4,1.933h-2.3V74.449c0-2.285.2-2.536,2.275-2.611v-.653h-7.8v.653c2.075.075,2.275.326,2.275,2.611V86.7c0,2.285-.225,2.536-2.375,2.611Zm15.35,0h14.025l.525-5.849-.825-.1c-.725,3.916-2.125,5.222-5.5,5.222h-2.75V80.525h1.8c2.7,0,3.325.5,3.625,2.937h.8V76.91h-.8c-.275,2.36-.925,2.887-3.625,2.887h-1.8V71.914h2.45c3.525,0,4.85,1.155,5.375,4.644l.875-.025-.45-5.347H-165.65v.653c2,.025,2.25.3,2.25,2.611V86.7c0,2.31-.225,2.561-2.25,2.611Zm22.025-8.862h1c1.6,0,2.375.527,3.175,2.084a49.959,49.959,0,0,1,2.6,6.778h4.925v-.6c-1.175-.1-1.6-.577-2.575-2.862-1.2-2.812-1.625-3.59-2.45-4.293a5.3,5.3,0,0,0-3.1-1.331v-.2c3.95-.3,5.825-1.883,5.825-4.921a3.806,3.806,0,0,0-2.3-3.816,12.369,12.369,0,0,0-4.85-.753h-7.65v.653c1.95.1,2.15.326,2.15,2.611V86.726c0,2.285-.2,2.51-2.25,2.586v.653h7.75v-.653c-2.05-.075-2.25-.3-2.25-2.586Zm0-.728v-8.46h1.525c2.975,0,4.4,1.331,4.4,4.142s-1.6,4.318-4.575,4.318Zm29.15,11.925a12.349,12.349,0,0,0,6.3-4.393c1.4-2.008,1.825-4.067,1.95-9.389h.8a41.4,41.4,0,0,1,4.175.176,2.751,2.751,0,0,0,.4.025.737.737,0,0,0,.8-.753c0-.4-.275-.778-.925-1.18a3.7,3.7,0,0,0-1.75-.653,1.4,1.4,0,0,0-.675.176,6.627,6.627,0,0,1-2.775.552c.125-2.184.175-2.561.55-3.414a1.312,1.312,0,0,0,.15-.6c0-.5-.325-.879-1.075-1.23a7.529,7.529,0,0,0-3.15-.753,1.713,1.713,0,0,0-1.2.351,3.012,3.012,0,0,1,1.825.979c.375.452.5,1.205.5,2.987,0,.954,0,1.607-.025,1.983-2.225.251-3.9.477-5.05.653a9.112,9.112,0,0,1,.3-2.159,2,2,0,0,0,.175-.778c0-.427-.225-.753-.875-1.18a6.6,6.6,0,0,0-3.05-1.079,1.279,1.279,0,0,0-.825.251c1.75.828,2.025,1.506,2.05,5.272a25.491,25.491,0,0,1-3.85.552,2.87,2.87,0,0,1-2.425-1.28,1.861,1.861,0,0,0-.05.3,3.114,3.114,0,0,0,.45,1.305c.675,1.155,1.625,1.983,2.25,1.983a2.488,2.488,0,0,0,1-.3,9.125,9.125,0,0,1,2.65-.954,9.792,9.792,0,0,1-.425,3.339,2.008,2.008,0,0,0-.175.7,3.107,3.107,0,0,0,.55,1.481c.425.6.85.929,1.275.929.7,0,1.025-.6,1.025-1.858v-.176c-.025-.7-.05-2.762-.05-3.565V79.244a29.534,29.534,0,0,1,5.05-.653,20.905,20.905,0,0,1-1.3,8.184,11.613,11.613,0,0,1-4.75,5.3Zm9.325-22.293a9.736,9.736,0,0,1,2.225,3.389c.25.7.45.929.775.929.475,0,.775-.4.775-1.029a3.118,3.118,0,0,0-1.125-2.184,6.725,6.725,0,0,0-2.3-1.406Zm2.65-1.18a8.861,8.861,0,0,1,2.4,3.188c.325.7.45.854.8.854.45,0,.725-.377.725-.979a2.834,2.834,0,0,0-1.25-2.159,7.17,7.17,0,0,0-2.325-1.23ZM-98.475,85.4a30.874,30.874,0,0,0,4.7-1.983,41.49,41.49,0,0,0,5.35-3.565c.35.477.425.828.425,2.109a29.216,29.216,0,0,1-.55,6.477,2.209,2.209,0,0,0-.15.8,3.126,3.126,0,0,0,2.3,2.586c.7,0,1.025-.5,1.025-1.531,0-.251,0-.6-.025-.954-.15-4.77-.15-5.1-.175-6.251-.025-1.858-.05-2.109-.275-2.46a6.111,6.111,0,0,0-1.725-1.481c1.775-1.531,1.775-1.531,3.525-3.163,1.525-1.456,1.525-1.456,1.625-1.531.875-.628,1-.778,1-1.23,0-.577-.675-1.331-1.825-2.008a5.015,5.015,0,0,0-2.525-.854,2.914,2.914,0,0,0-.8.1c.925.477,1.5,1.13,1.5,1.657,0,.828-1.525,2.837-4.2,5.548A46.482,46.482,0,0,1-98.6,85.119ZM-68.95,71.562c1.2,2.159,2.225,2.887,4.175,2.887A54.332,54.332,0,0,0-58.85,73.8c1.525-.251,1.925-.452,1.925-1.029,0-.351-.175-.628-.625-.954a4.171,4.171,0,0,0-1.975-.8,1,1,0,0,0-.65.2,13.4,13.4,0,0,1-5.75,1.456,3.533,3.533,0,0,1-2.75-1.28Zm1.1,20.385c5.175-2.008,8.9-5.473,11.825-11.021a4.538,4.538,0,0,1,1.15-1.632c.375-.3.475-.452.475-.778,0-.4-.375-.929-1.15-1.607a3.327,3.327,0,0,0-1.625-.954,1.144,1.144,0,0,0-.7.2c-.575.4-.625.427-2.125.678-3.275.577-7.7,1.205-8.65,1.205a2.8,2.8,0,0,1-2.625-1.632,1.226,1.226,0,0,0-.15.577c0,1.356,1.775,3.54,2.825,3.54a2.068,2.068,0,0,0,.95-.251,12.026,12.026,0,0,1,2.9-.979,43.387,43.387,0,0,1,6.65-1.255,26.91,26.91,0,0,1-3.975,7.607A27.577,27.577,0,0,1-68,91.7Zm20-14.134a.939.939,0,0,0-.3.828,5.532,5.532,0,0,0,.875,2.611c.575,1,1.25,1.556,1.85,1.556a2.236,2.236,0,0,0,.85-.2,2.9,2.9,0,0,1,1.1-.226c1.825-.075,1.95-.1,3.1-.1,7.55-.05,9.75-.126,11.15-.3,1.075-.151,1.625-.552,1.625-1.18a.985.985,0,0,0-.3-.753c-.4-.351-1.175-.452-3.675-.452-.75,0-2.375,0-2.8.025-4.325.1-8.9.176-9.9.176a3.8,3.8,0,0,1-2.5-.527A3.837,3.837,0,0,1-47.85,77.813Zm25.375-3.891a4.745,4.745,0,0,0,1.5,1.732,5.105,5.105,0,0,0,2.85.753c.175,0,.425-.025.825-.05a19.965,19.965,0,0,1-3.925,4.469c-.775.527-.8.552-.975.8a1.5,1.5,0,0,0-.2.778c0,1.18.475,2.059,1.1,2.059.4,0,.625-.176,1.275-1,1.95-2.536,3.7-3.816,5.225-3.816a1.337,1.337,0,0,1,1.2.7,4.1,4.1,0,0,1,.3,1.757,19.108,19.108,0,0,0-2.95,2.159,5.224,5.224,0,0,0-1.9,3.665,3.088,3.088,0,0,0,1.45,2.736c1.2.753,2.9,1.079,5.65,1.079a19.707,19.707,0,0,0,4.875-.427,1.124,1.124,0,0,0,.925-1,1.718,1.718,0,0,0-.825-1.331A3.048,3.048,0,0,0-7.6,88.408a2.889,2.889,0,0,0-1.05.3,15.212,15.212,0,0,1-4.6.678c-2.55,0-3.725-.552-3.725-1.757,0-1.28,1-2.335,3.675-3.841,0,.678-.025,1.029-.05,1.607-.075.929-.075.929-.075,1a1,1,0,0,0,1.1,1.054A1.358,1.358,0,0,0-11.1,86.8a5.282,5.282,0,0,0,.2-2.059c0-.251,0-.3-.05-1.983A34.63,34.63,0,0,1-4.2,80.374c.725-.176.975-.427.975-.929,0-1.305-2.2-3.213-3.675-3.213a2.07,2.07,0,0,0-.775.151c.9.427,1.375.9,1.375,1.406,0,.226-.15.452-.5.678-.5.326-1.4.854-2.15,1.23-1.95.979-1.95.979-2.375,1.23a2.882,2.882,0,0,0-.7-1.331,2.916,2.916,0,0,0-2.125-.854,7.156,7.156,0,0,0-3.575,1.13c.35-.477.35-.477,1.3-1.883.275-.4.475-.7,1.225-1.782a33.944,33.944,0,0,0,5.175-1.28C-8.4,74.374-7.95,74.1-7.95,73.571c0-.653-.925-1.205-2.025-1.205a1,1,0,0,0-.7.251c-.85.7-1.075.828-3.3,1.607a17.362,17.362,0,0,1,1.325-1.858,1.272,1.272,0,0,0,.425-.778c0-.427-.4-.8-1.1-1.1a8,8,0,0,0-2.825-.577,2.213,2.213,0,0,0-1.35.377c1.425.326,2,.778,2,1.632a6.751,6.751,0,0,1-.875,2.762,10.2,10.2,0,0,1-2.475.3,4.433,4.433,0,0,1-3.425-1.23ZM11.8,83.613h2.675v1.155l-.025,1.958H10.2A10.428,10.428,0,0,1,8.05,86.5l.15.929a12.94,12.94,0,0,1,2.025-.176H14.45c-.025,3.138-.025,3.138-.075,4.845,0,.4.15.477.925.477,1.45,0,1.75-.126,1.75-.653-.025-.7-.05-2.259-.1-4.669h6.925c.15,0,.275-.075.275-.176,0-.075-.05-.151-.15-.276-1.075-.9-1.4-1.155-2.55-2.033-.775.8-1.025,1.079-1.8,1.958H16.925V83.613h2.95v.678c0,.427.1.5.725.5a9.509,9.509,0,0,0,1.4-.1c.3-.075.375-.176.4-.477-.075-3.515-.1-3.891-.1-8.084.625-.351.825-.527.825-.7,0-.1-.075-.2-.275-.377-.8-.628-1.05-.8-1.9-1.381-.575.6-.725.8-1.25,1.431H18a38.731,38.731,0,0,0,3.975-3.791c.875-.025,1.225-.151,1.225-.427,0-.3-.775-.628-3.7-1.582a22.819,22.819,0,0,1-2.175,5.8h-5.45c-.175-.1-.225-.126-.375-.2a2.1,2.1,0,0,0,1.45-2.008c0-1.079-1-1.958-3.725-3.339l-.2.151a10.355,10.355,0,0,1,1.625,4.042,2.9,2.9,0,0,0,.225.8c-.375-.2-.8-.4-1.625-.778.075,1.431.1,2.962.1,5.523,0,1.933,0,2.435-.075,5.272,0,.452.15.527.85.527,1.4,0,1.675-.1,1.675-.653Zm0-.527V79.5h2.675v3.59Zm0-4.117V75.629h2.675v3.339Zm5.125-3.339h2.95v3.339h-2.95Zm2.95,3.866v3.59h-2.95V79.5ZM3.325,81.253c.1-.678.125-.9.2-1.556.2-1.632.325-2.636.35-2.962h1.55v.828c0,.377.15.452.9.452,1.3,0,1.625-.126,1.625-.6-.05-1.833-.05-2.987-.05-3.866V71.964c.625-.3.825-.452.825-.653,0-.126-.075-.226-.3-.4A20.613,20.613,0,0,0,6.475,69.5c-.525.6-.675.778-1.2,1.406H2.525A7.418,7.418,0,0,1,.7,70.684l.175.9a9.823,9.823,0,0,1,1.65-.151h2.9v4.77H4.175A19.4,19.4,0,0,0,1.6,74.8a55.952,55.952,0,0,1-1,7.933,1.447,1.447,0,0,0-.025.3c0,.276.375.377,1.475.377.7,0,.875-.1,1-.527.1-.527.15-.728.2-1.1H5.425a58.908,58.908,0,0,1-.775,6.577c-.175,1.029-.35,1.331-.775,1.331-.45,0-1.975-.151-3.45-.351L.4,89.663c1.5.552,1.8.7,2.1,1A1.658,1.658,0,0,1,3,92c0,.377.075.452.45.452a7.122,7.122,0,0,0,.825-.1A2.632,2.632,0,0,0,6.45,91.044c.575-1,.875-3.013,1.4-8.686.65-.326.775-.427.775-.6,0-.126-.075-.226-.275-.4-.775-.628-1.025-.8-1.85-1.431-.55.552-.725.728-1.275,1.331ZM13,69.353a9.076,9.076,0,0,1,1.625,3.891c.2,1.079.325,1.305.7,1.305a2.155,2.155,0,0,0,1.7-2.008c0-1.054-1.1-2.008-3.825-3.364ZM35.525,79.7c-1.1,1.682-2.075,3.314-3.7,6.126a2.49,2.49,0,0,1-.975-1.406,10.139,10.139,0,0,1-.5-3.188,14.083,14.083,0,0,1,.55-3.715,3.941,3.941,0,0,0,.175-.929,1.942,1.942,0,0,0-.225-.979,6.377,6.377,0,0,0-2.575-2.586,2.848,2.848,0,0,0-1.7-.6,5,5,0,0,1,1.475,4.142v.4C28,79.169,28,79.169,28,79.345c0,3.389.625,6.025,1.875,7.933.95,1.431,2.275,2.41,3.3,2.41a1.172,1.172,0,0,0,1.2-1.205,1.965,1.965,0,0,0-.075-.552,3.987,3.987,0,0,1-.35-1.531,11.176,11.176,0,0,1,.325-2.109,31.116,31.116,0,0,1,1.5-4.469Zm4.9-4.142a6.471,6.471,0,0,1,3.35,3.414,9.716,9.716,0,0,1,.8,3.615c0,.5-.075.6-.525.8-.4.176-1.35.477-3.55,1.13l.05.251c2.7.05,3.225.151,3.825.828a1.187,1.187,0,0,0,1,.527c1.225,0,2.075-1.205,2.075-2.912a7.959,7.959,0,0,0-6.925-7.933Zm10.25-1.883a1.529,1.529,0,0,0-.2.728c0,1.657,1.9,4.042,3.25,4.042a2.2,2.2,0,0,0,1.25-.427,15.64,15.64,0,0,1,3.675-1.707A51.73,51.73,0,0,1,65.4,74.3a15.015,15.015,0,0,0-4,2.887,9.442,9.442,0,0,0-2.8,6.3,6.917,6.917,0,0,0,2.6,5.573,8.943,8.943,0,0,0,5.3,1.908c1.2,0,1.775-.4,1.775-1.205a2.634,2.634,0,0,0-.975-1.782,1.873,1.873,0,0,0-1.3-.527h-.25a1.341,1.341,0,0,1-.275.025,5.907,5.907,0,0,1-2-.4,4.6,4.6,0,0,1-3-4.519,7.553,7.553,0,0,1,1.95-4.946,7.929,7.929,0,0,1,6-2.812,7.242,7.242,0,0,1,.725.025c.275.025.5.05.65.05.75,0,1.225-.377,1.225-.979a1.773,1.773,0,0,0-.975-1.381,4.148,4.148,0,0,0-1.875-.7,2.462,2.462,0,0,0-.925.226,8.364,8.364,0,0,1-2.025.653c-3.425.753-4.3.954-5.55,1.28-5.025,1.28-5.925,1.481-6.725,1.481A2.506,2.506,0,0,1,50.675,73.671ZM83.2,92.173a12.153,12.153,0,0,0,4.575-2.184,12.87,12.87,0,0,0,3.775-4.795,20.335,20.335,0,0,1,2.9,2.51c.4.427.675.577.925.577.525,0,.95-.7.95-1.582a2.842,2.842,0,0,0-.95-2.084,10.6,10.6,0,0,0-2.85-1.808c.725-2.134,1.1-3.213,1.125-3.289.325-.728.35-.8.35-1.13,0-.628-.375-1.13-1.225-1.682A6.04,6.04,0,0,0,90.1,75.73a.993.993,0,0,0-.525.151c1.025.6,1.45,1.18,1.45,2.033a16.191,16.191,0,0,1-.85,3.967,24.554,24.554,0,0,0-6.45-1.456c.35-.653.475-.879.975-1.782,1.775-3.264,2-3.565,2.7-4.117a.972.972,0,0,0,.5-.8c0-.929-1.65-2.686-2.525-2.686a.914.914,0,0,0-.675.3,2.061,2.061,0,0,1-1.25.628,12.46,12.46,0,0,1-2.775.427c-1.075,0-1.625-.427-2.1-1.607a1.557,1.557,0,0,0-.275.929c0,1.406.95,2.762,1.925,2.762A2.209,2.209,0,0,0,81.2,74.2a30.375,30.375,0,0,1,3.35-1.305,65.493,65.493,0,0,1-3.075,7.481,8,8,0,0,0-5.025,1.732,5.083,5.083,0,0,0-1.8,3.816c0,1.707.975,3.063,2.225,3.063.825,0,1.8-.678,2.875-2.033a34.57,34.57,0,0,0,3.225-5,16.389,16.389,0,0,1,6.5,2.059c-1.625,3.916-3.3,6-6.4,7.958ZM80.825,81.755c-1.55,3.163-2.825,4.921-3.575,4.921-.575,0-1.075-.828-1.075-1.808a2.781,2.781,0,0,1,.975-2.134A6.519,6.519,0,0,1,80.825,81.755Zm20.8-7.858c1.4,2.31,2.775,2.987,5.875,2.987.675,0,1.4-.025,2.175-.1,0,.828.025,2.812.025,3.364a22.222,22.222,0,0,1-2.675.176c-1.525,0-2.5-.226-2.9-.678a1.823,1.823,0,0,1-.425-1.305l-.25-.025a3.933,3.933,0,0,0-.125.9c0,1.757,1.6,2.661,4.75,2.661.325,0,.55,0,1.625-.05v3.339h-.425c-3.825,0-6.525,1.431-6.525,3.49,0,1.757,2.1,3.063,4.925,3.063a5.988,5.988,0,0,0,3.375-.9,2.724,2.724,0,0,0,1.05-2.36,6.289,6.289,0,0,0-.05-.9,11.457,11.457,0,0,1,4.25,2.611c.75.778.825.828,1.2.828.55,0,.925-.577.925-1.481a2.615,2.615,0,0,0-1.475-2.36,14.537,14.537,0,0,0-5.025-1.808,27.87,27.87,0,0,1-.275-3.69,29.386,29.386,0,0,0,4.15-.8c1.625-.452,2.175-.778,2.175-1.331a.733.733,0,0,0-.375-.653,3.081,3.081,0,0,0-1.575-.5c-.275,0-.35.025-.725.276a9.978,9.978,0,0,1-3.7,1.18V78.14c0-.452,0-.8.05-1.531a42.465,42.465,0,0,0,5.475-1.13c1.05-.326,1.475-.628,1.475-1.1a.912.912,0,0,0-.45-.728,3.122,3.122,0,0,0-1.65-.577,1.27,1.27,0,0,0-.675.226A9.587,9.587,0,0,1,111.8,74.7a5.1,5.1,0,0,1,.55-2.134,1.629,1.629,0,0,0,.325-.9c0-.477-.325-.828-1.05-1.1a8.659,8.659,0,0,0-2.825-.452,1.915,1.915,0,0,0-1.65.527c1.2.1,1.925.527,2.15,1.331a13.672,13.672,0,0,1,.3,3.138,25.573,25.573,0,0,1-3.275.251,5.538,5.538,0,0,1-4.475-1.632Zm8,13.13a3.7,3.7,0,0,1-.275,1.858c-.4.678-1.65,1.13-3.15,1.13-1.625,0-2.6-.5-2.6-1.356,0-1.079,1.575-1.833,3.875-1.833A11.415,11.415,0,0,1,109.625,87.027Zm23.9-5.021c2.525,2.41,2.525,2.41,2.65,3.138.125.653.375.9.9.9a2.308,2.308,0,0,0,1.2-.377,3.332,3.332,0,0,0,1.375-1.958,28.394,28.394,0,0,0,.775-5.3,22.739,22.739,0,0,1,2.725-.176c.4,0,1.175,0,1.45.025.925.025.925.025,1.05.025q1.2,0,1.2-.753a1.048,1.048,0,0,0-.525-.929A4.529,4.529,0,0,0,144,75.7a1.762,1.762,0,0,0-.725.2,7.7,7.7,0,0,1-2.7.854,11.325,11.325,0,0,1,.7-3.264,1.472,1.472,0,0,0,.25-.8c0-.552-.25-.9-.975-1.356a7.044,7.044,0,0,0-3.275-1.029,1.6,1.6,0,0,0-1.125.351,3.147,3.147,0,0,1,1.5.828c.6.577.775,1.155.775,2.536,0,1.23,0,1.531-.075,3.188l-3.45.7c-.375.075-1,.2-2.75.628a8.057,8.057,0,0,1,.375-2.335,1.944,1.944,0,0,0,.15-.7c0-.653-.475-1.155-1.575-1.607a6.852,6.852,0,0,0-2.525-.552,2.03,2.03,0,0,0-1.25.326c1.3.4,2,.979,2.225,1.833a16.681,16.681,0,0,1,.25,2.159c.025,1.205.025,1.205.05,1.456a18.935,18.935,0,0,1-3.85.753,2.78,2.78,0,0,1-2.5-1.406,2.875,2.875,0,0,0-.075.527,3.744,3.744,0,0,0,.75,1.833,2.986,2.986,0,0,0,2.175,1.531,1.526,1.526,0,0,0,.825-.276,12,12,0,0,1,2.725-1.255c.05,2.259.075,3.038.125,3.715.15,2.134.45,3.414,1.075,4.268,1.075,1.556,3,2.159,6.875,2.159a18.761,18.761,0,0,0,4.85-.5,1.1,1.1,0,0,0,.85-1,1.465,1.465,0,0,0-.65-1.13,3.029,3.029,0,0,0-1.65-.753,2.023,2.023,0,0,0-.975.251,13.641,13.641,0,0,1-4.6.7,4.644,4.644,0,0,1-2.9-.6c-.775-.577-.975-1.506-.975-4.368,0-1.28.025-2.109.125-3.464a33.438,33.438,0,0,1,6.2-1.431,28.114,28.114,0,0,1-.6,4.017c-.125.4-.275.577-.5.577a11.244,11.244,0,0,1-3.475-1.456Zm37.65-.276A11.984,11.984,0,0,1,168.1,86.4a6.423,6.423,0,0,1-4,1.958,1.593,1.593,0,0,1-1.05-.326c-.35-.3-.525-.854-.725-2.059a7.578,7.578,0,0,0-.625-2.611,3.223,3.223,0,0,0-3.025-1.883c-1.25,0-2.525.628-4.075,2.008h-.025c.425-.7.425-.7,1.2-2.008,1.05-1.732,1.05-1.732,2.8-4.544a18.183,18.183,0,0,1,1.875-2.711c.5-.527.6-.728.6-1.1,0-.577-.4-1.079-1.25-1.657a6.9,6.9,0,0,0-3.3-1.23,1.825,1.825,0,0,0-.975.251c1.3.527,1.875,1.155,1.875,2.008,0,.828-.575,2.46-1.775,5.021a66.055,66.055,0,0,1-5,9.088c-.65.854-.75,1.079-.75,1.682a5.5,5.5,0,0,0,.4,1.782c.25.6.625.929,1.075.929.55,0,.875-.351,1.15-1.155a16.381,16.381,0,0,1,2.25-5.021c1.05-1.506,2.2-2.31,3.35-2.31,1.275,0,1.775.828,1.9,3.088a12.274,12.274,0,0,0,.1,1.682,5.107,5.107,0,0,0,.75,2.661,3.411,3.411,0,0,0,2.825,1.205,6.887,6.887,0,0,0,5.45-3.163,13.918,13.918,0,0,0,2.325-6.176Zm7.975,5.021c1.675,1.456,2.375,2.31,2.425,2.887.05.753.05.753.175.954a.968.968,0,0,0,.85.4,4.092,4.092,0,0,0,3.125-1.632c1.375-1.707,2.525-5.649,2.525-8.736a5.233,5.233,0,0,0-.825-3.439,3.18,3.18,0,0,0-2.7-1.13,7.928,7.928,0,0,0-1.825.226,16.886,16.886,0,0,1,1.55-3.138,1.467,1.467,0,0,0,.325-.854c0-.678-.75-1.255-2.175-1.707a8.247,8.247,0,0,0-2.175-.377,1.618,1.618,0,0,0-.975.3c1.425.477,2.025,1.1,2.025,2.109a14.09,14.09,0,0,1-.875,4.042,20.037,20.037,0,0,1-3.85.753,2.25,2.25,0,0,1-2.2-1.556,1.5,1.5,0,0,0-.15.653,4.614,4.614,0,0,0,.85,2.31,1.976,1.976,0,0,0,1.4.954,1.306,1.306,0,0,0,.75-.276,19.926,19.926,0,0,1,2.725-1.331c-1.975,4.594-3.375,7.155-4.55,8.385a2.014,2.014,0,0,0-.725,1.808c0,1.406.475,2.36,1.175,2.36s1.15-.628,2.3-3.289c.325-.8,1.7-4.117,4.075-9.941a6.788,6.788,0,0,1,2.2-.452c1.05,0,1.45.577,1.45,2.033a19.841,19.841,0,0,1-1.825,7.632c-.425.879-.775,1.205-1.3,1.205a11.991,11.991,0,0,1-3.6-1.431ZM189.9,76.232a6.616,6.616,0,0,1,3.425,3.64,8.021,8.021,0,0,1,.65,2.46c0,.226-.05.326-.175.4a25.713,25.713,0,0,1-3.675,1.1l.05.251c2.825.025,3.3.1,3.85.6a1.513,1.513,0,0,0,1.1.5c1.1,0,1.75-.929,1.75-2.485a6.1,6.1,0,0,0-1.925-4.268,8.746,8.746,0,0,0-4.925-2.485Zm20.3,8.661c.125-2.46.65-3.289,2.95-4.669a9.287,9.287,0,0,0,2.375-1.732,3.972,3.972,0,0,0,1.075-2.837c0-2.812-2.3-4.544-6.025-4.544a8.92,8.92,0,0,0-3.3.552,4.63,4.63,0,0,0-3.25,4.167c0,.879.625,1.331,1.85,1.331,1.05,0,1.6-.4,1.6-1.18L207.45,75a4.853,4.853,0,0,1,.575-2.134,2.537,2.537,0,0,1,2.225-1.1c1.8,0,2.95,1.431,2.95,3.59a5.5,5.5,0,0,1-.475,2.285,8.559,8.559,0,0,1-1.55,2.084,5.874,5.874,0,0,0-1.975,4.544,6.181,6.181,0,0,0,.025.628Zm-.45,1.632a2.084,2.084,0,1,0,2.075,2.084A2.043,2.043,0,0,0,209.75,86.525Z" transform="translate(222.175 21.425)" fill="#fff"/></svg>