<svg xmlns="http://www.w3.org/2000/svg" width="319.639" height="143.639" viewBox="0 0 319.639 143.639"><g transform="translate(-525.681 -1313.68)"><g transform="translate(292.98 1051.813)"><path d="M1496.257-31.1c-10.545,0-19.35,5.886-21.547,13.751h-.628c-9.3,0-16.864,5.886-17.163,13.232h-6.875V82.916h6.875c.3,7.347,7.858,13.232,17.163,13.232h.628c2.2,7.865,11,13.751,21.547,13.751h224.572c10.546,0,19.351-5.886,21.547-13.751H1743c9.3,0,16.863-5.885,17.163-13.232h6.875V-4.118h-6.875c-.3-7.346-7.859-13.232-17.163-13.232h-.629c-2.2-7.865-11-13.751-21.547-13.751Z" transform="translate(-1216.023 294.288)" fill="#500808" stroke="#aa855b" stroke-linecap="round" stroke-linejoin="round" stroke-width="2.639"/><path d="M1499.75,107.913c-7.185,0-13.529-3.989-15.088-9.485l-1.169-4.124h-6.021c-5.716,0-10.34-3.514-10.526-8l-.21-5.1h-6.693V5.6h6.693l.21-5.1c.186-4.486,4.81-8,10.526-8h6.021l1.169-4.124c1.558-5.5,7.9-9.485,15.088-9.485h225.6c7.184,0,13.529,3.989,15.087,9.485l1.168,4.124h6.021c5.717,0,10.341,3.514,10.527,8l.211,5.1h6.693v75.6h-6.693l-.211,5.1c-.186,4.486-4.81,8-10.527,8H1741.6l-1.168,4.124c-1.558,5.5-7.9,9.485-15.087,9.485Z" transform="translate(-1219.728 290.582)" fill="#500808" stroke="#aa855b" stroke-linecap="round" stroke-linejoin="round" stroke-width="1"/></g><path d="M2.226-11.559c.945.258,1.313.645,1.377,1.483.032.306.048,1.128.048,1.66,0,.145,0,.613-.016,1.257v.725A26.911,26.911,0,0,0,3.747-3.1,2.769,2.769,0,0,0,5.413-.581,8.887,8.887,0,0,0,8.424-.21,17.364,17.364,0,0,0,12.2-.564c.5-.145.7-.355.7-.693,0-.29-.208-.564-.625-.854a1.989,1.989,0,0,0-.929-.339,1.152,1.152,0,0,0-.561.161,3.9,3.9,0,0,1-.961.306,17.8,17.8,0,0,1-2.707.242A2.4,2.4,0,0,1,5.4-2.16c-.288-.29-.384-.774-.384-1.886,0-.468.064-1.822.128-2.821a2.119,2.119,0,0,0,1.65.629A22.733,22.733,0,0,0,11.4-6.981c.7-.177.977-.387.977-.742,0-.274-.192-.516-.609-.742a2.185,2.185,0,0,0-.993-.306.965.965,0,0,0-.513.145,3.873,3.873,0,0,1-1.57.79,11.613,11.613,0,0,1-2.819.613A1.161,1.161,0,0,1,5.2-7.384a6.722,6.722,0,0,1,.4-2.209c.208-.435.224-.5.224-.693,0-.355-.272-.661-.9-.967a4.729,4.729,0,0,0-1.922-.5A1.3,1.3,0,0,0,2.226-11.559Zm10.795-1.225a1.749,1.749,0,0,0-1.73,1.741A1.752,1.752,0,0,0,13.037-9.3a1.725,1.725,0,0,0,1.714-1.741A1.728,1.728,0,0,0,13.021-12.784Zm0,.564a1.159,1.159,0,0,1,1.169,1.177,1.156,1.156,0,0,1-1.169,1.161,1.152,1.152,0,0,1-1.153-1.161A1.156,1.156,0,0,1,13.021-12.22ZM20.708.935A9.657,9.657,0,0,0,23.063-.693a10.225,10.225,0,0,0,2.9-4.514c.112-.306.288-.919.561-1.838,2-.774,2.547-1,3.94-1.66a2.7,2.7,0,0,1,.625-.226,1.285,1.285,0,0,0,.48-.145.526.526,0,0,0,.32-.5c0-.355-.5-1-1.3-1.693-.513-.435-.8-.6-1.089-.6a.671.671,0,0,0-.288.064,2.671,2.671,0,0,1-.961.258c-.641.1-1.522.193-4.324.532a23.691,23.691,0,0,1-3.027.274,1.8,1.8,0,0,1-1.778-1.048,1.354,1.354,0,0,0-.1.468,2.91,2.91,0,0,0,.5,1.306,2.135,2.135,0,0,0,1.425,1.128,1.392,1.392,0,0,0,.7-.226,11.077,11.077,0,0,1,2.819-.935,27.841,27.841,0,0,1,4.388-.613c.448,0,.593.048.593.193,0,.339-1.746,2.063-3.011,2.95a5.187,5.187,0,0,0-2.466-1.08.764.764,0,0,0-.609.21,1.819,1.819,0,0,1,.7.355.888.888,0,0,1,.4.79,12.577,12.577,0,0,1-.913,3.692A11.713,11.713,0,0,1,20.58.79ZM34.354.6A13.554,13.554,0,0,0,38.07-1.725a23.1,23.1,0,0,0,5.189-6.722c.5-.935.561-1.016.817-1.257.272-.242.336-.355.336-.6a.765.765,0,0,0-.24-.548,3.578,3.578,0,0,0-.769-.693,3.785,3.785,0,0,0-2-.838,1.187,1.187,0,0,0-.529.1c.785.419,1.121.838,1.121,1.37a3.874,3.874,0,0,1-.368,1.435,26.733,26.733,0,0,1-4.34,6.964A16.747,16.747,0,0,1,34.242.435ZM57.5-4.3A1.341,1.341,0,0,0,56.136-2.95,1.365,1.365,0,0,0,57.5-1.58a1.361,1.361,0,0,0,1.345-1.37A1.337,1.337,0,0,0,57.5-4.3Zm0-6.174a1.341,1.341,0,0,0-1.361,1.354,1.351,1.351,0,0,0,1.345,1.37,1.355,1.355,0,0,0,1.361-1.37A1.337,1.337,0,0,0,57.5-10.479ZM66.691-.161a5.136,5.136,0,0,1,1.057-.145,3.724,3.724,0,0,1,.609.048,9.523,9.523,0,0,0,2.162.274A4.651,4.651,0,0,0,73.45-.9a3.209,3.209,0,0,0,1.121-2.6,3.091,3.091,0,0,0-.833-2.241,8.608,8.608,0,0,0-2.659-1.644A7.116,7.116,0,0,1,69-8.625a1.867,1.867,0,0,1-.529-1.354,1.991,1.991,0,0,1,2.082-2.1,2.474,2.474,0,0,1,2.21,1.274,4.065,4.065,0,0,1,.545,2.015h.641l.128-3.611a2.6,2.6,0,0,1-.961.226,2.592,2.592,0,0,1-.561-.064A8.289,8.289,0,0,0,70.6-12.51a4.67,4.67,0,0,0-2.05.371,3.273,3.273,0,0,0-1.89,3.015,2.924,2.924,0,0,0,1.313,2.563,12.5,12.5,0,0,0,2.1,1.145c2,.983,2.627,1.644,2.627,2.741A2.065,2.065,0,0,1,70.439-.452c-1.794,0-2.755-1.145-2.979-3.563h-.641Zm10.09-.064h8.985L86.1-3.982l-.529-.064C85.11-1.532,84.213-.693,82.051-.693H80.289V-6.287h1.153c1.73,0,2.13.322,2.322,1.886h.513V-8.609h-.513c-.176,1.515-.593,1.854-2.322,1.854H80.289v-5.062h1.57c2.258,0,3.107.742,3.443,2.982l.561-.016-.288-3.434H76.781v.419c1.281.016,1.441.193,1.441,1.677v7.867c0,1.483-.144,1.644-1.441,1.677Zm11.612,0h5.125V-.645C92.141-.693,92-.839,92-2.322v-7.867c0-1.467.128-1.628,1.457-1.677v-.419h-5v.419c1.329.048,1.457.21,1.457,1.677v7.867c0,1.483-.128,1.628-1.522,1.677Zm7.111,0h8.841l.368-3.788-.561-.064a5.45,5.45,0,0,1-.753,2.144,3.118,3.118,0,0,1-2.819,1.241H99.108v-9.5c0-1.467.128-1.628,1.457-1.677v-.419h-5v.419c1.329.048,1.457.21,1.457,1.677v7.867c0,1.467-.144,1.628-1.522,1.677Zm10.795,0h8.985l.336-3.756-.529-.064c-.464,2.515-1.361,3.353-3.524,3.353h-1.762V-6.287h1.153c1.73,0,2.13.322,2.322,1.886h.513V-8.609h-.513c-.176,1.515-.593,1.854-2.322,1.854h-1.153v-5.062h1.57c2.258,0,3.107.742,3.443,2.982l.561-.016-.288-3.434H106.3v.419c1.281.016,1.441.193,1.441,1.677v7.867c0,1.483-.144,1.644-1.441,1.677ZM121.37-5.917h.641a1.977,1.977,0,0,1,2.034,1.338,32.127,32.127,0,0,1,1.666,4.353h3.155V-.613c-.753-.064-1.025-.371-1.65-1.838-.769-1.806-1.041-2.305-1.57-2.757a3.391,3.391,0,0,0-1.986-.854v-.129c2.531-.193,3.732-1.209,3.732-3.16a2.445,2.445,0,0,0-1.473-2.45,7.908,7.908,0,0,0-3.107-.484h-4.9v.419c1.249.064,1.377.21,1.377,1.677v7.883c0,1.467-.128,1.612-1.441,1.66v.419h4.965V-.645c-1.313-.048-1.441-.193-1.441-1.66Zm0-.468v-5.433h.977c1.906,0,2.819.854,2.819,2.66s-1.025,2.773-2.931,2.773Zm22.327.532v.419c1.329.048,1.473.193,1.473,1.515v2.757a1.614,1.614,0,0,1-.657.4,4.115,4.115,0,0,1-1.57.339,2.832,2.832,0,0,1-2.034-.806,7.718,7.718,0,0,1-1.49-5.126,9.175,9.175,0,0,1,.753-3.917,2.953,2.953,0,0,1,2.787-1.806,3.123,3.123,0,0,1,2.611,1.37,4.9,4.9,0,0,1,.8,2.192l.593-.016v-3.74a2.29,2.29,0,0,1-.945.21,2.77,2.77,0,0,1-.721-.1,8.635,8.635,0,0,0-2.467-.371c-3.476,0-5.718,2.531-5.718,6.481,0,3.821,2.082,6.078,5.574,6.078A8.787,8.787,0,0,0,145.331-.4a8.1,8.1,0,0,1,1.89-.355c-.032-.516-.048-.774-.048-1.612V-3.74c0-.951.048-1.257.24-1.435.176-.177.432-.242,1.009-.258v-.419Zm6.567-2.789v.387c1.009,0,1.153.193,1.153,1.564v4.465c0,1.435-.112,1.6-1.217,1.612v.387h4.453V-.613c-1.185-.048-1.281-.161-1.281-1.612V-5.207A3.655,3.655,0,0,1,153.755-7c.272-.468.593-.742.9-.758h.032c.256,0,.336.113.464.564a.661.661,0,0,0,.753.516,1.034,1.034,0,0,0,1.153-.983,1.268,1.268,0,0,0-1.361-1.225,2.85,2.85,0,0,0-2.37,1.822v-.484c0-.322-.016-.693-.048-1.306Zm16.513,7.98c-1.025-.016-1.089-.113-1.089-1.886,0-.113,0-.419.016-.871l.016-1.4.016-1.4a2.553,2.553,0,0,0-.625-2,3.4,3.4,0,0,0-2.37-.661,4.883,4.883,0,0,0-2.627.613,1.848,1.848,0,0,0-.993,1.5c0,.484.384.742,1.121.742.673,0,.945-.21.977-.79a2.443,2.443,0,0,1,.256-1.145,1.1,1.1,0,0,1,1.073-.548c.961,0,1.249.5,1.249,2.209v1.048a19.358,19.358,0,0,0-2.627.306c-1.714.339-2.563,1.193-2.563,2.579A2.25,2.25,0,0,0,161.075,0a3.555,3.555,0,0,0,2.739-1.306c.08.983.24,1.225.753,1.225.416,0,1.265-.081,2.21-.193ZM163.8-3.644a4.147,4.147,0,0,1-.288,1.87A1.743,1.743,0,0,1,161.955-.71c-.785,0-1.3-.758-1.3-1.9,0-1.5.817-2.1,3.139-2.273Zm7.992-5.207-3.123.21v.387c1.057.016,1.185.193,1.185,1.564v4.465c0,1.435-.112,1.6-1.217,1.612v.387h4.372V-.613c-1.089-.016-1.2-.161-1.2-1.612V-5.449a3.763,3.763,0,0,1,.432-1.66,1.891,1.891,0,0,1,1.65-1.064c.993,0,1.409.725,1.409,2.466v3.482c0,1.419-.128,1.6-1.2,1.612v.387h4.356V-.613c-1.105-.016-1.217-.177-1.217-1.612V-5.8a3.594,3.594,0,0,0-.4-1.983,2.27,2.27,0,0,0-2.178-1.1,3.059,3.059,0,0,0-2.851,1.628Zm13.438-3.434v.371c1.121.016,1.217.129,1.217,1.628v2.321a2.94,2.94,0,0,0-2.21-.919c-2.242,0-3.684,1.822-3.684,4.675a4.7,4.7,0,0,0,1.057,3.256,3.228,3.228,0,0,0,2.338.967,3.267,3.267,0,0,0,2.627-1.274l.064,1.177,2.819-.145V-.6c-.529-.016-.609-.032-.753-.129-.24-.193-.3-.629-.3-1.934V-9.173c0-1.241.032-2.08.1-3.289Zm1.265,7.722c0,2.563-.737,4.079-1.97,4.079a1.322,1.322,0,0,1-1.105-.58,6.281,6.281,0,0,1-.737-3.418c0-2.531.689-3.966,1.906-3.966C185.82-8.448,186.492-7.061,186.492-4.562ZM201.035-5.3h.785a10.244,10.244,0,0,0,3.219-.419,3.06,3.06,0,0,0,2.05-3.208c0-2.338-1.425-3.353-4.693-3.353h-4.821v.419c1.249.064,1.377.21,1.377,1.677v7.883c0,1.467-.128,1.612-1.441,1.66v.419h5.061V-.645c-1.393-.048-1.538-.193-1.538-1.66Zm0-.468v-6.045h1.025c1.858,0,2.8,1,2.8,2.982a3.326,3.326,0,0,1-.785,2.4,3.183,3.183,0,0,1-2.21.661Zm7.928-2.869v.387c1.121.016,1.2.129,1.2,1.564v4.465c0,1.435-.112,1.6-1.249,1.612v.387h4.453V-.613c-1.137-.016-1.249-.177-1.249-1.612v-3.5c0-1.032.032-2.16.1-3.127ZM210-11.4a1.152,1.152,0,0,0,1.153,1.161A1.152,1.152,0,0,0,212.31-11.4a1.152,1.152,0,0,0-1.153-1.161A1.152,1.152,0,0,0,210-11.4ZM223.522-.661c-1.025-.016-1.089-.113-1.089-1.886,0-.113,0-.419.016-.871l.016-1.4.016-1.4a2.553,2.553,0,0,0-.625-2,3.4,3.4,0,0,0-2.37-.661,4.883,4.883,0,0,0-2.627.613,1.848,1.848,0,0,0-.993,1.5c0,.484.384.742,1.121.742.673,0,.945-.21.977-.79a2.442,2.442,0,0,1,.256-1.145,1.1,1.1,0,0,1,1.073-.548c.961,0,1.249.5,1.249,2.209v1.048a19.358,19.358,0,0,0-2.627.306c-1.714.339-2.563,1.193-2.563,2.579A2.25,2.25,0,0,0,217.82,0a3.555,3.555,0,0,0,2.739-1.306c.08.983.24,1.225.753,1.225.416,0,1.265-.081,2.21-.193Zm-2.979-2.982a4.148,4.148,0,0,1-.288,1.87A1.743,1.743,0,0,1,218.7-.71c-.785,0-1.3-.758-1.3-1.9,0-1.5.817-2.1,3.139-2.273Zm7.992-5.207-3.123.21v.387c1.057.016,1.185.193,1.185,1.564v4.465c0,1.435-.112,1.6-1.217,1.612v.387h4.372V-.613c-1.089-.016-1.2-.161-1.2-1.612V-5.449a3.763,3.763,0,0,1,.432-1.66,1.891,1.891,0,0,1,1.65-1.064c.993,0,1.409.725,1.409,2.466v3.482c0,1.419-.128,1.6-1.2,1.612v.387H235.2V-.613c-1.105-.016-1.217-.177-1.217-1.612V-5.8a3.594,3.594,0,0,0-.4-1.983,2.27,2.27,0,0,0-2.178-1.1,3.059,3.059,0,0,0-2.851,1.628ZM237.2-4.369A4.775,4.775,0,0,0,238.3-1.193,4.071,4.071,0,0,0,241.316.032a4.252,4.252,0,0,0,3.171-1.306,4.927,4.927,0,0,0,1.057-3.192c0-2.676-1.634-4.417-4.148-4.417a4.107,4.107,0,0,0-3,1.145A4.989,4.989,0,0,0,237.2-4.369Zm2.162-.081a7.163,7.163,0,0,1,.513-3.127,1.586,1.586,0,0,1,1.49-.935c1.393,0,2.034,1.29,2.034,4.111,0,2.805-.625,4.062-2.018,4.062C240-.339,239.362-1.661,239.362-4.45ZM15.391,14.089c.112,0,.192-.032.192-.1q0-.048-.1-.145c-.849-.693-1.121-.9-2-1.531l-1.249,1.435H2.178a6.289,6.289,0,0,1-1.554-.145l.112.564a11.476,11.476,0,0,1,1.441-.081H6.5a18.5,18.5,0,0,1-.561,2.95H3.491a14.063,14.063,0,0,0-2.018-1.048c.08.983.1,1.612.1,4.24,0,2.354-.016,3.289-.1,6.948v.032c0,.339.112.419.609.419a3.039,3.039,0,0,0,1.089-.145.331.331,0,0,0,.144-.322V26.5h9.337v.742c0,.258.1.322.513.322.689,0,1.2-.1,1.3-.242a.554.554,0,0,0,.048-.274c-.064-2.225-.064-2.225-.064-9.237.448-.29.561-.4.561-.532,0-.064-.048-.145-.176-.242-.609-.451-.8-.6-1.441-1.048-.416.451-.545.58-.945,1.048h-5.7a18.272,18.272,0,0,0,2.29-2.95Zm-8.6,5.836V17.378H9.017v2.547Zm0,.339H9.017v2.692H6.79Zm0,3.031H9.017v2.869H6.79ZM5.109,17.378v8.786H3.315V17.378Zm5.59,0h1.954v8.786H10.7ZM37.061,14.67a12.654,12.654,0,0,0,1.666-.564,3.758,3.758,0,0,0,.561.048c.128,0,.224-.064.224-.161,0-.145-.272-.322-1.858-1.274a12.423,12.423,0,0,1-4.436,2.418l.064.177c1.105-.129,1.522-.193,2.162-.306v2.273H34.05a3.087,3.087,0,0,1-.9-.129l.112.564a3.268,3.268,0,0,1,.785-.1H35.3a21.367,21.367,0,0,1-2.29,6.368l.144.113a9.865,9.865,0,0,0,2.338-3.144l-.016,1.693c-.016,1.209-.064,3.192-.128,4.611v.016c0,.306.1.371.577.371.929,0,1.137-.081,1.137-.435V19.345A3.876,3.876,0,0,1,37.8,21.36c.112.564.144.613.3.613.416,0,.881-.693.881-1.306,0-.58-.641-1.128-1.922-1.677V17.62h2.146c.16,0,.224-.032.224-.1a.332.332,0,0,0-.08-.145c-.5-.451-.657-.6-1.233-1.048-.336.419-.448.548-.785.951h-.272Zm6.695-.145V13.59c.448-.161.609-.242.609-.371,0-.193-.24-.258-1.329-.355-.224-.016-.545-.048-.993-.1.048.758.064.983.08,1.757H39.928a2.909,2.909,0,0,1-.913-.129l.1.564a2.483,2.483,0,0,1,.8-.1h2.21v1.274H40.28a3.421,3.421,0,0,1-.9-.113l.112.548a3.268,3.268,0,0,1,.785-.1h1.842v1.37H39.559a3.3,3.3,0,0,1-.913-.113l.112.548a3.117,3.117,0,0,1,.8-.1h8.633c.112,0,.176-.032.176-.1q0-.048-.1-.145c-.625-.532-.833-.677-1.49-1.161l-1.057,1.064h-1.97v-1.37H47.5q.192,0,.192-.1a.332.332,0,0,0-.08-.145c-.577-.467-.769-.613-1.377-1.048-.416.4-.545.532-.977.951H43.756V14.863h4.1c.128,0,.208-.048.208-.113q0-.048-.1-.145c-.625-.516-.817-.677-1.473-1.161-.464.451-.609.6-1.073,1.08ZM40.937,24.681v-.21h4.244v.21c0,.21.048.226.625.226.833,0,1.057-.1,1.057-.435v-.048c-.048-1.177-.064-2.144-.064-3.144V19.893c.368-.242.448-.322.448-.435,0-.081-.064-.145-.208-.258-.48-.322-.641-.435-1.169-.758-.368.339-.48.435-.833.774H41.049a14.471,14.471,0,0,0-1.778-.774c.032.871.048,1.193.048,2.821,0,1.741,0,2.031-.048,3.418.016.258.064.29.641.29a3.6,3.6,0,0,0,.833-.064,3.162,3.162,0,0,1-.641.709,10.316,10.316,0,0,1-2.771,1.854l.064.161a13.6,13.6,0,0,0,4.677-1.58c.657-.016.8-.064.8-.21,0-.161-.032-.177-1.986-1.016ZM45.181,20.8H40.937V19.554h4.244Zm0,.339v1.257H40.937V21.134Zm0,1.6v1.4H40.937v-1.4Zm-1.506,2.45A8.785,8.785,0,0,1,45.6,26.438a8.957,8.957,0,0,1,1.089,1c.208.226.3.29.432.29.352,0,.641-.484.641-1.048,0-1.032-.753-1.338-4.02-1.66Zm13.342-3.289a1.341,1.341,0,0,0-1.361,1.354,1.353,1.353,0,1,0,2.707,0A1.337,1.337,0,0,0,57.017,21.892Zm0-6.174A1.362,1.362,0,0,0,57,18.442a1.355,1.355,0,0,0,1.361-1.37A1.337,1.337,0,0,0,57.017,15.717ZM68.5,22.1c-.545-.177-.9-.258-1.794-.484v.355a17.371,17.371,0,0,1-.913,4.917l.16.1A13.437,13.437,0,0,0,68.2,22.617c.144-.032.176-.032.3-.064v.871c0,.161-.032,1.467-.1,3.885,0,.258.112.322.561.322.609,0,.929-.064,1.025-.21a.447.447,0,0,0,.048-.258c-.016-1.354-.032-2.982-.032-3.74v-3.4a9.033,9.033,0,0,0,.961-.306c.08.339.128.564.176.871.08.468.192.645.4.645a1.155,1.155,0,0,0,.577-2.047,10.811,10.811,0,0,0,2.29-2.934h4.036c.016.226.016.387.016.5a44.272,44.272,0,0,1-.593,7.5c-.224,1.048-.352,1.241-.849,1.241-.673,0-1.185-.032-3.267-.21l-.016.21a8.516,8.516,0,0,1,2.13.758,1.251,1.251,0,0,1,.561,1.016c.016.226.064.29.24.29a3.038,3.038,0,0,0,.448-.048,2.767,2.767,0,0,0,1.538-.613c.513-.435.753-1.048,1.025-2.628a50.145,50.145,0,0,0,.545-7.577c.4-.193.545-.322.545-.451,0-.081-.048-.161-.192-.29-.577-.451-.753-.58-1.393-1.032-.4.435-.529.564-.913,1H74.6a19.083,19.083,0,0,0,1.009-2.176c.464-.048.689-.145.689-.322s-.32-.29-1.361-.484c-.256-.048-.689-.145-1.233-.242a15.864,15.864,0,0,1-.721,3.708,14.544,14.544,0,0,1-1.057,2.6,9.447,9.447,0,0,0-1.65-1.257l-.128.129a4.631,4.631,0,0,1,.673,1.354c-.529.064-1.506.129-2.627.177a20.839,20.839,0,0,0,3.6-3.547c.545-.032.721-.1.721-.274,0-.129-.24-.258-1.009-.548-.24-.1-.609-.242-1.073-.419a16.075,16.075,0,0,1-1.49,2.837,21.949,21.949,0,0,1-1.409,1.983c-.192.016-.32.016-.384.016-.464,0-.625,0-1.185-.032.448,1.934.448,1.983.625,1.983.128,0,.208-.145.272-.516.785-.193.785-.193,1.634-.435Zm-2.466-6.98a5.158,5.158,0,0,1,1.329,2.225c.208.645.288.758.529.758.464,0,.9-.564.9-1.177,0-.484-.16-.709-.881-1.145.272-.177.961-.806,2.178-1.934.561-.048.753-.113.753-.274,0-.21-.4-.355-2.466-.9a10.849,10.849,0,0,1-.881,2.886,9.2,9.2,0,0,0-1.345-.564Zm4.2,6.416a7.676,7.676,0,0,1,.785,3.079c.048.742.048.742.1.871a.322.322,0,0,0,.3.226c.48,0,1.041-.806,1.041-1.483a2.624,2.624,0,0,0-.769-1.644,7.933,7.933,0,0,0-1.361-1.161Zm3.4-3.256a9.038,9.038,0,0,1,.9,1.838,13.92,13.92,0,0,1,.464,1.918c.064.484.192.677.448.677.593,0,1.2-.79,1.2-1.564,0-.887-.849-1.773-2.883-3Zm16.513,7.69.561-3.482-.545-.113c-.288,1.451-.753,1.87-2.066,1.87H83.444a4.3,4.3,0,0,1,1.265-1.822,15.137,15.137,0,0,1,3.331-2.192A6.734,6.734,0,0,0,89.8,18.909a3,3,0,0,0,.721-2.031c0-1.87-1.441-2.982-3.86-2.982A4.617,4.617,0,0,0,84,14.621a2.788,2.788,0,0,0-1.329,2.273c0,.58.368.854,1.137.854.7,0,.993-.258,1.025-.887a4.443,4.443,0,0,1,.176-1.467,1.454,1.454,0,0,1,1.49-1.08c1.137,0,1.89.919,1.89,2.321a3.353,3.353,0,0,1-.336,1.483A4.767,4.767,0,0,1,86.727,19.6a14.575,14.575,0,0,0-3.171,3.224,7.036,7.036,0,0,0-1.073,3.144Zm2.338-5.9a8.364,8.364,0,0,0,1.169,4.562,3.807,3.807,0,0,0,6.2,0,8.117,8.117,0,0,0,1.169-4.562,8.211,8.211,0,0,0-1.169-4.578,3.83,3.83,0,0,0-6.2,0A8.248,8.248,0,0,0,92.477,20.07Zm2.13,0c0-4,.657-5.755,2.146-5.755.753,0,1.281.451,1.634,1.4A12.741,12.741,0,0,1,98.9,20.07a13.982,13.982,0,0,1-.416,4.079c-.352,1.128-.913,1.677-1.73,1.677q-1.105,0-1.634-1.4A12.93,12.93,0,0,1,94.607,20.07Zm18.242-5.691h4.276c.128,0,.192-.032.192-.081s-.032-.081-.1-.145c-.7-.629-.945-.822-1.746-1.435l-1.153,1.322h-5.734A4.5,4.5,0,0,1,107.5,13.9l.1.6a4.212,4.212,0,0,1,1.009-.113h2.466v6.738H108a3.651,3.651,0,0,1-1.073-.145l.1.6a4.231,4.231,0,0,1,.977-.113h3.075v1.1c0,1.838,0,1.838-.064,4.691,0,.322.1.355.769.355.881,0,1.153-.1,1.153-.419,0-.016-.016-.048-.016-.064-.048-1.564-.064-3.321-.064-4.627V21.456h4.757c.1,0,.176-.048.176-.113,0-.032-.032-.081-.1-.161-.721-.645-.961-.854-1.778-1.5-.368.468-.737.935-1.137,1.435H112.85Zm-6.855,3.079v-3.53c.5-.145.7-.274.7-.419,0-.193-.272-.258-1.329-.355-.256-.016-.657-.048-1.185-.1a18.819,18.819,0,0,1,.112,2.176v2.225h-.945a3.592,3.592,0,0,1-.961-.129l.08.564a3.282,3.282,0,0,1,.881-.1h.945v5.417a8.067,8.067,0,0,1-1.954.306C103.128,26,103.128,26,103.3,26c.16,0,.224-.177.256-.725a42.726,42.726,0,0,0,4.837-2.982l-.08-.193a21.367,21.367,0,0,1-2.322.742V17.8h2.066c.1,0,.16-.032.16-.1a1.255,1.255,0,0,0-.064-.113c-.513-.548-.673-.709-1.217-1.209-.352.451-.464.6-.8,1.08Zm1.794-2.1a11.2,11.2,0,0,1,.833,3.95c.048.709.16.935.416.935.561,0,1.2-.871,1.2-1.644,0-.854-.753-1.918-2.322-3.321Zm5.686,5.159a21.95,21.95,0,0,0,2.851-3.982c.561-.016.8-.1.8-.274,0-.193,0-.193-2.466-1.064a25.474,25.474,0,0,1-1.361,5.207ZM8.808,41.285V39.818c.529-.193.657-.274.657-.4,0-.274-.32-.339-2.611-.5a8.534,8.534,0,0,1,.08,1.306v1.064H2.962a7.146,7.146,0,0,0-.208-1.128H2.61a6.95,6.95,0,0,1-.288,1.08A2.2,2.2,0,0,1,1.3,42.413c-.545.355-.657.5-.657.871,0,.629.416,1.193.9,1.193a1.34,1.34,0,0,0,1.073-.758,4.307,4.307,0,0,0,.384-1.789,2.423,2.423,0,0,0-.016-.306H12.7a11.777,11.777,0,0,1-.24,1.354l-.32-.242c-.464.548-.609.709-1.073,1.241H4.1a9.342,9.342,0,0,1-1.345-.129l.128.548a8.927,8.927,0,0,1,1.2-.081H7.271v6.948a3.682,3.682,0,0,1-1.409-.806,4.894,4.894,0,0,1-1.073-1.5,17.4,17.4,0,0,0,.657-2.112c.513-.1.721-.21.721-.387,0-.21-.32-.29-2.547-.693a14.084,14.084,0,0,1-1.377,5.288,11.136,11.136,0,0,1-1.7,2.579l.112.129a9.233,9.233,0,0,0,2.659-2.241,8.926,8.926,0,0,0,1.313-2.209,6.84,6.84,0,0,0,1.618,2.628c1.2,1.128,2.707,1.451,6.6,1.451a5.687,5.687,0,0,0,1.169-.048c.064-.032.112-.1.128-.242a1.723,1.723,0,0,1,1.2-1.548l-.016-.177a43.974,43.974,0,0,1-4.741.242c-.625,0-.977-.016-1.57-.032V47.862h4.917a.107.107,0,0,0,.112-.1c0-.032-.032-.064-.064-.113-.785-.645-1.041-.838-1.826-1.435l-1.105,1.306H9.017V44.316h4.773a.142.142,0,0,0,.144-.129.289.289,0,0,0-.08-.113c-.561-.435-.641-.516-1.121-.871.144-.1.144-.1.272-.177.432-.29.432-.29.7-.451.288-.193.32-.21.593-.387.048,0,.272-.048.657-.1a1.391,1.391,0,0,0,.4-.113c.08-.048.128-.1.128-.161,0-.081-.048-.129-.144-.226-.817-.6-1.073-.774-1.874-1.338-.384.451-.5.58-.865,1.032ZM37.8,39.818a18.069,18.069,0,0,0-2.034-.9,13.709,13.709,0,0,1,.08,2.015c0,.693,0,1.161-.016,2.015.016.29.128.339.673.339.833,0,1.089-.1,1.105-.419v-.242h6.1v.355c.016.21.112.258.529.258a4.893,4.893,0,0,0,.673-.048c-.352.322-.432.4-.785.774H37.189a17.761,17.761,0,0,0-2.05-.919c.064.967.08,1.9.08,3.53,0,1.29,0,1.644-.08,4.127,0,.29.112.355.657.355a2.549,2.549,0,0,0,1.025-.145.268.268,0,0,0,.144-.242v-.242h7.3v.258c.016.226.128.29.5.29,1.041,0,1.313-.113,1.329-.516-.064-2.434-.064-2.628-.064-5.691.384-.226.529-.355.529-.5,0-.064-.048-.129-.176-.226a15.292,15.292,0,0,0-1.249-.887c.3-.064.384-.129.384-.371-.048-.887-.048-1.145-.048-2.209.464-.258.545-.322.545-.451,0-.064-.048-.145-.192-.258-.561-.419-.737-.548-1.345-.967-.384.387-.513.516-.881.919Zm-.833,6.126V44.3h7.3v1.644Zm7.3.339v1.677h-7.3V46.282Zm0,2.015v1.789h-7.3V48.3Zm-6.663-8.141h6.1v2.128h-6.1Zm-4.34,13.767a15.407,15.407,0,0,0,5.814-1.983l.1.016c.545,0,.753-.081.753-.242s-.176-.242-1.361-.6c-.224-.064-.577-.177-1.041-.322a5.362,5.362,0,0,1-1.265,1.177,13.524,13.524,0,0,1-3.075,1.773Zm8.473-2.741a15.534,15.534,0,0,1,3.94,2.321c.593.468.657.5.833.5.288,0,.513-.387.513-.887a1.494,1.494,0,0,0-1.329-1.531,28.485,28.485,0,0,0-3.892-.58Zm15.279-3.1a1.341,1.341,0,0,0-1.361,1.354,1.353,1.353,0,1,0,2.707,0A1.337,1.337,0,0,0,57.017,48.088Zm0-6.174A1.362,1.362,0,0,0,57,44.638a1.355,1.355,0,0,0,1.361-1.37A1.337,1.337,0,0,0,57.017,41.914Zm13.518,3.95c2.146-.274,3.363-1.322,3.363-2.9a2.639,2.639,0,0,0-.881-1.983,4.5,4.5,0,0,0-2.851-.887c-2.13,0-3.78,1.161-3.78,2.66,0,.516.384.79,1.121.79a1.171,1.171,0,0,0,.833-.242c.144-.161.176-.274.192-.806a3.017,3.017,0,0,1,.32-1.306,1.32,1.32,0,0,1,1.265-.677c1.137,0,1.73.838,1.73,2.4A2.483,2.483,0,0,1,69.093,45.7h-.448v.5h.48a3.8,3.8,0,0,1,2.082.516,2.758,2.758,0,0,1,.881,2.338c0,1.87-.753,2.95-2.082,2.95a1.666,1.666,0,0,1-1.313-.548,2.521,2.521,0,0,1-.432-1.29c-.032-.742-.032-.774-.128-.9a.968.968,0,0,0-.817-.306c-.753,0-1.2.355-1.2.967,0,1.451,1.65,2.5,3.924,2.5,2.595,0,4.18-1.257,4.18-3.321,0-1.854-1.249-2.918-3.684-3.111Zm5.606.4a8.364,8.364,0,0,0,1.169,4.562,3.807,3.807,0,0,0,6.2,0,8.117,8.117,0,0,0,1.169-4.562,8.211,8.211,0,0,0-1.169-4.578,3.83,3.83,0,0,0-6.2,0A8.248,8.248,0,0,0,76.141,46.266Zm2.13,0c0-4,.657-5.755,2.146-5.755.753,0,1.281.451,1.634,1.4a12.741,12.741,0,0,1,.513,4.353,13.982,13.982,0,0,1-.416,4.079c-.352,1.128-.913,1.677-1.73,1.677q-1.105,0-1.634-1.4A12.929,12.929,0,0,1,78.271,46.266Zm14.367-5.143c.288-.322.448-.516.929-1.1.7-.113.817-.145.817-.322s-.176-.242-1.409-.564c-.256-.064-.673-.177-1.2-.322a10.1,10.1,0,0,1-1.906,3.24,18.9,18.9,0,0,1-3.4,3.4l.1.161A13.973,13.973,0,0,0,90.6,43.155a4.134,4.134,0,0,1,.817,2.112c.08.5.144.6.368.6a1.318,1.318,0,0,0,1.089-1.274c0-.451-.336-.822-1.025-1.128L90.8,42.978a17.015,17.015,0,0,0,1.538-1.515h3.716A14.74,14.74,0,0,1,94.671,43.4a24.424,24.424,0,0,1-3.508,3.434A27.354,27.354,0,0,1,86.1,49.942l.064.145a18.634,18.634,0,0,0,4.228-1.531c0,2.047-.048,3.563-.128,4.885.016.242.128.306.545.306a4.972,4.972,0,0,0,.961-.081c.224-.048.288-.129.32-.306v-.693h5.75v.725c.016.226.112.29.432.29a6.523,6.523,0,0,0,1.185-.1c.176-.048.24-.145.256-.371,0-.371,0-.371-.032-1.338-.032-.774-.032-1.564-.048-3.611.5-.193.7-.339.7-.532a.276.276,0,0,0-.112-.21c-.625-.484-.833-.629-1.49-1.08-.448.435-.577.564-.977.967H92.381a20.682,20.682,0,0,0,5.526-5.3c.673-.161.673-.161.753-.226a.26.26,0,0,0,.08-.177c0-.064-.032-.113-.112-.193-.657-.58-.865-.742-1.554-1.274-.432.387-.561.5-.961.887Zm-.545,6.626h5.75v4.578h-5.75ZM3.939,66.611A2.94,2.94,0,0,0,6.726,68.5a21.37,21.37,0,0,0,3.972-.484c.721-.161.929-.306.929-.629,0-.258-.192-.516-.593-.79a1.6,1.6,0,0,0-.865-.322.909.909,0,0,0-.5.145,4.811,4.811,0,0,1-1.425.6,9.316,9.316,0,0,1-2.242.355A2.563,2.563,0,0,1,4.084,66.5Zm.5,13.138a10.138,10.138,0,0,0,3.62-3.514,9.891,9.891,0,0,0,1.409-3.659c0-.419-.144-.58-1.089-1.145a21.553,21.553,0,0,1,2.354-.113,20.078,20.078,0,0,1,2.979.242,1.232,1.232,0,0,0,.288.032c.416,0,.673-.193.673-.548,0-.322-.3-.661-.913-.967a2.435,2.435,0,0,0-1.025-.339,1.066,1.066,0,0,0-.464.129,4.116,4.116,0,0,1-1.393.339c-2.114.226-3.6.419-4.869.613a19.222,19.222,0,0,1-3.011.387,1.723,1.723,0,0,1-1.554-.887.893.893,0,0,0-.08.339,1.849,1.849,0,0,0,.464,1.032c.545.709.993,1.048,1.409,1.048a1.408,1.408,0,0,0,.689-.21,11.911,11.911,0,0,1,3.347-.951.914.914,0,0,1,.256.742,11.8,11.8,0,0,1-.817,3.434,11.991,11.991,0,0,1-2.4,3.853Zm13.55-9.189a.6.6,0,0,0-.192.532,3.558,3.558,0,0,0,.561,1.677c.368.645.8,1,1.185,1a1.43,1.43,0,0,0,.545-.129,1.856,1.856,0,0,1,.7-.145c1.169-.048,1.249-.064,1.986-.064,4.837-.032,6.246-.081,7.143-.193.689-.1,1.041-.355,1.041-.758a.634.634,0,0,0-.192-.484c-.256-.226-.753-.29-2.354-.29-.48,0-1.522,0-1.794.016-2.771.064-5.7.113-6.342.113a2.432,2.432,0,0,1-1.6-.339A2.464,2.464,0,0,1,17.986,70.56Zm17.185,9.366c3.7-1.483,6.423-4.224,8.809-8.85a3.2,3.2,0,0,1,.673-1,.754.754,0,0,0,.288-.58c0-.29-.3-.709-.849-1.209a2.519,2.519,0,0,0-1.185-.709,1.054,1.054,0,0,0-.352.1,4.257,4.257,0,0,1-1.746.484,43.255,43.255,0,0,1-5.173.709,1.7,1.7,0,0,1-1.7-1.064,1.062,1.062,0,0,0-.1.419,2.231,2.231,0,0,0,.448,1.145c.48.774,1.025,1.209,1.506,1.209a1.149,1.149,0,0,0,.545-.145,11.936,11.936,0,0,1,2.547-.935,17.55,17.55,0,0,1,3.411-.661c.208,0,.288.048.288.177a4.171,4.171,0,0,1-.3,1,25.061,25.061,0,0,1-3.988,6.69,17.264,17.264,0,0,1-3.235,3.063Zm9.946-15.121a6.991,6.991,0,0,1,1.922,1.9c.24.339.352.435.529.435.288,0,.48-.258.48-.645,0-.451-.288-.822-.929-1.241a5.572,5.572,0,0,0-1.874-.709Zm-1.65,1.128a7.087,7.087,0,0,1,1.89,2.144c.208.371.336.467.545.467.3,0,.5-.258.5-.629,0-.516-.336-.983-1.073-1.483a6.12,6.12,0,0,0-1.714-.774ZM48.4,78.782a9.593,9.593,0,0,0,1.938-1.467,9.776,9.776,0,0,0,2.434-4.24,12.806,12.806,0,0,1,.625-2.047,1.357,1.357,0,0,0,.192-.613c0-.29-.288-.613-.833-.951a4.319,4.319,0,0,0-1.794-.661.909.909,0,0,0-.609.161c.833.29,1.185.709,1.185,1.4a10.621,10.621,0,0,1-.192,1.644,14.352,14.352,0,0,1-1.586,4.578,8.469,8.469,0,0,1-1.49,2.047Zm14.447-7.448A18.125,18.125,0,0,1,56.553,75.8c-.016-.161-.016-.322-.016-.387,0-.9.176-4.32.288-5.465a5.141,5.141,0,0,1,.208-1.274,1.251,1.251,0,0,0,.208-.629c0-.322-.288-.629-.9-.935a4.725,4.725,0,0,0-1.938-.58.679.679,0,0,0-.577.242,1.433,1.433,0,0,1,1.233,1.177c.064.467.128,2.015.128,3.53,0,3.547-.032,4.127-.192,4.578a.728.728,0,0,0-.08.339c0,.693.865,1.822,1.393,1.822a.659.659,0,0,0,.464-.242,4.215,4.215,0,0,1,.833-.677A22.234,22.234,0,0,0,61.1,74.268a12.124,12.124,0,0,0,1.89-2.821Zm8.905,2.95a1.341,1.341,0,0,0-1.361,1.354,1.353,1.353,0,1,0,2.707,0A1.337,1.337,0,0,0,71.752,74.284Zm0-6.174a1.362,1.362,0,0,0-.016,2.724,1.355,1.355,0,0,0,1.361-1.37A1.337,1.337,0,0,0,71.752,68.11ZM95.3,69.948c.112,0,.192-.048.192-.113,0-.048-.032-.1-.112-.193-.849-.709-1.105-.919-2-1.6l-1.217,1.564H88.569c.08-1,.1-1.628.144-3.353.513-.177.689-.29.689-.451,0-.21-.336-.306-1.457-.387-.288-.032-.721-.064-1.3-.113a14.223,14.223,0,0,1,.08,1.709c0,1.064-.016,1.806-.08,2.6h-4.26a8.408,8.408,0,0,1-1.586-.145l.08.6a8.866,8.866,0,0,1,1.49-.113h4.244a12.378,12.378,0,0,1-1.65,5.417A12.907,12.907,0,0,1,80.4,79.636l.1.21a19.625,19.625,0,0,0,1.922-.774,11.9,11.9,0,0,0,3.4-2.386,9.69,9.69,0,0,0,2.675-6.206,17.237,17.237,0,0,0,.9,3.547,10.69,10.69,0,0,0,3.636,4.965,2.677,2.677,0,0,0,1.009.564c.1,0,.16-.064.24-.29a2.693,2.693,0,0,1,1.554-1.644l.016-.21a9.618,9.618,0,0,1-1.858-.629,9.375,9.375,0,0,1-5.333-6.835Zm3.4,8.415h5.333v-.451c-.817-.016-1.009-.048-1.233-.226-.288-.226-.384-.629-.384-1.612V70.383q0-2.346.144-4.062c-1.057.193-2.226.355-3.748.484v.451h.432c.817,0,1.025.081,1.089.435a4.6,4.6,0,0,1,.048.967v7.416c0,1.032-.112,1.451-.48,1.644a2.237,2.237,0,0,1-1.2.193Zm7.5,2.853h.961L112.481,66.3h-.961Zm19.572-7.158v.951c0,.306.08.355.641.355,1.089,0,1.281-.081,1.281-.516-.08-2.063-.1-2.741-.1-5.288.432-.226.561-.339.561-.484,0-.113-.064-.21-.24-.355-.561-.4-.737-.532-1.361-.967-.432.467-.561.613-.993,1.1h-3.508V66.079c.529-.161.7-.274.7-.419,0-.21-.288-.29-1.506-.387-.256-.016-.673-.048-1.185-.081a24.135,24.135,0,0,1,.128,3.659h-3.171a18.915,18.915,0,0,0-2.21-1.112c.064,1.048.08,1.628.08,3,0,1.354,0,1.531-.08,4.224,0,.355.08.4.769.4.945,0,1.137-.064,1.137-.451v-.854h3.46c-.016,2.853-.016,3.418-.08,5.529,0,.355.08.4.785.4,1.041,0,1.249-.081,1.249-.484-.048-1.4-.064-3.45-.064-4.949v-.5Zm0-.339h-3.716V69.19h3.716Zm-5.59,0h-3.46V69.19h3.476v2.95Zm11.644,4.643h5.333v-.451c-.817-.016-1.009-.048-1.233-.226-.288-.226-.384-.629-.384-1.612V70.383q0-2.346.144-4.062c-1.057.193-2.226.355-3.748.484v.451h.432c.817,0,1.025.081,1.089.435a4.6,4.6,0,0,1,.048.967v7.416c0,1.032-.112,1.451-.48,1.644a2.237,2.237,0,0,1-1.2.193Zm7.5,2.853h.961L145.6,66.3h-.961Zm14.11-3.74c0,.193-.048.242-.256.258-1.185-.032-1.185-.032-3.588-.21l-.032.226,1.345.339a2.352,2.352,0,0,1,1.313.661,1.139,1.139,0,0,1,.3.79c.016.242.064.306.224.306a4.541,4.541,0,0,0,1.81-.451,1.487,1.487,0,0,0,.8-1.531c-.016-1.886-.032-3.8-.032-4.272V66.353c.561-.177.721-.274.721-.451q0-.169-.24-.242a12.2,12.2,0,0,0-2.483-.355c.08.887.112,1.338.112,1.886Zm3.3-8.3a16.251,16.251,0,0,1,2.21,4.449c.176.532.368,1.193.625,2.225a2.714,2.714,0,0,0,.208.693.418.418,0,0,0,.32.242c.593,0,1.329-1.177,1.329-2.112a4.541,4.541,0,0,0-1.137-2.418,18.416,18.416,0,0,0-3.379-3.224Zm-9.8,7.835a13,13,0,0,0,2.563-2.805,17.113,17.113,0,0,0,2.066-4.014c.545-.048.753-.161.753-.355,0-.21-.08-.242-2.659-.951a12.322,12.322,0,0,1-.721,3.289,22.014,22.014,0,0,1-2.146,4.707Zm18.018,1.354h5.333v-.451c-.817-.016-1.009-.048-1.233-.226-.288-.226-.384-.629-.384-1.612V70.383q0-2.346.144-4.062c-1.057.193-2.226.355-3.748.484v.451h.432c.817,0,1.025.081,1.089.435a4.6,4.6,0,0,1,.048.967v7.416c0,1.032-.112,1.451-.48,1.644a2.237,2.237,0,0,1-1.2.193Z" transform="translate(562.456 1351.784)" fill="#fff"/></g></svg>