<svg xmlns="http://www.w3.org/2000/svg" width="35" height="38" viewBox="0 0 35 38"><g transform="translate(2975.568 -702.537)"><g transform="translate(-2975.373 702.537)"><g transform="translate(7.044 6.417)"><path d="M765.942,60.974a1.895,1.895,0,0,0,2.942-2.312,1.449,1.449,0,0,0-1.024-.7.43.43,0,0,0-.35.126l-.038.043-.034.113a.561.561,0,0,0,.087.385.438.438,0,0,0,.3.2,1,1,0,0,1,.606.589.9.9,0,0,1-.244.832,1.3,1.3,0,0,1-1.869-.187c-.651-.87-1.232-4.188,4.185-3.984a4.685,4.685,0,0,0,3.862-1.224,3.645,3.645,0,0,0,.316-4.956,1.792,1.792,0,0,0-2.724.044,2.334,2.334,0,0,0-.583,1.973,1.028,1.028,0,0,0,.814.715,1.147,1.147,0,0,0,.943-.247l.053-.053a.558.558,0,0,0,.042-.662.277.277,0,0,0-.214-.134.478.478,0,0,0-.362.187.768.768,0,0,0-.087.128c-.044.05-.2.051-.326-.08-.217-.224-.25-.727.316-1.479l.006-.006c.157-.181.805-.815,1.681.081,1.249,1.278.142,3.045-.17,3.444-2.241,2.863-6.039,1-7.988,2.648a3.521,3.521,0,0,0-1.191,2.343A2.5,2.5,0,0,0,765.942,60.974Z" transform="translate(-764.889 -49.296)" fill="#aa855b"/><path d="M786.457,59.094a3.523,3.523,0,0,0-1.192-2.342c-1.948-1.654-5.746.215-7.987-2.65-.311-.4-1.419-2.164-.169-3.442.876-.9,1.524-.263,1.682-.081l.006.006c.565.752.533,1.255.315,1.479-.129.13-.282.13-.327.08a.756.756,0,0,0-.087-.127.472.472,0,0,0-.362-.188.279.279,0,0,0-.215.134.56.56,0,0,0,.043.662l.052.053a1.149,1.149,0,0,0,.943.247,1.024,1.024,0,0,0,.814-.714,2.327,2.327,0,0,0-.583-1.973,1.79,1.79,0,0,0-2.723-.045,3.647,3.647,0,0,0,.316,4.956,4.68,4.68,0,0,0,3.863,1.224c5.416-.2,4.835,3.114,4.184,3.985a1.3,1.3,0,0,1-1.868.186.9.9,0,0,1-.244-.831,1,1,0,0,1,.606-.59.438.438,0,0,0,.3-.2.559.559,0,0,0,.088-.385l-.034-.114-.039-.043a.43.43,0,0,0-.349-.126,1.443,1.443,0,0,0-1.024.7,1.895,1.895,0,0,0,2.941,2.312A2.5,2.5,0,0,0,786.457,59.094Z" transform="translate(-765.765 -49.319)" fill="#aa855b"/></g><g transform="translate(13.193 11.961)"><g transform="translate(0 2.208)"><path d="M776.06,63.015c.406,0,1.12-.883.791-1.92-.578-1.814-.581-3.373-.79-3.374s-.213,1.56-.792,3.373C774.939,62.132,775.656,63.016,776.06,63.015Z" transform="translate(-771.861 -57.721)" fill="#aa855b"/><path d="M777.839,60.175c1.341,1.066,3.137-.18,2.355-.859-.651-.565-1.157.243-2.11-.06a2.581,2.581,0,0,1-1.333-1.389A2.789,2.789,0,0,0,777.839,60.175Z" transform="translate(-771.985 -57.733)" fill="#aa855b"/><path d="M774.116,60.174c-1.341,1.067-3.137-.178-2.354-.858.65-.565,1.157.241,2.108-.06a2.574,2.574,0,0,0,1.333-1.389A2.775,2.775,0,0,1,774.116,60.174Z" transform="translate(-771.572 -57.733)" fill="#aa855b"/></g><path d="M776.722,56.986a.807.807,0,0,1-1.232,0,1.061,1.061,0,0,1,0-1.381.806.806,0,0,1,1.231,0A1.061,1.061,0,0,1,776.722,56.986Z" transform="translate(-771.865 -55.321)" fill="#aa855b"/></g><path d="M760.761,61.96,774.8,46.247,788.847,61.96h1.547L774.8,44.516,759.213,61.96Z" transform="translate(-757.411 -42.497)" fill="#aa855b"/><path d="M758.028,61.784l16.619-18.6,16.619,18.6h.773L774.647,42.321,757.254,61.784Z" transform="translate(-757.254 -42.321)" fill="#aa855b"/></g><g transform="translate(-2975.568 728.073)"><path d="M-11.177-11.872a3.529,3.529,0,0,1,2.611.8A4.91,4.91,0,0,1-7.46-8.192l.577-.032-.3-4.064H-17.264l-.3,4.064.577.032a5.56,5.56,0,0,1,.961-2.752,3.35,3.35,0,0,1,2.739-.928V-2.4c0,1.472-.16,1.632-1.65,1.664V-.32h5.43V-.736c-1.506-.032-1.666-.192-1.666-1.664ZM-5.266-6.3A7.087,7.087,0,0,0-3.9-1.952,5.373,5.373,0,0,0,.388-.064,5.362,5.362,0,0,0,4.665-1.952,6.954,6.954,0,0,0,6.027-6.3,6.939,6.939,0,0,0,4.665-10.64,5.314,5.314,0,0,0,.388-12.528,5.328,5.328,0,0,0-3.9-10.64,7,7,0,0,0-5.266-6.3Zm2.339,0a9.209,9.209,0,0,1,.817-4.288,2.639,2.639,0,0,1,2.5-1.5,2.606,2.606,0,0,1,2.483,1.5A9.122,9.122,0,0,1,3.688-6.3,9.15,9.15,0,0,1,2.871-2,2.632,2.632,0,0,1,.388-.5,2.639,2.639,0,0,1-2.11-2,9.237,9.237,0,0,1-2.927-6.3Zm14.3.944h.785a10.319,10.319,0,0,0,3.22-.416,3.037,3.037,0,0,0,2.05-3.184c0-2.32-1.426-3.328-4.693-3.328H7.917v.416c1.249.064,1.378.208,1.378,1.664v7.824c0,1.456-.128,1.6-1.442,1.648V-.32h5.062V-.736c-1.394-.048-1.538-.192-1.538-1.648Zm0-.464v-6H12.4c1.858,0,2.8.992,2.8,2.96A3.286,3.286,0,0,1,14.42-6.48a3.2,3.2,0,0,1-2.211.656Z" transform="translate(17.568 12.528)" fill="#aa855b"/></g></g></svg>