<svg xmlns="http://www.w3.org/2000/svg" xmlns:xlink="http://www.w3.org/1999/xlink" width="524" height="166" viewBox="0 0 524 166"><defs><filter id="a" x="0" y="0" width="524" height="166" filterUnits="userSpaceOnUse"><feOffset input="SourceAlpha"/><feGaussianBlur stdDeviation="5" result="b"/><feFlood/><feComposite operator="in" in2="b"/><feComposite in="SourceGraphic"/></filter></defs><g transform="matrix(1, 0, 0, 1, 0, 0)" filter="url(#a)"><path d="M-183.142-13.777a33.1,33.1,0,0,0,3.587-3.4c.832-.052,1.066-.156,1.066-.415s-.884-.648-3.457-1.452a21.88,21.88,0,0,1-2,5.264h-6.55a11.455,11.455,0,0,1-2.235-.182l.13.83a15.322,15.322,0,0,1,2.079-.1h8.681v2.256h-7.979a11.457,11.457,0,0,1-2.235-.156l.13.83a12.432,12.432,0,0,1,2.053-.13h8.031v2.541h-8.369a11.4,11.4,0,0,1-2.287-.156l.156.83a12.109,12.109,0,0,1,2.131-.13h8.369v.467c.026.363.208.467.884.467,1.352,0,1.845-.182,1.845-.648v-.1c-.052-2.9-.052-3.112-.052-3.682v-1.737c.676-.285.858-.441.858-.648,0-.13-.078-.259-.312-.415-.78-.6-1.04-.778-1.871-1.374-.572.519-.754.7-1.274,1.245Zm-14.425,8.09a2,2,0,0,1,1.222,1.945c0,.337.052.415.312.415a3.481,3.481,0,0,0,1.014-.182c1.377-.467,2.131-1.685,2.131-3.5a6.36,6.36,0,0,0-.624-2.8,8.673,8.673,0,0,0-2.807-3.423,44.776,44.776,0,0,0,3.9-6.094c.65-.259.832-.389.832-.6,0-.1-.078-.207-.338-.415-.884-.622-1.17-.83-2.157-1.426-.52.6-.7.778-1.222,1.426h-2.183a21.8,21.8,0,0,0-2.885-1.53c.13,2.023.182,5.082.182,13.043,0,3.656-.052,6.249-.182,10.165v.13c0,.441.208.57,1.04.57a3.075,3.075,0,0,0,1.611-.285c.156-.1.208-.233.208-.545-.052-2.645-.052-2.645-.052-5.316Zm0-14.106h2.339a42.467,42.467,0,0,1-1.663,6.612,8.227,8.227,0,0,1,1.715,5.108,6.6,6.6,0,0,1-.182,1.634c-.13.363-.338.493-.806.493a11.086,11.086,0,0,1-1.4-.1Zm9.538,1.556a6.123,6.123,0,0,1,1.118,2.8A3.563,3.563,0,0,0-186.7-14.4a.492.492,0,0,0,.416.233,1.877,1.877,0,0,0,1.663-1.66c0-.882-.91-1.608-3.223-2.593ZM-190.082-.4c0,.985.208,1.452.754,1.711a10.669,10.669,0,0,0,3.561.285,14.388,14.388,0,0,0,4.055-.311,1.252,1.252,0,0,0,.78-1.141c0-.57-.286-.882-.936-1.063-.234-.052-.286-.13-.286-.311a2.114,2.114,0,0,1,.026-.363l.26-2.489-.286-.052A12.764,12.764,0,0,1-183.61-.967c-.26.311-.468.337-2.105.337-1.9,0-1.923,0-1.923-.648V-4.468c.572-.13.806-.285.806-.493,0-.337-.234-.363-3.379-.726a13.475,13.475,0,0,1,.13,2.074ZM-192.5-18.652c.754.026,1.351.026,1.715.026a55.261,55.261,0,0,0,10.708-1.011,4.558,4.558,0,0,0,1.092.182.329.329,0,0,0,.364-.285c0-.311-.546-.726-3.041-2.334a18.446,18.446,0,0,1-4.444,1.711,36.131,36.131,0,0,1-6.472,1.348Zm.234.57a6.785,6.785,0,0,1,1.326,3.189c.078.622.208.752.624.752a1.662,1.662,0,0,0,1.507-1.634c0-.934-1.014-1.685-3.3-2.515Zm.312,12.68c-.442,1.763-.988,2.619-2,3.086a5.25,5.25,0,0,0-.7.337.924.924,0,0,0-.39.83c0,.959.572,1.763,1.248,1.763,1.378,0,2.339-1.685,2.339-4.045a12.493,12.493,0,0,0-.182-1.945Zm4.5-1.245a7.875,7.875,0,0,1,2.209,3.189c.338.7.416.8.728.8.6,0,1.222-.934,1.222-1.815a1.348,1.348,0,0,0-.6-1.167,11.773,11.773,0,0,0-3.431-1.245Zm5.692,1.193A12.853,12.853,0,0,1-179.426-.4c.13.622.286.83.65.83.806,0,1.585-1.063,1.585-2.152,0-1.271-1.092-2.256-4.392-3.916ZM-171.5-3.69a12.067,12.067,0,0,1,1.611,2.126,4.927,4.927,0,0,1,.6,1.867,1.316,1.316,0,0,0,.182.674.951.951,0,0,0,.78.415A1.545,1.545,0,0,0-166.95.381a5.546,5.546,0,0,0,.494-2.152,11.309,11.309,0,0,0-.078-1.193,37.493,37.493,0,0,1-.286-5.082c0-.57,0-.6.026-1.115,3.171-4.1,5.978-6.431,7.693-6.431,1.014,0,1.585.674,1.585,1.867a20.261,20.261,0,0,1-.6,3.916A24.515,24.515,0,0,0-159-4.364c0,2.386,1.326,3.838,3.457,3.838,2.235,0,4.652-1.66,6.16-4.279l-.156-.207a8.594,8.594,0,0,1-4.938,2.23,1.578,1.578,0,0,1-1.741-1.789,29.612,29.612,0,0,1,.624-4.979,26.67,26.67,0,0,0,.442-3.708,3.2,3.2,0,0,0-3.353-3.449c-1.949,0-4.5,1.685-8.187,5.445a5.742,5.742,0,0,1,.052-.882,14.183,14.183,0,0,1,.91-1.5c.338-.493.442-.674.442-.856,0-.337-.286-.7-.884-1.141a5.586,5.586,0,0,1,.52-1.478,2.08,2.08,0,0,0,.338-1.089c0-.57-.468-1.219-1.351-1.893a5.054,5.054,0,0,0-2.677-1.141,1,1,0,0,0-.494.13,3.034,3.034,0,0,1,1.663,3.008,21.778,21.778,0,0,1-.156,2.826,10.648,10.648,0,0,1-3.483,1.245c-.728,0-1.3-.415-1.871-1.348a2.3,2.3,0,0,0-.156.622,3.267,3.267,0,0,0,.6,1.556c.494.778,1.066,1.219,1.559,1.219.26,0,.442-.078.884-.389,1.559-1.089,1.559-1.089,2.365-1.582-.026.389-.026.389-.052.8-.026.545-.026.545-.052.934-.6.959-.6.959-3.067,4.382a13.166,13.166,0,0,1-1.741,2.1c-.494.493-.572.648-.572,1.193,0,1.322.546,2.437,1.2,2.437.39,0,.6-.233,1.014-1.167Zm2.859-5.523c-.052.934-.052,1.5-.078,2.386-.052,2.878-.052,2.878-.1,4.2a14.776,14.776,0,0,1-2.443-1.582C-171.083-4.571-170.2-6.231-168.64-9.213Zm35.061-5.342c.806,5.912,3.145,10.839,6.55,13.665.6.493.962.752,1.144.752.13,0,.208-.078.286-.337a5.392,5.392,0,0,1,.572-.985A2.868,2.868,0,0,1-122.923-2.7l.078-.285a11.944,11.944,0,0,1-3.9-1.815A14.1,14.1,0,0,1-130.694-8.8a34.4,34.4,0,0,0,4.7-2.334h.312c.832,0,1.2-.1,1.2-.363s-.962-.83-3.561-2.074a17.07,17.07,0,0,1-3.015,4.2,17.518,17.518,0,0,1-2-5.186h6.809c.13,0,.208-.052.208-.13,0-.052-.026-.078-.1-.156-.676-.467-.91-.622-1.377-.934.364-.182.364-.182.962-.467,1.066-.519,1.066-.519,1.871-.934,1.248-.026,1.248-.026,1.533-.182a.344.344,0,0,0,.156-.259c0-.1-.1-.233-.286-.415a27.619,27.619,0,0,0-2.859-2.074,20,20,0,0,0-1.455,1.53h-6.29v-1.919c.78-.207,1.118-.415,1.118-.622,0-.337-.1-.363-4.21-.726a10.351,10.351,0,0,1,.13,1.685v1.582h-6.472a8.88,8.88,0,0,0-.364-1.763h-.286c-.182,1.841-.624,2.671-1.715,3.345a5.558,5.558,0,0,0-1.17.8,1.107,1.107,0,0,0-.234.726,1.7,1.7,0,0,0,1.559,1.867c1.378,0,2.261-1.53,2.261-3.941a3.864,3.864,0,0,0-.026-.493h15.906a14.989,14.989,0,0,1-.7,1.867c-.442-.285-.546-.363-1.144-.726-.7.778-.91,1.011-1.637,1.789h-10.24a9.214,9.214,0,0,1-2-.207l.208.908a8.2,8.2,0,0,1,1.741-.156h2.911A27.17,27.17,0,0,1-146.7-9.161l.156.259a26.508,26.508,0,0,0,8.889-3.293c.286.337.364.467.65.83a30.742,30.742,0,0,1-3.171,2.619,33.044,33.044,0,0,1-6.991,4.071l.13.259a29.607,29.607,0,0,0,11.176-4.8c.156.467.208.622.338,1.141a28.921,28.921,0,0,1-3.795,3.293,39.006,39.006,0,0,1-7.953,4.642l.13.233a32.217,32.217,0,0,0,8.213-2.93,30.148,30.148,0,0,0,3.795-2.412c.026.441.026.7.026,1.115a19.549,19.549,0,0,1-.156,2.2c-.13.908-.26,1.037-1.066,1.037-.7,0-3.249-.1-4.366-.207v.285c.156.052.286.078.442.13l.728.207a4.881,4.881,0,0,1,1.819.856,2.175,2.175,0,0,1,.416,1.193c.026.415.078.493.338.493.052,0,.338-.026.572-.052A4.744,4.744,0,0,0-133.864,1c.806-.778,1.222-2.152,1.222-4.123a11.455,11.455,0,0,0-1.611-6.12,10.2,10.2,0,0,0-2.963-3.215,24.444,24.444,0,0,0,2.781-2.1Zm18.271-2.178a31.627,31.627,0,0,0,2.521-3.345c.91-.13,1.222-.259,1.222-.519,0-.285-.52-.493-2.209-.83-.416-.078-1.04-.207-1.845-.389a20.188,20.188,0,0,1-.65,5.082h-.182a17.012,17.012,0,0,0-2.885-1.556c.1,2.049.156,4.927.156,9,0,3.189-.026,4.382-.156,9.076,0,.441.156.519,1.066.519,1.533,0,1.793-.1,1.793-.726V-2.393h3.613v1.4c.026.415.13.467.988.467,1.455,0,1.793-.13,1.793-.7-.052-2.386-.052-4.408-.052-11.306v-3.086c.676-.389.832-.519.832-.7,0-.13-.078-.233-.286-.415a19.861,19.861,0,0,0-2.053-1.5c-.65.674-.832.856-1.455,1.5Zm-1.17,6.4v-5.86h3.613v5.86Zm3.613.545v6.846h-3.613V-9.783Zm7.693-6.949a20.391,20.391,0,0,0,1.3-3.267c.988-.207,1.248-.311,1.248-.57,0-.337-.806-.57-4.236-1.3a30.674,30.674,0,0,1-3.2,11.461l.26.156a21.543,21.543,0,0,0,4.34-5.938h5.588c0,3.164-.1,5.523-.286,7.987a38.87,38.87,0,0,1-.806,5.7c-.234.83-.39.985-1.014.985-1.455,0-1.637,0-4.964-.233l-.052.337c2.989.648,4,1.348,4.08,2.775,0,.363.078.467.364.467a9.684,9.684,0,0,0,1.845-.285c1.741-.493,2.417-1.789,2.963-5.653a88.633,88.633,0,0,0,.754-11.409c.78-.363.962-.493.962-.726,0-.13-.1-.285-.338-.493-.858-.726-1.144-.934-2.105-1.66-.7.674-.936.908-1.663,1.66Zm-1.793,3.967a16.141,16.141,0,0,1,2.183,5.679c.182.985.364,1.245.884,1.245.91,0,1.845-1.193,1.845-2.386,0-1.4-1.507-2.9-4.756-4.719Zm15.178-3.864c.988,2.152,2.261,3.008,4.392,3.008.234,0,.494-.026.988-.078a26.132,26.132,0,0,1-4.288,7,1.813,1.813,0,0,0-.65,1.556A3.653,3.653,0,0,0-90.928-3.4a1.016,1.016,0,0,0,.91.6c.65,0,.988-.389,1.871-2.256.442-.934,1.767-3.89,3.951-8.842a39.554,39.554,0,0,0,4.6-1.219c1.17-.415,1.637-.8,1.637-1.374,0-.622-.884-1.141-2-1.141-.39,0-.546.078-1.04.467a6.919,6.919,0,0,1-2.391,1.141A13.3,13.3,0,0,1-82.04-18.47c.39-.519.442-.648.442-.985,0-.519-.364-.908-1.326-1.348a7.089,7.089,0,0,0-2.807-.7,1.382,1.382,0,0,0-.936.285c1.326.493,1.793,1.011,1.793,1.971a11.772,11.772,0,0,1-.832,3.734,11.973,11.973,0,0,1-2.443.285,4.083,4.083,0,0,1-3.379-1.556Zm14.711,1.789a6.084,6.084,0,0,1,3.3,1.971c-2.755.648-3.665,1.089-4.366,2.178a6.586,6.586,0,0,0-.676,3.6c0,.285,0,.363.026,1.634a7.642,7.642,0,0,0-1.066-.078c-3.145,0-5.406,1.556-5.406,3.708,0,1.867,1.767,3.138,4.366,3.138,2.885,0,4.574-1.271,4.574-3.423V-2.6a9.669,9.669,0,0,1,2.781,2.23c.546.57.728.7,1.04.7.546,0,.962-.648.962-1.556a2.836,2.836,0,0,0-1.248-2.308,12,12,0,0,0-3.769-1.634,23.754,23.754,0,0,1-.7-4.538c0-1.322.546-1.763,2.209-1.763a4.173,4.173,0,0,1,2.781.8,1.4,1.4,0,0,0,.806.337c.676,0,1.144-.57,1.144-1.426a2.73,2.73,0,0,0-1.455-2.178,9.765,9.765,0,0,0-4.652-1.219h-.6ZM-78.843-3.4c.026,0,.026.052.026.363a2.5,2.5,0,0,1-.416,1.582A3.439,3.439,0,0,1-82.04-.5c-1.559,0-2.417-.519-2.417-1.4,0-1.141,1.352-1.841,3.509-1.841A6.5,6.5,0,0,1-78.843-3.4Zm26.328-10.813.78-1.011c.832-.052,1.17-.182,1.17-.441,0-.311-.39-.441-3.743-1.322a12.385,12.385,0,0,1-1.377,3.423,21.885,21.885,0,0,1-3.509,5.031l.182.207A18.576,18.576,0,0,0-54-12.4,15.366,15.366,0,0,0-52.073-9.55c-.546.441-1.092.882-1.845,1.4a32.028,32.028,0,0,1-6.524,3.656l.1.285a26.432,26.432,0,0,0,3.717-1.037V-3.56c0,1.66-.026,3.086-.13,4.953,0,.467.13.519,1.066.519,1.533,0,1.767-.078,1.793-.57v-.7h6.134v.752c0,.389.13.467.806.467,1.715,0,2.027-.1,2.027-.7-.1-3.267-.1-3.76-.1-4.616v-.908a1.7,1.7,0,0,0,.442-.441,4.42,4.42,0,0,0,1.144.337c.182,0,.26-.078.312-.337a4.27,4.27,0,0,1,.416-1.271,2.343,2.343,0,0,1,1.144-1.089V-7.45a20.962,20.962,0,0,1-7.745-1.711A23.324,23.324,0,0,0-45.471-13c.884-.1,1.248-.259,1.248-.545,0-.13-.1-.259-.338-.467A25.52,25.52,0,0,0-46.8-15.747c-.7.648-.936.856-1.663,1.53Zm4.132.545A17.115,17.115,0,0,1-51.241-10.3a8,8,0,0,1-2.417-2.515c.286-.337.39-.441.7-.856Zm-5.3,8.4c-.546-.363-.728-.467-1.144-.7a23.74,23.74,0,0,0,4.158-2.2,16.678,16.678,0,0,0,3.431,2.23c-.26.259-.338.337-.65.674Zm-.208.545h6.134V.1h-6.134Zm-9.85-14.417a7.228,7.228,0,0,1-1.975-.233l.156.934a9.711,9.711,0,0,1,1.819-.156h4.418c0,.415,0,.726-.052,1.763.026.493.1.545,1.04.545,1.507,0,1.819-.1,1.819-.7-.026-.752-.026-.752-.026-1.608h4.6c0,.934,0,.934-.052,1.737,0,.389.156.441,1.144.441a3.025,3.025,0,0,0,1.611-.259.668.668,0,0,0,.078-.389c-.026-.752-.026-1.037-.026-1.53h7.1c.182,0,.286-.052.286-.156,0-.052-.026-.1-.13-.207-1.222-1.011-1.585-1.322-2.859-2.256-.832.882-1.092,1.141-1.871,2.074h-2.521V-20.7c.78-.156,1.092-.311,1.092-.57,0-.337-.182-.363-3.925-.674a15.588,15.588,0,0,1,.078,1.867v.934h-4.6c-.026-.648-.026-.648-.026-1.53.78-.13,1.118-.285,1.118-.545,0-.311-.442-.441-2.053-.57-.39-.052-1.066-.1-1.871-.182.052.959.078,1.5.078,2.308v.519Zm-.78,2.489a9.226,9.226,0,0,1,2.313,3.164c.39.83.6,1.063.988,1.063.728,0,1.429-.934,1.429-1.919,0-.752-.338-1.141-1.4-1.608a16.521,16.521,0,0,0-3.2-.934Zm-1.689,4.564A8.5,8.5,0,0,1-64-9.213c.6,1.063.728,1.219,1.04,1.219.676,0,1.4-.985,1.4-1.893,0-1.141-1.2-1.789-4.522-2.463Zm.234,7.338c1.429.57,1.637.7,1.923,1.141a4.182,4.182,0,0,1,.338,1.737,8.491,8.491,0,0,1-.078,1.011A15.846,15.846,0,0,0-63.976.978a.732.732,0,0,0,.754.83,2.528,2.528,0,0,0,1.533-.622,2.091,2.091,0,0,0,.858-1.763,4.649,4.649,0,0,0-.442-1.867,2.987,2.987,0,0,1-.442-1.374c0-.285,0-.285.26-.959l3.847-9.283-.312-.156-1.741,3.112c-.754,1.374-1.4,2.437-2.833,4.719-.884,1.452-1.04,1.582-1.533,1.582a16.073,16.073,0,0,1-1.9-.285ZM-37.8-16.292c1.17,2.178,2.521,3.06,4.756,3.06.156,0,.312,0,.728-.026-.494,2.1-1.352,6.742-1.352,7.442,0,1.167,1.2,2.567,2.157,2.567a1.006,1.006,0,0,0,.884-.493,6.956,6.956,0,0,1,1.3-1.789A7.614,7.614,0,0,1-24.055-8.2a2.487,2.487,0,0,1,2.781,2.619A4.955,4.955,0,0,1-23.9-1.434,18.889,18.889,0,0,1-30.968.874v.285c.416.026.754.026.936.026A33.918,33.918,0,0,0-26,.926,13.01,13.01,0,0,0-20.91-.6a5.208,5.208,0,0,0,2.7-4.356c0-2.567-2.209-4.3-5.458-4.3a12.177,12.177,0,0,0-4.055.752,22.732,22.732,0,0,0-3.457,1.53,26.151,26.151,0,0,1,.91-6.327,25.839,25.839,0,0,0,6.134-1.582c1.118-.467,1.637-.934,1.637-1.426a.912.912,0,0,0-.442-.778,3.751,3.751,0,0,0-1.559-.415,1.283,1.283,0,0,0-1.066.389,9.073,9.073,0,0,1-4.029,1.737,10.5,10.5,0,0,1,1.507-2.982c.468-.57.52-.7.52-1.037,0-1.011-1.793-1.841-4.029-1.841a2.223,2.223,0,0,0-1.767.57c1.507.052,2.131.545,2.131,1.582a24.3,24.3,0,0,1-.728,4.149,11.2,11.2,0,0,1-1.871.156,4.353,4.353,0,0,1-3.691-1.66Zm35.009-2.126a1.781,1.781,0,0,0,.832-1.374c0-.545-.364-.934-1.274-1.348a15.578,15.578,0,0,0-3.119-.985l-.208.285A6.092,6.092,0,0,1-4.77-19.2a1.578,1.578,0,0,0,.442.778h-4.34a11.539,11.539,0,0,1-2.105-.233l.156.934a10.206,10.206,0,0,1,1.949-.156h6.887v2.412H-7.265a9.545,9.545,0,0,1-2-.207l.156.882a9.667,9.667,0,0,1,1.819-.13h5.51v2.645H-9.5a11.333,11.333,0,0,1-2.131-.233l.156.908a15.7,15.7,0,0,1,1.949-.13h3.3A24.686,24.686,0,0,1-12.073-1.019l.182.233A19.782,19.782,0,0,0-6.174-5.972v1.322c0,1.815-.026,3.734-.1,6.171,0,.441.182.57.78.57A5.26,5.26,0,0,0-3.7,1.859c.156-.1.234-.233.234-.545V.77h9.1v.7c.026.467.182.545.988.545a3.785,3.785,0,0,0,1.611-.259.555.555,0,0,0,.286-.57c-.1-3.345-.1-3.5-.13-9.283.676-.363.884-.519.884-.752,0-.13-.078-.259-.312-.441-.858-.648-1.144-.83-2.105-1.478-.6.57-.78.778-1.377,1.426H-3.263l-.676-.57c.338-.83.572-1.452.7-1.815H11.422c.182,0,.312-.078.312-.207,0-.052-.052-.13-.156-.259a31.819,31.819,0,0,0-2.755-2.074c-.806.856-1.066,1.115-1.845,2H1.052v-2.645H9.239c.182,0,.338-.1.338-.207,0-.052-.052-.13-.156-.259-1.04-.856-1.377-1.089-2.443-1.867-.728.778-.936,1.011-1.611,1.789H1.052v-2.412H10.98c.156,0,.286-.1.286-.207,0-.052-.052-.13-.182-.259-1.144-.934-1.507-1.219-2.7-2.074-.806.882-1.04,1.141-1.819,2H2.4a31.122,31.122,0,0,0,3.041-2.049c.91-.026,1.17-.13,1.17-.389,0-.311-.26-.415-3.925-1.374a20.289,20.289,0,0,1-1.533,3.812ZM5.626-6.361h-9.1V-8.8h9.1Zm0,.545v2.567h-9.1V-5.816Zm0,3.112V.226h-9.1V-2.7Zm19.7-8.479C24.183-9.446,23.17-7.761,21.48-4.857a2.572,2.572,0,0,1-1.014-1.452,10.411,10.411,0,0,1-.52-3.293,14.459,14.459,0,0,1,.572-3.838A4.047,4.047,0,0,0,20.7-14.4a2,2,0,0,0-.234-1.011,6.608,6.608,0,0,0-2.677-2.671,2.974,2.974,0,0,0-1.767-.622,5.149,5.149,0,0,1,1.533,4.279v.415c-.052,2.282-.052,2.282-.052,2.463,0,3.5.65,6.223,1.949,8.194.988,1.478,2.365,2.489,3.431,2.489a1.215,1.215,0,0,0,1.248-1.245,2.018,2.018,0,0,0-.078-.57,4.1,4.1,0,0,1-.364-1.582,11.475,11.475,0,0,1,.338-2.178,31.994,31.994,0,0,1,1.559-4.616Zm5.094-4.279A6.7,6.7,0,0,1,33.9-11.936,9.981,9.981,0,0,1,34.735-8.2c0,.519-.078.622-.546.83-.416.182-1.4.493-3.691,1.167l.052.259c2.807.052,3.353.156,3.977.856a1.237,1.237,0,0,0,1.04.545c1.274,0,2.157-1.245,2.157-3.008A8,8,0,0,0,35.9-12.74a8.129,8.129,0,0,0-5.38-3.008ZM42.9-15.618c.936,2.126,2.105,2.982,4.158,2.982a8.927,8.927,0,0,0,1.689-.13c-1.429,4.149-2.885,7.235-4.158,8.79a1.851,1.851,0,0,0-.65,1.556,4.565,4.565,0,0,0,.65,2.36,1.073,1.073,0,0,0,.832.441,1.207,1.207,0,0,0,1.04-.674A28.661,28.661,0,0,0,47.887-4.1c1.4-4.1,1.4-4.1,1.9-5.6.806-2.412.806-2.412,1.144-3.345,4.782-1.322,6.68-2.2,6.68-3.086a.791.791,0,0,0-.416-.752,3.516,3.516,0,0,0-1.611-.467,1.346,1.346,0,0,0-.884.389,8.132,8.132,0,0,1-2.963,1.634,12.473,12.473,0,0,1,1.352-2.878c.416-.519.442-.6.442-.908,0-.467-.442-.959-1.144-1.271a7.4,7.4,0,0,0-2.989-.7,1.989,1.989,0,0,0-1.352.337,3.262,3.262,0,0,1,1.507.674,1.592,1.592,0,0,1,.546,1.245,18.746,18.746,0,0,1-.754,4.175,13.675,13.675,0,0,1-3.119.389,3.588,3.588,0,0,1-3.067-1.5ZM54.54-10.51a13.665,13.665,0,0,1,4.366-.856h.65L56.931-8.9l.156.233c.312-.182.39-.233.7-.415a10.04,10.04,0,0,1,1.092-.6,5.219,5.219,0,0,1,2.287-.57l1.014.026c.858,0,1.274-.363,1.274-1.089,0-1.037-1.118-1.737-2.833-1.737a10.468,10.468,0,0,0-6.186,2.282Zm-.832,3.967a5.871,5.871,0,0,0-.442,2.23A4.413,4.413,0,0,0,54.8-.837c1.092.908,3.015,1.4,5.51,1.4,2.677,0,3.873-.415,3.873-1.322a1.33,1.33,0,0,0-.39-.959,3.3,3.3,0,0,0-1.949-1.037,1.324,1.324,0,0,0-.52.1,7.4,7.4,0,0,1-2.833.467c-3.067,0-4.548-1.063-4.548-3.293,0-.233.026-.493.078-.985Zm25.653-11.15H72.37a8.65,8.65,0,0,0-.182-1.089h-.312a3.907,3.907,0,0,1-.546,1.919,2.914,2.914,0,0,1-1.481,1.3,1.742,1.742,0,0,0-.52.337,1.741,1.741,0,0,0-.234.856c0,.959.546,1.685,1.274,1.685,1.222,0,2.079-1.556,2.079-3.708,0-.285,0-.363-.026-.752h6.939v2.36c0,1.348,0,1.4-.078,3.4v.13c0,.337.182.467.7.467a5.3,5.3,0,0,0,2-.285c.13-.1.156-.207.156-.441-.078-2.1-.078-2.1-.078-3.345v-2.282h7.069a12.29,12.29,0,0,1-.546,2.334l-.026-.026A23.266,23.266,0,0,0,86.612-16.4c-.39.441-.806.882-1.222,1.348h-1.3A6.971,6.971,0,0,1,82.74-15.2l.13.778a9.974,9.974,0,0,1,1.222-.078h4.392l-.13.441.234.1c1.066-.726,1.274-.882,3.145-2.36,1.118-.052,1.429-.13,1.429-.415,0-.13-.1-.259-.312-.441-1.092-.83-1.455-1.089-2.651-1.919l-1.4,1.4H82.064v-2.074h8.395c.156,0,.26-.078.26-.156a.35.35,0,0,0-.13-.233c-1.222-.959-1.611-1.245-2.885-2.126-.806.83-1.066,1.089-1.871,1.971H73.721a9.059,9.059,0,0,1-1.9-.182l.13.83a11.78,11.78,0,0,1,1.767-.1h5.64ZM84.923-6.1a22.7,22.7,0,0,1-.65,4.46.808.808,0,0,1-.91.648c-.676,0-1.715-.078-4.21-.285L79.1-.993a7.609,7.609,0,0,1,2.651.934,1.927,1.927,0,0,1,.754,1.271c.052.519.078.57.442.57A9.432,9.432,0,0,0,84.767,1.5a2.838,2.838,0,0,0,2.053-2.2,32.611,32.611,0,0,0,.728-4.823l.208-.078a13.8,13.8,0,0,0,3.587,1.452c.208,0,.26-.078.416-.545A3.115,3.115,0,0,1,93.5-6.646v-.259c-3.795-.182-7.225-1.141-9.1-2.489-.78-.57-1.04-.908-1.118-1.452l-.832.467a2.476,2.476,0,0,1,.832.83,12.351,12.351,0,0,0,2.209,2.308l-.7.57H76.684a8.229,8.229,0,0,1-1.222-.1,30.745,30.745,0,0,0,2.781-2.308c.806-.052,1.144-.156,1.144-.415s-.338-.389-3.457-1.374a11.5,11.5,0,0,1-2.625,3.5,21.239,21.239,0,0,1-4.626,3.5l.1.259a20.956,20.956,0,0,0,6.5-3.008l.1.648a6.272,6.272,0,0,1,1.3-.13h.936a8.483,8.483,0,0,1-1.767,4.045C74.6-.5,72.785.615,69.485,1.885l.078.285C73.1,1.678,75.514.848,77.256-.474c1.689-1.3,2.573-2.8,3.275-5.627ZM73.175-14.425c.546-.052.832-.078,1.144-.078h4.262c.182,0,.286-.052.286-.13,0-.052-.026-.1-.1-.207-.78-.674-1.04-.882-1.845-1.5-.52.57-.7.752-1.2,1.3h-1.4a6.942,6.942,0,0,1-1.248-.1Zm9.72,2.8a6.847,6.847,0,0,1,1.274-.1h5.458c.156,0,.286-.078.286-.156a.51.51,0,0,0-.1-.207,25.7,25.7,0,0,0-2.105-1.66c-.6.622-.78.83-1.326,1.478H84.143a5.918,5.918,0,0,1-1.377-.182Zm-10.552,0a6.753,6.753,0,0,1,1.248-.1h4.938c.182,0,.312-.052.312-.156a.451.451,0,0,0-.078-.182c-.806-.7-1.066-.934-1.9-1.608-.6.6-.78.778-1.326,1.4H73.617a7.08,7.08,0,0,1-1.429-.156Zm34.1-2.593c.026-2.074.026-2.074.026-3.215.78-.207.988-.337.988-.545,0-.363-.26-.415-3.847-.778a38.689,38.689,0,0,1,.182,4.538h-.754a10.489,10.489,0,0,1-2.287-.182l.13.882a10.937,10.937,0,0,1,2.157-.156h.754c0,2.463-.052,3.916-.182,5.394h-1.04a8.107,8.107,0,0,1-2.209-.156l.13.83a11.076,11.076,0,0,1,2.131-.13h.936a10.355,10.355,0,0,1-2.989,6.56l.208.207A10.8,10.8,0,0,0,104-3.43a8.447,8.447,0,0,0,2.053-4.3h3.431c-.026,3.967-.026,3.967-.1,6.016,0,.493.182.6.936.6a3.058,3.058,0,0,0,1.767-.311.748.748,0,0,0,.156-.57c-.026-2-.026-2-.078-5.731h3.457c.13,0,.234-.078.234-.182,0-.052-.052-.13-.156-.259-.754-.778-.988-1.011-1.819-1.763-.572.7-.728.934-1.274,1.66h-.442L112.135-11v-2.671h3.119c.234,0,.364-.078.364-.182,0-.052-.052-.13-.156-.285a22,22,0,0,0-1.819-1.634c-.52.648-.676.856-1.2,1.556h-.312c0-1.374,0-1.374.026-3.164.728-.207.988-.363.988-.6,0-.363-.364-.441-3.795-.752a39.524,39.524,0,0,1,.13,4.512Zm3.041.545v5.394h-3.327a30.253,30.253,0,0,0,.26-5.394ZM100.075.3h15.88V1.419c.026.493.156.6.78.6a9.151,9.151,0,0,0,1.819-.182.59.59,0,0,0,.39-.648c-.156-4.33-.156-4.33-.156-20.044.7-.415.962-.674.962-.908,0-.13-.1-.259-.338-.441-.91-.674-1.2-.882-2.183-1.53-.65.674-.832.882-1.455,1.53H100.517a25.593,25.593,0,0,0-3.353-1.737c.078,2.36.1,3.319.1,5.471,0,10.113-.026,12.939-.182,17.918.026.493.182.6.858.6a5.922,5.922,0,0,0,1.767-.233.506.506,0,0,0,.364-.57Zm0-19.967h15.88V-.241h-15.88ZM126.3-9.135a52.2,52.2,0,0,1,4.834,3.967,23.757,23.757,0,0,1-3.4,3.5,33.969,33.969,0,0,1-4.158,2.982l.156.285a21.653,21.653,0,0,0,9.045-5.16A27.466,27.466,0,0,1,135.942.3c.286.441.546.648.832.648.65,0,1.118-.908,1.118-2.2a2.527,2.527,0,0,0-.728-1.789,16.6,16.6,0,0,0-2.807-2.152,26.823,26.823,0,0,0,2.573-3.5c.91-.052,1.092-.13,1.092-.389a.36.36,0,0,0-.13-.259c-.26-.156-1.819-.778-3.509-1.374A14.555,14.555,0,0,1,132.2-6.542a57.2,57.2,0,0,0-5.666-2.878Zm4.132-9.283c.364-.6.468-.752.884-1.452.91-.13,1.222-.259,1.222-.545,0-.13-.1-.233-.338-.337-.364-.156-1.949-.57-3.951-1.037a20.327,20.327,0,0,1-2,5.6,23.382,23.382,0,0,1-3.4,5l.182.233a24.243,24.243,0,0,0,3.9-3.086,18.092,18.092,0,0,0,3.145-3.838h15.126c.156,0,.286-.078.286-.182,0-.078-.052-.156-.182-.285-1.274-1.011-1.689-1.322-2.989-2.308-.884.959-1.144,1.245-2,2.23Zm-1.3,3.838c1.17-.078,1.429-.1,1.819-.1h12.267c.156,0,.234-.052.234-.13s-.052-.156-.156-.259c-1.222-.934-1.585-1.219-2.859-2.1-.832.83-1.066,1.089-1.819,1.945h-7.537a12.672,12.672,0,0,1-2.131-.182Zm-3.2,3.267a21.228,21.228,0,0,1,2.183-.13h11.436a35.267,35.267,0,0,0,.208,4.59A11.911,11.911,0,0,0,142.232-.63c1.17,1.426,2.6,2.412,3.509,2.412a1.459,1.459,0,0,0,1.4-1.452,1.493,1.493,0,0,0-.364-1.037c-.468-.622-.494-.674-.494-1.063a5.036,5.036,0,0,1,.156-1.063l.6-4.019-.312-.13c-1.3,3.06-1.3,3.086-2.027,4.668a5.168,5.168,0,0,1-1.767-2.463,14.238,14.238,0,0,1-.65-4.668c0-.285,0-.726.026-1.271.832-.415.988-.545.988-.778,0-.13-.1-.285-.39-.493-.91-.674-1.2-.882-2.105-1.53a19.58,19.58,0,0,0-1.429,1.53H128.119a19.233,19.233,0,0,1-2.339-.182ZM161.127.2a19.37,19.37,0,0,0,6-1.556c3.769-1.737,5.848-4.745,5.848-8.505,0-5.134-4.132-8.79-9.928-8.79a12.921,12.921,0,0,0-9.8,4.253,8.544,8.544,0,0,0-2.183,5.186,4.972,4.972,0,0,0,1.014,2.982A4.47,4.47,0,0,1,153.2-4.312a6.387,6.387,0,0,0,.6,1.711,1.712,1.712,0,0,0,1.4.752c1.3,0,2.807-1.426,4.5-4.227,1.871-3.138,3.2-6.768,3.2-8.842a3.851,3.851,0,0,0-1.2-2.775,8.105,8.105,0,0,1,1.04-.052c4.47,0,7.173,2.645,7.173,7.079a9.636,9.636,0,0,1-2.6,6.82,13.476,13.476,0,0,1-6.29,3.682Zm.052-17.814a2.479,2.479,0,0,1,.208.57,2.972,2.972,0,0,1,.1.856,15.389,15.389,0,0,1-2.079,5.731c-1.689,3.189-3.4,5.342-4.262,5.342-.884,0-1.767-1.841-1.767-3.63a8.832,8.832,0,0,1,2.781-6.171A9.43,9.43,0,0,1,161.179-17.614ZM196.5-7.5v1.53c0,.493.13.57,1.04.57,1.767,0,2.079-.13,2.079-.83-.13-3.319-.156-4.408-.156-8.505.7-.363.91-.545.91-.778,0-.182-.1-.337-.39-.57-.91-.648-1.2-.856-2.209-1.556-.7.752-.91.985-1.611,1.763H190.47v-4.46c.858-.259,1.144-.441,1.144-.674,0-.337-.468-.467-2.443-.622-.416-.026-1.092-.078-1.923-.13a38.49,38.49,0,0,1,.208,5.886h-5.146a30.806,30.806,0,0,0-3.587-1.789c.1,1.685.13,2.619.13,4.823,0,2.178,0,2.463-.13,6.794,0,.57.13.648,1.248.648,1.533,0,1.845-.1,1.845-.726V-7.5h5.614c-.026,4.59-.026,5.5-.13,8.894,0,.57.13.648,1.274.648,1.689,0,2.027-.13,2.027-.778-.078-2.256-.1-5.549-.1-7.961v-.8Zm0-.545h-6.03v-7.286h6.03Zm-9.071,0h-5.614v-7.286h5.64v4.745ZM-223.3,35.631a41.214,41.214,0,0,0,4.73-.752,4.3,4.3,0,0,0,1.04.182c.208,0,.39-.1.39-.207,0-.233,0-.233-3.171-2.256a18.864,18.864,0,0,1-4.886,1.789,52.992,52.992,0,0,1-7.043,1.374l.052.337c.754.052,1.2.052,1.559.052,1.326,0,2.963-.078,4.938-.259v1.945h-5.2c-.91-.1-1.481-.182-1.715-.207l.234.882a7.915,7.915,0,0,1,1.455-.13h3.665a20.2,20.2,0,0,1-5.744,4.953l.182.233a18.054,18.054,0,0,0,7.121-3.708v.908c0,.467,0,.882-.026,1.789.026.363.156.467.676.467a9.345,9.345,0,0,0,1.377-.1c.312-.052.416-.182.416-.467v-.13c-.052-1.322-.052-2-.052-2.049v-1.5a11.811,11.811,0,0,0,4.21,3.941,9.809,9.809,0,0,0,2.079.8c.13,0,.208-.078.26-.233a3.015,3.015,0,0,1,1.611-2.126v-.233a12.669,12.669,0,0,1-5.874-1.167,5.727,5.727,0,0,1-1.923-1.374h7.225c.156,0,.26-.078.26-.156s-.052-.156-.156-.259c-1.144-.882-1.481-1.141-2.625-1.945-.754.778-.988,1.037-1.715,1.815H-223.3Zm1.9,10.58a2.9,2.9,0,0,0,.234-.57c.208-.467.208-.467.364-.83.988-.467.988-.467.988-.648,0-.1-.078-.207-.312-.363-.832-.57-1.092-.752-1.949-1.271-.52.545-.676.7-1.2,1.245h-6.706a11.378,11.378,0,0,1-1.585-.182l.26.83a9.767,9.767,0,0,1,1.326-.1h1.4a17.4,17.4,0,0,1-.572,3.527,8.064,8.064,0,0,1-3.223,4.253l.26.259c2.391-1.011,3.483-1.711,4.444-2.93a8.972,8.972,0,0,0,1.767-5.108h2.651c-.442,1.193-.6,1.634-1.144,2.852a.328.328,0,0,0-.026.156c0,.285.208.363.936.363a4.988,4.988,0,0,0,1.3-.052c.1-.026.182-.13.286-.311.208-.467.208-.467.26-.57h1.767a9.8,9.8,0,0,1-.52,2.671c-.182.519-.416.726-.91.726a33.986,33.986,0,0,1-4.055-.389l-.052.285c2.469.674,3.145,1.141,3.3,2.23.052.337.1.389.364.389a4.691,4.691,0,0,0,2.963-.908c.65-.57.936-1.478,1.378-4.227.182-.1.338-.207.416-.259a1.259,1.259,0,0,0,.338-.233.53.53,0,0,0,.13-.233c0-.156-.1-.259-.338-.441-.832-.57-1.118-.778-1.949-1.348-.52.545-.676.7-1.222,1.193Zm-17.57-12.576a12.046,12.046,0,0,1,2.7,5.316c.234.882.416,1.089.91,1.089.884,0,1.9-1.245,1.9-2.334,0-1.374-1.533-2.619-5.276-4.279Zm-.546,10.813a6.456,6.456,0,0,1,1.2-.13h1.9V51.4a16.177,16.177,0,0,1-3.483,1.737c1.585,3.293,1.793,3.63,2.079,3.63.208,0,.338-.285.338-.7a5.447,5.447,0,0,0-.026-.6,32.238,32.238,0,0,0,3.379-4.2c1.611,3.967,3.587,4.927,9.98,4.927h.65c1.378-.026,2.417-.052,2.547-.052.312,0,.6.026.858.026.962,0,1.611-.026,1.9-.052.364-.026.6-.052.624-.052.676-.026.676-.026.728-.363a2.757,2.757,0,0,1,.208-.856,2.467,2.467,0,0,1,1.533-1.634v-.259c-6.706.493-9.019.6-12.553.6a9.221,9.221,0,0,1-4-.622,3.418,3.418,0,0,1-1.949-1.815V44.862c.806-.57.806-.57.806-.752,0-.1-.078-.207-.234-.337-.91-.7-1.2-.908-2.131-1.556l-1.481,1.556h-1.663a12.815,12.815,0,0,1-1.429-.13Zm46.965,2.671v5.99c0,.389-.078.493-.39.493h-.13c-1.637-.052-2.261-.1-4.6-.259l-.026.337a12.108,12.108,0,0,1,2.677.856,2.187,2.187,0,0,1,1.092,1.426c.13.726.13.726.494.726a8.378,8.378,0,0,0,1.507-.207,2.586,2.586,0,0,0,2.261-1.815,4.375,4.375,0,0,0,.078-1.115l-.078-5.394V36.02c.7-.389.936-.6.936-.83,0-.13-.1-.259-.364-.467-.936-.674-1.222-.908-2.209-1.608-.624.674-.832.882-1.429,1.556h-4.392a31.022,31.022,0,0,0-3.379-1.608c.156,1.945.182,3.008.182,5.86,0,3.319-.052,5.549-.208,7.235a13.014,13.014,0,0,1-2.183,6.794,14.415,14.415,0,0,1-3.561,3.682l.182.259a16.112,16.112,0,0,0,5.952-4.382,10.971,10.971,0,0,0,2.313-5.394Zm-4.912-6.612c0-.778.026-1.4.026-1.789.026-.908.026-1.608.026-1.789V35.216h4.86v5.29Zm4.912.545v5.523h-5.2c.13-1.089.234-3.189.286-5.523Zm-16.192,8.3h3.3v1.374c.026.415.13.467,1.014.467.988,0,1.559-.1,1.741-.337a.668.668,0,0,0,.078-.389c-.052-2.463-.078-3.371-.078-14,.676-.363.91-.545.91-.752,0-.13-.078-.233-.312-.415-.858-.674-1.144-.908-2.105-1.582l-1.377,1.556h-3.041a24.335,24.335,0,0,0-3.041-1.634c.1,2.126.13,3.916.13,7.131,0,4.719-.026,6.068-.13,10.528v.078c0,.441.182.519,1.092.519,1.455,0,1.819-.156,1.819-.726V49.348Zm3.3-7.65h-3.3V35.813h3.3Zm0,.545V48.8h-3.3v-6.56Zm43.3-5.757c.156,0,.234-.052.234-.13,0-.052-.026-.1-.1-.207a20.965,20.965,0,0,0-1.767-1.608c-.6.674-.6.674-1.248,1.4h-.78a1.24,1.24,0,0,0,1.014-1.271c0-.83-.884-1.271-3.249-1.634l-.13.207a4.612,4.612,0,0,1,1.378,1.893c.26.648.312.7.572.8h-3.015V34.023c.6-.207.832-.363.832-.545,0-.285-.338-.389-2.027-.519-.364-.026-.91-.078-1.663-.13a23.356,23.356,0,0,1,.234,2.437c.026.259.026.285.052.674h-8.577a32.064,32.064,0,0,0-3.3-1.582,45.371,45.371,0,0,1,.208,4.564c0,5.523-.494,8.064-2.235,11.384l.208.156a19.054,19.054,0,0,0,1.793-1.789,11.776,11.776,0,0,0,2.209-4.019,26.453,26.453,0,0,0,.806-7.364v-.8h8.941a18.827,18.827,0,0,0,1.923,7.65,16.551,16.551,0,0,1-5.276,4.227l.156.233a18.723,18.723,0,0,0,4.081-1.5,11.015,11.015,0,0,0,2.027-1.348c1.507,2.049,3.873,3.6,5.484,3.6a1.371,1.371,0,0,0,1.429-1.4,1.19,1.19,0,0,0-.416-.908c-.416-.363-.468-.441-.468-.778a6.826,6.826,0,0,1,.13-.856l.572-3.345-.26-.052a45.037,45.037,0,0,1-2.157,4.123,6.848,6.848,0,0,1-2.521-2.178,20.456,20.456,0,0,0,2.781-4.253c.884-.13,1.092-.207,1.092-.441,0-.285,0-.285-3.327-1.348a11.656,11.656,0,0,1-1.715,3.967,16.8,16.8,0,0,1-.988-5.394Zm-19.441,12.965a5.363,5.363,0,0,1-.65,1.763,4.228,4.228,0,0,1-1.949,1.608c-.884.363-1.066.6-1.066,1.348,0,1.063.6,1.893,1.377,1.893,1.559,0,2.833-2,2.833-4.434a8.458,8.458,0,0,0-.286-2.178Zm14.529.182a12.645,12.645,0,0,1,2.677,5.523c.13.519.312.726.65.726.936,0,1.871-1.219,1.871-2.386,0-.7-.338-1.245-1.3-2a14.967,14.967,0,0,0-3.743-2.023Zm-12.034-10.761a4.448,4.448,0,0,1-1.4-.182l.13.83a6.493,6.493,0,0,1,1.274-.1h7.329c.1,0,.208-.052.208-.13a.35.35,0,0,0-.13-.233c-1.014-.83-1.326-1.089-2.391-1.919-.65.726-.832.959-1.481,1.737Zm1.689,6.975h2.547v.441c0,.337.13.389.806.389,1.378,0,1.741-.13,1.741-.648-.026-1.271-.026-1.4-.026-3.76.494-.285.624-.415.624-.57,0-.1-.078-.207-.286-.363-.728-.57-.988-.752-1.793-1.322-.546.545-.7.726-1.222,1.322h-2.235c-1.17-.6-1.533-.752-2.7-1.245.078,1.037.078,1.374.078,2.645,0,2,0,2.645-.078,4.175,0,.467.182.545.988.545,1.274,0,1.559-.13,1.559-.674Zm0-3.967h2.547V45.3H-177.4Zm-1.819,10.476c-.026,1.452-.026,1.452-.026,1.608v.57a1.481,1.481,0,0,0,.728,1.478c.546.311,1.429.389,4.73.389.832,0,3.2-.052,4.236-.078a7.193,7.193,0,0,0,1.975-.182,1.4,1.4,0,0,0,1.118-1.374,1.134,1.134,0,0,0-.312-.83,2.242,2.242,0,0,0-.832-.415c-.26-.078-.338-.207-.338-.519a.453.453,0,0,1,.026-.13l.182-2.93-.26-.052a18.079,18.079,0,0,1-1.533,3.578c-.312.467-.6.519-3.743.519a18.117,18.117,0,0,1-2.885-.1c-.26-.1-.312-.182-.312-.7V50.022c.728-.259.91-.363.91-.6,0-.337-.052-.337-3.769-.648a16.249,16.249,0,0,1,.1,1.815Zm4.7-3.552a10.035,10.035,0,0,1,2.053,3.423c.156.441.338.622.7.622a1.665,1.665,0,0,0,1.585-1.685,1.8,1.8,0,0,0-1.17-1.556,16.609,16.609,0,0,0-3.041-1.011Zm27.134,6.249a19.37,19.37,0,0,0,6-1.556c3.769-1.737,5.848-4.745,5.848-8.505,0-5.134-4.132-8.79-9.928-8.79a12.921,12.921,0,0,0-9.8,4.253,8.544,8.544,0,0,0-2.183,5.186,4.972,4.972,0,0,0,1.014,2.982,4.47,4.47,0,0,1,1.118,1.919,6.388,6.388,0,0,0,.6,1.711,1.712,1.712,0,0,0,1.4.752c1.3,0,2.807-1.426,4.5-4.227,1.871-3.138,3.2-6.768,3.2-8.842a3.851,3.851,0,0,0-1.2-2.775,8.1,8.1,0,0,1,1.04-.052c4.47,0,7.173,2.645,7.173,7.079a9.636,9.636,0,0,1-2.6,6.82,13.476,13.476,0,0,1-6.29,3.682Zm.052-17.814a2.479,2.479,0,0,1,.208.57,2.972,2.972,0,0,1,.1.856,15.389,15.389,0,0,1-2.079,5.731c-1.689,3.189-3.4,5.342-4.262,5.342-.884,0-1.767-1.841-1.767-3.63a8.832,8.832,0,0,1,2.781-6.171A9.43,9.43,0,0,1-147.328,37.239Zm18.661,0c1.144,2.152,2.365,2.9,4.652,2.9a7.362,7.362,0,0,0,.91-.052c-.1.985-.182,2.23-.312,3.76-3.743,1.711-6.108,4.227-6.108,6.457a2.538,2.538,0,0,0,.65,1.711,2.325,2.325,0,0,1,.494,1.089c.208.856.676,1.322,1.377,1.322,1.092,0,2.989-.985,4.626-2.386.65,1.556,1.118,2.126,1.715,2.126s1.144-.856,1.144-1.815a1.58,1.58,0,0,0-.338-1.063,5.742,5.742,0,0,1-.6-1.011,15.092,15.092,0,0,0,4.288-6.846,4.824,4.824,0,0,1,2.573,1.037,4.3,4.3,0,0,1,1.507,3.5A7.022,7.022,0,0,1-114.242,53a12.7,12.7,0,0,1-6.186,3.06l.078.311a18.657,18.657,0,0,0,6.342-1.271c3.2-1.271,5.016-3.63,5.016-6.431,0-3.371-2.651-5.679-7.147-6.2a2.434,2.434,0,0,0-1.845-1.66,2.736,2.736,0,0,0-.338.052,1.967,1.967,0,0,1,.832,1.634,17.289,17.289,0,0,0-3.873.674,29.521,29.521,0,0,1,.468-3.293,38.014,38.014,0,0,0,5.25-1.193c2.079-.7,2.729-1.089,2.729-1.737a.926.926,0,0,0-.65-.856,4.1,4.1,0,0,0-1.4-.337,1.156,1.156,0,0,0-.91.311,10.709,10.709,0,0,1-4.6,1.945,4.981,4.981,0,0,1,.91-1.971c.286-.337.364-.493.364-.752,0-.519-.39-.908-1.248-1.3a7.77,7.77,0,0,0-2.937-.674,1.987,1.987,0,0,0-1.274.363c1.481.415,1.975.908,1.975,2.023,0,.519-.1,1.478-.26,2.749a9.313,9.313,0,0,1-1.793.156,4.227,4.227,0,0,1-3.639-1.556Zm5.25,7.831v.674a21.5,21.5,0,0,0,.39,4.227,7.517,7.517,0,0,1-3.535,1.867c-.494,0-.806-.519-.806-1.374C-127.367,48.519-125.911,46.548-123.416,45.07Zm2-.882a11.36,11.36,0,0,1,3.769-.856,13.87,13.87,0,0,1-3.457,5.056,15.358,15.358,0,0,1-.338-3.4C-121.441,44.836-121.441,44.577-121.415,44.188Zm24.873,2.049c.52-.545.52-.545,1.845-1.945,1.871-1.971,2.417-2.515,3.795-3.812,2.157-2.049,2.339-2.178,3.119-2.593.676-.363.832-.545.832-.882a1.867,1.867,0,0,0-.52-1.115,4.1,4.1,0,0,0-2.235-1.556h-.052a1.288,1.288,0,0,0-.832.363,6.425,6.425,0,0,1-2.339.985,18.113,18.113,0,0,1-3.873.8c-.962,0-1.741-.674-2.261-1.945a2.12,2.12,0,0,0-.234.933,4.14,4.14,0,0,0,.754,2.152c.546.83,1.092,1.219,1.663,1.219a2.563,2.563,0,0,0,1.144-.363c1.092-.519,1.092-.519,1.949-.908.65-.285,1.118-.493,1.3-.57.65-.311,1.118-.493,1.326-.6a3.327,3.327,0,0,0,.52-.207h.026a.091.091,0,0,1,.052.026c0,.078,0,.078-2.5,3.267a69.925,69.925,0,0,1-6.913,7.52c-1.092.882-1.222,1.063-1.222,1.789,0,1.193.65,2.334,1.352,2.334A1.089,1.089,0,0,0-99.3,50.9c.234-.156.286-.233.728-.83a16.854,16.854,0,0,1,2.989-3.086,8.724,8.724,0,0,1,5.224-1.919c2.5,0,3.873,1.3,3.873,3.63a4.726,4.726,0,0,1-2.7,4.486,5.06,5.06,0,0,0-4.652-3.008c-1.949,0-3.3,1.089-3.3,2.645,0,1.867,1.949,3.086,4.912,3.086,5.016,0,8.707-2.852,8.707-6.742,0-3.138-2.443-5.29-6.03-5.29a12.48,12.48,0,0,0-6.965,2.386Zm4.99,7.857a6.145,6.145,0,0,1-1.663.207c-1.741,0-2.963-.674-2.963-1.634,0-.726.65-1.245,1.585-1.245A3.261,3.261,0,0,1-91.552,54.094Zm27.524-17.788V34.231c.806-.207,1.118-.389,1.118-.674,0-.156-.1-.259-.338-.337-.338-.13-.6-.182-3.873-.467a9.454,9.454,0,0,1,.13,1.919v1.66h-6.939a7.425,7.425,0,0,1-2.105-.259l.182.985a9.211,9.211,0,0,1,1.923-.13h19.545c.13,0,.26-.1.26-.182a.586.586,0,0,0-.1-.233c-1.3-1.011-1.715-1.322-3.041-2.308-.936,1.037-.936,1.037-1.9,2.1Zm-5.2,6.535a2.331,2.331,0,0,0,1.637-2.074,2.929,2.929,0,0,0-1.326-2.1,14.948,14.948,0,0,0-2.573-1.53l-.26.233a7.308,7.308,0,0,1,1.326,4.3c.026.752.182,1.037.6,1.167h-4.938a9.508,9.508,0,0,1-2.443-.233l.182,1.011a11.664,11.664,0,0,1,2.287-.182H-53.4c.208,0,.338-.078.338-.182a.515.515,0,0,0-.156-.233c-1.3-1.037-1.689-1.348-3.067-2.386-.832.959-1.092,1.271-1.9,2.2h-4.626a40.674,40.674,0,0,0,3.587-3.656c1.066-.13,1.351-.259,1.351-.519,0-.285-.182-.363-4.132-1.608a15.734,15.734,0,0,1-.988,3.5c-.416,1.089-.65,1.66-.936,2.282Zm-.884,12.395h9.331V56.3c.026.415.156.493.832.493a4.387,4.387,0,0,0,2.027-.285.52.52,0,0,0,.182-.415c-.052-1.763-.078-3.138-.078-8.013V47.17c.728-.363.936-.545.936-.8,0-.13-.1-.233-.338-.389-.962-.674-1.274-.882-2.339-1.556l-1.352,1.53h-8.863A35.29,35.29,0,0,0-73.1,44.37c.078,1.063.1,1.634.1,2.593,0,7.364,0,7.364-.1,9.309,0,.467.156.57.832.57,1.715,0,2.105-.13,2.157-.674Zm9.331-5.186H-70.11v-3.5h9.331Zm0,.6v3.993H-70.11V50.645Zm12.553-12.939a4.911,4.911,0,0,0,1.559,1.789,5.334,5.334,0,0,0,2.963.778c.182,0,.442-.026.858-.052a20.667,20.667,0,0,1-4.08,4.616c-.806.545-.832.57-1.014.83a1.537,1.537,0,0,0-.208.8c0,1.219.494,2.126,1.144,2.126.416,0,.65-.182,1.326-1.037,2.027-2.619,3.847-3.941,5.432-3.941A1.391,1.391,0,0,1-39,44.344a4.209,4.209,0,0,1,.312,1.815,19.856,19.856,0,0,0-3.067,2.23,5.384,5.384,0,0,0-1.975,3.786A3.184,3.184,0,0,0-42.222,55c1.248.778,3.015,1.115,5.874,1.115a20.617,20.617,0,0,0,5.068-.441c.6-.182.962-.57.962-1.037a1.773,1.773,0,0,0-.858-1.374,3.181,3.181,0,0,0-1.585-.6,3.019,3.019,0,0,0-1.092.311,15.909,15.909,0,0,1-4.782.7c-2.651,0-3.873-.57-3.873-1.815,0-1.322,1.04-2.412,3.821-3.967,0,.7-.026,1.063-.052,1.66-.078.959-.078.959-.078,1.037a1.037,1.037,0,0,0,1.144,1.089,1.414,1.414,0,0,0,1.274-.674,5.422,5.422,0,0,0,.208-2.126c0-.259,0-.311-.052-2.049a36.155,36.155,0,0,1,7.017-2.463c.754-.182,1.014-.441,1.014-.959,0-1.348-2.287-3.319-3.821-3.319a2.164,2.164,0,0,0-.806.156c.936.441,1.429.933,1.429,1.452,0,.233-.156.467-.52.7-.52.337-1.455.882-2.235,1.271-2.027,1.011-2.027,1.011-2.469,1.271a2.971,2.971,0,0,0-.728-1.374,3.041,3.041,0,0,0-2.209-.882,7.474,7.474,0,0,0-3.717,1.167c.364-.493.364-.493,1.352-1.945.286-.415.494-.726,1.274-1.841a35.477,35.477,0,0,0,5.38-1.322c1.689-.57,2.157-.856,2.157-1.4,0-.674-.962-1.245-2.105-1.245a1.046,1.046,0,0,0-.728.259c-.884.726-1.118.856-3.431,1.66A17.938,17.938,0,0,1-38.012,36.1a1.311,1.311,0,0,0,.442-.8c0-.441-.416-.83-1.144-1.141a8.361,8.361,0,0,0-2.937-.6,2.312,2.312,0,0,0-1.4.389c1.481.337,2.079.8,2.079,1.685a6.94,6.94,0,0,1-.91,2.852,10.671,10.671,0,0,1-2.573.311,4.626,4.626,0,0,1-3.561-1.271Zm39.869,5.471A16.542,16.542,0,0,0-3.237,48.6,9.021,9.021,0,0,0-.871,49.815c.13,0,.208-.078.286-.259a3.491,3.491,0,0,1,1.871-2.489l.026-.311c-3.691-.545-5.952-1.53-8.187-3.578H.714c.208,0,.338-.078.338-.182,0-.078-.052-.156-.156-.285-1.2-.959-1.559-1.245-2.781-2.2-.806.908-1.066,1.193-1.9,2.126H-7.421a10.15,10.15,0,0,1-1.949-2.9H-1.6c.182,0,.286-.078.286-.182q0-.078-.156-.233c-1.144-.959-1.507-1.245-2.7-2.126-.754.856-.988,1.115-1.741,2h-6.03c.364-.934.546-1.53.858-2.593H-.17c.182,0,.286-.078.286-.156s-.052-.156-.156-.259A33.727,33.727,0,0,0-2.873,33.92c-.806.882-1.066,1.167-1.923,2.126h-6.16c.156-.6.234-.856.39-1.608,1.014-.285,1.274-.415,1.274-.674,0-.285-.442-.415-2.261-.622-.442-.078-1.144-.156-2.079-.285A15.144,15.144,0,0,1-14,36.046H-20.26a5.9,5.9,0,0,1-1.845-.233l.182.933a6.008,6.008,0,0,1,1.689-.156h6.108a26.457,26.457,0,0,1-.806,2.593h-4.21a6.011,6.011,0,0,1-1.767-.207l.182.908a6.575,6.575,0,0,1,1.559-.156h4.029a19.935,19.935,0,0,1-1.4,2.9h-4.5a6.379,6.379,0,0,1-1.949-.233l.156.959a6.3,6.3,0,0,1,1.715-.182h4.236a23,23,0,0,1-6.758,7.053l.156.285a20.9,20.9,0,0,0,6.991-4.434l.156.882a4.992,4.992,0,0,1,1.481-.156h1.507a8.751,8.751,0,0,1-.364,2.9h-4.938a6.376,6.376,0,0,1-1.819-.233l.156.934a8.353,8.353,0,0,1,1.637-.156h4.782a9.009,9.009,0,0,1-3.691,4.33,16.951,16.951,0,0,1-4.782,2.049l.078.285a19.063,19.063,0,0,0,6.835-1.711,9.218,9.218,0,0,0,3.821-3.475A20.371,20.371,0,0,1-4.64,56.479c.39.389.65.545.884.545.624,0,1.144-.8,1.144-1.711,0-1.348-.858-2.152-2.885-2.723a50.272,50.272,0,0,0-5.9-1.3,6.228,6.228,0,0,0,.442-1.037H-3c.182,0,.312-.078.312-.182,0-.078-.052-.156-.182-.285-1.092-.933-1.429-1.219-2.625-2.1-.754.856-.988,1.141-1.715,2.023h-3.561a15.1,15.1,0,0,0,.416-2.9h3.691c.13,0,.234-.078.234-.156a.35.35,0,0,0-.13-.233c-1.04-.908-1.377-1.167-2.443-1.971-.7.778-.91,1.011-1.585,1.815h-4.262a6.745,6.745,0,0,1-1.637-.182,15.074,15.074,0,0,0,2.417-2.9Zm-1.455-3.449a18.316,18.316,0,0,0,1.144,2.9h-5.042a20.811,20.811,0,0,0,1.533-2.9ZM4.69,37.55a1.647,1.647,0,0,0-.208.752c0,1.711,1.975,4.175,3.379,4.175a2.3,2.3,0,0,0,1.3-.441C10.486,41.025,16.1,39.028,20,38.2A15.177,15.177,0,0,0,15.84,41.18a9.774,9.774,0,0,0-2.911,6.509,7.091,7.091,0,0,0,2.7,5.757,9.349,9.349,0,0,0,5.536,1.971c1.222,0,1.819-.389,1.819-1.219a2.664,2.664,0,0,0-1.014-1.867,1.954,1.954,0,0,0-1.352-.545h-.26a1.547,1.547,0,0,1-.286.026A6.055,6.055,0,0,1,18,51.4a4.736,4.736,0,0,1-3.145-4.668,7.612,7.612,0,0,1,2.053-5.082,8.125,8.125,0,0,1,6.238-2.93c.312,0,.416,0,.754.026.286.026.52.052.676.052.78,0,1.274-.389,1.274-1.011a1.831,1.831,0,0,0-1.014-1.426,4.245,4.245,0,0,0-1.923-.726,2.58,2.58,0,0,0-.988.233,9.124,9.124,0,0,1-2.105.674c-3.145.674-4.5.985-5.77,1.322-5.224,1.322-6.16,1.53-6.991,1.53C6.042,39.391,5.288,38.82,4.69,37.55Zm16.374,5.134a11.432,11.432,0,0,1,3.067,3.449c.338.6.546.752.884.752.494,0,.806-.415.806-1.011,0-.83-.546-1.582-1.741-2.386A9.974,9.974,0,0,0,21.3,42.243Zm2.677-2.049A11.3,11.3,0,0,1,26.86,43.7c.39.545.572.7.858.7.468,0,.78-.415.78-1.037,0-.726-.468-1.322-1.507-2a9.091,9.091,0,0,0-3.041-1.141Zm14.867,5.6c.52-.545.52-.545,1.845-1.945,1.871-1.971,2.417-2.515,3.795-3.812,2.157-2.049,2.339-2.178,3.119-2.593.676-.363.832-.545.832-.882a1.867,1.867,0,0,0-.52-1.115,4.1,4.1,0,0,0-2.235-1.556h-.052a1.288,1.288,0,0,0-.832.363,6.425,6.425,0,0,1-2.339.985,18.113,18.113,0,0,1-3.873.8c-.962,0-1.741-.674-2.261-1.945a2.12,2.12,0,0,0-.234.933,4.14,4.14,0,0,0,.754,2.152c.546.83,1.092,1.219,1.663,1.219a2.563,2.563,0,0,0,1.144-.363c1.092-.519,1.092-.519,1.949-.908.65-.285,1.118-.493,1.3-.57.65-.311,1.118-.493,1.326-.6a3.327,3.327,0,0,0,.52-.207h.026a.091.091,0,0,1,.052.026c0,.078,0,.078-2.5,3.267a69.925,69.925,0,0,1-6.913,7.52c-1.092.882-1.222,1.063-1.222,1.789,0,1.193.65,2.334,1.352,2.334a1.089,1.089,0,0,0,.546-.233c.234-.156.286-.233.728-.83a16.855,16.855,0,0,1,2.989-3.086,8.724,8.724,0,0,1,5.224-1.919c2.5,0,3.873,1.3,3.873,3.63a4.726,4.726,0,0,1-2.7,4.486,5.059,5.059,0,0,0-4.652-3.008c-1.949,0-3.3,1.089-3.3,2.645,0,1.867,1.949,3.086,4.912,3.086,5.016,0,8.707-2.852,8.707-6.742,0-3.138-2.443-5.29-6.03-5.29a12.48,12.48,0,0,0-6.965,2.386Zm4.99,7.857a6.144,6.144,0,0,1-1.663.207c-1.741,0-2.963-.674-2.963-1.634,0-.726.65-1.245,1.585-1.245A3.261,3.261,0,0,1,43.6,54.094ZM68.7,45.329V43.384a15.716,15.716,0,0,1,5.822,4.045c.65.726.858.856,1.222.856.676,0,1.144-.726,1.144-1.815a2.6,2.6,0,0,0-1.9-2.541,19.529,19.529,0,0,0-6.29-1.322c.1-4.149.13-4.538.6-5.264a1.241,1.241,0,0,0,.208-.648c0-.545-.364-.959-1.3-1.5a7.016,7.016,0,0,0-3.2-1.011A1.7,1.7,0,0,0,64,34.438a3.374,3.374,0,0,1,1.793,1.348c.364.674.442,1.556.442,6.223,0,6.249-.156,8.79-.6,10.113a2.8,2.8,0,0,0-.208.985,4.378,4.378,0,0,0,.91,2.152,1.805,1.805,0,0,0,1.377.908.96.96,0,0,0,.884-.674,4.083,4.083,0,0,0,.182-1.608c0-.363-.026-.7-.026-1.167-.052-3.812-.052-4.3-.052-5.264Zm4.262-10.035a11.79,11.79,0,0,1,3.067,3.449c.338.6.546.752.884.752.468,0,.806-.415.806-1.011,0-.83-.546-1.582-1.741-2.386A9.974,9.974,0,0,0,73.2,34.853Zm2.677-2.049a11.3,11.3,0,0,1,3.119,3.06c.39.545.572.7.858.7.468,0,.78-.415.78-1.037,0-.726-.468-1.322-1.507-2a9.318,9.318,0,0,0-3.041-1.141ZM85.1,49.556a32.213,32.213,0,0,0,4.886-2.049,43.161,43.161,0,0,0,5.562-3.682c.364.493.442.856.442,2.178a29.988,29.988,0,0,1-.572,6.69,2.269,2.269,0,0,0-.156.83c0,1.089,1.429,2.671,2.391,2.671.728,0,1.066-.519,1.066-1.582,0-.259,0-.622-.026-.985-.156-4.927-.156-5.264-.182-6.457-.026-1.919-.052-2.178-.286-2.541a6.34,6.34,0,0,0-1.793-1.53c1.845-1.582,1.845-1.582,3.665-3.267,1.585-1.5,1.585-1.5,1.689-1.582.91-.648,1.04-.8,1.04-1.271,0-.6-.7-1.374-1.9-2.074a5.236,5.236,0,0,0-2.625-.882,3.048,3.048,0,0,0-.832.1c.962.493,1.559,1.167,1.559,1.711,0,.856-1.585,2.93-4.366,5.731a48.273,48.273,0,0,1-9.694,7.7Zm28.148-11.072a8.635,8.635,0,0,1,1.975,2.723,19.117,19.117,0,0,1,1.17,2.878c.208.726.442.985.858.985.884,0,1.611-1.037,1.611-2.308a2.484,2.484,0,0,0-1.014-2,13.713,13.713,0,0,0-4.444-2.489Zm5.848-1.478a10.314,10.314,0,0,1,2.651,4.9,11.05,11.05,0,0,0,.338,1.167.716.716,0,0,0,.676.467c.884,0,1.715-1.167,1.715-2.437,0-1.582-1.585-2.9-5.172-4.3Zm-1.9,18.981A24.339,24.339,0,0,0,126.2,49.5a32.262,32.262,0,0,0,4.7-6.923,10.867,10.867,0,0,1,1.352-2.178,1.314,1.314,0,0,0,.39-.882c0-.57-.442-1.089-1.377-1.711a6.534,6.534,0,0,0-3.2-1.219,1.861,1.861,0,0,0-.884.156c1.222.57,1.767,1.167,1.767,1.893a3.11,3.11,0,0,1-.078.726,26.388,26.388,0,0,1-2.079,4.9A33.644,33.644,0,0,1,117,55.7Zm31.968-.934a19.37,19.37,0,0,0,6-1.556c3.769-1.737,5.848-4.745,5.848-8.505,0-5.134-4.132-8.79-9.928-8.79a12.921,12.921,0,0,0-9.8,4.253,8.544,8.544,0,0,0-2.183,5.186,4.972,4.972,0,0,0,1.014,2.982,4.47,4.47,0,0,1,1.118,1.919,6.388,6.388,0,0,0,.6,1.711,1.712,1.712,0,0,0,1.4.752c1.3,0,2.807-1.426,4.5-4.227,1.871-3.138,3.2-6.768,3.2-8.842a3.851,3.851,0,0,0-1.2-2.775,8.1,8.1,0,0,1,1.04-.052c4.47,0,7.173,2.645,7.173,7.079a9.636,9.636,0,0,1-2.6,6.82,13.476,13.476,0,0,1-6.29,3.682Zm.052-17.814a2.479,2.479,0,0,1,.208.57,2.972,2.972,0,0,1,.1.856,15.389,15.389,0,0,1-2.079,5.731c-1.689,3.189-3.4,5.342-4.262,5.342-.884,0-1.767-1.841-1.767-3.63a8.832,8.832,0,0,1,2.781-6.171A9.43,9.43,0,0,1,149.223,37.239Zm18.557-1.193c1.533.415,2.131,1.037,2.235,2.386.052.493.078,1.815.078,2.671,0,.233,0,.985-.026,2.023v1.167a42.908,42.908,0,0,0,.182,5.368c.312,2.178,1.092,3.371,2.7,4.045a14.541,14.541,0,0,0,4.886.6,28.418,28.418,0,0,0,6.134-.57c.806-.233,1.144-.57,1.144-1.115,0-.467-.338-.908-1.014-1.374a3.245,3.245,0,0,0-1.507-.545,1.883,1.883,0,0,0-.91.259,6.364,6.364,0,0,1-1.559.493,29.126,29.126,0,0,1-4.392.389c-1.507,0-2.339-.207-2.807-.674s-.624-1.245-.624-3.034c0-.752.1-2.93.208-4.538a3.455,3.455,0,0,0,2.677,1.011,37.191,37.191,0,0,0,7.485-1.193c1.144-.285,1.585-.622,1.585-1.193,0-.441-.312-.83-.988-1.193a3.568,3.568,0,0,0-1.611-.493,1.576,1.576,0,0,0-.832.233,6.305,6.305,0,0,1-2.547,1.271,18.989,18.989,0,0,1-4.574.985,1.9,1.9,0,0,1-1.092-.259,10.729,10.729,0,0,1,.65-3.552c.338-.7.364-.8.364-1.115,0-.57-.442-1.063-1.455-1.556a7.729,7.729,0,0,0-3.119-.8A2.122,2.122,0,0,0,167.78,36.046ZM185.3,34.075a2.8,2.8,0,1,0,.026,5.6,2.8,2.8,0,0,0-.026-5.6Zm0,.908a1.88,1.88,0,1,1-1.871,1.893A1.873,1.873,0,0,1,185.3,34.983Zm11.436,21.159a15.676,15.676,0,0,0,3.821-2.619,16.433,16.433,0,0,0,4.7-7.261c.182-.493.468-1.478.91-2.956,3.249-1.245,4.132-1.608,6.394-2.671a4.415,4.415,0,0,1,1.014-.363,2.1,2.1,0,0,0,.78-.233.845.845,0,0,0,.52-.8c0-.57-.806-1.608-2.105-2.723-.832-.7-1.3-.959-1.767-.959a1.1,1.1,0,0,0-.468.1,4.365,4.365,0,0,1-1.559.415c-1.04.156-2.469.311-7.017.856a38.778,38.778,0,0,1-4.912.441,2.926,2.926,0,0,1-2.885-1.685,2.161,2.161,0,0,0-.156.752,4.656,4.656,0,0,0,.806,2.1,3.461,3.461,0,0,0,2.313,1.815,2.274,2.274,0,0,0,1.144-.363,18.084,18.084,0,0,1,4.574-1.5,45.556,45.556,0,0,1,7.121-.985c.728,0,.962.078.962.311,0,.545-2.833,3.319-4.886,4.745a8.454,8.454,0,0,0-4-1.737,1.246,1.246,0,0,0-.988.337,2.961,2.961,0,0,1,1.144.57,1.424,1.424,0,0,1,.65,1.271,20.085,20.085,0,0,1-1.481,5.938,18.838,18.838,0,0,1-4.834,6.975Zm21.1-.545a22.026,22.026,0,0,0,6.03-3.734,37.2,37.2,0,0,0,8.421-10.813c.806-1.5.91-1.634,1.326-2.023.442-.389.546-.57.546-.959a1.225,1.225,0,0,0-.39-.882,5.789,5.789,0,0,0-1.248-1.115,6.172,6.172,0,0,0-3.249-1.348,1.94,1.94,0,0,0-.858.156c1.274.674,1.819,1.348,1.819,2.2a6.188,6.188,0,0,1-.6,2.308,42.94,42.94,0,0,1-7.043,11.2,27.072,27.072,0,0,1-4.938,4.745ZM-243.8,89.732h-5.354v23.986h5.354v-.648h-1.455c-.988,0-1.144-.233-1.144-1.789V92.17c0-1.556.156-1.789,1.144-1.789h1.455Zm3.067,19.5a8.4,8.4,0,0,1,1.715-.233,6.1,6.1,0,0,1,.988.078,15.584,15.584,0,0,0,3.509.441,7.593,7.593,0,0,0,4.756-1.478,5.142,5.142,0,0,0,1.819-4.175,4.948,4.948,0,0,0-1.352-3.6,13.984,13.984,0,0,0-4.314-2.645,11.565,11.565,0,0,1-3.379-2,2.988,2.988,0,0,1-.858-2.178,3.216,3.216,0,0,1,3.379-3.371,4.021,4.021,0,0,1,3.587,2.049A6.5,6.5,0,0,1-230,95.359h1.04l.208-5.808a4.246,4.246,0,0,1-1.559.363,4.242,4.242,0,0,1-.91-.1,13.563,13.563,0,0,0-3.171-.441,7.637,7.637,0,0,0-3.327.6,5.262,5.262,0,0,0-3.067,4.849,4.692,4.692,0,0,0,2.131,4.123,20.338,20.338,0,0,0,3.4,1.841c3.249,1.582,4.262,2.645,4.262,4.408a3.337,3.337,0,0,1-3.665,3.578c-2.911,0-4.47-1.841-4.834-5.731h-1.04Zm15.854-.1H-210.3l.546-6.042-.858-.1c-.754,4.045-2.209,5.394-5.718,5.394h-2.859v-9h1.871c2.807,0,3.457.519,3.769,3.034h.832V95.644h-.832c-.286,2.437-.962,2.982-3.769,2.982h-1.871V90.484h2.547c3.665,0,5.042,1.193,5.588,4.8l.91-.026-.468-5.523h-14.269v.674c2.079.026,2.339.311,2.339,2.7v12.654c0,2.386-.234,2.645-2.339,2.7Zm18.323,0h8.317v-.674c-2.235-.078-2.469-.311-2.469-2.7V93.1c0-2.36.208-2.619,2.365-2.7v-.674h-8.109v.674c2.157.078,2.365.337,2.365,2.7v12.654c0,2.386-.208,2.619-2.469,2.7Zm11.02,0h14.347l.6-6.094-.91-.1a8.718,8.718,0,0,1-1.222,3.449c-.936,1.348-2.391,2-4.574,2h-2.391V93.1c0-2.36.208-2.619,2.365-2.7v-.674h-8.109v.674c2.157.078,2.365.337,2.365,2.7v12.654c0,2.36-.234,2.619-2.469,2.7Zm17,0h14.581l.546-6.042-.858-.1c-.754,4.045-2.209,5.394-5.718,5.394h-2.859v-9h1.871c2.807,0,3.457.519,3.769,3.034h.832V95.644h-.832c-.286,2.437-.962,2.982-3.769,2.982h-1.871V90.484h2.547c3.665,0,5.042,1.193,5.588,4.8l.91-.026-.468-5.523h-14.269v.674c2.079.026,2.339.311,2.339,2.7v12.654c0,2.386-.234,2.645-2.339,2.7Zm23.937-9.154h1.04c1.663,0,2.469.545,3.3,2.152a51.4,51.4,0,0,1,2.7,7h5.12v-.622c-1.222-.1-1.663-.6-2.677-2.956-1.248-2.9-1.689-3.708-2.547-4.434a5.526,5.526,0,0,0-3.223-1.374v-.207c4.106-.311,6.056-1.945,6.056-5.082a3.929,3.929,0,0,0-2.391-3.941,12.935,12.935,0,0,0-5.042-.778h-7.953v.674c2.027.1,2.235.337,2.235,2.7v12.68c0,2.36-.208,2.593-2.339,2.671v.674h8.057v-.674c-2.131-.078-2.339-.311-2.339-2.671Zm0-.752V90.484h1.585c3.093,0,4.574,1.374,4.574,4.279s-1.663,4.46-4.756,4.46Zm32.384,12.317a12.839,12.839,0,0,0,6.55-4.538c1.455-2.074,1.9-4.2,2.027-9.7h.832a43.324,43.324,0,0,1,4.34.182,2.878,2.878,0,0,0,.416.026.764.764,0,0,0,.832-.778c0-.415-.286-.8-.962-1.219a3.857,3.857,0,0,0-1.819-.674,1.463,1.463,0,0,0-.7.182,6.928,6.928,0,0,1-2.885.57c.13-2.256.182-2.645.572-3.527a1.348,1.348,0,0,0,.156-.622c0-.519-.338-.908-1.118-1.271a7.869,7.869,0,0,0-3.275-.778,1.789,1.789,0,0,0-1.248.363,3.137,3.137,0,0,1,1.9,1.011c.39.467.52,1.245.52,3.086,0,.985,0,1.66-.026,2.049-2.313.259-4.055.493-5.25.674a9.355,9.355,0,0,1,.312-2.23,2.053,2.053,0,0,0,.182-.8c0-.441-.234-.778-.91-1.219a6.888,6.888,0,0,0-3.171-1.115,1.336,1.336,0,0,0-.858.259c1.819.856,2.105,1.556,2.131,5.445a26.662,26.662,0,0,1-4,.57,2.99,2.99,0,0,1-2.521-1.322,1.91,1.91,0,0,0-.052.311,3.2,3.2,0,0,0,.468,1.348c.7,1.193,1.689,2.049,2.339,2.049a2.6,2.6,0,0,0,1.04-.311,9.526,9.526,0,0,1,2.755-.985,10.054,10.054,0,0,1-.442,3.449,2.063,2.063,0,0,0-.182.726,3.2,3.2,0,0,0,.572,1.53c.442.622.884.959,1.326.959.728,0,1.066-.622,1.066-1.919v-.182c-.026-.726-.052-2.852-.052-3.682v-1.4a30.892,30.892,0,0,1,5.25-.674,21.468,21.468,0,0,1-1.352,8.453,12.022,12.022,0,0,1-4.938,5.471Zm9.694-23.026a10.052,10.052,0,0,1,2.313,3.5c.26.726.468.959.806.959.494,0,.806-.415.806-1.063a3.213,3.213,0,0,0-1.17-2.256,7,7,0,0,0-2.391-1.452Zm2.755-1.219a9.159,9.159,0,0,1,2.5,3.293c.338.726.468.882.832.882.468,0,.754-.389.754-1.011a2.923,2.923,0,0,0-1.3-2.23,7.47,7.47,0,0,0-2.417-1.271Zm5.224,17.114a32.213,32.213,0,0,0,4.886-2.049A43.16,43.16,0,0,0-94.1,98.678c.364.493.442.856.442,2.178a29.988,29.988,0,0,1-.572,6.69,2.269,2.269,0,0,0-.156.83c0,1.089,1.429,2.671,2.391,2.671.728,0,1.066-.519,1.066-1.582,0-.259,0-.622-.026-.985-.156-4.927-.156-5.264-.182-6.457-.026-1.919-.052-2.178-.286-2.541a6.34,6.34,0,0,0-1.793-1.53c1.845-1.582,1.845-1.582,3.665-3.267,1.585-1.5,1.585-1.5,1.689-1.582.91-.648,1.04-.8,1.04-1.271,0-.6-.7-1.374-1.9-2.074a5.236,5.236,0,0,0-2.625-.882,3.047,3.047,0,0,0-.832.1c.962.493,1.559,1.167,1.559,1.711,0,.856-1.585,2.93-4.366,5.731a48.273,48.273,0,0,1-9.694,7.7Zm31.734-14.288c1.248,2.23,2.313,2.982,4.34,2.982a56.838,56.838,0,0,0,6.16-.674c1.585-.259,2-.467,2-1.063,0-.363-.182-.648-.65-.985a4.352,4.352,0,0,0-2.053-.83,1.046,1.046,0,0,0-.676.207,14.005,14.005,0,0,1-5.978,1.5,3.684,3.684,0,0,1-2.859-1.322Zm1.144,21.056c5.38-2.074,9.253-5.653,12.293-11.384a4.689,4.689,0,0,1,1.2-1.685c.39-.311.494-.467.494-.8,0-.415-.39-.959-1.2-1.66a3.465,3.465,0,0,0-1.689-.985,1.2,1.2,0,0,0-.728.207c-.6.415-.65.441-2.209.7-3.4.6-8.005,1.245-8.993,1.245a2.917,2.917,0,0,1-2.729-1.685,1.259,1.259,0,0,0-.156.6c0,1.4,1.845,3.656,2.937,3.656a2.161,2.161,0,0,0,.988-.259,12.557,12.557,0,0,1,3.015-1.011,45.366,45.366,0,0,1,6.913-1.3,27.732,27.732,0,0,1-4.132,7.857,28.572,28.572,0,0,1-6.16,6.249Zm21.832-14.6a.966.966,0,0,0-.312.856,5.689,5.689,0,0,0,.91,2.7c.6,1.037,1.3,1.608,1.923,1.608a2.337,2.337,0,0,0,.884-.207,3.034,3.034,0,0,1,1.144-.233c1.9-.078,2.027-.1,3.223-.1,7.849-.052,10.136-.13,11.592-.311,1.118-.156,1.689-.57,1.689-1.219a1.015,1.015,0,0,0-.312-.778c-.416-.363-1.222-.467-3.821-.467-.78,0-2.469,0-2.911.026-4.5.1-9.253.182-10.292.182a3.975,3.975,0,0,1-2.6-.545A3.967,3.967,0,0,1-49.837,96.578Zm25,17.14h5.354V89.732h-5.354v.648h1.455c.988,0,1.144.233,1.144,1.789v19.111c0,1.556-.156,1.789-1.144,1.789h-1.455Zm11.774-21.159A4.911,4.911,0,0,0-11.5,94.348a5.334,5.334,0,0,0,2.963.778c.182,0,.442-.026.858-.052a20.667,20.667,0,0,1-4.08,4.616c-.806.545-.832.57-1.014.83a1.537,1.537,0,0,0-.208.8c0,1.219.494,2.126,1.144,2.126.416,0,.65-.182,1.326-1.037,2.027-2.619,3.847-3.941,5.432-3.941a1.391,1.391,0,0,1,1.248.726,4.209,4.209,0,0,1,.312,1.815,19.855,19.855,0,0,0-3.067,2.23,5.384,5.384,0,0,0-1.975,3.786,3.184,3.184,0,0,0,1.507,2.826c1.248.778,3.015,1.115,5.874,1.115a20.617,20.617,0,0,0,5.068-.441c.6-.182.962-.57.962-1.037a1.773,1.773,0,0,0-.858-1.374,3.181,3.181,0,0,0-1.585-.6,3.019,3.019,0,0,0-1.092.311,15.91,15.91,0,0,1-4.782.7c-2.651,0-3.873-.57-3.873-1.815,0-1.322,1.04-2.412,3.821-3.967,0,.7-.026,1.063-.052,1.66-.078.959-.078.959-.078,1.037a1.037,1.037,0,0,0,1.144,1.089,1.414,1.414,0,0,0,1.274-.674,5.422,5.422,0,0,0,.208-2.126c0-.259,0-.311-.052-2.049a36.157,36.157,0,0,1,7.017-2.463c.754-.182,1.014-.441,1.014-.959,0-1.348-2.287-3.319-3.821-3.319a2.164,2.164,0,0,0-.806.156c.936.441,1.429.934,1.429,1.452,0,.233-.156.467-.52.7-.52.337-1.455.882-2.235,1.271-2.027,1.011-2.027,1.011-2.469,1.271A2.971,2.971,0,0,0-2.2,98.419a3.041,3.041,0,0,0-2.209-.882A7.474,7.474,0,0,0-8.123,98.7c.364-.493.364-.493,1.352-1.945.286-.415.494-.726,1.274-1.841A35.477,35.477,0,0,0-.118,93.6c1.689-.57,2.157-.856,2.157-1.4,0-.674-.962-1.245-2.105-1.245a1.046,1.046,0,0,0-.728.259c-.884.726-1.118.856-3.431,1.66a17.937,17.937,0,0,1,1.377-1.919,1.311,1.311,0,0,0,.442-.8c0-.441-.416-.83-1.144-1.141a8.361,8.361,0,0,0-2.937-.6,2.312,2.312,0,0,0-1.4.389c1.481.337,2.079.8,2.079,1.685a6.94,6.94,0,0,1-.91,2.852,10.671,10.671,0,0,1-2.573.311,4.626,4.626,0,0,1-3.561-1.271Zm36.672,10.009h2.781v1.193l-.026,2.023H21.948a10.908,10.908,0,0,1-2.235-.233l.156.959a13.538,13.538,0,0,1,2.105-.182h4.392c-.026,3.241-.026,3.241-.078,5,0,.415.156.493.962.493,1.507,0,1.819-.13,1.819-.674-.026-.726-.052-2.334-.1-4.823h7.2c.156,0,.286-.078.286-.182,0-.078-.052-.156-.156-.285-1.118-.934-1.455-1.193-2.651-2.1-.806.83-1.066,1.115-1.871,2.023H28.94v-3.215h3.067v.7c0,.441.1.519.754.519a9.948,9.948,0,0,0,1.455-.1c.312-.078.39-.182.416-.493-.078-3.63-.1-4.019-.1-8.35.65-.363.858-.545.858-.726,0-.1-.078-.207-.286-.389-.832-.648-1.092-.83-1.975-1.426-.6.622-.754.83-1.3,1.478H30.057a40.154,40.154,0,0,0,4.132-3.916c.91-.026,1.274-.156,1.274-.441,0-.311-.806-.648-3.847-1.634a23.475,23.475,0,0,1-2.261,5.99H23.689c-.182-.1-.234-.13-.39-.207A2.17,2.17,0,0,0,24.807,91.5c0-1.115-1.04-2.023-3.873-3.449l-.208.156a10.657,10.657,0,0,1,1.689,4.175,2.978,2.978,0,0,0,.234.83c-.39-.207-.832-.415-1.689-.8.078,1.478.1,3.06.1,5.7,0,2,0,2.515-.078,5.445,0,.467.156.545.884.545,1.455,0,1.741-.1,1.741-.674Zm0-.545V98.315h2.781v3.708Zm0-4.253V94.322h2.781v3.449Zm5.328-3.449h3.067v3.449H28.94Zm3.067,3.993v3.708H28.94V98.315ZM14.8,100.13c.1-.7.13-.933.208-1.608.208-1.685.338-2.723.364-3.06h1.611v.856c0,.389.156.467.936.467,1.352,0,1.689-.13,1.689-.622-.052-1.893-.052-3.086-.052-3.993V90.536c.65-.311.858-.467.858-.674,0-.13-.078-.233-.312-.415a21.425,21.425,0,0,0-2.027-1.452c-.546.622-.7.8-1.248,1.452H13.969a7.759,7.759,0,0,1-1.9-.233l.182.934a10.277,10.277,0,0,1,1.715-.156h3.015v4.927h-1.3a20.212,20.212,0,0,0-2.677-1.452,57.438,57.438,0,0,1-1.04,8.194,1.485,1.485,0,0,0-.026.311c0,.285.39.389,1.533.389.728,0,.91-.1,1.04-.545.1-.545.156-.752.208-1.141h2.261a60.471,60.471,0,0,1-.806,6.794c-.182,1.063-.364,1.374-.806,1.374-.468,0-2.053-.156-3.587-.363l-.026.337c1.559.57,1.871.726,2.183,1.037a1.706,1.706,0,0,1,.52,1.374c0,.389.078.467.468.467a7.451,7.451,0,0,0,.858-.1,2.738,2.738,0,0,0,2.261-1.348c.6-1.037.91-3.112,1.455-8.972.676-.337.806-.441.806-.622,0-.13-.078-.233-.286-.415-.806-.648-1.066-.83-1.923-1.478-.572.57-.754.752-1.326,1.374ZM24.859,87.839a9.342,9.342,0,0,1,1.689,4.019c.208,1.115.338,1.348.728,1.348a2.23,2.23,0,0,0,1.767-2.074c0-1.089-1.144-2.074-3.977-3.475ZM49.316,98.523c-1.144,1.737-2.157,3.423-3.847,6.327a2.572,2.572,0,0,1-1.014-1.452,10.411,10.411,0,0,1-.52-3.293,14.459,14.459,0,0,1,.572-3.838,4.047,4.047,0,0,0,.182-.959,2,2,0,0,0-.234-1.011,6.608,6.608,0,0,0-2.677-2.671A2.974,2.974,0,0,0,40.011,91a5.149,5.149,0,0,1,1.533,4.279V95.7c-.052,2.282-.052,2.282-.052,2.463,0,3.5.65,6.223,1.949,8.194.988,1.478,2.365,2.489,3.431,2.489A1.215,1.215,0,0,0,48.12,107.6a2.018,2.018,0,0,0-.078-.57,4.1,4.1,0,0,1-.364-1.582,11.475,11.475,0,0,1,.338-2.178,31.993,31.993,0,0,1,1.559-4.616Zm5.094-4.279a6.7,6.7,0,0,1,3.483,3.527,9.981,9.981,0,0,1,.832,3.734c0,.519-.078.622-.546.83-.416.182-1.4.493-3.691,1.167l.052.259c2.807.052,3.353.156,3.977.856a1.237,1.237,0,0,0,1.04.545c1.274,0,2.157-1.245,2.157-3.008a8,8,0,0,0-1.819-5.186,8.129,8.129,0,0,0-5.38-3.008Zm11.7-1.945a1.571,1.571,0,0,0-.208.752c0,1.711,1.975,4.175,3.379,4.175a2.3,2.3,0,0,0,1.3-.441A16.307,16.307,0,0,1,74.4,95.022a54.043,54.043,0,0,1,7.017-2.074,15.6,15.6,0,0,0-4.158,2.982,9.723,9.723,0,0,0-2.911,6.509,7.126,7.126,0,0,0,2.7,5.757,9.334,9.334,0,0,0,5.51,1.971c1.248,0,1.845-.415,1.845-1.245a2.715,2.715,0,0,0-1.014-1.841,1.954,1.954,0,0,0-1.352-.545h-.26a1.4,1.4,0,0,1-.286.026,6.176,6.176,0,0,1-2.079-.415,4.747,4.747,0,0,1-3.119-4.668,7.773,7.773,0,0,1,2.027-5.108,8.265,8.265,0,0,1,6.238-2.9c.312,0,.416,0,.754.026.286.026.52.052.676.052.78,0,1.274-.389,1.274-1.011a1.831,1.831,0,0,0-1.014-1.426A4.33,4.33,0,0,0,84.3,90.38a2.573,2.573,0,0,0-.962.233,8.735,8.735,0,0,1-2.105.674c-3.561.778-4.47.985-5.77,1.322-5.224,1.322-6.16,1.53-6.991,1.53A2.6,2.6,0,0,1,66.106,92.3Zm34.853,19.111a12.67,12.67,0,0,0,4.756-2.256,13.308,13.308,0,0,0,3.925-4.953,21.1,21.1,0,0,1,3.015,2.593c.416.441.7.6.962.6.546,0,.988-.726.988-1.634a2.928,2.928,0,0,0-.988-2.152,11.025,11.025,0,0,0-2.963-1.867c.754-2.2,1.144-3.319,1.17-3.4.338-.752.364-.83.364-1.167,0-.648-.39-1.167-1.274-1.737a6.306,6.306,0,0,0-2.781-1.011,1.037,1.037,0,0,0-.546.156c1.066.622,1.507,1.219,1.507,2.1a16.63,16.63,0,0,1-.884,4.1,25.668,25.668,0,0,0-6.706-1.5c.364-.674.494-.908,1.014-1.841,1.845-3.371,2.079-3.682,2.807-4.253a1,1,0,0,0,.52-.83c0-.959-1.715-2.775-2.625-2.775a.953.953,0,0,0-.7.311,2.148,2.148,0,0,1-1.3.648,13.032,13.032,0,0,1-2.885.441c-1.118,0-1.689-.441-2.183-1.66a1.6,1.6,0,0,0-.286.959c0,1.452.988,2.852,2,2.852a2.309,2.309,0,0,0,1.014-.285,31.708,31.708,0,0,1,3.483-1.348,67.4,67.4,0,0,1-3.2,7.727,8.351,8.351,0,0,0-5.224,1.789,5.236,5.236,0,0,0-1.871,3.941c0,1.763,1.014,3.164,2.313,3.164.858,0,1.871-.7,2.989-2.1a35.686,35.686,0,0,0,3.353-5.16,17.116,17.116,0,0,1,6.758,2.126c-1.689,4.045-3.431,6.2-6.654,8.22ZM98.49,100.649c-1.611,3.267-2.937,5.082-3.717,5.082-.6,0-1.118-.856-1.118-1.867a2.864,2.864,0,0,1,1.014-2.2A6.811,6.811,0,0,1,98.49,100.649Zm22.664-8.116c1.455,2.386,2.885,3.086,6.108,3.086.7,0,1.455-.026,2.261-.1,0,.856.026,2.9.026,3.475a23.25,23.25,0,0,1-2.781.182c-1.585,0-2.6-.233-3.015-.7a1.876,1.876,0,0,1-.442-1.348l-.26-.026a4.038,4.038,0,0,0-.13.933c0,1.815,1.663,2.749,4.938,2.749.338,0,.572,0,1.689-.052v3.449h-.442c-3.977,0-6.784,1.478-6.784,3.6,0,1.815,2.183,3.164,5.12,3.164a6.255,6.255,0,0,0,3.509-.934,2.806,2.806,0,0,0,1.092-2.437,6.456,6.456,0,0,0-.052-.933,11.924,11.924,0,0,1,4.418,2.7c.78.8.858.856,1.248.856.572,0,.962-.6.962-1.53a2.7,2.7,0,0,0-1.533-2.437,15.176,15.176,0,0,0-5.224-1.867,28.6,28.6,0,0,1-.286-3.812,30.728,30.728,0,0,0,4.314-.83c1.689-.467,2.261-.8,2.261-1.374a.756.756,0,0,0-.39-.674,3.218,3.218,0,0,0-1.637-.519c-.286,0-.364.026-.754.285a10.42,10.42,0,0,1-3.847,1.219V96.915c0-.467,0-.83.052-1.582a44.4,44.4,0,0,0,5.692-1.167c1.092-.337,1.533-.648,1.533-1.141a.941.941,0,0,0-.468-.752,3.26,3.26,0,0,0-1.715-.6,1.327,1.327,0,0,0-.7.233c-.988.674-1.793.959-4.184,1.452a5.242,5.242,0,0,1,.572-2.2,1.675,1.675,0,0,0,.338-.934c0-.493-.338-.856-1.092-1.141a9.056,9.056,0,0,0-2.937-.467,2,2,0,0,0-1.715.545c1.248.1,2,.545,2.235,1.374a14.035,14.035,0,0,1,.312,3.241,26.755,26.755,0,0,1-3.4.259,5.779,5.779,0,0,1-4.652-1.685Zm8.317,13.562a3.8,3.8,0,0,1-.286,1.919c-.416.7-1.715,1.167-3.275,1.167-1.689,0-2.7-.519-2.7-1.4,0-1.115,1.637-1.893,4.029-1.893A11.943,11.943,0,0,1,129.471,106.094Zm25.886-5.186c2.625,2.489,2.625,2.489,2.755,3.241.13.674.39.934.936.934a2.411,2.411,0,0,0,1.248-.389,3.443,3.443,0,0,0,1.429-2.023,29.154,29.154,0,0,0,.806-5.471,23.792,23.792,0,0,1,2.833-.182c.416,0,1.222,0,1.507.026.962.026.962.026,1.092.026q1.248,0,1.248-.778a1.081,1.081,0,0,0-.546-.959,4.726,4.726,0,0,0-2.417-.934,1.841,1.841,0,0,0-.754.207,8.045,8.045,0,0,1-2.807.882,11.634,11.634,0,0,1,.728-3.371,1.513,1.513,0,0,0,.26-.83c0-.57-.26-.933-1.014-1.4a7.357,7.357,0,0,0-3.4-1.063,1.665,1.665,0,0,0-1.17.363,3.277,3.277,0,0,1,1.559.856c.624.6.806,1.193.806,2.619,0,1.271,0,1.582-.078,3.293l-3.587.726c-.39.078-1.04.207-2.859.648a8.274,8.274,0,0,1,.39-2.412,2,2,0,0,0,.156-.726c0-.674-.494-1.193-1.637-1.66a7.163,7.163,0,0,0-2.625-.57,2.12,2.12,0,0,0-1.3.337c1.352.415,2.079,1.011,2.313,1.893a17.12,17.12,0,0,1,.26,2.23c.026,1.245.026,1.245.052,1.5a19.8,19.8,0,0,1-4,.778,2.894,2.894,0,0,1-2.6-1.452,2.951,2.951,0,0,0-.078.545,3.853,3.853,0,0,0,.78,1.893,3.1,3.1,0,0,0,2.261,1.582,1.593,1.593,0,0,0,.858-.285,12.513,12.513,0,0,1,2.833-1.3c.052,2.334.078,3.138.13,3.838.156,2.2.468,3.527,1.118,4.408,1.118,1.608,3.119,2.23,7.147,2.23a19.625,19.625,0,0,0,5.042-.519,1.139,1.139,0,0,0,.884-1.037,1.511,1.511,0,0,0-.676-1.167,3.158,3.158,0,0,0-1.715-.778,2.114,2.114,0,0,0-1.014.259,14.266,14.266,0,0,1-4.782.726,4.853,4.853,0,0,1-3.015-.622c-.806-.6-1.014-1.556-1.014-4.512,0-1.322.026-2.178.13-3.578a34.955,34.955,0,0,1,6.446-1.478,28.865,28.865,0,0,1-.624,4.149c-.13.415-.286.6-.52.6a11.734,11.734,0,0,1-3.613-1.5Zm40.181-.285a12.373,12.373,0,0,1-3.2,4.823,6.7,6.7,0,0,1-4.158,2.023,1.664,1.664,0,0,1-1.092-.337c-.364-.311-.546-.882-.754-2.126a7.788,7.788,0,0,0-.65-2.7,3.352,3.352,0,0,0-3.145-1.945c-1.3,0-2.625.648-4.236,2.074h-.026c.442-.726.442-.726,1.248-2.074,1.092-1.789,1.092-1.789,2.911-4.693a18.78,18.78,0,0,1,1.949-2.8c.52-.545.624-.752.624-1.141,0-.6-.416-1.115-1.3-1.711a7.206,7.206,0,0,0-3.431-1.271,1.907,1.907,0,0,0-1.014.259c1.352.545,1.949,1.193,1.949,2.074,0,.856-.6,2.541-1.845,5.186a68.1,68.1,0,0,1-5.2,9.387c-.676.882-.78,1.115-.78,1.737a5.652,5.652,0,0,0,.416,1.841c.26.622.65.959,1.118.959.572,0,.91-.363,1.2-1.193a16.868,16.868,0,0,1,2.339-5.186c1.092-1.556,2.287-2.386,3.483-2.386,1.326,0,1.845.856,1.975,3.189a12.6,12.6,0,0,0,.1,1.737,5.25,5.25,0,0,0,.78,2.749,3.556,3.556,0,0,0,2.937,1.245,7.169,7.169,0,0,0,5.666-3.267,14.32,14.32,0,0,0,2.417-6.379Zm9.331,5.186c1.741,1.5,2.469,2.386,2.521,2.982.052.778.052.778.182.985a1.008,1.008,0,0,0,.884.415,4.262,4.262,0,0,0,3.249-1.685c1.429-1.763,2.625-5.834,2.625-9.024a5.379,5.379,0,0,0-.858-3.552,3.316,3.316,0,0,0-2.807-1.167,8.293,8.293,0,0,0-1.9.233,17.4,17.4,0,0,1,1.611-3.241,1.509,1.509,0,0,0,.338-.882c0-.7-.78-1.3-2.261-1.763a8.624,8.624,0,0,0-2.261-.389,1.69,1.69,0,0,0-1.014.311c1.481.493,2.105,1.141,2.105,2.178a14.472,14.472,0,0,1-.91,4.175,20.952,20.952,0,0,1-4,.778,2.339,2.339,0,0,1-2.287-1.608,1.535,1.535,0,0,0-.156.674,4.747,4.747,0,0,0,.884,2.386,2.055,2.055,0,0,0,1.455.985,1.363,1.363,0,0,0,.78-.285,20.772,20.772,0,0,1,2.833-1.374c-2.053,4.745-3.509,7.39-4.73,8.661a2.074,2.074,0,0,0-.754,1.867c0,1.452.494,2.437,1.222,2.437s1.2-.648,2.391-3.4c.338-.83,1.767-4.253,4.236-10.269a7.1,7.1,0,0,1,2.287-.467c1.092,0,1.507.6,1.507,2.1a20.386,20.386,0,0,1-1.9,7.883c-.442.908-.806,1.245-1.352,1.245a12.516,12.516,0,0,1-3.743-1.478Zm11.176-10.865a6.852,6.852,0,0,1,3.561,3.76,8.242,8.242,0,0,1,.676,2.541c0,.233-.052.337-.182.415a26.859,26.859,0,0,1-3.821,1.141l.052.259c2.937.026,3.431.1,4,.622a1.577,1.577,0,0,0,1.144.519c1.144,0,1.819-.959,1.819-2.567a6.284,6.284,0,0,0-2-4.408,9.114,9.114,0,0,0-5.12-2.567Zm22.144,8.946c.13-2.541.676-3.4,3.067-4.823a9.651,9.651,0,0,0,2.469-1.789,4.088,4.088,0,0,0,1.118-2.93c0-2.9-2.391-4.693-6.264-4.693a9.328,9.328,0,0,0-3.431.57,4.787,4.787,0,0,0-3.379,4.3c0,.908.65,1.374,1.923,1.374,1.092,0,1.663-.415,1.663-1.219l-.026-1.011a4.988,4.988,0,0,1,.6-2.2,2.643,2.643,0,0,1,2.313-1.141c1.871,0,3.067,1.478,3.067,3.708a5.654,5.654,0,0,1-.494,2.36,8.844,8.844,0,0,1-1.611,2.152,6.049,6.049,0,0,0-2.053,4.693,6.343,6.343,0,0,0,.026.648Zm-.468,1.685a2.152,2.152,0,1,0,2.157,2.152A2.117,2.117,0,0,0,237.721,105.576Z" transform="translate(264.16 37.28)" fill="#fff"/></g></svg>